  0
SECTION
  2
HEADER
  9
$ACADVER
  1
AC2.10
  0
ENDSEC
  0
SECTION
  2
TABLES
  0
TABLE
  2
LAYER
 70
     8
  0
LAYER
  2
0
 62
     7
 70
0
  6
CONTINUOUS
  0
LAYER
  2
1
 62
     1
 70
0
  6
CONTINUOUS
  0
LAYER
  2
2
 62
     2
 70
0
  6
CONTINUOUS
  0
LAYER
  2
3
 62
     3
 70
0
  6
CONTINUOUS
  0
LAYER
  2
4
 62
     4
 70
0
  6
CONTINUOUS
  0
LAYER
  2
5
 62
     5
 70
0
  6
CONTINUOUS
  0
LAYER
  2
6
 62
     6
 70
0
  6
CONTINUOUS
  0
LAYER
  2
7
 62
     7
 70
0
  6
CONTINUOUS
  0
ENDTAB
  0
TABLE
  2
STYLE
 70
     1
  0
STYLE
 70
     0
  2
STANDARD
  3
TXT
 40
0.00
 41
1.00
 42
1.00
 50
0.00
 71
     0
  0
ENDTAB
  0
ENDSEC
  0
SECTION
  2
BLOCKS
  0
BLOCK
  8
0
  2
EPAD
 70
0
 10
0.0
 20
0.0
  0
POLYLINE
  8
0
 66
1
 70
1
 40
0.5
 41
0.5
  0
VERTEX
  8
0
 10
-0.25
 20
0.0
 42
1.0
  0
VERTEX
  8
0
 10
0.25
 20
0.0
 42
1.0
  0
SEQEND
  8
0
  0
ENDBLK
  8
0
  0
BLOCK
  8
0
  2
RPAD
 70
0
 10
0.0
 20
0.0
  0
TRACE
  8
0
 10
-0.5
 20
-0.5
 11
-0.5
 21
0.5
 12
0.5
 22
-0.5
 13
0.5
 23
0.5
  0
ENDBLK
  8
0
  0
ENDSEC
0
SECTION
2
ENTITIES
0
POLYLINE
8
0
66
1
40
0.025000
41
0.025000
0
VERTEX
8
0
10
-1.456000
20
-1.775000
0
VERTEX
8
0
10
-1.456000
20
-1.570000
0
VERTEX
8
0
10
-1.495000
20
-1.530000
0
VERTEX
8
0
10
-1.931000
20
-1.530000
0
VERTEX
8
0
10
-1.969000
20
-1.492000
0
VERTEX
8
0
10
-1.969000
20
-1.445000
0
VERTEX
8
0
10
-1.924000
20
-1.400000
0
VERTEX
8
0
10
-1.921000
20
-1.400000
0
SEQEND
8
0
0
POLYLINE
8
0
66
1
40
0.025000
41
0.025000
0
VERTEX
8
0
10
0.170000
20
-1.980000
0
VERTEX
8
0
10
0.244000
20
-2.055000
0
VERTEX
8
0
10
0.890000
20
-2.055000
0
VERTEX
8
0
10
0.985000
20
-1.960000
0
VERTEX
8
0
10
0.985000
20
-1.946000
0
SEQEND
8
0
0
POLYLINE
8
0
66
1
40
0.025000
41
0.025000
0
VERTEX
8
0
10
0.170000
20
-1.980000
0
VERTEX
8
0
10
0.170000
20
-1.926000
0
SEQEND
8
0
0
POLYLINE
8
0
66
1
40
0.025000
41
0.025000
0
VERTEX
8
0
10
0.464000
20
-1.579000
0
VERTEX
8
0
10
1.396000
20
-1.579000
0
SEQEND
8
0
0
POLYLINE
8
0
66
1
40
0.025000
41
0.025000
0
VERTEX
8
0
10
-0.064000
20
-1.054000
0
VERTEX
8
0
10
0.057000
20
-0.931000
0
VERTEX
8
0
10
0.065000
20
-0.931000
0
VERTEX
8
0
10
1.046000
20
-0.931000
0
VERTEX
8
0
10
1.279000
20
-1.165000
0
VERTEX
8
0
10
1.753000
20
-1.165000
0
VERTEX
8
0
10
1.828000
20
-1.090000
0
SEQEND
8
0
0
POLYLINE
8
0
66
1
40
0.025000
41
0.025000
0
VERTEX
8
0
10
-1.165000
20
-1.112000
0
VERTEX
8
0
10
-1.111000
20
-1.058000
0
VERTEX
8
0
10
-0.167000
20
-1.058000
0
VERTEX
8
0
10
0.026000
20
-0.864000
0
VERTEX
8
0
10
1.149000
20
-0.864000
0
VERTEX
8
0
10
1.304000
20
-0.710000
0
SEQEND
8
0
0
POLYLINE
8
0
66
1
40
0.025000
41
0.025000
0
VERTEX
8
0
10
-1.505000
20
-0.996000
0
VERTEX
8
0
10
-1.281000
20
-0.996000
0
VERTEX
8
0
10
-1.165000
20
-1.112000
0
VERTEX
8
0
10
-0.769000
20
-1.507000
0
VERTEX
8
0
10
-0.577000
20
-1.507000
0
VERTEX
8
0
10
-0.553000
20
-1.532000
0
VERTEX
8
0
10
-0.553000
20
-1.945000
0
VERTEX
8
0
10
-0.458000
20
-2.040000
0
VERTEX
8
0
10
0.111000
20
-2.040000
0
VERTEX
8
0
10
0.170000
20
-1.980000
0
SEQEND
8
0
0
POLYLINE
8
0
66
1
40
0.025000
41
0.025000
0
VERTEX
8
0
10
1.213000
20
-1.738000
0
VERTEX
8
0
10
0.125000
20
-1.738000
0
VERTEX
8
0
10
-0.207000
20
-1.405000
0
SEQEND
8
0
0
POLYLINE
8
0
66
1
40
0.025000
41
0.025000
0
VERTEX
8
0
10
1.828000
20
-1.710000
0
VERTEX
8
0
10
1.391000
20
-1.710000
0
VERTEX
8
0
10
1.344000
20
-1.662000
0
VERTEX
8
0
10
0.161000
20
-1.662000
0
VERTEX
8
0
10
-0.104000
20
-1.397000
0
SEQEND
8
0
0
POLYLINE
8
0
66
1
40
0.025000
41
0.025000
0
VERTEX
8
0
10
-1.596000
20
-0.756000
0
VERTEX
8
0
10
-1.596000
20
-0.683000
0
VERTEX
8
0
10
-1.547000
20
-0.634000
0
VERTEX
8
0
10
-1.274000
20
-0.634000
0
VERTEX
8
0
10
-1.253000
20
-0.655000
0
SEQEND
8
0
0
INSERT
8
0
2
EPAD
10
0.170000
20
-1.926000
41
0.070000
42
0.070000
0
CIRCLE
8
0
10
0.170000
20
-1.926000
40
0.025000
0
INSERT
8
0
2
EPAD
10
-1.456000
20
-1.775000
41
0.070000
42
0.070000
0
CIRCLE
8
0
10
-1.456000
20
-1.775000
40
0.025000
0
INSERT
8
0
2
EPAD
10
-1.921000
20
-1.400000
41
0.070000
42
0.070000
0
CIRCLE
8
0
10
-1.921000
20
-1.400000
40
0.025000
0
INSERT
8
0
2
EPAD
10
0.985000
20
-1.946000
41
0.070000
42
0.070000
0
CIRCLE
8
0
10
0.985000
20
-1.946000
40
0.025000
0
INSERT
8
0
2
EPAD
10
0.464000
20
-1.579000
41
0.070000
42
0.070000
0
CIRCLE
8
0
10
0.464000
20
-1.579000
40
0.025000
0
INSERT
8
0
2
EPAD
10
1.396000
20
-1.579000
41
0.070000
42
0.070000
0
CIRCLE
8
0
10
1.396000
20
-1.579000
40
0.025000
0
INSERT
8
0
2
EPAD
10
-0.064000
20
-1.054000
41
0.070000
42
0.070000
0
CIRCLE
8
0
10
-0.064000
20
-1.054000
40
0.025000
0
INSERT
8
0
2
EPAD
10
1.828000
20
-1.090000
41
0.070000
42
0.070000
0
CIRCLE
8
0
10
1.828000
20
-1.090000
40
0.025000
0
INSERT
8
0
2
EPAD
10
1.304000
20
-0.710000
41
0.070000
42
0.070000
0
CIRCLE
8
0
10
1.304000
20
-0.710000
40
0.025000
0
INSERT
8
0
2
EPAD
10
1.213000
20
-1.738000
41
0.070000
42
0.070000
0
CIRCLE
8
0
10
1.213000
20
-1.738000
40
0.025000
0
INSERT
8
0
2
EPAD
10
-0.207000
20
-1.405000
41
0.070000
42
0.070000
0
CIRCLE
8
0
10
-0.207000
20
-1.405000
40
0.025000
0
INSERT
8
0
2
EPAD
10
1.828000
20
-1.710000
41
0.070000
42
0.070000
0
CIRCLE
8
0
10
1.828000
20
-1.710000
40
0.025000
0
INSERT
8
0
2
EPAD
10
-0.104000
20
-1.397000
41
0.070000
42
0.070000
0
CIRCLE
8
0
10
-0.104000
20
-1.397000
40
0.025000
0
INSERT
8
0
2
EPAD
10
-1.253000
20
-0.655000
41
0.070000
42
0.070000
0
CIRCLE
8
0
10
-1.253000
20
-0.655000
40
0.025000
0
INSERT
8
0
2
EPAD
10
2.519000
20
1.099000
41
0.250000
42
0.250000
0
CIRCLE
8
0
10
2.519000
20
1.099000
40
0.030000
0
INSERT
8
0
2
EPAD
10
-2.528000
20
-1.973000
41
0.250000
42
0.250000
0
CIRCLE
8
0
10
-2.528000
20
-1.973000
40
0.030000
0
INSERT
8
0
2
EPAD
10
-1.854000
20
-0.320000
41
0.100000
42
0.100000
0
CIRCLE
8
0
10
-1.854000
20
-0.320000
40
0.025000
0
INSERT
8
0
2
EPAD
10
-2.054000
20
-0.520000
41
0.100000
42
0.100000
0
CIRCLE
8
0
10
-2.054000
20
-0.520000
40
0.025000
0
INSERT
8
0
2
EPAD
10
-2.054000
20
-0.320000
41
0.100000
42
0.100000
0
CIRCLE
8
0
10
-2.054000
20
-0.320000
40
0.025000
0
INSERT
8
0
2
EPAD
10
-1.854000
20
-0.520000
41
0.100000
42
0.100000
0
CIRCLE
8
0
10
-1.854000
20
-0.520000
40
0.025000
0
INSERT
8
0
2
EPAD
10
-1.565000
20
-0.417000
41
0.100000
42
0.100000
0
CIRCLE
8
0
10
-1.565000
20
-0.417000
40
0.025000
0
INSERT
8
0
2
EPAD
10
-1.365000
20
-0.417000
41
0.100000
42
0.100000
0
CIRCLE
8
0
10
-1.365000
20
-0.417000
40
0.025000
0
INSERT
8
0
2
EPAD
10
-2.449000
20
-0.581000
41
0.120000
42
0.120000
0
CIRCLE
8
0
10
-2.449000
20
-0.581000
40
0.030000
0
INSERT
8
0
2
EPAD
10
-2.449000
20
-0.381000
41
0.120000
42
0.120000
0
CIRCLE
8
0
10
-2.449000
20
-0.381000
40
0.030000
0
INSERT
8
0
2
EPAD
10
-1.219000
20
-1.337000
41
0.150000
42
0.150000
0
CIRCLE
8
0
10
-1.219000
20
-1.337000
40
0.030000
0
INSERT
8
0
2
EPAD
10
-2.203000
20
-1.337000
41
0.150000
42
0.150000
0
CIRCLE
8
0
10
-2.203000
20
-1.337000
40
0.030000
0
INSERT
8
0
2
RPAD
10
-1.615000
20
-1.202000
41
0.080000
42
0.080000
50
180.000000
0
CIRCLE
8
0
10
-1.615000
20
-1.202000
40
0.025000
0
INSERT
8
0
2
RPAD
10
-1.715000
20
-1.202000
41
0.080000
42
0.080000
50
180.000000
0
CIRCLE
8
0
10
-1.715000
20
-1.202000
40
0.025000
0
INSERT
8
0
2
RPAD
10
-1.815000
20
-1.202000
41
0.080000
42
0.080000
50
180.000000
0
CIRCLE
8
0
10
-1.815000
20
-1.202000
40
0.025000
0
INSERT
8
0
2
EPAD
10
-1.905000
20
-0.996000
41
0.090000
42
0.090000
0
CIRCLE
8
0
10
-1.905000
20
-0.996000
40
0.025000
0
INSERT
8
0
2
EPAD
10
-1.505000
20
-0.996000
41
0.090000
42
0.090000
0
CIRCLE
8
0
10
-1.505000
20
-0.996000
40
0.025000
0
INSERT
8
0
2
EPAD
10
-1.334000
20
-0.771000
41
0.080000
42
0.080000
0
CIRCLE
8
0
10
-1.334000
20
-0.771000
40
0.025000
0
INSERT
8
0
2
EPAD
10
-1.434000
20
-0.771000
41
0.080000
42
0.080000
0
CIRCLE
8
0
10
-1.434000
20
-0.771000
40
0.025000
0
INSERT
8
0
2
EPAD
10
-1.151000
20
-0.981000
41
0.070000
42
0.070000
0
CIRCLE
8
0
10
-1.151000
20
-0.981000
40
0.025000
0
INSERT
8
0
2
EPAD
10
-1.151000
20
-0.781000
41
0.070000
42
0.070000
0
CIRCLE
8
0
10
-1.151000
20
-0.781000
40
0.025000
0
INSERT
8
0
2
EPAD
10
-1.596000
20
-0.756000
41
0.070000
42
0.070000
0
CIRCLE
8
0
10
-1.596000
20
-0.756000
40
0.025000
0
INSERT
8
0
2
EPAD
10
-1.996000
20
-0.756000
41
0.070000
42
0.070000
0
CIRCLE
8
0
10
-1.996000
20
-0.756000
40
0.025000
0
INSERT
8
0
2
RPAD
10
-2.147000
20
-0.868000
41
0.080000
42
0.080000
50
180.000000
0
CIRCLE
8
0
10
-2.147000
20
-0.868000
40
0.025000
0
INSERT
8
0
2
RPAD
10
-2.247000
20
-0.868000
41
0.080000
42
0.080000
50
180.000000
0
CIRCLE
8
0
10
-2.247000
20
-0.868000
40
0.025000
0
INSERT
8
0
2
EPAD
10
1.209000
20
-1.830000
41
0.120000
42
0.120000
0
CIRCLE
8
0
10
1.209000
20
-1.830000
40
0.030000
0
INSERT
8
0
2
EPAD
10
1.409000
20
-1.830000
41
0.120000
42
0.120000
0
CIRCLE
8
0
10
1.409000
20
-1.830000
40
0.030000
0
INSERT
8
0
2
EPAD
10
1.609000
20
-1.830000
41
0.120000
42
0.120000
0
CIRCLE
8
0
10
1.609000
20
-1.830000
40
0.030000
0
INSERT
8
0
2
EPAD
10
1.831000
20
-1.832000
41
0.120000
42
0.120000
0
CIRCLE
8
0
10
1.831000
20
-1.832000
40
0.030000
0
INSERT
8
0
2
EPAD
10
2.031000
20
-1.832000
41
0.120000
42
0.120000
0
CIRCLE
8
0
10
2.031000
20
-1.832000
40
0.030000
0
INSERT
8
0
2
EPAD
10
2.231000
20
-1.832000
41
0.120000
42
0.120000
0
CIRCLE
8
0
10
2.231000
20
-1.832000
40
0.030000
0
INSERT
8
0
2
EPAD
10
2.065000
20
1.871000
41
0.120000
42
0.120000
0
CIRCLE
8
0
10
2.065000
20
1.871000
40
0.030000
0
INSERT
8
0
2
EPAD
10
2.265000
20
1.871000
41
0.120000
42
0.120000
0
CIRCLE
8
0
10
2.265000
20
1.871000
40
0.030000
0
INSERT
8
0
2
EPAD
10
2.465000
20
1.871000
41
0.120000
42
0.120000
0
CIRCLE
8
0
10
2.465000
20
1.871000
40
0.030000
0
INSERT
8
0
2
EPAD
10
1.327000
20
1.872000
41
0.120000
42
0.120000
0
CIRCLE
8
0
10
1.327000
20
1.872000
40
0.030000
0
INSERT
8
0
2
EPAD
10
1.527000
20
1.872000
41
0.120000
42
0.120000
0
CIRCLE
8
0
10
1.527000
20
1.872000
40
0.030000
0
INSERT
8
0
2
EPAD
10
1.727000
20
1.872000
41
0.120000
42
0.120000
0
CIRCLE
8
0
10
1.727000
20
1.872000
40
0.030000
0
INSERT
8
0
2
EPAD
10
0.585000
20
1.872000
41
0.120000
42
0.120000
0
CIRCLE
8
0
10
0.585000
20
1.872000
40
0.030000
0
INSERT
8
0
2
EPAD
10
0.785000
20
1.872000
41
0.120000
42
0.120000
0
CIRCLE
8
0
10
0.785000
20
1.872000
40
0.030000
0
INSERT
8
0
2
EPAD
10
0.985000
20
1.872000
41
0.120000
42
0.120000
0
CIRCLE
8
0
10
0.985000
20
1.872000
40
0.030000
0
INSERT
8
0
2
EPAD
10
-0.157000
20
1.872000
41
0.120000
42
0.120000
0
CIRCLE
8
0
10
-0.157000
20
1.872000
40
0.030000
0
INSERT
8
0
2
EPAD
10
0.042000
20
1.872000
41
0.120000
42
0.120000
0
CIRCLE
8
0
10
0.042000
20
1.872000
40
0.030000
0
INSERT
8
0
2
EPAD
10
0.242000
20
1.872000
41
0.120000
42
0.120000
0
CIRCLE
8
0
10
0.242000
20
1.872000
40
0.030000
0
INSERT
8
0
2
EPAD
10
-0.895000
20
1.871000
41
0.120000
42
0.120000
0
CIRCLE
8
0
10
-0.895000
20
1.871000
40
0.030000
0
INSERT
8
0
2
EPAD
10
-0.695000
20
1.871000
41
0.120000
42
0.120000
0
CIRCLE
8
0
10
-0.695000
20
1.871000
40
0.030000
0
INSERT
8
0
2
EPAD
10
-0.495000
20
1.871000
41
0.120000
42
0.120000
0
CIRCLE
8
0
10
-0.495000
20
1.871000
40
0.030000
0
INSERT
8
0
2
EPAD
10
-1.636000
20
1.869000
41
0.120000
42
0.120000
0
CIRCLE
8
0
10
-1.636000
20
1.869000
40
0.030000
0
INSERT
8
0
2
EPAD
10
-1.436000
20
1.869000
41
0.120000
42
0.120000
0
CIRCLE
8
0
10
-1.436000
20
1.869000
40
0.030000
0
INSERT
8
0
2
EPAD
10
-1.236000
20
1.869000
41
0.120000
42
0.120000
0
CIRCLE
8
0
10
-1.236000
20
1.869000
40
0.030000
0
INSERT
8
0
2
EPAD
10
-2.465000
20
0.261000
41
0.120000
42
0.120000
0
CIRCLE
8
0
10
-2.465000
20
0.261000
40
0.030000
0
INSERT
8
0
2
EPAD
10
-2.465000
20
0.461000
41
0.120000
42
0.120000
0
CIRCLE
8
0
10
-2.465000
20
0.461000
40
0.030000
0
INSERT
8
0
2
EPAD
10
-2.465000
20
0.661000
41
0.120000
42
0.120000
0
CIRCLE
8
0
10
-2.465000
20
0.661000
40
0.030000
0
INSERT
8
0
2
EPAD
10
1.950000
20
1.464000
41
0.080000
42
0.080000
0
CIRCLE
8
0
10
1.950000
20
1.464000
40
0.025000
0
INSERT
8
0
2
EPAD
10
2.550000
20
1.464000
41
0.080000
42
0.080000
0
CIRCLE
8
0
10
2.550000
20
1.464000
40
0.025000
0
INSERT
8
0
2
EPAD
10
2.502000
20
1.284000
41
0.070000
42
0.070000
0
CIRCLE
8
0
10
2.502000
20
1.284000
40
0.025000
0
INSERT
8
0
2
EPAD
10
2.002000
20
1.284000
41
0.070000
42
0.070000
0
CIRCLE
8
0
10
2.002000
20
1.284000
40
0.025000
0
INSERT
8
0
2
RPAD
10
2.290000
20
1.078000
41
0.080000
42
0.080000
50
180.000000
0
CIRCLE
8
0
10
2.290000
20
1.078000
40
0.025000
0
INSERT
8
0
2
RPAD
10
2.190000
20
1.078000
41
0.080000
42
0.080000
50
180.000000
0
CIRCLE
8
0
10
2.190000
20
1.078000
40
0.025000
0
INSERT
8
0
2
RPAD
10
2.090000
20
1.078000
41
0.080000
42
0.080000
50
180.000000
0
CIRCLE
8
0
10
2.090000
20
1.078000
40
0.025000
0
INSERT
8
0
2
RPAD
10
2.088000
20
0.517000
41
0.050000
42
0.050000
50
0.000000
0
CIRCLE
8
0
10
2.088000
20
0.517000
40
0.030000
0
INSERT
8
0
2
EPAD
10
2.188000
20
0.517000
41
0.050000
42
0.050000
0
CIRCLE
8
0
10
2.188000
20
0.517000
40
0.030000
0
INSERT
8
0
2
EPAD
10
2.288000
20
0.517000
41
0.050000
42
0.050000
0
CIRCLE
8
0
10
2.288000
20
0.517000
40
0.030000
0
INSERT
8
0
2
EPAD
10
2.288000
20
0.817000
41
0.050000
42
0.050000
0
CIRCLE
8
0
10
2.288000
20
0.817000
40
0.030000
0
INSERT
8
0
2
EPAD
10
2.188000
20
0.817000
41
0.050000
42
0.050000
0
CIRCLE
8
0
10
2.188000
20
0.817000
40
0.030000
0
INSERT
8
0
2
EPAD
10
2.088000
20
0.817000
41
0.050000
42
0.050000
0
CIRCLE
8
0
10
2.088000
20
0.817000
40
0.030000
0
INSERT
8
0
2
EPAD
10
2.523000
20
0.846000
41
0.070000
42
0.070000
0
CIRCLE
8
0
10
2.523000
20
0.846000
40
0.025000
0
INSERT
8
0
2
EPAD
10
2.523000
20
0.446000
41
0.070000
42
0.070000
0
CIRCLE
8
0
10
2.523000
20
0.446000
40
0.025000
0
INSERT
8
0
2
EPAD
10
1.210000
20
1.462000
41
0.080000
42
0.080000
0
CIRCLE
8
0
10
1.210000
20
1.462000
40
0.025000
0
INSERT
8
0
2
EPAD
10
1.810000
20
1.462000
41
0.080000
42
0.080000
0
CIRCLE
8
0
10
1.810000
20
1.462000
40
0.025000
0
INSERT
8
0
2
EPAD
10
1.775000
20
1.288000
41
0.070000
42
0.070000
0
CIRCLE
8
0
10
1.775000
20
1.288000
40
0.025000
0
INSERT
8
0
2
EPAD
10
1.275000
20
1.288000
41
0.070000
42
0.070000
0
CIRCLE
8
0
10
1.275000
20
1.288000
40
0.025000
0
INSERT
8
0
2
RPAD
10
1.647000
20
1.077000
41
0.080000
42
0.080000
50
180.000000
0
CIRCLE
8
0
10
1.647000
20
1.077000
40
0.025000
0
INSERT
8
0
2
RPAD
10
1.547000
20
1.077000
41
0.080000
42
0.080000
50
180.000000
0
CIRCLE
8
0
10
1.547000
20
1.077000
40
0.025000
0
INSERT
8
0
2
RPAD
10
1.447000
20
1.077000
41
0.080000
42
0.080000
50
180.000000
0
CIRCLE
8
0
10
1.447000
20
1.077000
40
0.025000
0
INSERT
8
0
2
RPAD
10
1.443000
20
0.524000
41
0.050000
42
0.050000
50
0.000000
0
CIRCLE
8
0
10
1.443000
20
0.524000
40
0.030000
0
INSERT
8
0
2
EPAD
10
1.543000
20
0.524000
41
0.050000
42
0.050000
0
CIRCLE
8
0
10
1.543000
20
0.524000
40
0.030000
0
INSERT
8
0
2
EPAD
10
1.643000
20
0.524000
41
0.050000
42
0.050000
0
CIRCLE
8
0
10
1.643000
20
0.524000
40
0.030000
0
INSERT
8
0
2
EPAD
10
1.643000
20
0.824000
41
0.050000
42
0.050000
0
CIRCLE
8
0
10
1.643000
20
0.824000
40
0.030000
0
INSERT
8
0
2
EPAD
10
1.543000
20
0.824000
41
0.050000
42
0.050000
0
CIRCLE
8
0
10
1.543000
20
0.824000
40
0.030000
0
INSERT
8
0
2
EPAD
10
1.443000
20
0.824000
41
0.050000
42
0.050000
0
CIRCLE
8
0
10
1.443000
20
0.824000
40
0.030000
0
INSERT
8
0
2
EPAD
10
1.832000
20
1.077000
41
0.070000
42
0.070000
0
CIRCLE
8
0
10
1.832000
20
1.077000
40
0.025000
0
INSERT
8
0
2
EPAD
10
1.832000
20
0.677000
41
0.070000
42
0.070000
0
CIRCLE
8
0
10
1.832000
20
0.677000
40
0.025000
0
INSERT
8
0
2
EPAD
10
-0.282000
20
1.463000
41
0.080000
42
0.080000
0
CIRCLE
8
0
10
-0.282000
20
1.463000
40
0.025000
0
INSERT
8
0
2
EPAD
10
0.317000
20
1.463000
41
0.080000
42
0.080000
0
CIRCLE
8
0
10
0.317000
20
1.463000
40
0.025000
0
INSERT
8
0
2
EPAD
10
0.268000
20
1.291000
41
0.070000
42
0.070000
0
CIRCLE
8
0
10
0.268000
20
1.291000
40
0.025000
0
INSERT
8
0
2
EPAD
10
-0.231000
20
1.291000
41
0.070000
42
0.070000
0
CIRCLE
8
0
10
-0.231000
20
1.291000
40
0.025000
0
INSERT
8
0
2
RPAD
10
0.140000
20
1.080000
41
0.080000
42
0.080000
50
180.000000
0
CIRCLE
8
0
10
0.140000
20
1.080000
40
0.025000
0
INSERT
8
0
2
RPAD
10
0.040000
20
1.080000
41
0.080000
42
0.080000
50
180.000000
0
CIRCLE
8
0
10
0.040000
20
1.080000
40
0.025000
0
INSERT
8
0
2
RPAD
10
-0.059000
20
1.080000
41
0.080000
42
0.080000
50
180.000000
0
CIRCLE
8
0
10
-0.059000
20
1.080000
40
0.025000
0
INSERT
8
0
2
RPAD
10
-0.068000
20
0.525000
41
0.050000
42
0.050000
50
0.000000
0
CIRCLE
8
0
10
-0.068000
20
0.525000
40
0.030000
0
INSERT
8
0
2
EPAD
10
0.031000
20
0.525000
41
0.050000
42
0.050000
0
CIRCLE
8
0
10
0.031000
20
0.525000
40
0.030000
0
INSERT
8
0
2
EPAD
10
0.131000
20
0.525000
41
0.050000
42
0.050000
0
CIRCLE
8
0
10
0.131000
20
0.525000
40
0.030000
0
INSERT
8
0
2
EPAD
10
0.131000
20
0.825000
41
0.050000
42
0.050000
0
CIRCLE
8
0
10
0.131000
20
0.825000
40
0.030000
0
INSERT
8
0
2
EPAD
10
0.031000
20
0.825000
41
0.050000
42
0.050000
0
CIRCLE
8
0
10
0.031000
20
0.825000
40
0.030000
0
INSERT
8
0
2
EPAD
10
-0.068000
20
0.825000
41
0.050000
42
0.050000
0
CIRCLE
8
0
10
-0.068000
20
0.825000
40
0.030000
0
INSERT
8
0
2
EPAD
10
0.322000
20
1.081000
41
0.070000
42
0.070000
0
CIRCLE
8
0
10
0.322000
20
1.081000
40
0.025000
0
INSERT
8
0
2
EPAD
10
0.322000
20
0.681000
41
0.070000
42
0.070000
0
CIRCLE
8
0
10
0.322000
20
0.681000
40
0.025000
0
INSERT
8
0
2
EPAD
10
1.063000
20
1.461000
41
0.080000
42
0.080000
0
CIRCLE
8
0
10
1.063000
20
1.461000
40
0.025000
0
INSERT
8
0
2
EPAD
10
0.463000
20
1.461000
41
0.080000
42
0.080000
0
CIRCLE
8
0
10
0.463000
20
1.461000
40
0.025000
0
INSERT
8
0
2
EPAD
10
1.017000
20
1.285000
41
0.070000
42
0.070000
0
CIRCLE
8
0
10
1.017000
20
1.285000
40
0.025000
0
INSERT
8
0
2
EPAD
10
0.517000
20
1.285000
41
0.070000
42
0.070000
0
CIRCLE
8
0
10
0.517000
20
1.285000
40
0.025000
0
INSERT
8
0
2
RPAD
10
0.894000
20
1.077000
41
0.080000
42
0.080000
50
180.000000
0
CIRCLE
8
0
10
0.894000
20
1.077000
40
0.025000
0
INSERT
8
0
2
RPAD
10
0.794000
20
1.077000
41
0.080000
42
0.080000
50
180.000000
0
CIRCLE
8
0
10
0.794000
20
1.077000
40
0.025000
0
INSERT
8
0
2
RPAD
10
0.694000
20
1.077000
41
0.080000
42
0.080000
50
180.000000
0
CIRCLE
8
0
10
0.694000
20
1.077000
40
0.025000
0
INSERT
8
0
2
RPAD
10
0.683000
20
0.524000
41
0.050000
42
0.050000
50
0.000000
0
CIRCLE
8
0
10
0.683000
20
0.524000
40
0.030000
0
INSERT
8
0
2
EPAD
10
0.783000
20
0.524000
41
0.050000
42
0.050000
0
CIRCLE
8
0
10
0.783000
20
0.524000
40
0.030000
0
INSERT
8
0
2
EPAD
10
0.883000
20
0.524000
41
0.050000
42
0.050000
0
CIRCLE
8
0
10
0.883000
20
0.524000
40
0.030000
0
INSERT
8
0
2
EPAD
10
0.883000
20
0.824000
41
0.050000
42
0.050000
0
CIRCLE
8
0
10
0.883000
20
0.824000
40
0.030000
0
INSERT
8
0
2
EPAD
10
0.783000
20
0.824000
41
0.050000
42
0.050000
0
CIRCLE
8
0
10
0.783000
20
0.824000
40
0.030000
0
INSERT
8
0
2
EPAD
10
0.683000
20
0.824000
41
0.050000
42
0.050000
0
CIRCLE
8
0
10
0.683000
20
0.824000
40
0.030000
0
INSERT
8
0
2
EPAD
10
1.074000
20
1.074000
41
0.070000
42
0.070000
0
CIRCLE
8
0
10
1.074000
20
1.074000
40
0.025000
0
INSERT
8
0
2
EPAD
10
1.074000
20
0.674000
41
0.070000
42
0.070000
0
CIRCLE
8
0
10
1.074000
20
0.674000
40
0.025000
0
INSERT
8
0
2
EPAD
10
-1.033000
20
1.464000
41
0.080000
42
0.080000
0
CIRCLE
8
0
10
-1.033000
20
1.464000
40
0.025000
0
INSERT
8
0
2
EPAD
10
-0.433000
20
1.464000
41
0.080000
42
0.080000
0
CIRCLE
8
0
10
-0.433000
20
1.464000
40
0.025000
0
INSERT
8
0
2
EPAD
10
-0.482000
20
1.294000
41
0.070000
42
0.070000
0
CIRCLE
8
0
10
-0.482000
20
1.294000
40
0.025000
0
INSERT
8
0
2
EPAD
10
-0.982000
20
1.294000
41
0.070000
42
0.070000
0
CIRCLE
8
0
10
-0.982000
20
1.294000
40
0.025000
0
INSERT
8
0
2
RPAD
10
-0.614000
20
1.078000
41
0.080000
42
0.080000
50
180.000000
0
CIRCLE
8
0
10
-0.614000
20
1.078000
40
0.025000
0
INSERT
8
0
2
RPAD
10
-0.714000
20
1.078000
41
0.080000
42
0.080000
50
180.000000
0
CIRCLE
8
0
10
-0.714000
20
1.078000
40
0.025000
0
INSERT
8
0
2
RPAD
10
-0.814000
20
1.078000
41
0.080000
42
0.080000
50
180.000000
0
CIRCLE
8
0
10
-0.814000
20
1.078000
40
0.025000
0
INSERT
8
0
2
RPAD
10
-0.825000
20
0.519000
41
0.050000
42
0.050000
50
0.000000
0
CIRCLE
8
0
10
-0.825000
20
0.519000
40
0.030000
0
INSERT
8
0
2
EPAD
10
-0.725000
20
0.519000
41
0.050000
42
0.050000
0
CIRCLE
8
0
10
-0.725000
20
0.519000
40
0.030000
0
INSERT
8
0
2
EPAD
10
-0.625000
20
0.519000
41
0.050000
42
0.050000
0
CIRCLE
8
0
10
-0.625000
20
0.519000
40
0.030000
0
INSERT
8
0
2
EPAD
10
-0.625000
20
0.819000
41
0.050000
42
0.050000
0
CIRCLE
8
0
10
-0.625000
20
0.819000
40
0.030000
0
INSERT
8
0
2
EPAD
10
-0.725000
20
0.819000
41
0.050000
42
0.050000
0
CIRCLE
8
0
10
-0.725000
20
0.819000
40
0.030000
0
INSERT
8
0
2
EPAD
10
-0.825000
20
0.819000
41
0.050000
42
0.050000
0
CIRCLE
8
0
10
-0.825000
20
0.819000
40
0.030000
0
INSERT
8
0
2
EPAD
10
-0.448000
20
1.078000
41
0.070000
42
0.070000
0
CIRCLE
8
0
10
-0.448000
20
1.078000
40
0.025000
0
INSERT
8
0
2
EPAD
10
-0.448000
20
0.678000
41
0.070000
42
0.070000
0
CIRCLE
8
0
10
-0.448000
20
0.678000
40
0.025000
0
INSERT
8
0
2
EPAD
10
-1.780000
20
1.465000
41
0.080000
42
0.080000
0
CIRCLE
8
0
10
-1.780000
20
1.465000
40
0.025000
0
INSERT
8
0
2
EPAD
10
-1.180000
20
1.465000
41
0.080000
42
0.080000
0
CIRCLE
8
0
10
-1.180000
20
1.465000
40
0.025000
0
INSERT
8
0
2
EPAD
10
-1.224000
20
1.299000
41
0.070000
42
0.070000
0
CIRCLE
8
0
10
-1.224000
20
1.299000
40
0.025000
0
INSERT
8
0
2
EPAD
10
-1.724000
20
1.299000
41
0.070000
42
0.070000
0
CIRCLE
8
0
10
-1.724000
20
1.299000
40
0.025000
0
INSERT
8
0
2
RPAD
10
-1.349000
20
1.078000
41
0.080000
42
0.080000
50
180.000000
0
CIRCLE
8
0
10
-1.349000
20
1.078000
40
0.025000
0
INSERT
8
0
2
RPAD
10
-1.449000
20
1.078000
41
0.080000
42
0.080000
50
180.000000
0
CIRCLE
8
0
10
-1.449000
20
1.078000
40
0.025000
0
INSERT
8
0
2
RPAD
10
-1.549000
20
1.078000
41
0.080000
42
0.080000
50
180.000000
0
CIRCLE
8
0
10
-1.549000
20
1.078000
40
0.025000
0
INSERT
8
0
2
RPAD
10
-1.568000
20
0.524000
41
0.050000
42
0.050000
50
0.000000
0
CIRCLE
8
0
10
-1.568000
20
0.524000
40
0.030000
0
INSERT
8
0
2
EPAD
10
-1.468000
20
0.524000
41
0.050000
42
0.050000
0
CIRCLE
8
0
10
-1.468000
20
0.524000
40
0.030000
0
INSERT
8
0
2
EPAD
10
-1.368000
20
0.524000
41
0.050000
42
0.050000
0
CIRCLE
8
0
10
-1.368000
20
0.524000
40
0.030000
0
INSERT
8
0
2
EPAD
10
-1.368000
20
0.824000
41
0.050000
42
0.050000
0
CIRCLE
8
0
10
-1.368000
20
0.824000
40
0.030000
0
INSERT
8
0
2
EPAD
10
-1.468000
20
0.824000
41
0.050000
42
0.050000
0
CIRCLE
8
0
10
-1.468000
20
0.824000
40
0.030000
0
INSERT
8
0
2
EPAD
10
-1.568000
20
0.824000
41
0.050000
42
0.050000
0
CIRCLE
8
0
10
-1.568000
20
0.824000
40
0.030000
0
INSERT
8
0
2
EPAD
10
-1.158000
20
1.082000
41
0.070000
42
0.070000
0
CIRCLE
8
0
10
-1.158000
20
1.082000
40
0.025000
0
INSERT
8
0
2
EPAD
10
-1.158000
20
0.682000
41
0.070000
42
0.070000
0
CIRCLE
8
0
10
-1.158000
20
0.682000
40
0.025000
0
INSERT
8
0
2
RPAD
10
-0.799000
20
-1.257000
41
0.050000
42
0.050000
50
0.000000
0
CIRCLE
8
0
10
-0.799000
20
-1.257000
40
0.030000
0
INSERT
8
0
2
EPAD
10
-0.699000
20
-1.257000
41
0.050000
42
0.050000
0
CIRCLE
8
0
10
-0.699000
20
-1.257000
40
0.030000
0
INSERT
8
0
2
EPAD
10
-0.599000
20
-1.257000
41
0.050000
42
0.050000
0
CIRCLE
8
0
10
-0.599000
20
-1.257000
40
0.030000
0
INSERT
8
0
2
EPAD
10
-0.499000
20
-1.257000
41
0.050000
42
0.050000
0
CIRCLE
8
0
10
-0.499000
20
-1.257000
40
0.030000
0
INSERT
8
0
2
EPAD
10
-0.399000
20
-1.257000
41
0.050000
42
0.050000
0
CIRCLE
8
0
10
-0.399000
20
-1.257000
40
0.030000
0
INSERT
8
0
2
EPAD
10
-0.299000
20
-1.257000
41
0.050000
42
0.050000
0
CIRCLE
8
0
10
-0.299000
20
-1.257000
40
0.030000
0
INSERT
8
0
2
EPAD
10
-0.199000
20
-1.257000
41
0.050000
42
0.050000
0
CIRCLE
8
0
10
-0.199000
20
-1.257000
40
0.030000
0
INSERT
8
0
2
EPAD
10
-0.099000
20
-1.257000
41
0.050000
42
0.050000
0
CIRCLE
8
0
10
-0.099000
20
-1.257000
40
0.030000
0
INSERT
8
0
2
EPAD
10
0.000000
20
-1.257000
41
0.050000
42
0.050000
0
CIRCLE
8
0
10
0.000000
20
-1.257000
40
0.030000
0
INSERT
8
0
2
EPAD
10
0.100000
20
-1.257000
41
0.050000
42
0.050000
0
CIRCLE
8
0
10
0.100000
20
-1.257000
40
0.030000
0
INSERT
8
0
2
EPAD
10
0.200000
20
-1.257000
41
0.050000
42
0.050000
0
CIRCLE
8
0
10
0.200000
20
-1.257000
40
0.030000
0
INSERT
8
0
2
EPAD
10
0.300000
20
-1.257000
41
0.050000
42
0.050000
0
CIRCLE
8
0
10
0.300000
20
-1.257000
40
0.030000
0
INSERT
8
0
2
EPAD
10
0.400000
20
-1.257000
41
0.050000
42
0.050000
0
CIRCLE
8
0
10
0.400000
20
-1.257000
40
0.030000
0
INSERT
8
0
2
EPAD
10
0.500000
20
-1.257000
41
0.050000
42
0.050000
0
CIRCLE
8
0
10
0.500000
20
-1.257000
40
0.030000
0
INSERT
8
0
2
EPAD
10
0.600000
20
-1.257000
41
0.050000
42
0.050000
0
CIRCLE
8
0
10
0.600000
20
-1.257000
40
0.030000
0
INSERT
8
0
2
EPAD
10
0.700000
20
-1.257000
41
0.050000
42
0.050000
0
CIRCLE
8
0
10
0.700000
20
-1.257000
40
0.030000
0
INSERT
8
0
2
EPAD
10
0.800000
20
-1.257000
41
0.050000
42
0.050000
0
CIRCLE
8
0
10
0.800000
20
-1.257000
40
0.030000
0
INSERT
8
0
2
EPAD
10
0.900000
20
-1.257000
41
0.050000
42
0.050000
0
CIRCLE
8
0
10
0.900000
20
-1.257000
40
0.030000
0
INSERT
8
0
2
EPAD
10
1.000000
20
-1.257000
41
0.050000
42
0.050000
0
CIRCLE
8
0
10
1.000000
20
-1.257000
40
0.030000
0
INSERT
8
0
2
EPAD
10
1.100000
20
-1.257000
41
0.050000
42
0.050000
0
CIRCLE
8
0
10
1.100000
20
-1.257000
40
0.030000
0
INSERT
8
0
2
EPAD
10
1.100000
20
-0.657000
41
0.050000
42
0.050000
0
CIRCLE
8
0
10
1.100000
20
-0.657000
40
0.030000
0
INSERT
8
0
2
EPAD
10
1.000000
20
-0.657000
41
0.050000
42
0.050000
0
CIRCLE
8
0
10
1.000000
20
-0.657000
40
0.030000
0
INSERT
8
0
2
EPAD
10
0.900000
20
-0.657000
41
0.050000
42
0.050000
0
CIRCLE
8
0
10
0.900000
20
-0.657000
40
0.030000
0
INSERT
8
0
2
EPAD
10
0.800000
20
-0.657000
41
0.050000
42
0.050000
0
CIRCLE
8
0
10
0.800000
20
-0.657000
40
0.030000
0
INSERT
8
0
2
EPAD
10
0.700000
20
-0.657000
41
0.050000
42
0.050000
0
CIRCLE
8
0
10
0.700000
20
-0.657000
40
0.030000
0
INSERT
8
0
2
EPAD
10
0.600000
20
-0.657000
41
0.050000
42
0.050000
0
CIRCLE
8
0
10
0.600000
20
-0.657000
40
0.030000
0
INSERT
8
0
2
EPAD
10
0.500000
20
-0.657000
41
0.050000
42
0.050000
0
CIRCLE
8
0
10
0.500000
20
-0.657000
40
0.030000
0
INSERT
8
0
2
EPAD
10
0.400000
20
-0.657000
41
0.050000
42
0.050000
0
CIRCLE
8
0
10
0.400000
20
-0.657000
40
0.030000
0
INSERT
8
0
2
EPAD
10
0.300000
20
-0.657000
41
0.050000
42
0.050000
0
CIRCLE
8
0
10
0.300000
20
-0.657000
40
0.030000
0
INSERT
8
0
2
EPAD
10
0.200000
20
-0.657000
41
0.050000
42
0.050000
0
CIRCLE
8
0
10
0.200000
20
-0.657000
40
0.030000
0
INSERT
8
0
2
EPAD
10
0.100000
20
-0.657000
41
0.050000
42
0.050000
0
CIRCLE
8
0
10
0.100000
20
-0.657000
40
0.030000
0
INSERT
8
0
2
EPAD
10
0.000000
20
-0.657000
41
0.050000
42
0.050000
0
CIRCLE
8
0
10
0.000000
20
-0.657000
40
0.030000
0
INSERT
8
0
2
EPAD
10
-0.099000
20
-0.657000
41
0.050000
42
0.050000
0
CIRCLE
8
0
10
-0.099000
20
-0.657000
40
0.030000
0
INSERT
8
0
2
EPAD
10
-0.199000
20
-0.657000
41
0.050000
42
0.050000
0
CIRCLE
8
0
10
-0.199000
20
-0.657000
40
0.030000
0
INSERT
8
0
2
EPAD
10
-0.299000
20
-0.657000
41
0.050000
42
0.050000
0
CIRCLE
8
0
10
-0.299000
20
-0.657000
40
0.030000
0
INSERT
8
0
2
EPAD
10
-0.399000
20
-0.657000
41
0.050000
42
0.050000
0
CIRCLE
8
0
10
-0.399000
20
-0.657000
40
0.030000
0
INSERT
8
0
2
EPAD
10
-0.499000
20
-0.657000
41
0.050000
42
0.050000
0
CIRCLE
8
0
10
-0.499000
20
-0.657000
40
0.030000
0
INSERT
8
0
2
EPAD
10
-0.599000
20
-0.657000
41
0.050000
42
0.050000
0
CIRCLE
8
0
10
-0.599000
20
-0.657000
40
0.030000
0
INSERT
8
0
2
EPAD
10
-0.699000
20
-0.657000
41
0.050000
42
0.050000
0
CIRCLE
8
0
10
-0.699000
20
-0.657000
40
0.030000
0
INSERT
8
0
2
EPAD
10
-0.799000
20
-0.657000
41
0.050000
42
0.050000
0
CIRCLE
8
0
10
-0.799000
20
-0.657000
40
0.030000
0
INSERT
8
0
2
EPAD
10
0.773000
20
-1.481000
41
0.070000
42
0.070000
0
CIRCLE
8
0
10
0.773000
20
-1.481000
40
0.025000
0
INSERT
8
0
2
EPAD
10
0.973000
20
-1.481000
41
0.070000
42
0.070000
0
CIRCLE
8
0
10
0.973000
20
-1.481000
40
0.025000
0
INSERT
8
0
2
EPAD
10
0.460000
20
-1.361000
41
0.070000
42
0.070000
0
CIRCLE
8
0
10
0.460000
20
-1.361000
40
0.025000
0
INSERT
8
0
2
EPAD
10
0.460000
20
-1.461000
41
0.070000
42
0.070000
0
CIRCLE
8
0
10
0.460000
20
-1.461000
40
0.025000
0
INSERT
8
0
2
EPAD
10
0.579000
20
-1.359000
41
0.070000
42
0.070000
0
CIRCLE
8
0
10
0.579000
20
-1.359000
40
0.025000
0
INSERT
8
0
2
EPAD
10
0.579000
20
-1.459000
41
0.070000
42
0.070000
0
CIRCLE
8
0
10
0.579000
20
-1.459000
40
0.025000
0
INSERT
8
0
2
EPAD
10
0.411000
20
-1.067000
41
0.080000
42
0.080000
0
CIRCLE
8
0
10
0.411000
20
-1.067000
40
0.025000
0
INSERT
8
0
2
EPAD
10
0.611000
20
-1.067000
41
0.080000
42
0.080000
0
CIRCLE
8
0
10
0.611000
20
-1.067000
40
0.025000
0
INSERT
8
0
2
EPAD
10
-2.414000
20
0.937000
41
0.250000
42
0.250000
0
CIRCLE
8
0
10
-2.414000
20
0.937000
40
0.030000
0
INSERT
8
0
2
EPAD
10
2.071000
20
0.149000
41
0.065000
42
0.065000
0
INSERT
8
0
2
EPAD
10
2.071000
20
0.023000
41
0.065000
42
0.065000
0
INSERT
8
0
2
EPAD
10
2.169000
20
0.023000
41
0.065000
42
0.065000
0
INSERT
8
0
2
EPAD
10
2.169000
20
0.149000
41
0.065000
42
0.065000
0
INSERT
8
0
2
EPAD
10
2.257000
20
-0.150000
41
0.120000
42
0.120000
0
INSERT
8
0
2
EPAD
10
2.257000
20
0.323000
41
0.120000
42
0.120000
0
INSERT
8
0
2
EPAD
10
1.108000
20
-0.112000
41
0.070000
42
0.070000
0
CIRCLE
8
0
10
1.108000
20
-0.112000
40
0.025000
0
INSERT
8
0
2
EPAD
10
1.108000
20
-0.512000
41
0.070000
42
0.070000
0
CIRCLE
8
0
10
1.108000
20
-0.512000
40
0.025000
0
INSERT
8
0
2
EPAD
10
0.981000
20
-0.112000
41
0.070000
42
0.070000
0
CIRCLE
8
0
10
0.981000
20
-0.112000
40
0.025000
0
INSERT
8
0
2
EPAD
10
0.981000
20
-0.512000
41
0.070000
42
0.070000
0
CIRCLE
8
0
10
0.981000
20
-0.512000
40
0.025000
0
INSERT
8
0
2
EPAD
10
0.702000
20
-0.112000
41
0.070000
42
0.070000
0
CIRCLE
8
0
10
0.702000
20
-0.112000
40
0.025000
0
INSERT
8
0
2
EPAD
10
0.702000
20
-0.512000
41
0.070000
42
0.070000
0
CIRCLE
8
0
10
0.702000
20
-0.512000
40
0.025000
0
INSERT
8
0
2
EPAD
10
0.575000
20
-0.112000
41
0.070000
42
0.070000
0
CIRCLE
8
0
10
0.575000
20
-0.112000
40
0.025000
0
INSERT
8
0
2
EPAD
10
0.575000
20
-0.512000
41
0.070000
42
0.070000
0
CIRCLE
8
0
10
0.575000
20
-0.512000
40
0.025000
0
INSERT
8
0
2
EPAD
10
0.451000
20
-0.112000
41
0.070000
42
0.070000
0
CIRCLE
8
0
10
0.451000
20
-0.112000
40
0.025000
0
INSERT
8
0
2
EPAD
10
0.451000
20
-0.512000
41
0.070000
42
0.070000
0
CIRCLE
8
0
10
0.451000
20
-0.512000
40
0.025000
0
INSERT
8
0
2
EPAD
10
0.329000
20
-0.112000
41
0.070000
42
0.070000
0
CIRCLE
8
0
10
0.329000
20
-0.112000
40
0.025000
0
INSERT
8
0
2
EPAD
10
0.329000
20
-0.512000
41
0.070000
42
0.070000
0
CIRCLE
8
0
10
0.329000
20
-0.512000
40
0.025000
0
INSERT
8
0
2
EPAD
10
0.163000
20
-1.830000
41
0.120000
42
0.120000
0
CIRCLE
8
0
10
0.163000
20
-1.830000
40
0.030000
0
INSERT
8
0
2
EPAD
10
-0.036000
20
-1.830000
41
0.120000
42
0.120000
0
CIRCLE
8
0
10
-0.036000
20
-1.830000
40
0.030000
0
INSERT
8
0
2
EPAD
10
-0.236000
20
-1.830000
41
0.120000
42
0.120000
0
CIRCLE
8
0
10
-0.236000
20
-1.830000
40
0.030000
0
INSERT
8
0
2
EPAD
10
-0.436000
20
-1.830000
41
0.120000
42
0.120000
0
CIRCLE
8
0
10
-0.436000
20
-1.830000
40
0.030000
0
INSERT
8
0
2
EPAD
10
0.990000
20
-1.830000
41
0.120000
42
0.120000
0
CIRCLE
8
0
10
0.990000
20
-1.830000
40
0.030000
0
INSERT
8
0
2
EPAD
10
0.790000
20
-1.830000
41
0.120000
42
0.120000
0
CIRCLE
8
0
10
0.790000
20
-1.830000
40
0.030000
0
INSERT
8
0
2
EPAD
10
0.590000
20
-1.830000
41
0.120000
42
0.120000
0
CIRCLE
8
0
10
0.590000
20
-1.830000
40
0.030000
0
INSERT
8
0
2
EPAD
10
0.390000
20
-1.830000
41
0.120000
42
0.120000
0
CIRCLE
8
0
10
0.390000
20
-1.830000
40
0.030000
0
INSERT
8
0
2
EPAD
10
2.429000
20
-0.579000
41
0.120000
42
0.120000
0
CIRCLE
8
0
10
2.429000
20
-0.579000
40
0.030000
0
INSERT
8
0
2
EPAD
10
2.429000
20
-0.779000
41
0.120000
42
0.120000
0
CIRCLE
8
0
10
2.429000
20
-0.779000
40
0.030000
0
INSERT
8
0
2
EPAD
10
2.429000
20
-0.979000
41
0.120000
42
0.120000
0
CIRCLE
8
0
10
2.429000
20
-0.979000
40
0.030000
0
INSERT
8
0
2
EPAD
10
2.429000
20
-1.179000
41
0.120000
42
0.120000
0
CIRCLE
8
0
10
2.429000
20
-1.179000
40
0.030000
0
INSERT
8
0
2
EPAD
10
2.429000
20
-1.379000
41
0.120000
42
0.120000
0
CIRCLE
8
0
10
2.429000
20
-1.379000
40
0.030000
0
INSERT
8
0
2
RPAD
10
1.533000
20
-0.397000
41
0.050000
42
0.050000
50
-90.000000
0
CIRCLE
8
0
10
1.533000
20
-0.397000
40
0.030000
0
INSERT
8
0
2
EPAD
10
1.533000
20
-0.497000
41
0.050000
42
0.050000
0
CIRCLE
8
0
10
1.533000
20
-0.497000
40
0.030000
0
INSERT
8
0
2
EPAD
10
1.533000
20
-0.597000
41
0.050000
42
0.050000
0
CIRCLE
8
0
10
1.533000
20
-0.597000
40
0.030000
0
INSERT
8
0
2
EPAD
10
1.533000
20
-0.697000
41
0.050000
42
0.050000
0
CIRCLE
8
0
10
1.533000
20
-0.697000
40
0.030000
0
INSERT
8
0
2
EPAD
10
1.533000
20
-0.797000
41
0.050000
42
0.050000
0
CIRCLE
8
0
10
1.533000
20
-0.797000
40
0.030000
0
INSERT
8
0
2
EPAD
10
1.533000
20
-0.897000
41
0.050000
42
0.050000
0
CIRCLE
8
0
10
1.533000
20
-0.897000
40
0.030000
0
INSERT
8
0
2
EPAD
10
1.533000
20
-0.997000
41
0.050000
42
0.050000
0
CIRCLE
8
0
10
1.533000
20
-0.997000
40
0.030000
0
INSERT
8
0
2
EPAD
10
1.833000
20
-0.997000
41
0.050000
42
0.050000
0
CIRCLE
8
0
10
1.833000
20
-0.997000
40
0.030000
0
INSERT
8
0
2
EPAD
10
1.833000
20
-0.897000
41
0.050000
42
0.050000
0
CIRCLE
8
0
10
1.833000
20
-0.897000
40
0.030000
0
INSERT
8
0
2
EPAD
10
1.833000
20
-0.797000
41
0.050000
42
0.050000
0
CIRCLE
8
0
10
1.833000
20
-0.797000
40
0.030000
0
INSERT
8
0
2
EPAD
10
1.833000
20
-0.697000
41
0.050000
42
0.050000
0
CIRCLE
8
0
10
1.833000
20
-0.697000
40
0.030000
0
INSERT
8
0
2
EPAD
10
1.833000
20
-0.597000
41
0.050000
42
0.050000
0
CIRCLE
8
0
10
1.833000
20
-0.597000
40
0.030000
0
INSERT
8
0
2
EPAD
10
1.833000
20
-0.497000
41
0.050000
42
0.050000
0
CIRCLE
8
0
10
1.833000
20
-0.497000
40
0.030000
0
INSERT
8
0
2
EPAD
10
1.833000
20
-0.397000
41
0.050000
42
0.050000
0
CIRCLE
8
0
10
1.833000
20
-0.397000
40
0.030000
0
INSERT
8
0
2
EPAD
10
1.355000
20
-1.296000
41
0.070000
42
0.070000
0
CIRCLE
8
0
10
1.355000
20
-1.296000
40
0.025000
0
INSERT
8
0
2
EPAD
10
1.755000
20
-1.296000
41
0.070000
42
0.070000
0
CIRCLE
8
0
10
1.755000
20
-1.296000
40
0.025000
0
INSERT
8
0
2
EPAD
10
1.884000
20
-1.294000
41
0.080000
42
0.080000
0
CIRCLE
8
0
10
1.884000
20
-1.294000
40
0.025000
0
INSERT
8
0
2
EPAD
10
1.984000
20
-1.294000
41
0.080000
42
0.080000
0
CIRCLE
8
0
10
1.984000
20
-1.294000
40
0.025000
0
INSERT
8
0
2
EPAD
10
1.380000
20
-0.431000
41
0.070000
42
0.070000
0
CIRCLE
8
0
10
1.380000
20
-0.431000
40
0.025000
0
INSERT
8
0
2
EPAD
10
1.380000
20
-0.031000
41
0.070000
42
0.070000
0
CIRCLE
8
0
10
1.380000
20
-0.031000
40
0.025000
0
INSERT
8
0
2
EPAD
10
1.377000
20
-0.579000
41
0.070000
42
0.070000
0
CIRCLE
8
0
10
1.377000
20
-0.579000
40
0.025000
0
INSERT
8
0
2
EPAD
10
1.377000
20
-0.979000
41
0.070000
42
0.070000
0
CIRCLE
8
0
10
1.377000
20
-0.979000
40
0.025000
0
INSERT
8
0
2
EPAD
10
2.011000
20
-0.705000
41
0.070000
42
0.070000
0
CIRCLE
8
0
10
2.011000
20
-0.705000
40
0.025000
0
INSERT
8
0
2
EPAD
10
2.011000
20
-1.105000
41
0.070000
42
0.070000
0
CIRCLE
8
0
10
2.011000
20
-1.105000
40
0.025000
0
INSERT
8
0
2
EPAD
10
2.003000
20
-0.205000
41
0.070000
42
0.070000
0
CIRCLE
8
0
10
2.003000
20
-0.205000
40
0.025000
0
INSERT
8
0
2
EPAD
10
2.003000
20
-0.605000
41
0.070000
42
0.070000
0
CIRCLE
8
0
10
2.003000
20
-0.605000
40
0.025000
0
INSERT
8
0
2
EPAD
10
-0.059000
20
-0.250000
41
0.070000
42
0.070000
0
CIRCLE
8
0
10
-0.059000
20
-0.250000
40
0.025000
0
INSERT
8
0
2
EPAD
10
-0.059000
20
0.149000
41
0.070000
42
0.070000
0
CIRCLE
8
0
10
-0.059000
20
0.149000
40
0.025000
0
INSERT
8
0
2
EPAD
10
-0.174000
20
-0.250000
41
0.070000
42
0.070000
0
CIRCLE
8
0
10
-0.174000
20
-0.250000
40
0.025000
0
INSERT
8
0
2
EPAD
10
-0.174000
20
0.149000
41
0.070000
42
0.070000
0
CIRCLE
8
0
10
-0.174000
20
0.149000
40
0.025000
0
INSERT
8
0
2
EPAD
10
-0.289000
20
-0.250000
41
0.070000
42
0.070000
0
CIRCLE
8
0
10
-0.289000
20
-0.250000
40
0.025000
0
INSERT
8
0
2
EPAD
10
-0.289000
20
0.149000
41
0.070000
42
0.070000
0
CIRCLE
8
0
10
-0.289000
20
0.149000
40
0.025000
0
INSERT
8
0
2
EPAD
10
-0.404000
20
-0.250000
41
0.070000
42
0.070000
0
CIRCLE
8
0
10
-0.404000
20
-0.250000
40
0.025000
0
INSERT
8
0
2
EPAD
10
-0.404000
20
0.149000
41
0.070000
42
0.070000
0
CIRCLE
8
0
10
-0.404000
20
0.149000
40
0.025000
0
INSERT
8
0
2
EPAD
10
-0.519000
20
-0.250000
41
0.070000
42
0.070000
0
CIRCLE
8
0
10
-0.519000
20
-0.250000
40
0.025000
0
INSERT
8
0
2
EPAD
10
-0.519000
20
0.149000
41
0.070000
42
0.070000
0
CIRCLE
8
0
10
-0.519000
20
0.149000
40
0.025000
0
INSERT
8
0
2
EPAD
10
-0.635000
20
-0.250000
41
0.070000
42
0.070000
0
CIRCLE
8
0
10
-0.635000
20
-0.250000
40
0.025000
0
INSERT
8
0
2
EPAD
10
-0.635000
20
0.149000
41
0.070000
42
0.070000
0
CIRCLE
8
0
10
-0.635000
20
0.149000
40
0.025000
0
INSERT
8
0
2
EPAD
10
-0.763000
20
-0.250000
41
0.070000
42
0.070000
0
CIRCLE
8
0
10
-0.763000
20
-0.250000
40
0.025000
0
INSERT
8
0
2
EPAD
10
-0.763000
20
0.149000
41
0.070000
42
0.070000
0
CIRCLE
8
0
10
-0.763000
20
0.149000
40
0.025000
0
INSERT
8
0
2
EPAD
10
-0.886000
20
-0.250000
41
0.070000
42
0.070000
0
CIRCLE
8
0
10
-0.886000
20
-0.250000
40
0.025000
0
INSERT
8
0
2
EPAD
10
-0.886000
20
0.149000
41
0.070000
42
0.070000
0
CIRCLE
8
0
10
-0.886000
20
0.149000
40
0.025000
0
INSERT
8
0
2
EPAD
10
-0.080000
20
-0.445000
41
0.080000
42
0.080000
0
CIRCLE
8
0
10
-0.080000
20
-0.445000
40
0.010000
0
INSERT
8
0
2
EPAD
10
-0.180000
20
-0.445000
41
0.080000
42
0.080000
0
CIRCLE
8
0
10
-0.180000
20
-0.445000
40
0.010000
0
INSERT
8
0
2
EPAD
10
-0.280000
20
-0.445000
41
0.080000
42
0.080000
0
CIRCLE
8
0
10
-0.280000
20
-0.445000
40
0.010000
0
INSERT
8
0
2
EPAD
10
-0.380000
20
-0.445000
41
0.080000
42
0.080000
0
CIRCLE
8
0
10
-0.380000
20
-0.445000
40
0.010000
0
INSERT
8
0
2
EPAD
10
-0.480000
20
-0.445000
41
0.080000
42
0.080000
0
CIRCLE
8
0
10
-0.480000
20
-0.445000
40
0.010000
0
INSERT
8
0
2
EPAD
10
-0.580000
20
-0.445000
41
0.080000
42
0.080000
0
CIRCLE
8
0
10
-0.580000
20
-0.445000
40
0.010000
0
INSERT
8
0
2
EPAD
10
-0.680000
20
-0.445000
41
0.080000
42
0.080000
0
CIRCLE
8
0
10
-0.680000
20
-0.445000
40
0.010000
0
INSERT
8
0
2
EPAD
10
-0.780000
20
-0.445000
41
0.080000
42
0.080000
0
CIRCLE
8
0
10
-0.780000
20
-0.445000
40
0.010000
0
INSERT
8
0
2
EPAD
10
-0.880000
20
-0.445000
41
0.080000
42
0.080000
0
CIRCLE
8
0
10
-0.880000
20
-0.445000
40
0.010000
0
INSERT
8
0
2
EPAD
10
-0.980000
20
-0.445000
41
0.080000
42
0.080000
0
CIRCLE
8
0
10
-0.980000
20
-0.445000
40
0.010000
0
INSERT
8
0
2
EPAD
10
0.213000
20
-0.111000
41
0.070000
42
0.070000
0
CIRCLE
8
0
10
0.213000
20
-0.111000
40
0.025000
0
INSERT
8
0
2
EPAD
10
0.213000
20
-0.511000
41
0.070000
42
0.070000
0
CIRCLE
8
0
10
0.213000
20
-0.511000
40
0.025000
0
INSERT
8
0
2
RPAD
10
-2.093000
20
0.541000
41
0.050000
42
0.050000
50
0.000000
0
CIRCLE
8
0
10
-2.093000
20
0.541000
40
0.030000
0
INSERT
8
0
2
EPAD
10
-1.993000
20
0.541000
41
0.050000
42
0.050000
0
CIRCLE
8
0
10
-1.993000
20
0.541000
40
0.030000
0
INSERT
8
0
2
EPAD
10
-1.893000
20
0.541000
41
0.050000
42
0.050000
0
CIRCLE
8
0
10
-1.893000
20
0.541000
40
0.030000
0
INSERT
8
0
2
EPAD
10
-1.893000
20
0.841000
41
0.050000
42
0.050000
0
CIRCLE
8
0
10
-1.893000
20
0.841000
40
0.030000
0
INSERT
8
0
2
EPAD
10
-1.993000
20
0.841000
41
0.050000
42
0.050000
0
CIRCLE
8
0
10
-1.993000
20
0.841000
40
0.030000
0
INSERT
8
0
2
EPAD
10
-2.093000
20
0.841000
41
0.050000
42
0.050000
0
CIRCLE
8
0
10
-2.093000
20
0.841000
40
0.030000
0
INSERT
8
0
2
RPAD
10
-1.908000
20
1.076000
41
0.080000
42
0.080000
50
180.000000
0
CIRCLE
8
0
10
-1.908000
20
1.076000
40
0.025000
0
INSERT
8
0
2
RPAD
10
-2.008000
20
1.076000
41
0.080000
42
0.080000
50
180.000000
0
CIRCLE
8
0
10
-2.008000
20
1.076000
40
0.025000
0
INSERT
8
0
2
RPAD
10
-2.108000
20
1.076000
41
0.080000
42
0.080000
50
180.000000
0
CIRCLE
8
0
10
-2.108000
20
1.076000
40
0.025000
0
INSERT
8
0
2
EPAD
10
-2.524000
20
1.467000
41
0.080000
42
0.080000
0
CIRCLE
8
0
10
-2.524000
20
1.467000
40
0.025000
0
INSERT
8
0
2
EPAD
10
-1.924000
20
1.467000
41
0.080000
42
0.080000
0
CIRCLE
8
0
10
-1.924000
20
1.467000
40
0.025000
0
INSERT
8
0
2
EPAD
10
-2.369000
20
1.865000
41
0.120000
42
0.120000
0
CIRCLE
8
0
10
-2.369000
20
1.865000
40
0.030000
0
INSERT
8
0
2
EPAD
10
-2.169000
20
1.865000
41
0.120000
42
0.120000
0
CIRCLE
8
0
10
-2.169000
20
1.865000
40
0.030000
0
INSERT
8
0
2
EPAD
10
-1.969000
20
1.865000
41
0.120000
42
0.120000
0
CIRCLE
8
0
10
-1.969000
20
1.865000
40
0.030000
0
INSERT
8
0
2
EPAD
10
-0.950000
20
-1.136000
41
0.070000
42
0.070000
0
CIRCLE
8
0
10
-0.950000
20
-1.136000
40
0.025000
0
INSERT
8
0
2
EPAD
10
-0.950000
20
-0.736000
41
0.070000
42
0.070000
0
CIRCLE
8
0
10
-0.950000
20
-0.736000
40
0.025000
0
INSERT
8
0
2
EPAD
10
-1.745000
20
1.085000
41
0.070000
42
0.070000
0
CIRCLE
8
0
10
-1.745000
20
1.085000
40
0.025000
0
INSERT
8
0
2
EPAD
10
-1.745000
20
0.685000
41
0.070000
42
0.070000
0
CIRCLE
8
0
10
-1.745000
20
0.685000
40
0.025000
0
INSERT
8
0
2
EPAD
10
-1.978000
20
1.312000
41
0.070000
42
0.070000
0
CIRCLE
8
0
10
-1.978000
20
1.312000
40
0.025000
0
INSERT
8
0
2
EPAD
10
-2.478000
20
1.312000
41
0.070000
42
0.070000
0
CIRCLE
8
0
10
-2.478000
20
1.312000
40
0.025000
0
INSERT
8
0
2
EPAD
10
-1.895000
20
-0.055000
41
0.070000
42
0.070000
0
CIRCLE
8
0
10
-1.895000
20
-0.055000
40
0.025000
0
INSERT
8
0
2
EPAD
10
-1.495000
20
-0.055000
41
0.070000
42
0.070000
0
CIRCLE
8
0
10
-1.495000
20
-0.055000
40
0.025000
0
INSERT
8
0
2
EPAD
10
2.509000
20
-1.830000
41
0.250000
42
0.250000
0
CIRCLE
8
0
10
2.509000
20
-1.830000
40
0.030000
0
POLYLINE
8
0
66
1
40
0.008000
41
0.008000
0
VERTEX
8
0
10
-2.710000
20
-2.144000
0
VERTEX
8
0
10
2.683000
20
-2.144000
0
VERTEX
8
0
10
2.683000
20
2.229000
0
VERTEX
8
0
10
-2.710000
20
2.229000
0
VERTEX
8
0
10
-2.710000
20
-2.144000
0
SEQEND
8
0
0
CIRCLE
8
12632256
10
-1.954000
20
-0.420000
40
0.213000
0
POLYLINE
8
0
66
1
40
0.008000
41
0.008000
0
VERTEX
8
0
10
-1.764000
20
-0.340000
0
VERTEX
8
0
10
-1.804000
20
-0.340000
0
SEQEND
8
0
0
POLYLINE
8
0
66
1
40
0.008000
41
0.008000
0
VERTEX
8
0
10
-1.784000
20
-0.320000
0
VERTEX
8
0
10
-1.784000
20
-0.360000
0
SEQEND
8
0
0
TEXT
8
12632256
10
-1.683000
20
-0.495000
40
0.048000
41
1.041667
50
90.000000
1
BR1
0
CIRCLE
8
12632256
10
-1.465000
20
-0.417000
40
0.200000
0
POLYLINE
8
0
66
1
40
0.008000
41
0.008000
0
VERTEX
8
0
10
-1.590000
20
-0.317000
0
VERTEX
8
0
10
-1.540000
20
-0.317000
0
SEQEND
8
0
0
POLYLINE
8
0
66
1
40
0.008000
41
0.008000
0
VERTEX
8
0
10
-1.565000
20
-0.292000
0
VERTEX
8
0
10
-1.565000
20
-0.342000
0
SEQEND
8
0
0
TEXT
8
12632256
10
-1.240000
20
-0.404000
40
0.048000
41
1.041667
1
C4
0
POLYLINE
8
0
66
1
40
0.008000
41
0.008000
0
VERTEX
8
0
10
-2.649000
20
-0.681000
0
VERTEX
8
0
10
-2.249000
20
-0.681000
0
SEQEND
8
0
0
POLYLINE
8
0
66
1
40
0.008000
41
0.008000
0
VERTEX
8
0
10
-2.649000
20
-0.281000
0
VERTEX
8
0
10
-2.249000
20
-0.281000
0
SEQEND
8
0
0
POLYLINE
8
0
66
1
40
0.008000
41
0.008000
0
VERTEX
8
0
10
-2.249000
20
-0.681000
0
VERTEX
8
0
10
-2.249000
20
-0.281000
0
SEQEND
8
0
0
POLYLINE
8
0
66
1
40
0.008000
41
0.008000
0
VERTEX
8
0
10
-2.649000
20
-0.681000
0
VERTEX
8
0
10
-2.649000
20
-0.281000
0
SEQEND
8
0
0
TEXT
8
12632256
10
-2.658000
20
-0.555000
40
0.048000
41
1.041667
50
90.000000
1
J16
0
POLYLINE
8
0
66
1
40
0.008000
41
0.008000
0
VERTEX
8
0
10
-2.404000
20
-1.581000
0
VERTEX
8
0
10
-1.026000
20
-1.581000
0
VERTEX
8
0
10
-1.026000
20
-1.093000
0
VERTEX
8
0
10
-2.404000
20
-1.093000
0
VERTEX
8
0
10
-2.404000
20
-1.581000
0
SEQEND
8
0
0
POLYLINE
8
0
66
1
40
0.008000
41
0.008000
0
VERTEX
8
0
10
-1.865000
20
-1.252000
0
VERTEX
8
0
10
-1.565000
20
-1.252000
0
VERTEX
8
0
10
-1.565000
20
-1.152000
0
VERTEX
8
0
10
-1.865000
20
-1.152000
0
VERTEX
8
0
10
-1.865000
20
-1.252000
0
SEQEND
8
0
0
POLYLINE
8
0
66
1
40
0.008000
41
0.008000
0
VERTEX
8
0
10
-1.565000
20
-1.252000
0
VERTEX
8
0
10
-1.565000
20
-1.302000
0
VERTEX
8
0
10
-1.865000
20
-1.302000
0
VERTEX
8
0
10
-1.865000
20
-1.252000
0
SEQEND
8
0
0
POLYLINE
8
0
66
1
40
0.008000
41
0.008000
0
VERTEX
8
0
10
-1.565000
20
-1.252000
0
VERTEX
8
0
10
-1.615000
20
-1.302000
0
SEQEND
8
0
0
POLYLINE
8
0
66
1
40
0.008000
41
0.008000
0
VERTEX
8
0
10
-1.615000
20
-1.252000
0
VERTEX
8
0
10
-1.665000
20
-1.302000
0
SEQEND
8
0
0
POLYLINE
8
0
66
1
40
0.008000
41
0.008000
0
VERTEX
8
0
10
-1.665000
20
-1.252000
0
VERTEX
8
0
10
-1.715000
20
-1.302000
0
SEQEND
8
0
0
POLYLINE
8
0
66
1
40
0.008000
41
0.008000
0
VERTEX
8
0
10
-1.715000
20
-1.252000
0
VERTEX
8
0
10
-1.765000
20
-1.302000
0
SEQEND
8
0
0
POLYLINE
8
0
66
1
40
0.008000
41
0.008000
0
VERTEX
8
0
10
-1.765000
20
-1.252000
0
VERTEX
8
0
10
-1.815000
20
-1.302000
0
SEQEND
8
0
0
POLYLINE
8
0
66
1
40
0.008000
41
0.008000
0
VERTEX
8
0
10
-1.815000
20
-1.252000
0
VERTEX
8
0
10
-1.865000
20
-1.302000
0
SEQEND
8
0
0
TEXT
8
12632256
10
-1.790000
20
-1.360000
40
0.048000
41
1.041667
1
U30
0
POLYLINE
8
0
66
1
40
0.008000
41
0.008000
0
VERTEX
8
0
10
-1.807000
20
-1.049000
0
VERTEX
8
0
10
-1.603000
20
-1.049000
0
VERTEX
8
0
10
-1.603000
20
-0.944000
0
VERTEX
8
0
10
-1.807000
20
-0.944000
0
VERTEX
8
0
10
-1.807000
20
-1.049000
0
SEQEND
8
0
0
POLYLINE
8
0
66
1
40
0.008000
41
0.008000
0
VERTEX
8
0
10
-1.635000
20
-1.048000
0
VERTEX
8
0
10
-1.635000
20
-0.945000
0
SEQEND
8
0
0
POLYLINE
8
0
66
1
40
0.008000
41
0.008000
0
VERTEX
8
0
10
-1.575000
20
-0.996000
0
VERTEX
8
0
10
-1.603000
20
-0.996000
0
SEQEND
8
0
0
POLYLINE
8
0
66
1
40
0.008000
41
0.008000
0
VERTEX
8
0
10
-1.807000
20
-0.996000
0
VERTEX
8
0
10
-1.835000
20
-0.996000
0
SEQEND
8
0
0
TEXT
8
12632256
10
-1.755000
20
-1.107000
40
0.048000
41
1.041667
1
D1
0
CIRCLE
8
12632256
10
-1.384000
20
-0.771000
40
0.100000
0
POLYLINE
8
0
66
1
40
0.008000
41
0.008000
0
VERTEX
8
0
10
-1.309000
20
-0.821000
0
VERTEX
8
0
10
-1.359000
20
-0.821000
0
SEQEND
8
0
0
POLYLINE
8
0
66
1
40
0.008000
41
0.008000
0
VERTEX
8
0
10
-1.334000
20
-0.846000
0
VERTEX
8
0
10
-1.334000
20
-0.796000
0
SEQEND
8
0
0
TEXT
8
12632256
10
-1.434000
20
-0.929000
40
0.048000
41
1.041667
1
C5
0
POLYLINE
8
0
66
1
40
0.008000
41
0.008000
0
VERTEX
8
0
10
-1.151000
20
-1.031000
0
VERTEX
8
0
10
-1.161000
20
-1.028000
0
VERTEX
8
0
10
-1.171000
20
-1.020000
0
VERTEX
8
0
10
-1.179000
20
-1.006000
0
VERTEX
8
0
10
-1.186000
20
-0.988000
0
VERTEX
8
0
10
-1.192000
20
-0.966000
0
VERTEX
8
0
10
-1.197000
20
-0.940000
0
VERTEX
8
0
10
-1.200000
20
-0.912000
0
VERTEX
8
0
10
-1.201000
20
-0.881000
0
SEQEND
8
0
0
POLYLINE
8
0
66
1
40
0.008000
41
0.008000
0
VERTEX
8
0
10
-1.151000
20
-0.731000
0
VERTEX
8
0
10
-1.156000
20
-0.732000
0
VERTEX
8
0
10
-1.161000
20
-0.734000
0
VERTEX
8
0
10
-1.171000
20
-0.743000
0
VERTEX
8
0
10
-1.179000
20
-0.756000
0
VERTEX
8
0
10
-1.186000
20
-0.774000
0
VERTEX
8
0
10
-1.192000
20
-0.797000
0
VERTEX
8
0
10
-1.197000
20
-0.822000
0
VERTEX
8
0
10
-1.200000
20
-0.850000
0
VERTEX
8
0
10
-1.201000
20
-0.881000
0
SEQEND
8
0
0
POLYLINE
8
0
66
1
40
0.008000
41
0.008000
0
VERTEX
8
0
10
-1.151000
20
-0.731000
0
VERTEX
8
0
10
-1.146000
20
-0.732000
0
VERTEX
8
0
10
-1.141000
20
-0.734000
0
VERTEX
8
0
10
-1.131000
20
-0.743000
0
VERTEX
8
0
10
-1.123000
20
-0.756000
0
VERTEX
8
0
10
-1.116000
20
-0.774000
0
VERTEX
8
0
10
-1.110000
20
-0.797000
0
VERTEX
8
0
10
-1.105000
20
-0.822000
0
VERTEX
8
0
10
-1.102000
20
-0.850000
0
VERTEX
8
0
10
-1.101000
20
-0.881000
0
SEQEND
8
0
0
POLYLINE
8
0
66
1
40
0.008000
41
0.008000
0
VERTEX
8
0
10
-1.151000
20
-1.031000
0
VERTEX
8
0
10
-1.141000
20
-1.028000
0
VERTEX
8
0
10
-1.131000
20
-1.020000
0
VERTEX
8
0
10
-1.123000
20
-1.006000
0
VERTEX
8
0
10
-1.116000
20
-0.988000
0
VERTEX
8
0
10
-1.110000
20
-0.966000
0
VERTEX
8
0
10
-1.105000
20
-0.940000
0
VERTEX
8
0
10
-1.102000
20
-0.912000
0
VERTEX
8
0
10
-1.101000
20
-0.881000
0
SEQEND
8
0
0
TEXT
8
12632256
10
-1.211000
20
-0.931000
40
0.048000
41
1.041667
50
90.000000
1
C6
0
POLYLINE
8
0
66
1
40
0.008000
41
0.008000
0
VERTEX
8
0
10
-1.646000
20
-0.756000
0
VERTEX
8
0
10
-1.696000
20
-0.756000
0
SEQEND
8
0
0
POLYLINE
8
0
66
1
40
0.008000
41
0.008000
0
VERTEX
8
0
10
-1.896000
20
-0.781000
0
VERTEX
8
0
10
-1.696000
20
-0.781000
0
VERTEX
8
0
10
-1.696000
20
-0.731000
0
VERTEX
8
0
10
-1.896000
20
-0.731000
0
VERTEX
8
0
10
-1.896000
20
-0.781000
0
SEQEND
8
0
0
POLYLINE
8
0
66
1
40
0.008000
41
0.008000
0
VERTEX
8
0
10
-1.896000
20
-0.756000
0
VERTEX
8
0
10
-1.946000
20
-0.756000
0
SEQEND
8
0
0
TEXT
8
12632256
10
-1.871000
20
-0.839000
40
0.048000
41
1.041667
1
R24
0
CIRCLE
8
12632256
10
-2.197000
20
-0.868000
40
0.000000
0
CIRCLE
8
12632256
10
-2.197000
20
-0.868000
40
0.100000
0
POLYLINE
8
0
66
1
40
0.008000
41
0.008000
0
VERTEX
8
0
10
-2.072000
20
-0.968000
0
VERTEX
8
0
10
-2.122000
20
-0.968000
0
SEQEND
8
0
0
POLYLINE
8
0
66
1
40
0.008000
41
0.008000
0
VERTEX
8
0
10
-2.097000
20
-0.993000
0
VERTEX
8
0
10
-2.097000
20
-0.943000
0
SEQEND
8
0
0
TEXT
8
12632256
10
-2.235000
20
-1.051000
40
0.048000
41
1.041667
1
D2
0
TEXT
8
12632256
10
-2.446000
20
-0.233000
40
0.064000
41
1.093750
1
VIN
0
POLYLINE
8
0
66
1
40
0.008000
41
0.008000
0
VERTEX
8
0
10
-1.761000
20
-1.358000
0
VERTEX
8
0
10
-1.799000
20
-1.358000
0
SEQEND
8
0
0
POLYLINE
8
0
66
1
40
0.008000
41
0.008000
0
VERTEX
8
0
10
-1.761000
20
-1.469000
0
VERTEX
8
0
10
-1.800000
20
-1.469000
0
SEQEND
8
0
0
POLYLINE
8
0
66
1
40
0.008000
41
0.008000
0
VERTEX
8
0
10
-1.841000
20
-1.343000
0
VERTEX
8
0
10
-1.841000
20
-1.323000
0
SEQEND
8
0
0
POLYLINE
8
0
66
1
40
0.008000
41
0.008000
0
VERTEX
8
0
10
-1.831000
20
-1.333000
0
VERTEX
8
0
10
-1.851000
20
-1.333000
0
SEQEND
8
0
0
TEXT
8
12632256
10
-1.504000
20
-1.441000
40
0.048000
41
1.041667
71
2
1
C19
0
POLYLINE
8
0
66
1
40
0.008000
41
0.008000
0
VERTEX
8
0
10
1.109000
20
-1.630000
0
VERTEX
8
0
10
1.109000
20
-2.030000
0
SEQEND
8
0
0
POLYLINE
8
0
66
1
40
0.008000
41
0.008000
0
VERTEX
8
0
10
1.709000
20
-1.630000
0
VERTEX
8
0
10
1.709000
20
-2.030000
0
SEQEND
8
0
0
POLYLINE
8
0
66
1
40
0.008000
41
0.008000
0
VERTEX
8
0
10
1.109000
20
-2.030000
0
VERTEX
8
0
10
1.709000
20
-2.030000
0
SEQEND
8
0
0
POLYLINE
8
0
66
1
40
0.008000
41
0.008000
0
VERTEX
8
0
10
1.709000
20
-1.630000
0
VERTEX
8
0
10
1.109000
20
-1.630000
0
SEQEND
8
0
0
TEXT
8
12632256
10
1.105000
20
-2.110000
40
0.048000
41
1.041667
1
J6
0
TEXT
8
12632256
10
1.909000
20
-2.140000
40
0.048000
41
1.041667
1
SASH DOWN
0
POLYLINE
8
0
66
1
40
0.008000
41
0.008000
0
VERTEX
8
0
10
1.731000
20
-1.632000
0
VERTEX
8
0
10
1.731000
20
-2.032000
0
SEQEND
8
0
0
POLYLINE
8
0
66
1
40
0.008000
41
0.008000
0
VERTEX
8
0
10
2.331000
20
-1.632000
0
VERTEX
8
0
10
2.331000
20
-2.032000
0
SEQEND
8
0
0
POLYLINE
8
0
66
1
40
0.008000
41
0.008000
0
VERTEX
8
0
10
1.731000
20
-2.032000
0
VERTEX
8
0
10
2.331000
20
-2.032000
0
SEQEND
8
0
0
POLYLINE
8
0
66
1
40
0.008000
41
0.008000
0
VERTEX
8
0
10
2.331000
20
-1.632000
0
VERTEX
8
0
10
1.731000
20
-1.632000
0
SEQEND
8
0
0
TEXT
8
12632256
10
1.717000
20
-2.118000
40
0.048000
41
1.041667
1
J7
0
TEXT
8
12632256
10
1.269000
20
-2.138000
40
0.048000
41
1.041667
1
SASH OK
0
POLYLINE
8
0
66
1
40
0.008000
41
0.008000
0
VERTEX
8
0
10
-2.143000
20
-2.072000
0
VERTEX
8
0
10
-1.670000
20
-2.072000
0
VERTEX
8
0
10
-1.670000
20
-1.600000
0
VERTEX
8
0
10
-2.143000
20
-1.600000
0
VERTEX
8
0
10
-2.143000
20
-2.072000
0
SEQEND
8
0
0
POLYLINE
8
0
66
1
40
0.008000
41
0.008000
0
VERTEX
8
0
10
-1.848000
20
-2.229000
0
VERTEX
8
0
10
-1.808000
20
-2.229000
0
VERTEX
8
0
10
-1.808000
20
-2.072000
0
VERTEX
8
0
10
-1.848000
20
-2.072000
0
VERTEX
8
0
10
-1.848000
20
-2.229000
0
SEQEND
8
0
0
POLYLINE
8
0
66
1
40
0.008000
41
0.008000
0
VERTEX
8
0
10
-2.005000
20
-2.229000
0
VERTEX
8
0
10
-1.966000
20
-2.229000
0
VERTEX
8
0
10
-1.966000
20
-2.072000
0
VERTEX
8
0
10
-2.005000
20
-2.072000
0
VERTEX
8
0
10
-2.005000
20
-2.229000
0
SEQEND
8
0
0
TEXT
8
12632256
10
-2.045000
20
-2.171000
40
0.048000
41
1.041667
71
2
1
SP1
0
POLYLINE
8
0
66
1
40
0.008000
41
0.008000
0
VERTEX
8
0
10
-1.242000
20
-2.067000
0
VERTEX
8
0
10
-0.769000
20
-2.067000
0
VERTEX
8
0
10
-0.769000
20
-1.595000
0
VERTEX
8
0
10
-1.242000
20
-1.595000
0
VERTEX
8
0
10
-1.242000
20
-2.067000
0
SEQEND
8
0
0
POLYLINE
8
0
66
1
40
0.008000
41
0.008000
0
VERTEX
8
0
10
-0.946000
20
-2.225000
0
VERTEX
8
0
10
-0.907000
20
-2.225000
0
VERTEX
8
0
10
-0.907000
20
-2.067000
0
VERTEX
8
0
10
-0.946000
20
-2.067000
0
VERTEX
8
0
10
-0.946000
20
-2.225000
0
SEQEND
8
0
0
POLYLINE
8
0
66
1
40
0.008000
41
0.008000
0
VERTEX
8
0
10
-1.104000
20
-2.225000
0
VERTEX
8
0
10
-1.064000
20
-2.225000
0
VERTEX
8
0
10
-1.064000
20
-2.067000
0
VERTEX
8
0
10
-1.104000
20
-2.067000
0
VERTEX
8
0
10
-1.104000
20
-2.225000
0
SEQEND
8
0
0
TEXT
8
12632256
10
-0.741000
20
-2.141000
40
0.048000
41
1.041667
71
2
1
SP2
0
POLYLINE
8
0
66
1
40
0.008000
41
0.008000
0
VERTEX
8
0
10
1.965000
20
2.071000
0
VERTEX
8
0
10
1.965000
20
1.671000
0
SEQEND
8
0
0
POLYLINE
8
0
66
1
40
0.008000
41
0.008000
0
VERTEX
8
0
10
2.565000
20
2.071000
0
VERTEX
8
0
10
2.565000
20
1.671000
0
SEQEND
8
0
0
POLYLINE
8
0
66
1
40
0.008000
41
0.008000
0
VERTEX
8
0
10
1.965000
20
1.671000
0
VERTEX
8
0
10
2.565000
20
1.671000
0
SEQEND
8
0
0
POLYLINE
8
0
66
1
40
0.008000
41
0.008000
0
VERTEX
8
0
10
2.565000
20
2.071000
0
VERTEX
8
0
10
1.965000
20
2.071000
0
SEQEND
8
0
0
TEXT
8
12632256
10
2.190000
20
2.081000
40
0.048000
41
1.041667
1
J13
0
TEXT
8
12632256
10
1.984000
20
2.146000
40
0.064000
41
1.093750
1
LUZ
0
TEXT
8
12632256
10
2.247000
20
2.145000
40
0.064000
41
1.093750
1
N
0
TEXT
8
12632256
10
2.388000
20
2.145000
40
0.064000
41
1.093750
1
L2
0
POLYLINE
8
0
66
1
40
0.008000
41
0.008000
0
VERTEX
8
0
10
1.227000
20
2.072000
0
VERTEX
8
0
10
1.227000
20
1.672000
0
SEQEND
8
0
0
POLYLINE
8
0
66
1
40
0.008000
41
0.008000
0
VERTEX
8
0
10
1.827000
20
2.072000
0
VERTEX
8
0
10
1.827000
20
1.672000
0
SEQEND
8
0
0
POLYLINE
8
0
66
1
40
0.008000
41
0.008000
0
VERTEX
8
0
10
1.227000
20
1.672000
0
VERTEX
8
0
10
1.827000
20
1.672000
0
SEQEND
8
0
0
POLYLINE
8
0
66
1
40
0.008000
41
0.008000
0
VERTEX
8
0
10
1.827000
20
2.072000
0
VERTEX
8
0
10
1.227000
20
2.072000
0
SEQEND
8
0
0
TEXT
8
12632256
10
1.477000
20
2.082000
40
0.048000
41
1.041667
1
J8
0
TEXT
8
12632256
10
1.250000
20
2.152000
40
0.064000
41
1.093750
1
UV
0
TEXT
8
12632256
10
1.523000
20
2.147000
40
0.064000
41
1.093750
1
N
0
TEXT
8
12632256
10
1.710000
20
2.147000
40
0.064000
41
1.093750
1
L2
0
POLYLINE
8
0
66
1
40
0.008000
41
0.008000
0
VERTEX
8
0
10
0.485000
20
2.072000
0
VERTEX
8
0
10
0.485000
20
1.672000
0
SEQEND
8
0
0
POLYLINE
8
0
66
1
40
0.008000
41
0.008000
0
VERTEX
8
0
10
1.085000
20
2.072000
0
VERTEX
8
0
10
1.085000
20
1.672000
0
SEQEND
8
0
0
POLYLINE
8
0
66
1
40
0.008000
41
0.008000
0
VERTEX
8
0
10
0.485000
20
1.672000
0
VERTEX
8
0
10
1.085000
20
1.672000
0
SEQEND
8
0
0
POLYLINE
8
0
66
1
40
0.008000
41
0.008000
0
VERTEX
8
0
10
1.085000
20
2.072000
0
VERTEX
8
0
10
0.485000
20
2.072000
0
SEQEND
8
0
0
TEXT
8
12632256
10
0.735000
20
2.082000
40
0.048000
41
1.041667
1
J2
0
TEXT
8
12632256
10
0.488000
20
2.144000
40
0.064000
41
1.093750
1
MDF
0
TEXT
8
12632256
10
0.780000
20
2.149000
40
0.064000
41
1.093750
1
N
0
TEXT
8
12632256
10
0.967000
20
2.149000
40
0.064000
41
1.093750
1
L2
0
POLYLINE
8
0
66
1
40
0.008000
41
0.008000
0
VERTEX
8
0
10
-0.257000
20
2.072000
0
VERTEX
8
0
10
-0.257000
20
1.672000
0
SEQEND
8
0
0
POLYLINE
8
0
66
1
40
0.008000
41
0.008000
0
VERTEX
8
0
10
0.342000
20
2.072000
0
VERTEX
8
0
10
0.342000
20
1.672000
0
SEQEND
8
0
0
POLYLINE
8
0
66
1
40
0.008000
41
0.008000
0
VERTEX
8
0
10
-0.257000
20
1.672000
0
VERTEX
8
0
10
0.342000
20
1.672000
0
SEQEND
8
0
0
POLYLINE
8
0
66
1
40
0.008000
41
0.008000
0
VERTEX
8
0
10
0.342000
20
2.072000
0
VERTEX
8
0
10
-0.257000
20
2.072000
0
SEQEND
8
0
0
TEXT
8
12632256
10
-0.032000
20
2.082000
40
0.048000
41
1.041667
1
J10
0
TEXT
8
12632256
10
-0.274000
20
2.143000
40
0.064000
41
1.093750
1
MIF
0
TEXT
8
12632256
10
0.017000
20
2.148000
40
0.064000
41
1.093750
1
N
0
TEXT
8
12632256
10
0.204000
20
2.148000
40
0.064000
41
1.093750
1
L2
0
POLYLINE
8
0
66
1
40
0.008000
41
0.008000
0
VERTEX
8
0
10
-0.995000
20
2.071000
0
VERTEX
8
0
10
-0.995000
20
1.671000
0
SEQEND
8
0
0
POLYLINE
8
0
66
1
40
0.008000
41
0.008000
0
VERTEX
8
0
10
-0.395000
20
2.071000
0
VERTEX
8
0
10
-0.395000
20
1.671000
0
SEQEND
8
0
0
POLYLINE
8
0
66
1
40
0.008000
41
0.008000
0
VERTEX
8
0
10
-0.995000
20
1.671000
0
VERTEX
8
0
10
-0.395000
20
1.671000
0
SEQEND
8
0
0
POLYLINE
8
0
66
1
40
0.008000
41
0.008000
0
VERTEX
8
0
10
-0.395000
20
2.071000
0
VERTEX
8
0
10
-0.995000
20
2.071000
0
SEQEND
8
0
0
TEXT
8
12632256
10
-0.770000
20
2.081000
40
0.048000
41
1.041667
1
J11
0
TEXT
8
12632256
10
-1.038000
20
2.143000
40
0.064000
41
1.093750
1
TOMA
0
TEXT
8
12632256
10
-0.703000
20
2.145000
40
0.064000
41
1.093750
1
N
0
TEXT
8
12632256
10
-0.536000
20
2.147000
40
0.064000
41
1.093750
1
L2
0
POLYLINE
8
0
66
1
40
0.008000
41
0.008000
0
VERTEX
8
0
10
-1.736000
20
2.069000
0
VERTEX
8
0
10
-1.736000
20
1.669000
0
SEQEND
8
0
0
POLYLINE
8
0
66
1
40
0.008000
41
0.008000
0
VERTEX
8
0
10
-1.136000
20
2.069000
0
VERTEX
8
0
10
-1.136000
20
1.669000
0
SEQEND
8
0
0
POLYLINE
8
0
66
1
40
0.008000
41
0.008000
0
VERTEX
8
0
10
-1.736000
20
1.669000
0
VERTEX
8
0
10
-1.136000
20
1.669000
0
SEQEND
8
0
0
POLYLINE
8
0
66
1
40
0.008000
41
0.008000
0
VERTEX
8
0
10
-1.136000
20
2.069000
0
VERTEX
8
0
10
-1.736000
20
2.069000
0
SEQEND
8
0
0
TEXT
8
12632256
10
-1.511000
20
2.079000
40
0.048000
41
1.041667
1
J12
0
TEXT
8
12632256
10
-1.780000
20
2.138000
40
0.064000
41
1.093750
1
ALAR
0
TEXT
8
12632256
10
-1.462000
20
2.143000
40
0.064000
41
1.093750
1
N
0
TEXT
8
12632256
10
-1.275000
20
2.143000
40
0.064000
41
1.093750
1
L2
0
POLYLINE
8
0
66
1
40
0.008000
41
0.008000
0
VERTEX
8
0
10
-2.665000
20
0.161000
0
VERTEX
8
0
10
-2.265000
20
0.161000
0
SEQEND
8
0
0
POLYLINE
8
0
66
1
40
0.008000
41
0.008000
0
VERTEX
8
0
10
-2.665000
20
0.761000
0
VERTEX
8
0
10
-2.265000
20
0.761000
0
SEQEND
8
0
0
POLYLINE
8
0
66
1
40
0.008000
41
0.008000
0
VERTEX
8
0
10
-2.265000
20
0.161000
0
VERTEX
8
0
10
-2.265000
20
0.761000
0
SEQEND
8
0
0
POLYLINE
8
0
66
1
40
0.008000
41
0.008000
0
VERTEX
8
0
10
-2.665000
20
0.761000
0
VERTEX
8
0
10
-2.665000
20
0.161000
0
SEQEND
8
0
0
TEXT
8
12632256
10
-2.488000
20
-0.024000
40
0.048000
41
1.041667
50
90.000000
1
J14
0
POLYLINE
8
0
66
1
40
0.008000
41
0.008000
0
VERTEX
8
0
10
1.900000
20
1.364000
0
VERTEX
8
0
10
2.600000
20
1.364000
0
VERTEX
8
0
10
2.600000
20
1.564000
0
VERTEX
8
0
10
1.900000
20
1.564000
0
VERTEX
8
0
10
1.900000
20
1.364000
0
SEQEND
8
0
0
TEXT
8
12632256
10
2.175000
20
1.574000
40
0.048000
41
1.041667
1
C17
0
POLYLINE
8
0
66
1
40
0.008000
41
0.008000
0
VERTEX
8
0
10
2.452000
20
1.284000
0
VERTEX
8
0
10
2.402000
20
1.284000
0
SEQEND
8
0
0
POLYLINE
8
0
66
1
40
0.008000
41
0.008000
0
VERTEX
8
0
10
2.102000
20
1.259000
0
VERTEX
8
0
10
2.402000
20
1.259000
0
VERTEX
8
0
10
2.402000
20
1.309000
0
VERTEX
8
0
10
2.102000
20
1.309000
0
VERTEX
8
0
10
2.102000
20
1.259000
0
SEQEND
8
0
0
POLYLINE
8
0
66
1
40
0.008000
41
0.008000
0
VERTEX
8
0
10
2.102000
20
1.284000
0
VERTEX
8
0
10
2.052000
20
1.284000
0
SEQEND
8
0
0
TEXT
8
12632256
10
2.177000
20
1.201000
40
0.048000
41
1.041667
1
R25
0
POLYLINE
8
0
66
1
40
0.008000
41
0.008000
0
VERTEX
8
0
10
2.040000
20
1.028000
0
VERTEX
8
0
10
2.340000
20
1.028000
0
VERTEX
8
0
10
2.340000
20
1.128000
0
VERTEX
8
0
10
2.040000
20
1.128000
0
VERTEX
8
0
10
2.040000
20
1.028000
0
SEQEND
8
0
0
POLYLINE
8
0
66
1
40
0.008000
41
0.008000
0
VERTEX
8
0
10
2.340000
20
1.028000
0
VERTEX
8
0
10
2.340000
20
0.978000
0
VERTEX
8
0
10
2.040000
20
0.978000
0
VERTEX
8
0
10
2.040000
20
1.028000
0
SEQEND
8
0
0
POLYLINE
8
0
66
1
40
0.008000
41
0.008000
0
VERTEX
8
0
10
2.340000
20
1.028000
0
VERTEX
8
0
10
2.290000
20
0.978000
0
SEQEND
8
0
0
POLYLINE
8
0
66
1
40
0.008000
41
0.008000
0
VERTEX
8
0
10
2.290000
20
1.028000
0
VERTEX
8
0
10
2.240000
20
0.978000
0
SEQEND
8
0
0
POLYLINE
8
0
66
1
40
0.008000
41
0.008000
0
VERTEX
8
0
10
2.240000
20
1.028000
0
VERTEX
8
0
10
2.190000
20
0.978000
0
SEQEND
8
0
0
POLYLINE
8
0
66
1
40
0.008000
41
0.008000
0
VERTEX
8
0
10
2.190000
20
1.028000
0
VERTEX
8
0
10
2.140000
20
0.978000
0
SEQEND
8
0
0
POLYLINE
8
0
66
1
40
0.008000
41
0.008000
0
VERTEX
8
0
10
2.140000
20
1.028000
0
VERTEX
8
0
10
2.090000
20
0.978000
0
SEQEND
8
0
0
POLYLINE
8
0
66
1
40
0.008000
41
0.008000
0
VERTEX
8
0
10
2.090000
20
1.028000
0
VERTEX
8
0
10
2.040000
20
0.978000
0
SEQEND
8
0
0
TEXT
8
12632256
10
2.115000
20
0.920000
40
0.048000
41
1.041667
1
U11
0
POLYLINE
8
0
66
1
40
0.008000
41
0.008000
0
VERTEX
8
0
10
2.038000
20
0.567000
0
VERTEX
8
0
10
2.038000
20
0.617000
0
SEQEND
8
0
0
POLYLINE
8
0
66
1
40
0.008000
41
0.008000
0
VERTEX
8
0
10
2.088000
20
0.667000
0
VERTEX
8
0
10
2.087000
20
0.677000
0
VERTEX
8
0
10
2.084000
20
0.687000
0
VERTEX
8
0
10
2.080000
20
0.695000
0
VERTEX
8
0
10
2.074000
20
0.702000
0
VERTEX
8
0
10
2.067000
20
0.709000
0
VERTEX
8
0
10
2.058000
20
0.713000
0
VERTEX
8
0
10
2.048000
20
0.716000
0
VERTEX
8
0
10
2.038000
20
0.717000
0
SEQEND
8
0
0
POLYLINE
8
0
66
1
40
0.008000
41
0.008000
0
VERTEX
8
0
10
2.088000
20
0.667000
0
VERTEX
8
0
10
2.087000
20
0.657000
0
VERTEX
8
0
10
2.084000
20
0.647000
0
VERTEX
8
0
10
2.080000
20
0.638000
0
VERTEX
8
0
10
2.074000
20
0.631000
0
VERTEX
8
0
10
2.067000
20
0.625000
0
VERTEX
8
0
10
2.058000
20
0.621000
0
VERTEX
8
0
10
2.048000
20
0.618000
0
VERTEX
8
0
10
2.038000
20
0.617000
0
SEQEND
8
0
0
POLYLINE
8
0
66
1
40
0.008000
41
0.008000
0
VERTEX
8
0
10
2.038000
20
0.717000
0
VERTEX
8
0
10
2.038000
20
0.767000
0
SEQEND
8
0
0
POLYLINE
8
0
66
1
40
0.008000
41
0.008000
0
VERTEX
8
0
10
2.338000
20
0.567000
0
VERTEX
8
0
10
2.338000
20
0.767000
0
SEQEND
8
0
0
POLYLINE
8
0
66
1
40
0.008000
41
0.008000
0
VERTEX
8
0
10
2.038000
20
0.567000
0
VERTEX
8
0
10
2.338000
20
0.567000
0
SEQEND
8
0
0
POLYLINE
8
0
66
1
40
0.008000
41
0.008000
0
VERTEX
8
0
10
2.038000
20
0.767000
0
VERTEX
8
0
10
2.338000
20
0.767000
0
SEQEND
8
0
0
TEXT
8
12632256
10
2.028000
20
0.592000
40
0.048000
41
1.041667
50
90.000000
1
U10
0
POLYLINE
8
0
66
1
40
0.008000
41
0.008000
0
VERTEX
8
0
10
2.523000
20
0.796000
0
VERTEX
8
0
10
2.523000
20
0.746000
0
SEQEND
8
0
0
POLYLINE
8
0
66
1
40
0.008000
41
0.008000
0
VERTEX
8
0
10
2.498000
20
0.546000
0
VERTEX
8
0
10
2.548000
20
0.546000
0
VERTEX
8
0
10
2.548000
20
0.746000
0
VERTEX
8
0
10
2.498000
20
0.746000
0
VERTEX
8
0
10
2.498000
20
0.546000
0
SEQEND
8
0
0
POLYLINE
8
0
66
1
40
0.008000
41
0.008000
0
VERTEX
8
0
10
2.523000
20
0.546000
0
VERTEX
8
0
10
2.523000
20
0.496000
0
SEQEND
8
0
0
TEXT
8
12632256
10
2.606000
20
0.571000
40
0.048000
41
1.041667
50
90.000000
1
R11
0
POLYLINE
8
0
66
1
40
0.008000
41
0.008000
0
VERTEX
8
0
10
1.160000
20
1.362000
0
VERTEX
8
0
10
1.860000
20
1.362000
0
VERTEX
8
0
10
1.860000
20
1.562000
0
VERTEX
8
0
10
1.160000
20
1.562000
0
VERTEX
8
0
10
1.160000
20
1.362000
0
SEQEND
8
0
0
TEXT
8
12632256
10
1.435000
20
1.572000
40
0.048000
41
1.041667
1
C12
0
POLYLINE
8
0
66
1
40
0.008000
41
0.008000
0
VERTEX
8
0
10
1.725000
20
1.288000
0
VERTEX
8
0
10
1.675000
20
1.288000
0
SEQEND
8
0
0
POLYLINE
8
0
66
1
40
0.008000
41
0.008000
0
VERTEX
8
0
10
1.375000
20
1.263000
0
VERTEX
8
0
10
1.675000
20
1.263000
0
VERTEX
8
0
10
1.675000
20
1.313000
0
VERTEX
8
0
10
1.375000
20
1.313000
0
VERTEX
8
0
10
1.375000
20
1.263000
0
SEQEND
8
0
0
POLYLINE
8
0
66
1
40
0.008000
41
0.008000
0
VERTEX
8
0
10
1.375000
20
1.288000
0
VERTEX
8
0
10
1.325000
20
1.288000
0
SEQEND
8
0
0
TEXT
8
12632256
10
1.450000
20
1.205000
40
0.048000
41
1.041667
1
R13
0
POLYLINE
8
0
66
1
40
0.008000
41
0.008000
0
VERTEX
8
0
10
1.397000
20
1.027000
0
VERTEX
8
0
10
1.697000
20
1.027000
0
VERTEX
8
0
10
1.697000
20
1.127000
0
VERTEX
8
0
10
1.397000
20
1.127000
0
VERTEX
8
0
10
1.397000
20
1.027000
0
SEQEND
8
0
0
POLYLINE
8
0
66
1
40
0.008000
41
0.008000
0
VERTEX
8
0
10
1.697000
20
1.027000
0
VERTEX
8
0
10
1.697000
20
0.977000
0
VERTEX
8
0
10
1.397000
20
0.977000
0
VERTEX
8
0
10
1.397000
20
1.027000
0
SEQEND
8
0
0
POLYLINE
8
0
66
1
40
0.008000
41
0.008000
0
VERTEX
8
0
10
1.697000
20
1.027000
0
VERTEX
8
0
10
1.647000
20
0.977000
0
SEQEND
8
0
0
POLYLINE
8
0
66
1
40
0.008000
41
0.008000
0
VERTEX
8
0
10
1.647000
20
1.027000
0
VERTEX
8
0
10
1.597000
20
0.977000
0
SEQEND
8
0
0
POLYLINE
8
0
66
1
40
0.008000
41
0.008000
0
VERTEX
8
0
10
1.597000
20
1.027000
0
VERTEX
8
0
10
1.547000
20
0.977000
0
SEQEND
8
0
0
POLYLINE
8
0
66
1
40
0.008000
41
0.008000
0
VERTEX
8
0
10
1.547000
20
1.027000
0
VERTEX
8
0
10
1.497000
20
0.977000
0
SEQEND
8
0
0
POLYLINE
8
0
66
1
40
0.008000
41
0.008000
0
VERTEX
8
0
10
1.497000
20
1.027000
0
VERTEX
8
0
10
1.447000
20
0.977000
0
SEQEND
8
0
0
POLYLINE
8
0
66
1
40
0.008000
41
0.008000
0
VERTEX
8
0
10
1.447000
20
1.027000
0
VERTEX
8
0
10
1.397000
20
0.977000
0
SEQEND
8
0
0
TEXT
8
12632256
10
1.497000
20
0.919000
40
0.048000
41
1.041667
1
U4
0
POLYLINE
8
0
66
1
40
0.008000
41
0.008000
0
VERTEX
8
0
10
1.393000
20
0.574000
0
VERTEX
8
0
10
1.393000
20
0.624000
0
SEQEND
8
0
0
POLYLINE
8
0
66
1
40
0.008000
41
0.008000
0
VERTEX
8
0
10
1.443000
20
0.674000
0
VERTEX
8
0
10
1.442000
20
0.684000
0
VERTEX
8
0
10
1.439000
20
0.694000
0
VERTEX
8
0
10
1.435000
20
0.702000
0
VERTEX
8
0
10
1.429000
20
0.710000
0
VERTEX
8
0
10
1.422000
20
0.716000
0
VERTEX
8
0
10
1.413000
20
0.720000
0
VERTEX
8
0
10
1.403000
20
0.723000
0
VERTEX
8
0
10
1.393000
20
0.724000
0
SEQEND
8
0
0
POLYLINE
8
0
66
1
40
0.008000
41
0.008000
0
VERTEX
8
0
10
1.443000
20
0.674000
0
VERTEX
8
0
10
1.442000
20
0.664000
0
VERTEX
8
0
10
1.439000
20
0.654000
0
VERTEX
8
0
10
1.435000
20
0.645000
0
VERTEX
8
0
10
1.429000
20
0.638000
0
VERTEX
8
0
10
1.422000
20
0.632000
0
VERTEX
8
0
10
1.413000
20
0.628000
0
VERTEX
8
0
10
1.403000
20
0.625000
0
VERTEX
8
0
10
1.393000
20
0.624000
0
SEQEND
8
0
0
POLYLINE
8
0
66
1
40
0.008000
41
0.008000
0
VERTEX
8
0
10
1.393000
20
0.724000
0
VERTEX
8
0
10
1.393000
20
0.774000
0
SEQEND
8
0
0
POLYLINE
8
0
66
1
40
0.008000
41
0.008000
0
VERTEX
8
0
10
1.693000
20
0.574000
0
VERTEX
8
0
10
1.693000
20
0.774000
0
SEQEND
8
0
0
POLYLINE
8
0
66
1
40
0.008000
41
0.008000
0
VERTEX
8
0
10
1.393000
20
0.574000
0
VERTEX
8
0
10
1.693000
20
0.574000
0
SEQEND
8
0
0
POLYLINE
8
0
66
1
40
0.008000
41
0.008000
0
VERTEX
8
0
10
1.393000
20
0.774000
0
VERTEX
8
0
10
1.693000
20
0.774000
0
SEQEND
8
0
0
TEXT
8
12632256
10
1.383000
20
0.624000
40
0.048000
41
1.041667
50
90.000000
1
U3
0
POLYLINE
8
0
66
1
40
0.008000
41
0.008000
0
VERTEX
8
0
10
1.832000
20
1.027000
0
VERTEX
8
0
10
1.832000
20
0.977000
0
SEQEND
8
0
0
POLYLINE
8
0
66
1
40
0.008000
41
0.008000
0
VERTEX
8
0
10
1.807000
20
0.777000
0
VERTEX
8
0
10
1.857000
20
0.777000
0
VERTEX
8
0
10
1.857000
20
0.977000
0
VERTEX
8
0
10
1.807000
20
0.977000
0
VERTEX
8
0
10
1.807000
20
0.777000
0
SEQEND
8
0
0
POLYLINE
8
0
66
1
40
0.008000
41
0.008000
0
VERTEX
8
0
10
1.832000
20
0.777000
0
VERTEX
8
0
10
1.832000
20
0.727000
0
SEQEND
8
0
0
TEXT
8
12632256
10
1.915000
20
0.802000
40
0.048000
41
1.041667
50
90.000000
1
R10
0
POLYLINE
8
0
66
1
40
0.008000
41
0.008000
0
VERTEX
8
0
10
-0.332000
20
1.363000
0
VERTEX
8
0
10
0.367000
20
1.363000
0
VERTEX
8
0
10
0.367000
20
1.563000
0
VERTEX
8
0
10
-0.332000
20
1.563000
0
VERTEX
8
0
10
-0.332000
20
1.363000
0
SEQEND
8
0
0
TEXT
8
12632256
10
-0.057000
20
1.573000
40
0.048000
41
1.041667
1
C13
0
POLYLINE
8
0
66
1
40
0.008000
41
0.008000
0
VERTEX
8
0
10
0.218000
20
1.291000
0
VERTEX
8
0
10
0.168000
20
1.291000
0
SEQEND
8
0
0
POLYLINE
8
0
66
1
40
0.008000
41
0.008000
0
VERTEX
8
0
10
-0.131000
20
1.266000
0
VERTEX
8
0
10
0.168000
20
1.266000
0
VERTEX
8
0
10
0.168000
20
1.316000
0
VERTEX
8
0
10
-0.131000
20
1.316000
0
VERTEX
8
0
10
-0.131000
20
1.266000
0
SEQEND
8
0
0
POLYLINE
8
0
66
1
40
0.008000
41
0.008000
0
VERTEX
8
0
10
-0.131000
20
1.291000
0
VERTEX
8
0
10
-0.181000
20
1.291000
0
SEQEND
8
0
0
TEXT
8
12632256
10
-0.056000
20
1.208000
40
0.048000
41
1.041667
1
R17
0
POLYLINE
8
0
66
1
40
0.008000
41
0.008000
0
VERTEX
8
0
10
-0.109000
20
1.030000
0
VERTEX
8
0
10
0.190000
20
1.030000
0
VERTEX
8
0
10
0.190000
20
1.130000
0
VERTEX
8
0
10
-0.109000
20
1.130000
0
VERTEX
8
0
10
-0.109000
20
1.030000
0
SEQEND
8
0
0
POLYLINE
8
0
66
1
40
0.008000
41
0.008000
0
VERTEX
8
0
10
0.190000
20
1.030000
0
VERTEX
8
0
10
0.190000
20
0.980000
0
VERTEX
8
0
10
-0.109000
20
0.980000
0
VERTEX
8
0
10
-0.109000
20
1.030000
0
SEQEND
8
0
0
POLYLINE
8
0
66
1
40
0.008000
41
0.008000
0
VERTEX
8
0
10
0.190000
20
1.030000
0
VERTEX
8
0
10
0.140000
20
0.980000
0
SEQEND
8
0
0
POLYLINE
8
0
66
1
40
0.008000
41
0.008000
0
VERTEX
8
0
10
0.140000
20
1.030000
0
VERTEX
8
0
10
0.090000
20
0.980000
0
SEQEND
8
0
0
POLYLINE
8
0
66
1
40
0.008000
41
0.008000
0
VERTEX
8
0
10
0.090000
20
1.030000
0
VERTEX
8
0
10
0.040000
20
0.980000
0
SEQEND
8
0
0
POLYLINE
8
0
66
1
40
0.008000
41
0.008000
0
VERTEX
8
0
10
0.040000
20
1.030000
0
VERTEX
8
0
10
-0.009000
20
0.980000
0
SEQEND
8
0
0
POLYLINE
8
0
66
1
40
0.008000
41
0.008000
0
VERTEX
8
0
10
-0.009000
20
1.030000
0
VERTEX
8
0
10
-0.059000
20
0.980000
0
SEQEND
8
0
0
POLYLINE
8
0
66
1
40
0.008000
41
0.008000
0
VERTEX
8
0
10
-0.059000
20
1.030000
0
VERTEX
8
0
10
-0.109000
20
0.980000
0
SEQEND
8
0
0
TEXT
8
12632256
10
-0.009000
20
0.922000
40
0.048000
41
1.041667
1
U6
0
POLYLINE
8
0
66
1
40
0.008000
41
0.008000
0
VERTEX
8
0
10
-0.118000
20
0.575000
0
VERTEX
8
0
10
-0.118000
20
0.625000
0
SEQEND
8
0
0
POLYLINE
8
0
66
1
40
0.008000
41
0.008000
0
VERTEX
8
0
10
-0.068000
20
0.675000
0
VERTEX
8
0
10
-0.069000
20
0.685000
0
VERTEX
8
0
10
-0.072000
20
0.695000
0
VERTEX
8
0
10
-0.076000
20
0.703000
0
VERTEX
8
0
10
-0.082000
20
0.710000
0
VERTEX
8
0
10
-0.089000
20
0.717000
0
VERTEX
8
0
10
-0.098000
20
0.721000
0
VERTEX
8
0
10
-0.108000
20
0.724000
0
VERTEX
8
0
10
-0.118000
20
0.725000
0
SEQEND
8
0
0
POLYLINE
8
0
66
1
40
0.008000
41
0.008000
0
VERTEX
8
0
10
-0.068000
20
0.675000
0
VERTEX
8
0
10
-0.069000
20
0.665000
0
VERTEX
8
0
10
-0.072000
20
0.655000
0
VERTEX
8
0
10
-0.076000
20
0.646000
0
VERTEX
8
0
10
-0.082000
20
0.639000
0
VERTEX
8
0
10
-0.089000
20
0.633000
0
VERTEX
8
0
10
-0.098000
20
0.629000
0
VERTEX
8
0
10
-0.108000
20
0.626000
0
VERTEX
8
0
10
-0.118000
20
0.625000
0
SEQEND
8
0
0
POLYLINE
8
0
66
1
40
0.008000
41
0.008000
0
VERTEX
8
0
10
-0.118000
20
0.725000
0
VERTEX
8
0
10
-0.118000
20
0.775000
0
SEQEND
8
0
0
POLYLINE
8
0
66
1
40
0.008000
41
0.008000
0
VERTEX
8
0
10
0.181000
20
0.575000
0
VERTEX
8
0
10
0.181000
20
0.775000
0
SEQEND
8
0
0
POLYLINE
8
0
66
1
40
0.008000
41
0.008000
0
VERTEX
8
0
10
-0.118000
20
0.575000
0
VERTEX
8
0
10
0.181000
20
0.575000
0
SEQEND
8
0
0
POLYLINE
8
0
66
1
40
0.008000
41
0.008000
0
VERTEX
8
0
10
-0.118000
20
0.775000
0
VERTEX
8
0
10
0.181000
20
0.775000
0
SEQEND
8
0
0
TEXT
8
12632256
10
-0.128000
20
0.625000
40
0.048000
41
1.041667
50
90.000000
1
U5
0
POLYLINE
8
0
66
1
40
0.008000
41
0.008000
0
VERTEX
8
0
10
0.322000
20
1.031000
0
VERTEX
8
0
10
0.322000
20
0.981000
0
SEQEND
8
0
0
POLYLINE
8
0
66
1
40
0.008000
41
0.008000
0
VERTEX
8
0
10
0.297000
20
0.781000
0
VERTEX
8
0
10
0.347000
20
0.781000
0
VERTEX
8
0
10
0.347000
20
0.981000
0
VERTEX
8
0
10
0.297000
20
0.981000
0
VERTEX
8
0
10
0.297000
20
0.781000
0
SEQEND
8
0
0
POLYLINE
8
0
66
1
40
0.008000
41
0.008000
0
VERTEX
8
0
10
0.322000
20
0.781000
0
VERTEX
8
0
10
0.322000
20
0.731000
0
SEQEND
8
0
0
TEXT
8
12632256
10
0.405000
20
0.806000
40
0.048000
41
1.041667
50
90.000000
1
R14
0
POLYLINE
8
0
66
1
40
0.008000
41
0.008000
0
VERTEX
8
0
10
0.413000
20
1.361000
0
VERTEX
8
0
10
1.113000
20
1.361000
0
VERTEX
8
0
10
1.113000
20
1.561000
0
VERTEX
8
0
10
0.413000
20
1.561000
0
VERTEX
8
0
10
0.413000
20
1.361000
0
SEQEND
8
0
0
TEXT
8
12632256
10
0.744000
20
1.576000
40
0.048000
41
1.041667
1
C3
0
POLYLINE
8
0
66
1
40
0.008000
41
0.008000
0
VERTEX
8
0
10
0.967000
20
1.285000
0
VERTEX
8
0
10
0.917000
20
1.285000
0
SEQEND
8
0
0
POLYLINE
8
0
66
1
40
0.008000
41
0.008000
0
VERTEX
8
0
10
0.617000
20
1.260000
0
VERTEX
8
0
10
0.917000
20
1.260000
0
VERTEX
8
0
10
0.917000
20
1.310000
0
VERTEX
8
0
10
0.617000
20
1.310000
0
VERTEX
8
0
10
0.617000
20
1.260000
0
SEQEND
8
0
0
POLYLINE
8
0
66
1
40
0.008000
41
0.008000
0
VERTEX
8
0
10
0.617000
20
1.285000
0
VERTEX
8
0
10
0.567000
20
1.285000
0
SEQEND
8
0
0
TEXT
8
12632256
10
0.717000
20
1.202000
40
0.048000
41
1.041667
1
R4
0
POLYLINE
8
0
66
1
40
0.008000
41
0.008000
0
VERTEX
8
0
10
0.644000
20
1.027000
0
VERTEX
8
0
10
0.944000
20
1.027000
0
VERTEX
8
0
10
0.944000
20
1.127000
0
VERTEX
8
0
10
0.644000
20
1.127000
0
VERTEX
8
0
10
0.644000
20
1.027000
0
SEQEND
8
0
0
POLYLINE
8
0
66
1
40
0.008000
41
0.008000
0
VERTEX
8
0
10
0.944000
20
1.027000
0
VERTEX
8
0
10
0.944000
20
0.977000
0
VERTEX
8
0
10
0.644000
20
0.977000
0
VERTEX
8
0
10
0.644000
20
1.027000
0
SEQEND
8
0
0
POLYLINE
8
0
66
1
40
0.008000
41
0.008000
0
VERTEX
8
0
10
0.944000
20
1.027000
0
VERTEX
8
0
10
0.894000
20
0.977000
0
SEQEND
8
0
0
POLYLINE
8
0
66
1
40
0.008000
41
0.008000
0
VERTEX
8
0
10
0.894000
20
1.027000
0
VERTEX
8
0
10
0.844000
20
0.977000
0
SEQEND
8
0
0
POLYLINE
8
0
66
1
40
0.008000
41
0.008000
0
VERTEX
8
0
10
0.844000
20
1.027000
0
VERTEX
8
0
10
0.794000
20
0.977000
0
SEQEND
8
0
0
POLYLINE
8
0
66
1
40
0.008000
41
0.008000
0
VERTEX
8
0
10
0.794000
20
1.027000
0
VERTEX
8
0
10
0.744000
20
0.977000
0
SEQEND
8
0
0
POLYLINE
8
0
66
1
40
0.008000
41
0.008000
0
VERTEX
8
0
10
0.744000
20
1.027000
0
VERTEX
8
0
10
0.694000
20
0.977000
0
SEQEND
8
0
0
POLYLINE
8
0
66
1
40
0.008000
41
0.008000
0
VERTEX
8
0
10
0.694000
20
1.027000
0
VERTEX
8
0
10
0.644000
20
0.977000
0
SEQEND
8
0
0
TEXT
8
12632256
10
0.719000
20
0.919000
40
0.048000
41
1.041667
1
U13
0
POLYLINE
8
0
66
1
40
0.008000
41
0.008000
0
VERTEX
8
0
10
0.633000
20
0.574000
0
VERTEX
8
0
10
0.633000
20
0.624000
0
SEQEND
8
0
0
POLYLINE
8
0
66
1
40
0.008000
41
0.008000
0
VERTEX
8
0
10
0.683000
20
0.674000
0
VERTEX
8
0
10
0.682000
20
0.684000
0
VERTEX
8
0
10
0.679000
20
0.694000
0
VERTEX
8
0
10
0.675000
20
0.702000
0
VERTEX
8
0
10
0.669000
20
0.710000
0
VERTEX
8
0
10
0.662000
20
0.716000
0
VERTEX
8
0
10
0.653000
20
0.720000
0
VERTEX
8
0
10
0.643000
20
0.723000
0
VERTEX
8
0
10
0.633000
20
0.724000
0
SEQEND
8
0
0
POLYLINE
8
0
66
1
40
0.008000
41
0.008000
0
VERTEX
8
0
10
0.683000
20
0.674000
0
VERTEX
8
0
10
0.682000
20
0.664000
0
VERTEX
8
0
10
0.679000
20
0.654000
0
VERTEX
8
0
10
0.675000
20
0.645000
0
VERTEX
8
0
10
0.669000
20
0.638000
0
VERTEX
8
0
10
0.662000
20
0.632000
0
VERTEX
8
0
10
0.653000
20
0.628000
0
VERTEX
8
0
10
0.643000
20
0.625000
0
VERTEX
8
0
10
0.633000
20
0.624000
0
SEQEND
8
0
0
POLYLINE
8
0
66
1
40
0.008000
41
0.008000
0
VERTEX
8
0
10
0.633000
20
0.724000
0
VERTEX
8
0
10
0.633000
20
0.774000
0
SEQEND
8
0
0
POLYLINE
8
0
66
1
40
0.008000
41
0.008000
0
VERTEX
8
0
10
0.933000
20
0.574000
0
VERTEX
8
0
10
0.933000
20
0.774000
0
SEQEND
8
0
0
POLYLINE
8
0
66
1
40
0.008000
41
0.008000
0
VERTEX
8
0
10
0.633000
20
0.574000
0
VERTEX
8
0
10
0.933000
20
0.574000
0
SEQEND
8
0
0
POLYLINE
8
0
66
1
40
0.008000
41
0.008000
0
VERTEX
8
0
10
0.633000
20
0.774000
0
VERTEX
8
0
10
0.933000
20
0.774000
0
SEQEND
8
0
0
TEXT
8
12632256
10
0.623000
20
0.624000
40
0.048000
41
1.041667
50
90.000000
1
U2
0
POLYLINE
8
0
66
1
40
0.008000
41
0.008000
0
VERTEX
8
0
10
1.074000
20
1.024000
0
VERTEX
8
0
10
1.074000
20
0.974000
0
SEQEND
8
0
0
POLYLINE
8
0
66
1
40
0.008000
41
0.008000
0
VERTEX
8
0
10
1.049000
20
0.774000
0
VERTEX
8
0
10
1.099000
20
0.774000
0
VERTEX
8
0
10
1.099000
20
0.974000
0
VERTEX
8
0
10
1.049000
20
0.974000
0
VERTEX
8
0
10
1.049000
20
0.774000
0
SEQEND
8
0
0
POLYLINE
8
0
66
1
40
0.008000
41
0.008000
0
VERTEX
8
0
10
1.074000
20
0.774000
0
VERTEX
8
0
10
1.074000
20
0.724000
0
SEQEND
8
0
0
TEXT
8
12632256
10
1.157000
20
0.824000
40
0.048000
41
1.041667
50
90.000000
1
R7
0
POLYLINE
8
0
66
1
40
0.008000
41
0.008000
0
VERTEX
8
0
10
-1.083000
20
1.364000
0
VERTEX
8
0
10
-0.383000
20
1.364000
0
VERTEX
8
0
10
-0.383000
20
1.564000
0
VERTEX
8
0
10
-1.083000
20
1.564000
0
VERTEX
8
0
10
-1.083000
20
1.364000
0
SEQEND
8
0
0
TEXT
8
12632256
10
-0.808000
20
1.574000
40
0.048000
41
1.041667
1
C14
0
POLYLINE
8
0
66
1
40
0.008000
41
0.008000
0
VERTEX
8
0
10
-0.532000
20
1.294000
0
VERTEX
8
0
10
-0.582000
20
1.294000
0
SEQEND
8
0
0
POLYLINE
8
0
66
1
40
0.008000
41
0.008000
0
VERTEX
8
0
10
-0.882000
20
1.269000
0
VERTEX
8
0
10
-0.582000
20
1.269000
0
VERTEX
8
0
10
-0.582000
20
1.319000
0
VERTEX
8
0
10
-0.882000
20
1.319000
0
VERTEX
8
0
10
-0.882000
20
1.269000
0
SEQEND
8
0
0
POLYLINE
8
0
66
1
40
0.008000
41
0.008000
0
VERTEX
8
0
10
-0.882000
20
1.294000
0
VERTEX
8
0
10
-0.932000
20
1.294000
0
SEQEND
8
0
0
TEXT
8
12632256
10
-0.807000
20
1.211000
40
0.048000
41
1.041667
1
R20
0
POLYLINE
8
0
66
1
40
0.008000
41
0.008000
0
VERTEX
8
0
10
-0.864000
20
1.028000
0
VERTEX
8
0
10
-0.564000
20
1.028000
0
VERTEX
8
0
10
-0.564000
20
1.128000
0
VERTEX
8
0
10
-0.864000
20
1.128000
0
VERTEX
8
0
10
-0.864000
20
1.028000
0
SEQEND
8
0
0
POLYLINE
8
0
66
1
40
0.008000
41
0.008000
0
VERTEX
8
0
10
-0.564000
20
1.028000
0
VERTEX
8
0
10
-0.564000
20
0.978000
0
VERTEX
8
0
10
-0.864000
20
0.978000
0
VERTEX
8
0
10
-0.864000
20
1.028000
0
SEQEND
8
0
0
POLYLINE
8
0
66
1
40
0.008000
41
0.008000
0
VERTEX
8
0
10
-0.564000
20
1.028000
0
VERTEX
8
0
10
-0.614000
20
0.978000
0
SEQEND
8
0
0
POLYLINE
8
0
66
1
40
0.008000
41
0.008000
0
VERTEX
8
0
10
-0.614000
20
1.028000
0
VERTEX
8
0
10
-0.664000
20
0.978000
0
SEQEND
8
0
0
POLYLINE
8
0
66
1
40
0.008000
41
0.008000
0
VERTEX
8
0
10
-0.664000
20
1.028000
0
VERTEX
8
0
10
-0.714000
20
0.978000
0
SEQEND
8
0
0
POLYLINE
8
0
66
1
40
0.008000
41
0.008000
0
VERTEX
8
0
10
-0.714000
20
1.028000
0
VERTEX
8
0
10
-0.764000
20
0.978000
0
SEQEND
8
0
0
POLYLINE
8
0
66
1
40
0.008000
41
0.008000
0
VERTEX
8
0
10
-0.764000
20
1.028000
0
VERTEX
8
0
10
-0.814000
20
0.978000
0
SEQEND
8
0
0
POLYLINE
8
0
66
1
40
0.008000
41
0.008000
0
VERTEX
8
0
10
-0.814000
20
1.028000
0
VERTEX
8
0
10
-0.864000
20
0.978000
0
SEQEND
8
0
0
TEXT
8
12632256
10
-0.764000
20
0.920000
40
0.048000
41
1.041667
1
U8
0
POLYLINE
8
0
66
1
40
0.008000
41
0.008000
0
VERTEX
8
0
10
-0.875000
20
0.569000
0
VERTEX
8
0
10
-0.875000
20
0.619000
0
SEQEND
8
0
0
POLYLINE
8
0
66
1
40
0.008000
41
0.008000
0
VERTEX
8
0
10
-0.825000
20
0.669000
0
VERTEX
8
0
10
-0.826000
20
0.679000
0
VERTEX
8
0
10
-0.829000
20
0.689000
0
VERTEX
8
0
10
-0.833000
20
0.697000
0
VERTEX
8
0
10
-0.839000
20
0.704000
0
VERTEX
8
0
10
-0.846000
20
0.711000
0
VERTEX
8
0
10
-0.855000
20
0.715000
0
VERTEX
8
0
10
-0.865000
20
0.718000
0
VERTEX
8
0
10
-0.875000
20
0.719000
0
SEQEND
8
0
0
POLYLINE
8
0
66
1
40
0.008000
41
0.008000
0
VERTEX
8
0
10
-0.825000
20
0.669000
0
VERTEX
8
0
10
-0.826000
20
0.659000
0
VERTEX
8
0
10
-0.829000
20
0.649000
0
VERTEX
8
0
10
-0.833000
20
0.640000
0
VERTEX
8
0
10
-0.839000
20
0.633000
0
VERTEX
8
0
10
-0.846000
20
0.627000
0
VERTEX
8
0
10
-0.855000
20
0.623000
0
VERTEX
8
0
10
-0.865000
20
0.620000
0
VERTEX
8
0
10
-0.875000
20
0.619000
0
SEQEND
8
0
0
POLYLINE
8
0
66
1
40
0.008000
41
0.008000
0
VERTEX
8
0
10
-0.875000
20
0.719000
0
VERTEX
8
0
10
-0.875000
20
0.769000
0
SEQEND
8
0
0
POLYLINE
8
0
66
1
40
0.008000
41
0.008000
0
VERTEX
8
0
10
-0.575000
20
0.569000
0
VERTEX
8
0
10
-0.575000
20
0.769000
0
SEQEND
8
0
0
POLYLINE
8
0
66
1
40
0.008000
41
0.008000
0
VERTEX
8
0
10
-0.875000
20
0.569000
0
VERTEX
8
0
10
-0.575000
20
0.569000
0
SEQEND
8
0
0
POLYLINE
8
0
66
1
40
0.008000
41
0.008000
0
VERTEX
8
0
10
-0.875000
20
0.769000
0
VERTEX
8
0
10
-0.575000
20
0.769000
0
SEQEND
8
0
0
TEXT
8
12632256
10
-0.885000
20
0.619000
40
0.048000
41
1.041667
50
90.000000
1
U7
0
POLYLINE
8
0
66
1
40
0.008000
41
0.008000
0
VERTEX
8
0
10
-0.448000
20
1.028000
0
VERTEX
8
0
10
-0.448000
20
0.978000
0
SEQEND
8
0
0
POLYLINE
8
0
66
1
40
0.008000
41
0.008000
0
VERTEX
8
0
10
-0.473000
20
0.778000
0
VERTEX
8
0
10
-0.423000
20
0.778000
0
VERTEX
8
0
10
-0.423000
20
0.978000
0
VERTEX
8
0
10
-0.473000
20
0.978000
0
VERTEX
8
0
10
-0.473000
20
0.778000
0
SEQEND
8
0
0
POLYLINE
8
0
66
1
40
0.008000
41
0.008000
0
VERTEX
8
0
10
-0.448000
20
0.778000
0
VERTEX
8
0
10
-0.448000
20
0.728000
0
SEQEND
8
0
0
TEXT
8
12632256
10
-0.365000
20
0.803000
40
0.048000
41
1.041667
50
90.000000
1
R18
0
POLYLINE
8
0
66
1
40
0.008000
41
0.008000
0
VERTEX
8
0
10
-1.830000
20
1.365000
0
VERTEX
8
0
10
-1.130000
20
1.365000
0
VERTEX
8
0
10
-1.130000
20
1.565000
0
VERTEX
8
0
10
-1.830000
20
1.565000
0
VERTEX
8
0
10
-1.830000
20
1.365000
0
SEQEND
8
0
0
TEXT
8
12632256
10
-1.555000
20
1.575000
40
0.048000
41
1.041667
1
C15
0
POLYLINE
8
0
66
1
40
0.008000
41
0.008000
0
VERTEX
8
0
10
-1.274000
20
1.299000
0
VERTEX
8
0
10
-1.324000
20
1.299000
0
SEQEND
8
0
0
POLYLINE
8
0
66
1
40
0.008000
41
0.008000
0
VERTEX
8
0
10
-1.624000
20
1.274000
0
VERTEX
8
0
10
-1.324000
20
1.274000
0
VERTEX
8
0
10
-1.324000
20
1.324000
0
VERTEX
8
0
10
-1.624000
20
1.324000
0
VERTEX
8
0
10
-1.624000
20
1.274000
0
SEQEND
8
0
0
POLYLINE
8
0
66
1
40
0.008000
41
0.008000
0
VERTEX
8
0
10
-1.624000
20
1.299000
0
VERTEX
8
0
10
-1.674000
20
1.299000
0
SEQEND
8
0
0
TEXT
8
12632256
10
-1.549000
20
1.216000
40
0.048000
41
1.041667
1
R23
0
POLYLINE
8
0
66
1
40
0.008000
41
0.008000
0
VERTEX
8
0
10
-1.599000
20
1.028000
0
VERTEX
8
0
10
-1.299000
20
1.028000
0
VERTEX
8
0
10
-1.299000
20
1.128000
0
VERTEX
8
0
10
-1.599000
20
1.128000
0
VERTEX
8
0
10
-1.599000
20
1.028000
0
SEQEND
8
0
0
POLYLINE
8
0
66
1
40
0.008000
41
0.008000
0
VERTEX
8
0
10
-1.299000
20
1.028000
0
VERTEX
8
0
10
-1.299000
20
0.978000
0
VERTEX
8
0
10
-1.599000
20
0.978000
0
VERTEX
8
0
10
-1.599000
20
1.028000
0
SEQEND
8
0
0
POLYLINE
8
0
66
1
40
0.008000
41
0.008000
0
VERTEX
8
0
10
-1.299000
20
1.028000
0
VERTEX
8
0
10
-1.349000
20
0.978000
0
SEQEND
8
0
0
POLYLINE
8
0
66
1
40
0.008000
41
0.008000
0
VERTEX
8
0
10
-1.349000
20
1.028000
0
VERTEX
8
0
10
-1.399000
20
0.978000
0
SEQEND
8
0
0
POLYLINE
8
0
66
1
40
0.008000
41
0.008000
0
VERTEX
8
0
10
-1.399000
20
1.028000
0
VERTEX
8
0
10
-1.449000
20
0.978000
0
SEQEND
8
0
0
POLYLINE
8
0
66
1
40
0.008000
41
0.008000
0
VERTEX
8
0
10
-1.449000
20
1.028000
0
VERTEX
8
0
10
-1.499000
20
0.978000
0
SEQEND
8
0
0
POLYLINE
8
0
66
1
40
0.008000
41
0.008000
0
VERTEX
8
0
10
-1.499000
20
1.028000
0
VERTEX
8
0
10
-1.549000
20
0.978000
0
SEQEND
8
0
0
POLYLINE
8
0
66
1
40
0.008000
41
0.008000
0
VERTEX
8
0
10
-1.549000
20
1.028000
0
VERTEX
8
0
10
-1.599000
20
0.978000
0
SEQEND
8
0
0
TEXT
8
12632256
10
-1.524000
20
0.920000
40
0.048000
41
1.041667
1
U12
0
POLYLINE
8
0
66
1
40
0.008000
41
0.008000
0
VERTEX
8
0
10
-1.618000
20
0.574000
0
VERTEX
8
0
10
-1.618000
20
0.624000
0
SEQEND
8
0
0
POLYLINE
8
0
66
1
40
0.008000
41
0.008000
0
VERTEX
8
0
10
-1.568000
20
0.674000
0
VERTEX
8
0
10
-1.569000
20
0.684000
0
VERTEX
8
0
10
-1.572000
20
0.694000
0
VERTEX
8
0
10
-1.576000
20
0.702000
0
VERTEX
8
0
10
-1.582000
20
0.710000
0
VERTEX
8
0
10
-1.589000
20
0.716000
0
VERTEX
8
0
10
-1.598000
20
0.720000
0
VERTEX
8
0
10
-1.608000
20
0.723000
0
VERTEX
8
0
10
-1.618000
20
0.724000
0
SEQEND
8
0
0
POLYLINE
8
0
66
1
40
0.008000
41
0.008000
0
VERTEX
8
0
10
-1.568000
20
0.674000
0
VERTEX
8
0
10
-1.569000
20
0.664000
0
VERTEX
8
0
10
-1.572000
20
0.654000
0
VERTEX
8
0
10
-1.576000
20
0.645000
0
VERTEX
8
0
10
-1.582000
20
0.638000
0
VERTEX
8
0
10
-1.589000
20
0.632000
0
VERTEX
8
0
10
-1.598000
20
0.628000
0
VERTEX
8
0
10
-1.608000
20
0.625000
0
VERTEX
8
0
10
-1.618000
20
0.624000
0
SEQEND
8
0
0
POLYLINE
8
0
66
1
40
0.008000
41
0.008000
0
VERTEX
8
0
10
-1.618000
20
0.724000
0
VERTEX
8
0
10
-1.618000
20
0.774000
0
SEQEND
8
0
0
POLYLINE
8
0
66
1
40
0.008000
41
0.008000
0
VERTEX
8
0
10
-1.318000
20
0.574000
0
VERTEX
8
0
10
-1.318000
20
0.774000
0
SEQEND
8
0
0
POLYLINE
8
0
66
1
40
0.008000
41
0.008000
0
VERTEX
8
0
10
-1.618000
20
0.574000
0
VERTEX
8
0
10
-1.318000
20
0.574000
0
SEQEND
8
0
0
POLYLINE
8
0
66
1
40
0.008000
41
0.008000
0
VERTEX
8
0
10
-1.618000
20
0.774000
0
VERTEX
8
0
10
-1.318000
20
0.774000
0
SEQEND
8
0
0
TEXT
8
12632256
10
-1.450000
20
0.619000
40
0.048000
41
1.041667
50
90.000000
1
U9
0
POLYLINE
8
0
66
1
40
0.008000
41
0.008000
0
VERTEX
8
0
10
-1.158000
20
1.032000
0
VERTEX
8
0
10
-1.158000
20
0.982000
0
SEQEND
8
0
0
POLYLINE
8
0
66
1
40
0.008000
41
0.008000
0
VERTEX
8
0
10
-1.183000
20
0.782000
0
VERTEX
8
0
10
-1.133000
20
0.782000
0
VERTEX
8
0
10
-1.133000
20
0.982000
0
VERTEX
8
0
10
-1.183000
20
0.982000
0
VERTEX
8
0
10
-1.183000
20
0.782000
0
SEQEND
8
0
0
POLYLINE
8
0
66
1
40
0.008000
41
0.008000
0
VERTEX
8
0
10
-1.158000
20
0.782000
0
VERTEX
8
0
10
-1.158000
20
0.732000
0
SEQEND
8
0
0
TEXT
8
12632256
10
-1.075000
20
0.807000
40
0.048000
41
1.041667
50
90.000000
1
R21
0
POLYLINE
8
0
66
1
40
0.008000
41
0.008000
0
VERTEX
8
0
10
-0.749000
20
-0.957000
0
VERTEX
8
0
10
-0.751000
20
-0.937000
0
VERTEX
8
0
10
-0.757000
20
-0.918000
0
VERTEX
8
0
10
-0.766000
20
-0.901000
0
VERTEX
8
0
10
-0.778000
20
-0.886000
0
VERTEX
8
0
10
-0.793000
20
-0.874000
0
VERTEX
8
0
10
-0.810000
20
-0.865000
0
VERTEX
8
0
10
-0.829000
20
-0.859000
0
VERTEX
8
0
10
-0.849000
20
-0.857000
0
SEQEND
8
0
0
POLYLINE
8
0
66
1
40
0.008000
41
0.008000
0
VERTEX
8
0
10
-0.749000
20
-0.957000
0
VERTEX
8
0
10
-0.751000
20
-0.978000
0
VERTEX
8
0
10
-0.757000
20
-0.997000
0
VERTEX
8
0
10
-0.766000
20
-1.014000
0
VERTEX
8
0
10
-0.778000
20
-1.028000
0
VERTEX
8
0
10
-0.793000
20
-1.040000
0
VERTEX
8
0
10
-0.810000
20
-1.049000
0
VERTEX
8
0
10
-0.829000
20
-1.055000
0
VERTEX
8
0
10
-0.849000
20
-1.057000
0
SEQEND
8
0
0
POLYLINE
8
0
66
1
40
0.008000
41
0.008000
0
VERTEX
8
0
10
-0.849000
20
-0.857000
0
VERTEX
8
0
10
-0.849000
20
-0.707000
0
SEQEND
8
0
0
POLYLINE
8
0
66
1
40
0.008000
41
0.008000
0
VERTEX
8
0
10
1.150000
20
-0.707000
0
VERTEX
8
0
10
1.150000
20
-1.207000
0
SEQEND
8
0
0
POLYLINE
8
0
66
1
40
0.008000
41
0.008000
0
VERTEX
8
0
10
-0.849000
20
-1.207000
0
VERTEX
8
0
10
-0.849000
20
-1.057000
0
SEQEND
8
0
0
POLYLINE
8
0
66
1
40
0.008000
41
0.008000
0
VERTEX
8
0
10
-0.849000
20
-0.707000
0
VERTEX
8
0
10
1.150000
20
-0.707000
0
SEQEND
8
0
0
POLYLINE
8
0
66
1
40
0.008000
41
0.008000
0
VERTEX
8
0
10
-0.849000
20
-1.207000
0
VERTEX
8
0
10
1.150000
20
-1.207000
0
SEQEND
8
0
0
TEXT
8
12632256
10
-0.859000
20
-1.007000
40
0.048000
41
1.041667
50
90.000000
1
U1
0
POLYLINE
8
0
66
1
40
0.008000
41
0.008000
0
VERTEX
8
0
10
0.723000
20
-1.481000
0
VERTEX
8
0
10
0.726000
20
-1.471000
0
VERTEX
8
0
10
0.734000
20
-1.461000
0
VERTEX
8
0
10
0.748000
20
-1.453000
0
VERTEX
8
0
10
0.766000
20
-1.446000
0
VERTEX
8
0
10
0.788000
20
-1.439000
0
VERTEX
8
0
10
0.814000
20
-1.435000
0
VERTEX
8
0
10
0.842000
20
-1.432000
0
VERTEX
8
0
10
0.873000
20
-1.431000
0
SEQEND
8
0
0
POLYLINE
8
0
66
1
40
0.008000
41
0.008000
0
VERTEX
8
0
10
1.023000
20
-1.481000
0
VERTEX
8
0
10
1.020000
20
-1.471000
0
VERTEX
8
0
10
1.011000
20
-1.461000
0
VERTEX
8
0
10
0.998000
20
-1.453000
0
VERTEX
8
0
10
0.980000
20
-1.446000
0
VERTEX
8
0
10
0.958000
20
-1.439000
0
VERTEX
8
0
10
0.932000
20
-1.435000
0
VERTEX
8
0
10
0.904000
20
-1.432000
0
VERTEX
8
0
10
0.873000
20
-1.431000
0
SEQEND
8
0
0
POLYLINE
8
0
66
1
40
0.008000
41
0.008000
0
VERTEX
8
0
10
1.023000
20
-1.481000
0
VERTEX
8
0
10
1.020000
20
-1.491000
0
VERTEX
8
0
10
1.011000
20
-1.501000
0
VERTEX
8
0
10
0.998000
20
-1.509000
0
VERTEX
8
0
10
0.980000
20
-1.516000
0
VERTEX
8
0
10
0.958000
20
-1.523000
0
VERTEX
8
0
10
0.932000
20
-1.527000
0
VERTEX
8
0
10
0.904000
20
-1.530000
0
VERTEX
8
0
10
0.873000
20
-1.531000
0
SEQEND
8
0
0
POLYLINE
8
0
66
1
40
0.008000
41
0.008000
0
VERTEX
8
0
10
0.723000
20
-1.481000
0
VERTEX
8
0
10
0.726000
20
-1.491000
0
VERTEX
8
0
10
0.734000
20
-1.501000
0
VERTEX
8
0
10
0.748000
20
-1.509000
0
VERTEX
8
0
10
0.766000
20
-1.516000
0
VERTEX
8
0
10
0.788000
20
-1.523000
0
VERTEX
8
0
10
0.814000
20
-1.527000
0
VERTEX
8
0
10
0.842000
20
-1.530000
0
VERTEX
8
0
10
0.873000
20
-1.531000
0
SEQEND
8
0
0
TEXT
8
12632256
10
0.839000
20
-1.421000
40
0.048000
41
1.041667
1
C1
0
POLYLINE
8
0
66
1
40
0.008000
41
0.008000
0
VERTEX
8
0
10
0.460000
20
-1.311000
0
VERTEX
8
0
10
0.470000
20
-1.313000
0
VERTEX
8
0
10
0.480000
20
-1.319000
0
VERTEX
8
0
10
0.488000
20
-1.328000
0
VERTEX
8
0
10
0.496000
20
-1.340000
0
VERTEX
8
0
10
0.502000
20
-1.355000
0
VERTEX
8
0
10
0.506000
20
-1.372000
0
VERTEX
8
0
10
0.509000
20
-1.391000
0
VERTEX
8
0
10
0.510000
20
-1.411000
0
SEQEND
8
0
0
POLYLINE
8
0
66
1
40
0.008000
41
0.008000
0
VERTEX
8
0
10
0.460000
20
-1.511000
0
VERTEX
8
0
10
0.470000
20
-1.509000
0
VERTEX
8
0
10
0.480000
20
-1.503000
0
VERTEX
8
0
10
0.488000
20
-1.494000
0
VERTEX
8
0
10
0.496000
20
-1.482000
0
VERTEX
8
0
10
0.502000
20
-1.467000
0
VERTEX
8
0
10
0.506000
20
-1.450000
0
VERTEX
8
0
10
0.509000
20
-1.431000
0
VERTEX
8
0
10
0.510000
20
-1.411000
0
SEQEND
8
0
0
POLYLINE
8
0
66
1
40
0.008000
41
0.008000
0
VERTEX
8
0
10
0.460000
20
-1.311000
0
VERTEX
8
0
10
0.450000
20
-1.313000
0
VERTEX
8
0
10
0.440000
20
-1.319000
0
VERTEX
8
0
10
0.432000
20
-1.328000
0
VERTEX
8
0
10
0.424000
20
-1.340000
0
VERTEX
8
0
10
0.418000
20
-1.355000
0
VERTEX
8
0
10
0.414000
20
-1.372000
0
VERTEX
8
0
10
0.411000
20
-1.391000
0
VERTEX
8
0
10
0.410000
20
-1.411000
0
SEQEND
8
0
0
POLYLINE
8
0
66
1
40
0.008000
41
0.008000
0
VERTEX
8
0
10
0.460000
20
-1.511000
0
VERTEX
8
0
10
0.450000
20
-1.509000
0
VERTEX
8
0
10
0.440000
20
-1.503000
0
VERTEX
8
0
10
0.432000
20
-1.494000
0
VERTEX
8
0
10
0.424000
20
-1.482000
0
VERTEX
8
0
10
0.418000
20
-1.467000
0
VERTEX
8
0
10
0.414000
20
-1.450000
0
VERTEX
8
0
10
0.411000
20
-1.431000
0
VERTEX
8
0
10
0.410000
20
-1.411000
0
SEQEND
8
0
0
TEXT
8
12632256
10
0.401000
20
-1.447000
40
0.048000
41
1.041667
50
90.000000
1
C8
0
POLYLINE
8
0
66
1
40
0.008000
41
0.008000
0
VERTEX
8
0
10
0.579000
20
-1.309000
0
VERTEX
8
0
10
0.589000
20
-1.311000
0
VERTEX
8
0
10
0.599000
20
-1.317000
0
VERTEX
8
0
10
0.607000
20
-1.326000
0
VERTEX
8
0
10
0.614000
20
-1.338000
0
VERTEX
8
0
10
0.620000
20
-1.353000
0
VERTEX
8
0
10
0.625000
20
-1.370000
0
VERTEX
8
0
10
0.628000
20
-1.389000
0
VERTEX
8
0
10
0.629000
20
-1.409000
0
SEQEND
8
0
0
POLYLINE
8
0
66
1
40
0.008000
41
0.008000
0
VERTEX
8
0
10
0.579000
20
-1.509000
0
VERTEX
8
0
10
0.589000
20
-1.507000
0
VERTEX
8
0
10
0.599000
20
-1.501000
0
VERTEX
8
0
10
0.607000
20
-1.492000
0
VERTEX
8
0
10
0.614000
20
-1.480000
0
VERTEX
8
0
10
0.620000
20
-1.465000
0
VERTEX
8
0
10
0.625000
20
-1.448000
0
VERTEX
8
0
10
0.628000
20
-1.429000
0
VERTEX
8
0
10
0.629000
20
-1.409000
0
SEQEND
8
0
0
POLYLINE
8
0
66
1
40
0.008000
41
0.008000
0
VERTEX
8
0
10
0.579000
20
-1.309000
0
VERTEX
8
0
10
0.569000
20
-1.311000
0
VERTEX
8
0
10
0.559000
20
-1.317000
0
VERTEX
8
0
10
0.551000
20
-1.326000
0
VERTEX
8
0
10
0.544000
20
-1.338000
0
VERTEX
8
0
10
0.538000
20
-1.353000
0
VERTEX
8
0
10
0.533000
20
-1.370000
0
VERTEX
8
0
10
0.530000
20
-1.389000
0
VERTEX
8
0
10
0.529000
20
-1.409000
0
SEQEND
8
0
0
POLYLINE
8
0
66
1
40
0.008000
41
0.008000
0
VERTEX
8
0
10
0.579000
20
-1.509000
0
VERTEX
8
0
10
0.569000
20
-1.507000
0
VERTEX
8
0
10
0.559000
20
-1.501000
0
VERTEX
8
0
10
0.551000
20
-1.492000
0
VERTEX
8
0
10
0.544000
20
-1.480000
0
VERTEX
8
0
10
0.538000
20
-1.465000
0
VERTEX
8
0
10
0.533000
20
-1.448000
0
VERTEX
8
0
10
0.530000
20
-1.429000
0
VERTEX
8
0
10
0.529000
20
-1.409000
0
SEQEND
8
0
0
TEXT
8
12632256
10
0.698000
20
-1.467000
40
0.048000
41
1.041667
50
90.000000
1
C9
0
POLYLINE
8
0
66
1
40
0.008000
41
0.008000
0
VERTEX
8
0
10
0.361000
20
-0.967000
0
VERTEX
8
0
10
0.661000
20
-0.967000
0
VERTEX
8
0
10
0.711000
20
-1.017000
0
VERTEX
8
0
10
0.711000
20
-1.117000
0
VERTEX
8
0
10
0.661000
20
-1.167000
0
VERTEX
8
0
10
0.361000
20
-1.167000
0
VERTEX
8
0
10
0.311000
20
-1.117000
0
VERTEX
8
0
10
0.311000
20
-1.017000
0
VERTEX
8
0
10
0.361000
20
-0.967000
0
SEQEND
8
0
0
TEXT
8
12632256
10
0.461000
20
-0.957000
40
0.048000
41
1.041667
1
X1
0
POLYLINE
8
0
66
1
40
0.008000
41
0.008000
0
VERTEX
8
0
10
0.076000
20
-0.750000
0
VERTEX
8
0
10
0.038000
20
-0.750000
0
SEQEND
8
0
0
POLYLINE
8
0
66
1
40
0.008000
41
0.008000
0
VERTEX
8
0
10
0.076000
20
-0.861000
0
VERTEX
8
0
10
0.037000
20
-0.861000
0
SEQEND
8
0
0
POLYLINE
8
0
66
1
40
0.008000
41
0.008000
0
VERTEX
8
0
10
-0.003000
20
-0.735000
0
VERTEX
8
0
10
-0.003000
20
-0.715000
0
SEQEND
8
0
0
POLYLINE
8
0
66
1
40
0.008000
41
0.008000
0
VERTEX
8
0
10
0.006000
20
-0.725000
0
VERTEX
8
0
10
-0.013000
20
-0.725000
0
SEQEND
8
0
0
TEXT
8
12632256
10
0.310000
20
-0.821000
40
0.048000
41
1.041667
71
2
1
C16
0
POLYLINE
8
0
66
1
40
0.008000
41
0.008000
0
VERTEX
8
0
10
0.220000
20
-1.019000
0
VERTEX
8
0
10
0.182000
20
-1.019000
0
SEQEND
8
0
0
POLYLINE
8
0
66
1
40
0.008000
41
0.008000
0
VERTEX
8
0
10
0.220000
20
-1.130000
0
VERTEX
8
0
10
0.181000
20
-1.130000
0
SEQEND
8
0
0
POLYLINE
8
0
66
1
40
0.008000
41
0.008000
0
VERTEX
8
0
10
0.140000
20
-1.004000
0
VERTEX
8
0
10
0.140000
20
-0.984000
0
SEQEND
8
0
0
POLYLINE
8
0
66
1
40
0.008000
41
0.008000
0
VERTEX
8
0
10
0.150000
20
-0.994000
0
VERTEX
8
0
10
0.130000
20
-0.994000
0
SEQEND
8
0
0
TEXT
8
12632256
10
0.278000
20
-0.978000
40
0.048000
41
1.041667
71
2
1
C18
0
TEXT
8
12632256
10
1.238000
20
-1.613000
40
0.064000
41
1.093750
50
90.000000
1
OUT
0
TEXT
8
12632256
10
1.482000
20
-1.614000
40
0.064000
41
1.093750
50
90.000000
1
VCC
0
TEXT
8
12632256
10
1.656000
20
-1.616000
40
0.064000
41
1.093750
50
90.000000
1
GND
0
TEXT
8
12632256
10
1.855000
20
-1.625000
40
0.064000
41
1.093750
50
90.000000
1
OUT
0
TEXT
8
12632256
10
2.048000
20
-1.622000
40
0.064000
41
1.093750
50
90.000000
1
VCC
0
TEXT
8
12632256
10
2.234000
20
-1.621000
40
0.064000
41
1.093750
50
90.000000
1
GND
0
TEXT
8
12632256
10
-2.123000
20
-1.781000
40
0.064000
41
1.093750
1
FLITRO
0
TEXT
8
12632256
10
-2.211000
20
-1.929000
40
0.064000
41
1.093750
1
DOWNFLOW
0
TEXT
8
12632256
10
-1.191000
20
-1.911000
40
0.064000
41
1.093750
1
INFLOW
0
TEXT
8
12632256
10
-1.196000
20
-1.750000
40
0.064000
41
1.093750
1
FLITRO
0
POLYLINE
8
0
66
1
40
0.006000
41
0.006000
0
VERTEX
8
0
10
2.661000
20
0.124000
0
VERTEX
8
0
10
2.711000
20
0.149000
0
SEQEND
8
0
0
POLYLINE
8
0
66
1
40
0.006000
41
0.006000
0
VERTEX
8
0
10
2.661000
20
0.174000
0
VERTEX
8
0
10
2.711000
20
0.149000
0
SEQEND
8
0
0
POLYLINE
8
0
66
1
40
0.006000
41
0.006000
0
VERTEX
8
0
10
2.661000
20
-0.149000
0
VERTEX
8
0
10
2.661000
20
0.322000
0
VERTEX
8
0
10
2.011000
20
0.322000
0
VERTEX
8
0
10
2.011000
20
-0.149000
0
VERTEX
8
0
10
2.661000
20
-0.149000
0
SEQEND
8
0
0
TEXT
8
12632256
10
1.990000
20
0.255000
40
0.048000
41
1.041667
50
90.000000
1
J9
0
POLYLINE
8
0
66
1
40
0.008000
41
0.008000
0
VERTEX
8
0
10
1.108000
20
-0.162000
0
VERTEX
8
0
10
1.108000
20
-0.212000
0
SEQEND
8
0
0
POLYLINE
8
0
66
1
40
0.008000
41
0.008000
0
VERTEX
8
0
10
1.083000
20
-0.412000
0
VERTEX
8
0
10
1.133000
20
-0.412000
0
VERTEX
8
0
10
1.133000
20
-0.212000
0
VERTEX
8
0
10
1.083000
20
-0.212000
0
VERTEX
8
0
10
1.083000
20
-0.412000
0
SEQEND
8
0
0
POLYLINE
8
0
66
1
40
0.008000
41
0.008000
0
VERTEX
8
0
10
1.108000
20
-0.412000
0
VERTEX
8
0
10
1.108000
20
-0.462000
0
SEQEND
8
0
0
TEXT
8
12632256
10
1.191000
20
-0.387000
40
0.048000
41
1.041667
50
90.000000
1
R16
0
POLYLINE
8
0
66
1
40
0.008000
41
0.008000
0
VERTEX
8
0
10
0.981000
20
-0.162000
0
VERTEX
8
0
10
0.981000
20
-0.212000
0
SEQEND
8
0
0
POLYLINE
8
0
66
1
40
0.008000
41
0.008000
0
VERTEX
8
0
10
0.956000
20
-0.412000
0
VERTEX
8
0
10
1.006000
20
-0.412000
0
VERTEX
8
0
10
1.006000
20
-0.212000
0
VERTEX
8
0
10
0.956000
20
-0.212000
0
VERTEX
8
0
10
0.956000
20
-0.412000
0
SEQEND
8
0
0
POLYLINE
8
0
66
1
40
0.008000
41
0.008000
0
VERTEX
8
0
10
0.981000
20
-0.412000
0
VERTEX
8
0
10
0.981000
20
-0.462000
0
SEQEND
8
0
0
TEXT
8
12632256
10
1.064000
20
-0.387000
40
0.048000
41
1.041667
50
90.000000
1
R12
0
POLYLINE
8
0
66
1
40
0.008000
41
0.008000
0
VERTEX
8
0
10
0.702000
20
-0.162000
0
VERTEX
8
0
10
0.702000
20
-0.212000
0
SEQEND
8
0
0
POLYLINE
8
0
66
1
40
0.008000
41
0.008000
0
VERTEX
8
0
10
0.677000
20
-0.412000
0
VERTEX
8
0
10
0.727000
20
-0.412000
0
VERTEX
8
0
10
0.727000
20
-0.212000
0
VERTEX
8
0
10
0.677000
20
-0.212000
0
VERTEX
8
0
10
0.677000
20
-0.412000
0
SEQEND
8
0
0
POLYLINE
8
0
66
1
40
0.008000
41
0.008000
0
VERTEX
8
0
10
0.702000
20
-0.412000
0
VERTEX
8
0
10
0.702000
20
-0.462000
0
SEQEND
8
0
0
TEXT
8
12632256
10
0.785000
20
-0.362000
40
0.048000
41
1.041667
50
90.000000
1
R8
0
POLYLINE
8
0
66
1
40
0.008000
41
0.008000
0
VERTEX
8
0
10
0.575000
20
-0.162000
0
VERTEX
8
0
10
0.575000
20
-0.212000
0
SEQEND
8
0
0
POLYLINE
8
0
66
1
40
0.008000
41
0.008000
0
VERTEX
8
0
10
0.550000
20
-0.412000
0
VERTEX
8
0
10
0.600000
20
-0.412000
0
VERTEX
8
0
10
0.600000
20
-0.212000
0
VERTEX
8
0
10
0.550000
20
-0.212000
0
VERTEX
8
0
10
0.550000
20
-0.412000
0
SEQEND
8
0
0
POLYLINE
8
0
66
1
40
0.008000
41
0.008000
0
VERTEX
8
0
10
0.575000
20
-0.412000
0
VERTEX
8
0
10
0.575000
20
-0.462000
0
SEQEND
8
0
0
TEXT
8
12632256
10
0.658000
20
-0.387000
40
0.048000
41
1.041667
50
90.000000
1
R15
0
POLYLINE
8
0
66
1
40
0.008000
41
0.008000
0
VERTEX
8
0
10
0.451000
20
-0.162000
0
VERTEX
8
0
10
0.451000
20
-0.212000
0
SEQEND
8
0
0
POLYLINE
8
0
66
1
40
0.008000
41
0.008000
0
VERTEX
8
0
10
0.426000
20
-0.412000
0
VERTEX
8
0
10
0.476000
20
-0.412000
0
VERTEX
8
0
10
0.476000
20
-0.212000
0
VERTEX
8
0
10
0.426000
20
-0.212000
0
VERTEX
8
0
10
0.426000
20
-0.412000
0
SEQEND
8
0
0
POLYLINE
8
0
66
1
40
0.008000
41
0.008000
0
VERTEX
8
0
10
0.451000
20
-0.412000
0
VERTEX
8
0
10
0.451000
20
-0.462000
0
SEQEND
8
0
0
TEXT
8
12632256
10
0.534000
20
-0.387000
40
0.048000
41
1.041667
50
90.000000
1
R19
0
POLYLINE
8
0
66
1
40
0.008000
41
0.008000
0
VERTEX
8
0
10
0.329000
20
-0.162000
0
VERTEX
8
0
10
0.329000
20
-0.212000
0
SEQEND
8
0
0
POLYLINE
8
0
66
1
40
0.008000
41
0.008000
0
VERTEX
8
0
10
0.304000
20
-0.412000
0
VERTEX
8
0
10
0.354000
20
-0.412000
0
VERTEX
8
0
10
0.354000
20
-0.212000
0
VERTEX
8
0
10
0.304000
20
-0.212000
0
VERTEX
8
0
10
0.304000
20
-0.412000
0
SEQEND
8
0
0
POLYLINE
8
0
66
1
40
0.008000
41
0.008000
0
VERTEX
8
0
10
0.329000
20
-0.412000
0
VERTEX
8
0
10
0.329000
20
-0.462000
0
SEQEND
8
0
0
TEXT
8
12632256
10
0.412000
20
-0.387000
40
0.048000
41
1.041667
50
90.000000
1
R22
0
POLYLINE
8
0
66
1
40
0.008000
41
0.008000
0
VERTEX
8
0
10
0.263000
20
-2.030000
0
VERTEX
8
0
10
0.263000
20
-1.630000
0
SEQEND
8
0
0
POLYLINE
8
0
66
1
40
0.008000
41
0.008000
0
VERTEX
8
0
10
-0.536000
20
-2.030000
0
VERTEX
8
0
10
-0.536000
20
-1.630000
0
VERTEX
8
0
10
0.263000
20
-1.630000
0
SEQEND
8
0
0
POLYLINE
8
0
66
1
40
0.008000
41
0.008000
0
VERTEX
8
0
10
0.263000
20
-2.030000
0
VERTEX
8
0
10
-0.536000
20
-2.030000
0
SEQEND
8
0
0
TEXT
8
12632256
10
-0.211000
20
-2.088000
40
0.048000
41
1.041667
1
J17
0
POLYLINE
8
0
66
1
40
0.008000
41
0.008000
0
VERTEX
8
0
10
1.090000
20
-2.030000
0
VERTEX
8
0
10
1.090000
20
-1.630000
0
SEQEND
8
0
0
POLYLINE
8
0
66
1
40
0.008000
41
0.008000
0
VERTEX
8
0
10
0.290000
20
-2.030000
0
VERTEX
8
0
10
0.290000
20
-1.630000
0
VERTEX
8
0
10
1.090000
20
-1.630000
0
SEQEND
8
0
0
POLYLINE
8
0
66
1
40
0.008000
41
0.008000
0
VERTEX
8
0
10
1.090000
20
-2.030000
0
VERTEX
8
0
10
0.290000
20
-2.030000
0
SEQEND
8
0
0
TEXT
8
12632256
10
0.640000
20
-2.088000
40
0.048000
41
1.041667
1
J4
0
POLYLINE
8
0
66
1
40
0.008000
41
0.008000
0
VERTEX
8
0
10
2.629000
20
-0.479000
0
VERTEX
8
0
10
2.229000
20
-0.479000
0
SEQEND
8
0
0
POLYLINE
8
0
66
1
40
0.008000
41
0.008000
0
VERTEX
8
0
10
2.629000
20
-1.479000
0
VERTEX
8
0
10
2.229000
20
-1.479000
0
SEQEND
8
0
0
POLYLINE
8
0
66
1
40
0.008000
41
0.008000
0
VERTEX
8
0
10
2.629000
20
-1.479000
0
VERTEX
8
0
10
2.629000
20
-0.479000
0
SEQEND
8
0
0
POLYLINE
8
0
66
1
40
0.008000
41
0.008000
0
VERTEX
8
0
10
2.229000
20
-0.479000
0
VERTEX
8
0
10
2.229000
20
-1.479000
0
SEQEND
8
0
0
TEXT
8
12632256
10
2.512000
20
-1.651000
40
0.048000
41
1.041667
50
90.000000
1
J15
0
POLYLINE
8
0
66
1
40
0.008000
41
0.008000
0
VERTEX
8
0
10
1.733000
20
-0.347000
0
VERTEX
8
0
10
1.783000
20
-0.347000
0
SEQEND
8
0
0
POLYLINE
8
0
66
1
40
0.008000
41
0.008000
0
VERTEX
8
0
10
1.583000
20
-0.347000
0
VERTEX
8
0
10
1.633000
20
-0.347000
0
SEQEND
8
0
0
POLYLINE
8
0
66
1
40
0.008000
41
0.008000
0
VERTEX
8
0
10
1.683000
20
-0.397000
0
VERTEX
8
0
10
1.693000
20
-0.396000
0
VERTEX
8
0
10
1.703000
20
-0.393000
0
VERTEX
8
0
10
1.711000
20
-0.389000
0
VERTEX
8
0
10
1.718000
20
-0.383000
0
VERTEX
8
0
10
1.724000
20
-0.376000
0
VERTEX
8
0
10
1.729000
20
-0.367000
0
VERTEX
8
0
10
1.732000
20
-0.357000
0
VERTEX
8
0
10
1.733000
20
-0.347000
0
SEQEND
8
0
0
POLYLINE
8
0
66
1
40
0.008000
41
0.008000
0
VERTEX
8
0
10
1.683000
20
-0.397000
0
VERTEX
8
0
10
1.673000
20
-0.396000
0
VERTEX
8
0
10
1.663000
20
-0.393000
0
VERTEX
8
0
10
1.654000
20
-0.389000
0
VERTEX
8
0
10
1.647000
20
-0.383000
0
VERTEX
8
0
10
1.641000
20
-0.376000
0
VERTEX
8
0
10
1.637000
20
-0.367000
0
VERTEX
8
0
10
1.634000
20
-0.357000
0
VERTEX
8
0
10
1.633000
20
-0.347000
0
SEQEND
8
0
0
POLYLINE
8
0
66
1
40
0.008000
41
0.008000
0
VERTEX
8
0
10
1.583000
20
-0.347000
0
VERTEX
8
0
10
1.583000
20
-1.047000
0
VERTEX
8
0
10
1.783000
20
-1.047000
0
VERTEX
8
0
10
1.783000
20
-0.347000
0
SEQEND
8
0
0
TEXT
8
12632256
10
1.608000
20
-0.337000
40
0.048000
41
1.041667
1
U20
0
POLYLINE
8
0
66
1
40
0.008000
41
0.008000
0
VERTEX
8
0
10
1.405000
20
-1.296000
0
VERTEX
8
0
10
1.455000
20
-1.296000
0
SEQEND
8
0
0
POLYLINE
8
0
66
1
40
0.008000
41
0.008000
0
VERTEX
8
0
10
1.455000
20
-1.321000
0
VERTEX
8
0
10
1.655000
20
-1.321000
0
VERTEX
8
0
10
1.655000
20
-1.271000
0
VERTEX
8
0
10
1.455000
20
-1.271000
0
VERTEX
8
0
10
1.455000
20
-1.321000
0
SEQEND
8
0
0
POLYLINE
8
0
66
1
40
0.008000
41
0.008000
0
VERTEX
8
0
10
1.655000
20
-1.296000
0
VERTEX
8
0
10
1.705000
20
-1.296000
0
SEQEND
8
0
0
TEXT
8
12632256
10
1.480000
20
-1.261000
40
0.048000
41
1.041667
1
R41
0
CIRCLE
8
12632256
10
1.934000
20
-1.294000
40
0.100000
0
POLYLINE
8
0
66
1
40
0.008000
41
0.008000
0
VERTEX
8
0
10
1.859000
20
-1.244000
0
VERTEX
8
0
10
1.909000
20
-1.244000
0
SEQEND
8
0
0
POLYLINE
8
0
66
1
40
0.008000
41
0.008000
0
VERTEX
8
0
10
1.884000
20
-1.219000
0
VERTEX
8
0
10
1.884000
20
-1.269000
0
SEQEND
8
0
0
TEXT
8
12632256
10
1.859000
20
-1.184000
40
0.048000
41
1.041667
1
C32
0
POLYLINE
8
0
66
1
40
0.008000
41
0.008000
0
VERTEX
8
0
10
1.380000
20
-0.381000
0
VERTEX
8
0
10
1.380000
20
-0.331000
0
SEQEND
8
0
0
POLYLINE
8
0
66
1
40
0.008000
41
0.008000
0
VERTEX
8
0
10
1.355000
20
-0.331000
0
VERTEX
8
0
10
1.405000
20
-0.331000
0
VERTEX
8
0
10
1.405000
20
-0.131000
0
VERTEX
8
0
10
1.355000
20
-0.131000
0
VERTEX
8
0
10
1.355000
20
-0.331000
0
SEQEND
8
0
0
POLYLINE
8
0
66
1
40
0.008000
41
0.008000
0
VERTEX
8
0
10
1.380000
20
-0.131000
0
VERTEX
8
0
10
1.380000
20
-0.081000
0
SEQEND
8
0
0
TEXT
8
12632256
10
1.345000
20
-0.306000
40
0.048000
41
1.041667
50
90.000000
1
R30
0
POLYLINE
8
0
66
1
40
0.008000
41
0.008000
0
VERTEX
8
0
10
1.377000
20
-0.629000
0
VERTEX
8
0
10
1.377000
20
-0.679000
0
SEQEND
8
0
0
POLYLINE
8
0
66
1
40
0.008000
41
0.008000
0
VERTEX
8
0
10
1.352000
20
-0.879000
0
VERTEX
8
0
10
1.402000
20
-0.879000
0
VERTEX
8
0
10
1.402000
20
-0.679000
0
VERTEX
8
0
10
1.352000
20
-0.679000
0
VERTEX
8
0
10
1.352000
20
-0.879000
0
SEQEND
8
0
0
POLYLINE
8
0
66
1
40
0.008000
41
0.008000
0
VERTEX
8
0
10
1.377000
20
-0.879000
0
VERTEX
8
0
10
1.377000
20
-0.929000
0
SEQEND
8
0
0
TEXT
8
12632256
10
1.332000
20
-0.854000
40
0.048000
41
1.041667
50
90.000000
1
R40
0
POLYLINE
8
0
66
1
40
0.008000
41
0.008000
0
VERTEX
8
0
10
2.011000
20
-0.755000
0
VERTEX
8
0
10
2.011000
20
-0.805000
0
SEQEND
8
0
0
POLYLINE
8
0
66
1
40
0.008000
41
0.008000
0
VERTEX
8
0
10
1.986000
20
-1.005000
0
VERTEX
8
0
10
2.036000
20
-1.005000
0
VERTEX
8
0
10
2.036000
20
-0.805000
0
VERTEX
8
0
10
1.986000
20
-0.805000
0
VERTEX
8
0
10
1.986000
20
-1.005000
0
SEQEND
8
0
0
POLYLINE
8
0
66
1
40
0.008000
41
0.008000
0
VERTEX
8
0
10
2.011000
20
-1.005000
0
VERTEX
8
0
10
2.011000
20
-1.055000
0
SEQEND
8
0
0
TEXT
8
12632256
10
2.094000
20
-0.980000
40
0.048000
41
1.041667
50
90.000000
1
R70
0
POLYLINE
8
0
66
1
40
0.008000
41
0.008000
0
VERTEX
8
0
10
2.003000
20
-0.255000
0
VERTEX
8
0
10
2.003000
20
-0.305000
0
SEQEND
8
0
0
POLYLINE
8
0
66
1
40
0.008000
41
0.008000
0
VERTEX
8
0
10
1.978000
20
-0.505000
0
VERTEX
8
0
10
2.028000
20
-0.505000
0
VERTEX
8
0
10
2.028000
20
-0.305000
0
VERTEX
8
0
10
1.978000
20
-0.305000
0
VERTEX
8
0
10
1.978000
20
-0.505000
0
SEQEND
8
0
0
POLYLINE
8
0
66
1
40
0.008000
41
0.008000
0
VERTEX
8
0
10
2.003000
20
-0.505000
0
VERTEX
8
0
10
2.003000
20
-0.555000
0
SEQEND
8
0
0
TEXT
8
12632256
10
2.086000
20
-0.480000
40
0.048000
41
1.041667
50
90.000000
1
R71
0
POLYLINE
8
0
66
1
40
0.008000
41
0.008000
0
VERTEX
8
0
10
-0.059000
20
-0.200000
0
VERTEX
8
0
10
-0.059000
20
-0.150000
0
SEQEND
8
0
0
POLYLINE
8
0
66
1
40
0.008000
41
0.008000
0
VERTEX
8
0
10
-0.084000
20
-0.150000
0
VERTEX
8
0
10
-0.034000
20
-0.150000
0
VERTEX
8
0
10
-0.034000
20
0.049000
0
VERTEX
8
0
10
-0.084000
20
0.049000
0
VERTEX
8
0
10
-0.084000
20
-0.150000
0
SEQEND
8
0
0
POLYLINE
8
0
66
1
40
0.008000
41
0.008000
0
VERTEX
8
0
10
-0.059000
20
0.049000
0
VERTEX
8
0
10
-0.059000
20
0.099000
0
SEQEND
8
0
0
TEXT
8
12632256
10
-0.094000
20
-0.100000
40
0.048000
41
1.041667
50
90.000000
1
R2
0
POLYLINE
8
0
66
1
40
0.008000
41
0.008000
0
VERTEX
8
0
10
-0.174000
20
-0.200000
0
VERTEX
8
0
10
-0.174000
20
-0.150000
0
SEQEND
8
0
0
POLYLINE
8
0
66
1
40
0.008000
41
0.008000
0
VERTEX
8
0
10
-0.199000
20
-0.150000
0
VERTEX
8
0
10
-0.149000
20
-0.150000
0
VERTEX
8
0
10
-0.149000
20
0.049000
0
VERTEX
8
0
10
-0.199000
20
0.049000
0
VERTEX
8
0
10
-0.199000
20
-0.150000
0
SEQEND
8
0
0
POLYLINE
8
0
66
1
40
0.008000
41
0.008000
0
VERTEX
8
0
10
-0.174000
20
0.049000
0
VERTEX
8
0
10
-0.174000
20
0.099000
0
SEQEND
8
0
0
TEXT
8
12632256
10
-0.209000
20
-0.100000
40
0.048000
41
1.041667
50
90.000000
1
R3
0
POLYLINE
8
0
66
1
40
0.008000
41
0.008000
0
VERTEX
8
0
10
-0.289000
20
-0.200000
0
VERTEX
8
0
10
-0.289000
20
-0.150000
0
SEQEND
8
0
0
POLYLINE
8
0
66
1
40
0.008000
41
0.008000
0
VERTEX
8
0
10
-0.314000
20
-0.150000
0
VERTEX
8
0
10
-0.264000
20
-0.150000
0
VERTEX
8
0
10
-0.264000
20
0.049000
0
VERTEX
8
0
10
-0.314000
20
0.049000
0
VERTEX
8
0
10
-0.314000
20
-0.150000
0
SEQEND
8
0
0
POLYLINE
8
0
66
1
40
0.008000
41
0.008000
0
VERTEX
8
0
10
-0.289000
20
0.049000
0
VERTEX
8
0
10
-0.289000
20
0.099000
0
SEQEND
8
0
0
TEXT
8
12632256
10
-0.324000
20
-0.100000
40
0.048000
41
1.041667
50
90.000000
1
R5
0
POLYLINE
8
0
66
1
40
0.008000
41
0.008000
0
VERTEX
8
0
10
-0.404000
20
-0.200000
0
VERTEX
8
0
10
-0.404000
20
-0.150000
0
SEQEND
8
0
0
POLYLINE
8
0
66
1
40
0.008000
41
0.008000
0
VERTEX
8
0
10
-0.429000
20
-0.150000
0
VERTEX
8
0
10
-0.379000
20
-0.150000
0
VERTEX
8
0
10
-0.379000
20
0.049000
0
VERTEX
8
0
10
-0.429000
20
0.049000
0
VERTEX
8
0
10
-0.429000
20
-0.150000
0
SEQEND
8
0
0
POLYLINE
8
0
66
1
40
0.008000
41
0.008000
0
VERTEX
8
0
10
-0.404000
20
0.049000
0
VERTEX
8
0
10
-0.404000
20
0.099000
0
SEQEND
8
0
0
TEXT
8
12632256
10
-0.439000
20
-0.100000
40
0.048000
41
1.041667
50
90.000000
1
R6
0
POLYLINE
8
0
66
1
40
0.008000
41
0.008000
0
VERTEX
8
0
10
-0.519000
20
-0.200000
0
VERTEX
8
0
10
-0.519000
20
-0.150000
0
SEQEND
8
0
0
POLYLINE
8
0
66
1
40
0.008000
41
0.008000
0
VERTEX
8
0
10
-0.544000
20
-0.150000
0
VERTEX
8
0
10
-0.494000
20
-0.150000
0
VERTEX
8
0
10
-0.494000
20
0.049000
0
VERTEX
8
0
10
-0.544000
20
0.049000
0
VERTEX
8
0
10
-0.544000
20
-0.150000
0
SEQEND
8
0
0
POLYLINE
8
0
66
1
40
0.008000
41
0.008000
0
VERTEX
8
0
10
-0.519000
20
0.049000
0
VERTEX
8
0
10
-0.519000
20
0.099000
0
SEQEND
8
0
0
TEXT
8
12632256
10
-0.554000
20
-0.100000
40
0.048000
41
1.041667
50
90.000000
1
R9
0
POLYLINE
8
0
66
1
40
0.008000
41
0.008000
0
VERTEX
8
0
10
-0.635000
20
-0.200000
0
VERTEX
8
0
10
-0.635000
20
-0.150000
0
SEQEND
8
0
0
POLYLINE
8
0
66
1
40
0.008000
41
0.008000
0
VERTEX
8
0
10
-0.660000
20
-0.150000
0
VERTEX
8
0
10
-0.610000
20
-0.150000
0
VERTEX
8
0
10
-0.610000
20
0.049000
0
VERTEX
8
0
10
-0.660000
20
0.049000
0
VERTEX
8
0
10
-0.660000
20
-0.150000
0
SEQEND
8
0
0
POLYLINE
8
0
66
1
40
0.008000
41
0.008000
0
VERTEX
8
0
10
-0.635000
20
0.049000
0
VERTEX
8
0
10
-0.635000
20
0.099000
0
SEQEND
8
0
0
TEXT
8
12632256
10
-0.670000
20
-0.125000
40
0.048000
41
1.041667
50
90.000000
1
R26
0
POLYLINE
8
0
66
1
40
0.008000
41
0.008000
0
VERTEX
8
0
10
-0.763000
20
-0.200000
0
VERTEX
8
0
10
-0.763000
20
-0.150000
0
SEQEND
8
0
0
POLYLINE
8
0
66
1
40
0.008000
41
0.008000
0
VERTEX
8
0
10
-0.788000
20
-0.150000
0
VERTEX
8
0
10
-0.738000
20
-0.150000
0
VERTEX
8
0
10
-0.738000
20
0.049000
0
VERTEX
8
0
10
-0.788000
20
0.049000
0
VERTEX
8
0
10
-0.788000
20
-0.150000
0
SEQEND
8
0
0
POLYLINE
8
0
66
1
40
0.008000
41
0.008000
0
VERTEX
8
0
10
-0.763000
20
0.049000
0
VERTEX
8
0
10
-0.763000
20
0.099000
0
SEQEND
8
0
0
TEXT
8
12632256
10
-0.798000
20
-0.125000
40
0.048000
41
1.041667
50
90.000000
1
R27
0
POLYLINE
8
0
66
1
40
0.008000
41
0.008000
0
VERTEX
8
0
10
-0.886000
20
-0.200000
0
VERTEX
8
0
10
-0.886000
20
-0.150000
0
SEQEND
8
0
0
POLYLINE
8
0
66
1
40
0.008000
41
0.008000
0
VERTEX
8
0
10
-0.911000
20
-0.150000
0
VERTEX
8
0
10
-0.861000
20
-0.150000
0
VERTEX
8
0
10
-0.861000
20
0.049000
0
VERTEX
8
0
10
-0.911000
20
0.049000
0
VERTEX
8
0
10
-0.911000
20
-0.150000
0
SEQEND
8
0
0
POLYLINE
8
0
66
1
40
0.008000
41
0.008000
0
VERTEX
8
0
10
-0.886000
20
0.049000
0
VERTEX
8
0
10
-0.886000
20
0.099000
0
SEQEND
8
0
0
TEXT
8
12632256
10
-0.921000
20
-0.125000
40
0.048000
41
1.041667
50
90.000000
1
R28
0
POLYLINE
8
0
66
1
40
0.008000
41
0.008000
0
VERTEX
8
0
10
-1.080000
20
-0.595000
0
VERTEX
8
0
10
0.019000
20
-0.595000
0
VERTEX
8
0
10
0.019000
20
-0.345000
0
VERTEX
8
0
10
-1.080000
20
-0.345000
0
VERTEX
8
0
10
-1.080000
20
-0.595000
0
SEQEND
8
0
0
POLYLINE
8
0
66
1
40
0.008000
41
0.008000
0
VERTEX
8
0
10
0.019000
20
-0.545000
0
VERTEX
8
0
10
-1.080000
20
-0.545000
0
SEQEND
8
0
0
TEXT
8
12632256
10
0.027000
20
-0.456000
40
0.048000
41
1.041667
1
J3
0
POLYLINE
8
0
66
1
40
0.008000
41
0.008000
0
VERTEX
8
0
10
0.213000
20
-0.161000
0
VERTEX
8
0
10
0.213000
20
-0.211000
0
SEQEND
8
0
0
POLYLINE
8
0
66
1
40
0.008000
41
0.008000
0
VERTEX
8
0
10
0.188000
20
-0.411000
0
VERTEX
8
0
10
0.238000
20
-0.411000
0
VERTEX
8
0
10
0.238000
20
-0.211000
0
VERTEX
8
0
10
0.188000
20
-0.211000
0
VERTEX
8
0
10
0.188000
20
-0.411000
0
SEQEND
8
0
0
POLYLINE
8
0
66
1
40
0.008000
41
0.008000
0
VERTEX
8
0
10
0.213000
20
-0.411000
0
VERTEX
8
0
10
0.213000
20
-0.461000
0
SEQEND
8
0
0
TEXT
8
12632256
10
0.296000
20
-0.386000
40
0.048000
41
1.041667
50
90.000000
1
R31
0
POLYLINE
8
0
66
1
40
0.008000
41
0.008000
0
VERTEX
8
0
10
-2.143000
20
0.591000
0
VERTEX
8
0
10
-2.143000
20
0.641000
0
SEQEND
8
0
0
POLYLINE
8
0
66
1
40
0.008000
41
0.008000
0
VERTEX
8
0
10
-2.093000
20
0.691000
0
VERTEX
8
0
10
-2.094000
20
0.701000
0
VERTEX
8
0
10
-2.097000
20
0.711000
0
VERTEX
8
0
10
-2.101000
20
0.719000
0
VERTEX
8
0
10
-2.107000
20
0.726000
0
VERTEX
8
0
10
-2.114000
20
0.733000
0
VERTEX
8
0
10
-2.123000
20
0.737000
0
VERTEX
8
0
10
-2.133000
20
0.740000
0
VERTEX
8
0
10
-2.143000
20
0.741000
0
SEQEND
8
0
0
POLYLINE
8
0
66
1
40
0.008000
41
0.008000
0
VERTEX
8
0
10
-2.093000
20
0.691000
0
VERTEX
8
0
10
-2.094000
20
0.681000
0
VERTEX
8
0
10
-2.097000
20
0.671000
0
VERTEX
8
0
10
-2.101000
20
0.662000
0
VERTEX
8
0
10
-2.107000
20
0.655000
0
VERTEX
8
0
10
-2.114000
20
0.649000
0
VERTEX
8
0
10
-2.123000
20
0.645000
0
VERTEX
8
0
10
-2.133000
20
0.642000
0
VERTEX
8
0
10
-2.143000
20
0.641000
0
SEQEND
8
0
0
POLYLINE
8
0
66
1
40
0.008000
41
0.008000
0
VERTEX
8
0
10
-2.143000
20
0.741000
0
VERTEX
8
0
10
-2.143000
20
0.791000
0
SEQEND
8
0
0
POLYLINE
8
0
66
1
40
0.008000
41
0.008000
0
VERTEX
8
0
10
-1.843000
20
0.591000
0
VERTEX
8
0
10
-1.843000
20
0.791000
0
SEQEND
8
0
0
POLYLINE
8
0
66
1
40
0.008000
41
0.008000
0
VERTEX
8
0
10
-2.143000
20
0.591000
0
VERTEX
8
0
10
-1.843000
20
0.591000
0
SEQEND
8
0
0
POLYLINE
8
0
66
1
40
0.008000
41
0.008000
0
VERTEX
8
0
10
-2.143000
20
0.791000
0
VERTEX
8
0
10
-1.843000
20
0.791000
0
SEQEND
8
0
0
TEXT
8
12632256
10
-2.160000
20
0.786000
40
0.048000
41
1.041667
50
90.000000
1
U14
0
POLYLINE
8
0
66
1
40
0.008000
41
0.008000
0
VERTEX
8
0
10
-2.158000
20
1.026000
0
VERTEX
8
0
10
-1.858000
20
1.026000
0
VERTEX
8
0
10
-1.858000
20
1.126000
0
VERTEX
8
0
10
-2.158000
20
1.126000
0
VERTEX
8
0
10
-2.158000
20
1.026000
0
SEQEND
8
0
0
POLYLINE
8
0
66
1
40
0.008000
41
0.008000
0
VERTEX
8
0
10
-1.858000
20
1.026000
0
VERTEX
8
0
10
-1.858000
20
0.976000
0
VERTEX
8
0
10
-2.158000
20
0.976000
0
VERTEX
8
0
10
-2.158000
20
1.026000
0
SEQEND
8
0
0
POLYLINE
8
0
66
1
40
0.008000
41
0.008000
0
VERTEX
8
0
10
-1.858000
20
1.026000
0
VERTEX
8
0
10
-1.908000
20
0.976000
0
SEQEND
8
0
0
POLYLINE
8
0
66
1
40
0.008000
41
0.008000
0
VERTEX
8
0
10
-1.908000
20
1.026000
0
VERTEX
8
0
10
-1.958000
20
0.976000
0
SEQEND
8
0
0
POLYLINE
8
0
66
1
40
0.008000
41
0.008000
0
VERTEX
8
0
10
-1.958000
20
1.026000
0
VERTEX
8
0
10
-2.008000
20
0.976000
0
SEQEND
8
0
0
POLYLINE
8
0
66
1
40
0.008000
41
0.008000
0
VERTEX
8
0
10
-2.008000
20
1.026000
0
VERTEX
8
0
10
-2.058000
20
0.976000
0
SEQEND
8
0
0
POLYLINE
8
0
66
1
40
0.008000
41
0.008000
0
VERTEX
8
0
10
-2.058000
20
1.026000
0
VERTEX
8
0
10
-2.108000
20
0.976000
0
SEQEND
8
0
0
POLYLINE
8
0
66
1
40
0.008000
41
0.008000
0
VERTEX
8
0
10
-2.108000
20
1.026000
0
VERTEX
8
0
10
-2.158000
20
0.976000
0
SEQEND
8
0
0
TEXT
8
12632256
10
-2.083000
20
0.918000
40
0.048000
41
1.041667
1
U15
0
POLYLINE
8
0
66
1
40
0.008000
41
0.008000
0
VERTEX
8
0
10
-2.574000
20
1.367000
0
VERTEX
8
0
10
-1.874000
20
1.367000
0
VERTEX
8
0
10
-1.874000
20
1.567000
0
VERTEX
8
0
10
-2.574000
20
1.567000
0
VERTEX
8
0
10
-2.574000
20
1.367000
0
SEQEND
8
0
0
TEXT
8
12632256
10
-2.274000
20
1.577000
40
0.048000
41
1.041667
1
C7
0
POLYLINE
8
0
66
1
40
0.008000
41
0.008000
0
VERTEX
8
0
10
-2.469000
20
2.065000
0
VERTEX
8
0
10
-2.469000
20
1.665000
0
SEQEND
8
0
0
POLYLINE
8
0
66
1
40
0.008000
41
0.008000
0
VERTEX
8
0
10
-1.869000
20
2.065000
0
VERTEX
8
0
10
-1.869000
20
1.665000
0
SEQEND
8
0
0
POLYLINE
8
0
66
1
40
0.008000
41
0.008000
0
VERTEX
8
0
10
-2.469000
20
1.665000
0
VERTEX
8
0
10
-1.869000
20
1.665000
0
SEQEND
8
0
0
POLYLINE
8
0
66
1
40
0.008000
41
0.008000
0
VERTEX
8
0
10
-1.869000
20
2.065000
0
VERTEX
8
0
10
-2.469000
20
2.065000
0
SEQEND
8
0
0
TEXT
8
12632256
10
-2.219000
20
2.075000
40
0.048000
41
1.041667
1
J5
0
POLYLINE
8
0
66
1
40
0.008000
41
0.008000
0
VERTEX
8
0
10
-0.950000
20
-1.086000
0
VERTEX
8
0
10
-0.950000
20
-1.036000
0
SEQEND
8
0
0
POLYLINE
8
0
66
1
40
0.008000
41
0.008000
0
VERTEX
8
0
10
-0.975000
20
-1.036000
0
VERTEX
8
0
10
-0.925000
20
-1.036000
0
VERTEX
8
0
10
-0.925000
20
-0.836000
0
VERTEX
8
0
10
-0.975000
20
-0.836000
0
VERTEX
8
0
10
-0.975000
20
-1.036000
0
SEQEND
8
0
0
POLYLINE
8
0
66
1
40
0.008000
41
0.008000
0
VERTEX
8
0
10
-0.950000
20
-0.836000
0
VERTEX
8
0
10
-0.950000
20
-0.786000
0
SEQEND
8
0
0
TEXT
8
12632256
10
-0.985000
20
-0.986000
40
0.048000
41
1.041667
50
90.000000
1
R1
0
POLYLINE
8
0
66
1
40
0.008000
41
0.008000
0
VERTEX
8
0
10
-1.745000
20
1.035000
0
VERTEX
8
0
10
-1.745000
20
0.985000
0
SEQEND
8
0
0
POLYLINE
8
0
66
1
40
0.008000
41
0.008000
0
VERTEX
8
0
10
-1.770000
20
0.785000
0
VERTEX
8
0
10
-1.720000
20
0.785000
0
VERTEX
8
0
10
-1.720000
20
0.985000
0
VERTEX
8
0
10
-1.770000
20
0.985000
0
VERTEX
8
0
10
-1.770000
20
0.785000
0
SEQEND
8
0
0
POLYLINE
8
0
66
1
40
0.008000
41
0.008000
0
VERTEX
8
0
10
-1.745000
20
0.785000
0
VERTEX
8
0
10
-1.745000
20
0.735000
0
SEQEND
8
0
0
TEXT
8
12632256
10
-1.662000
20
0.810000
40
0.048000
41
1.041667
50
90.000000
1
R29
0
POLYLINE
8
0
66
1
40
0.008000
41
0.008000
0
VERTEX
8
0
10
-2.028000
20
1.312000
0
VERTEX
8
0
10
-2.078000
20
1.312000
0
SEQEND
8
0
0
POLYLINE
8
0
66
1
40
0.008000
41
0.008000
0
VERTEX
8
0
10
-2.378000
20
1.287000
0
VERTEX
8
0
10
-2.078000
20
1.287000
0
VERTEX
8
0
10
-2.078000
20
1.337000
0
VERTEX
8
0
10
-2.378000
20
1.337000
0
VERTEX
8
0
10
-2.378000
20
1.287000
0
SEQEND
8
0
0
POLYLINE
8
0
66
1
40
0.008000
41
0.008000
0
VERTEX
8
0
10
-2.378000
20
1.312000
0
VERTEX
8
0
10
-2.428000
20
1.312000
0
SEQEND
8
0
0
TEXT
8
12632256
10
-2.303000
20
1.229000
40
0.048000
41
1.041667
1
R32
0
POLYLINE
8
0
66
1
40
0.008000
41
0.008000
0
VERTEX
8
0
10
-1.845000
20
-0.055000
0
VERTEX
8
0
10
-1.795000
20
-0.055000
0
SEQEND
8
0
0
POLYLINE
8
0
66
1
40
0.008000
41
0.008000
0
VERTEX
8
0
10
-1.795000
20
-0.080000
0
VERTEX
8
0
10
-1.595000
20
-0.080000
0
VERTEX
8
0
10
-1.595000
20
-0.030000
0
VERTEX
8
0
10
-1.795000
20
-0.030000
0
VERTEX
8
0
10
-1.795000
20
-0.080000
0
SEQEND
8
0
0
POLYLINE
8
0
66
1
40
0.008000
41
0.008000
0
VERTEX
8
0
10
-1.595000
20
-0.055000
0
VERTEX
8
0
10
-1.545000
20
-0.055000
0
SEQEND
8
0
0
TEXT
8
12632256
10
-1.770000
20
-0.020000
40
0.048000
41
1.041667
1
R60
0
POLYLINE
8
0
66
1
40
0.000000
41
0.000000
0
VERTEX
8
0
10
-0.034000
20
0.007000
0
VERTEX
8
0
10
1.993000
20
0.007000
0
VERTEX
8
0
10
1.993000
20
0.463000
0
VERTEX
8
0
10
-0.034000
20
0.463000
0
VERTEX
8
0
10
-0.034000
20
0.007000
0
SEQEND
8
0
0
TEXT
8
12632256
10
-2.237000
20
0.229000
40
0.064000
41
1.093750
1
L1
0
TEXT
8
12632256
10
-2.241000
20
0.427000
40
0.064000
41
1.093750
1
L2
0
TEXT
8
12632256
10
-2.242000
20
0.647000
40
0.064000
41
1.093750
1
N
0
TEXT
8
12632256
10
-1.063000
20
-0.688000
40
0.064000
41
1.093750
1
-
0
TEXT
8
12632256
10
-0.926000
20
-0.685000
40
0.064000
41
1.093750
1
+
0
TEXT
8
12632256
10
-0.079000
20
-0.343000
40
0.064000
41
1.093750
1
U
0
TEXT
8
12632256
10
-0.177000
20
-0.343000
40
0.064000
41
1.093750
1
D
0
TEXT
8
12632256
10
-0.321000
20
-0.338000
40
0.064000
41
1.093750
1
Me
0
TEXT
8
12632256
10
-0.455000
20
-0.339000
40
0.064000
41
1.093750
1
Ok
0
TEXT
8
12632256
10
-0.541000
20
-0.343000
40
0.064000
41
1.093750
1
M
0
TEXT
8
12632256
10
-0.661000
20
-0.342000
40
0.064000
41
1.093750
1
L
0
TEXT
8
12632256
10
-0.811000
20
-0.340000
40
0.064000
41
1.093750
1
UV
0
TEXT
8
12632256
10
-0.910000
20
-0.339000
40
0.064000
41
1.093750
1
T
0
TEXT
8
12632256
10
-0.929000
20
0.218000
40
0.064000
41
1.093750
1
BOTONES TOUCH
0
TEXT
8
12632256
10
2.236000
20
-0.439000
40
0.064000
41
1.093750
1
DAMPER
0
TEXT
8
12632256
10
2.032000
20
-0.573000
40
0.064000
41
1.093750
1
DAM
0
TEXT
8
12632256
10
2.028000
20
-0.797000
40
0.064000
41
0.937500
1
FEED
0
TEXT
8
12632256
10
2.067000
20
-1.053000
40
0.064000
41
0.937500
1
GND
0
TEXT
8
12632256
10
2.067000
20
-1.219000
40
0.064000
41
1.093750
1
O1
0
TEXT
8
12632256
10
2.063000
20
-1.380000
40
0.064000
41
1.093750
1
O2
0
TEXT
8
12632256
10
-0.427000
20
-2.138000
40
0.048000
41
1.041667
1
FLUJO INFLOW
0
TEXT
8
12632256
10
0.356000
20
-2.138000
40
0.048000
41
1.041667
1
FLUJO DOWNFLOW
0
TEXT
8
12632256
10
-0.500000
20
-1.605000
40
0.064000
41
1.093750
1
FL
0
TEXT
8
12632256
10
-0.313000
20
-1.611000
40
0.064000
41
1.093750
1
5V
0
TEXT
8
12632256
10
-0.134000
20
-1.609000
40
0.064000
41
1.093750
1
GND
0
TEXT
8
12632256
10
0.074000
20
-1.616000
40
0.064000
41
0.937500
1
12V
0
TEXT
8
12632256
10
0.299000
20
-1.612000
40
0.064000
41
1.093750
1
FL
0
TEXT
8
12632256
10
0.539000
20
-1.616000
40
0.064000
41
1.093750
1
5V
0
TEXT
8
12632256
10
0.708000
20
-1.612000
40
0.064000
41
1.093750
1
GND
0
TEXT
8
12632256
10
0.929000
20
-1.616000
40
0.064000
41
1.093750
1
12V
0
TEXT
8
12632256
10
-2.537000
20
-1.739000
40
0.072000
41
1.111111
50
90.000000
1
JDPE
0
TEXT
8
12632256
10
-2.537000
20
-1.215000
40
0.072000
41
1.111111
50
90.000000
1
V1.0
0
POLYLINE
8
0
66
1
40
0.026000
41
0.026000
0
VERTEX
8
0
10
-2.025000
20
0.081000
0
VERTEX
8
0
10
-1.025000
20
0.081000
0
VERTEX
8
0
10
-1.025000
20
0.462000
0
VERTEX
8
0
10
-2.025000
20
0.462000
0
VERTEX
8
0
10
-2.025000
20
0.081000
0
SEQEND
8
0
0
TEXT
8
12632256
10
-2.003000
20
0.321000
40
0.072000
41
1.111111
1
Bioseguridad
0
TEXT
8
12632256
10
-1.684000
20
0.154000
40
0.088000
41
1.250000
1
HID
0
TEXT
8
12632256
10
1.654000
20
-0.081000
40
0.088000
41
1.136364
1
USB
0
TEXT
8
12632256
10
-2.021000
20
2.133000
40
0.064000
41
1.093750
1
L2
0
TEXT
8
12632256
10
-2.167000
20
2.140000
40
0.064000
41
1.093750
1
N
0
TEXT
8
12632256
10
-2.646000
20
2.138000
40
0.064000
41
1.093750
1
FUENTE
0
ENDSEC
0
EOF

