  0
SECTION
  2
HEADER
  9
$ACADVER
  1
AC2.10
  0
ENDSEC
  0
SECTION
  2
TABLES
  0
TABLE
  2
LAYER
 70
     8
  0
LAYER
  2
0
 62
     7
 70
0
  6
CONTINUOUS
  0
LAYER
  2
1
 62
     1
 70
0
  6
CONTINUOUS
  0
LAYER
  2
2
 62
     2
 70
0
  6
CONTINUOUS
  0
LAYER
  2
3
 62
     3
 70
0
  6
CONTINUOUS
  0
LAYER
  2
4
 62
     4
 70
0
  6
CONTINUOUS
  0
LAYER
  2
5
 62
     5
 70
0
  6
CONTINUOUS
  0
LAYER
  2
6
 62
     6
 70
0
  6
CONTINUOUS
  0
LAYER
  2
7
 62
     7
 70
0
  6
CONTINUOUS
  0
ENDTAB
  0
TABLE
  2
STYLE
 70
     1
  0
STYLE
 70
     0
  2
STANDARD
  3
TXT
 40
0.00
 41
1.00
 42
1.00
 50
0.00
 71
     0
  0
ENDTAB
  0
ENDSEC
  0
SECTION
  2
BLOCKS
  0
BLOCK
  8
0
  2
EPAD
 70
0
 10
0.0
 20
0.0
  0
POLYLINE
  8
0
 66
1
 70
1
 40
0.5
 41
0.5
  0
VERTEX
  8
0
 10
-0.25
 20
0.0
 42
1.0
  0
VERTEX
  8
0
 10
0.25
 20
0.0
 42
1.0
  0
SEQEND
  8
0
  0
ENDBLK
  8
0
  0
BLOCK
  8
0
  2
RPAD
 70
0
 10
0.0
 20
0.0
  0
TRACE
  8
0
 10
-0.5
 20
-0.5
 11
-0.5
 21
0.5
 12
0.5
 22
-0.5
 13
0.5
 23
0.5
  0
ENDBLK
  8
0
  0
ENDSEC
0
SECTION
2
ENTITIES
0
POLYLINE
8
0
66
1
40
0.050000
41
0.050000
0
VERTEX
8
0
10
1.724000
20
1.885000
0
VERTEX
8
0
10
1.724000
20
1.702000
0
VERTEX
8
0
10
1.796000
20
1.629000
0
VERTEX
8
0
10
2.184000
20
1.629000
0
VERTEX
8
0
10
2.259000
20
1.554000
0
VERTEX
8
0
10
2.259000
20
1.320000
0
VERTEX
8
0
10
2.101000
20
1.161000
0
VERTEX
8
0
10
1.999000
20
1.161000
0
VERTEX
8
0
10
1.929000
20
1.231000
0
VERTEX
8
0
10
1.929000
20
1.276000
0
VERTEX
8
0
10
1.924000
20
1.281000
0
SEQEND
8
0
0
POLYLINE
8
0
66
1
40
0.050000
41
0.050000
0
VERTEX
8
0
10
0.981000
20
1.880000
0
VERTEX
8
0
10
0.981000
20
1.688000
0
VERTEX
8
0
10
1.042000
20
1.627000
0
VERTEX
8
0
10
1.416000
20
1.627000
0
VERTEX
8
0
10
1.418000
20
1.624000
0
VERTEX
8
0
10
1.457000
20
1.586000
0
VERTEX
8
0
10
1.457000
20
1.218000
0
VERTEX
8
0
10
1.403000
20
1.164000
0
VERTEX
8
0
10
1.250000
20
1.164000
0
VERTEX
8
0
10
1.178000
20
1.236000
0
VERTEX
8
0
10
1.178000
20
1.287000
0
SEQEND
8
0
0
POLYLINE
8
0
66
1
40
0.050000
41
0.050000
0
VERTEX
8
0
10
0.244000
20
1.889000
0
VERTEX
8
0
10
0.244000
20
1.685000
0
VERTEX
8
0
10
0.301000
20
1.627000
0
VERTEX
8
0
10
0.728000
20
1.627000
0
VERTEX
8
0
10
0.775000
20
1.580000
0
VERTEX
8
0
10
0.775000
20
1.281000
0
VERTEX
8
0
10
0.660000
20
1.166000
0
VERTEX
8
0
10
0.485000
20
1.166000
0
VERTEX
8
0
10
0.422000
20
1.229000
0
VERTEX
8
0
10
0.422000
20
1.292000
0
SEQEND
8
0
0
POLYLINE
8
0
66
1
40
0.050000
41
0.050000
0
VERTEX
8
0
10
-0.491000
20
1.888000
0
VERTEX
8
0
10
-0.491000
20
1.662000
0
VERTEX
8
0
10
-0.448000
20
1.618000
0
VERTEX
8
0
10
-0.051000
20
1.618000
0
VERTEX
8
0
10
0.031000
20
1.534000
0
VERTEX
8
0
10
0.031000
20
1.269000
0
VERTEX
8
0
10
-0.047000
20
1.189000
0
VERTEX
8
0
10
-0.277000
20
1.189000
0
VERTEX
8
0
10
-0.329000
20
1.241000
0
VERTEX
8
0
10
-0.329000
20
1.281000
0
SEQEND
8
0
0
POLYLINE
8
0
66
1
40
0.050000
41
0.050000
0
VERTEX
8
0
10
-1.222000
20
1.887000
0
VERTEX
8
0
10
-1.222000
20
1.667000
0
VERTEX
8
0
10
-1.172000
20
1.617000
0
VERTEX
8
0
10
-0.818000
20
1.617000
0
VERTEX
8
0
10
-0.736000
20
1.535000
0
VERTEX
8
0
10
-0.736000
20
1.246000
0
VERTEX
8
0
10
-0.780000
20
1.201000
0
VERTEX
8
0
10
-1.032000
20
1.201000
0
VERTEX
8
0
10
-1.079000
20
1.249000
0
VERTEX
8
0
10
-1.079000
20
1.294000
0
SEQEND
8
0
0
POLYLINE
8
0
66
1
40
0.050000
41
0.050000
0
VERTEX
8
0
10
-2.009000
20
1.872000
0
VERTEX
8
0
10
-2.009000
20
1.689000
0
VERTEX
8
0
10
-1.910000
20
1.590000
0
VERTEX
8
0
10
-1.489000
20
1.590000
0
VERTEX
8
0
10
-1.406000
20
1.507000
0
VERTEX
8
0
10
-1.406000
20
1.217000
0
VERTEX
8
0
10
-1.442000
20
1.181000
0
VERTEX
8
0
10
-1.819000
20
1.181000
0
VERTEX
8
0
10
-1.890000
20
1.253000
0
VERTEX
8
0
10
-1.890000
20
1.281000
0
VERTEX
8
0
10
-1.894000
20
1.285000
0
SEQEND
8
0
0
POLYLINE
8
0
66
1
40
0.025000
41
0.025000
0
VERTEX
8
0
10
-2.151000
20
-1.279000
0
VERTEX
8
0
10
-2.151000
20
-0.855000
0
VERTEX
8
0
10
-2.051000
20
-0.755000
0
SEQEND
8
0
0
POLYLINE
8
0
66
1
40
0.025000
41
0.025000
0
VERTEX
8
0
10
-2.151000
20
-1.415000
0
VERTEX
8
0
10
-2.151000
20
-1.279000
0
VERTEX
8
0
10
-2.073000
20
-1.201000
0
SEQEND
8
0
0
POLYLINE
8
0
66
1
40
0.025000
41
0.025000
0
VERTEX
8
0
10
-1.148000
20
-1.586000
0
VERTEX
8
0
10
-1.032000
20
-1.703000
0
VERTEX
8
0
10
-0.147000
20
-1.703000
0
SEQEND
8
0
0
POLYLINE
8
0
66
1
40
0.025000
41
0.025000
0
VERTEX
8
0
10
0.185000
20
-1.470000
0
VERTEX
8
0
10
0.245000
20
-1.530000
0
VERTEX
8
0
10
0.245000
20
-2.212000
0
VERTEX
8
0
10
0.205000
20
-2.252000
0
VERTEX
8
0
10
-0.643000
20
-2.252000
0
VERTEX
8
0
10
-0.643000
20
-2.220000
0
VERTEX
8
0
10
-0.687000
20
-2.129000
0
SEQEND
8
0
0
POLYLINE
8
0
66
1
40
0.025000
41
0.025000
0
VERTEX
8
0
10
-0.056000
20
-1.451000
0
VERTEX
8
0
10
0.114000
20
-1.621000
0
VERTEX
8
0
10
0.114000
20
-1.851000
0
SEQEND
8
0
0
POLYLINE
8
0
66
1
40
0.025000
41
0.025000
0
VERTEX
8
0
10
0.354000
20
-1.851000
0
VERTEX
8
0
10
0.354000
20
-1.406000
0
VERTEX
8
0
10
0.301000
20
-1.353000
0
SEQEND
8
0
0
POLYLINE
8
0
66
1
40
0.025000
41
0.025000
0
VERTEX
8
0
10
1.568000
20
-1.721000
0
VERTEX
8
0
10
1.739000
20
-1.721000
0
VERTEX
8
0
10
1.835000
20
-1.625000
0
VERTEX
8
0
10
1.885000
20
-1.625000
0
VERTEX
8
0
10
1.889000
20
-1.621000
0
SEQEND
8
0
0
POLYLINE
8
0
66
1
40
0.025000
41
0.025000
0
VERTEX
8
0
10
0.781000
20
-2.123000
0
VERTEX
8
0
10
0.871000
20
-2.213000
0
VERTEX
8
0
10
1.720000
20
-2.213000
0
VERTEX
8
0
10
1.806000
20
-2.126000
0
VERTEX
8
0
10
1.820000
20
-2.105000
0
SEQEND
8
0
0
POLYLINE
8
0
66
1
40
0.025000
41
0.025000
0
VERTEX
8
0
10
0.783000
20
-0.147000
0
VERTEX
8
0
10
0.783000
20
-0.077000
0
VERTEX
8
0
10
0.707000
20
-0.001000
0
VERTEX
8
0
10
-0.415000
20
-0.001000
0
VERTEX
8
0
10
-0.419000
20
0.002000
0
VERTEX
8
0
10
-0.419000
20
0.169000
0
VERTEX
8
0
10
-0.339000
20
0.248000
0
VERTEX
8
0
10
-0.205000
20
0.248000
0
SEQEND
8
0
0
POLYLINE
8
0
66
1
40
0.025000
41
0.025000
0
VERTEX
8
0
10
0.839000
20
-1.363000
0
VERTEX
8
0
10
0.839000
20
-1.697000
0
VERTEX
8
0
10
0.831000
20
-1.704000
0
VERTEX
8
0
10
0.831000
20
-1.708000
0
SEQEND
8
0
0
POLYLINE
8
0
66
1
40
0.025000
41
0.025000
0
VERTEX
8
0
10
-1.048000
20
-1.173000
0
VERTEX
8
0
10
-1.322000
20
-1.173000
0
VERTEX
8
0
10
-1.336000
20
-1.186000
0
SEQEND
8
0
0
POLYLINE
8
0
66
1
40
0.025000
41
0.025000
0
VERTEX
8
0
10
-0.490000
20
-0.550000
0
VERTEX
8
0
10
-0.490000
20
-0.824000
0
VERTEX
8
0
10
-0.437000
20
-0.877000
0
VERTEX
8
0
10
-0.266000
20
-0.877000
0
VERTEX
8
0
10
-0.086000
20
-0.794000
0
VERTEX
8
0
10
-0.089000
20
-0.657000
0
SEQEND
8
0
0
POLYLINE
8
0
66
1
40
0.025000
41
0.025000
0
VERTEX
8
0
10
-0.376000
20
-0.497000
0
VERTEX
8
0
10
-0.274000
20
-0.599000
0
VERTEX
8
0
10
-0.274000
20
-0.694000
0
VERTEX
8
0
10
-0.233000
20
-0.735000
0
SEQEND
8
0
0
POLYLINE
8
0
66
1
40
0.025000
41
0.025000
0
VERTEX
8
0
10
1.905000
20
-1.026000
0
VERTEX
8
0
10
1.524000
20
-1.026000
0
VERTEX
8
0
10
1.521000
20
-1.029000
0
SEQEND
8
0
0
POLYLINE
8
0
66
1
40
0.025000
41
0.025000
0
VERTEX
8
0
10
1.664000
20
-1.238000
0
VERTEX
8
0
10
1.465000
20
-1.238000
0
VERTEX
8
0
10
1.454000
20
-1.226000
0
VERTEX
8
0
10
1.446000
20
-1.226000
0
SEQEND
8
0
0
POLYLINE
8
0
66
1
40
0.025000
41
0.025000
0
VERTEX
8
0
10
0.344000
20
-0.420000
0
VERTEX
8
0
10
1.760000
20
-0.420000
0
VERTEX
8
0
10
1.866000
20
-0.526000
0
SEQEND
8
0
0
POLYLINE
8
0
66
1
40
0.025000
41
0.025000
0
VERTEX
8
0
10
-2.550000
20
0.686000
0
VERTEX
8
0
10
-2.550000
20
-1.796000
0
VERTEX
8
0
10
-2.539000
20
-1.807000
0
VERTEX
8
0
10
-1.151000
20
-1.807000
0
SEQEND
8
0
0
POLYLINE
8
0
66
1
40
0.025000
41
0.025000
0
VERTEX
8
0
10
-2.342000
20
0.732000
0
VERTEX
8
0
10
-1.356000
20
0.732000
0
VERTEX
8
0
10
-1.233000
20
0.854000
0
VERTEX
8
0
10
0.011000
20
0.854000
0
VERTEX
8
0
10
0.031000
20
0.874000
0
VERTEX
8
0
10
1.258000
20
0.874000
0
VERTEX
8
0
10
1.339000
20
0.793000
0
VERTEX
8
0
10
1.339000
20
0.261000
0
VERTEX
8
0
10
1.377000
20
0.223000
0
VERTEX
8
0
10
1.476000
20
0.223000
0
VERTEX
8
0
10
1.556000
20
0.143000
0
VERTEX
8
0
10
1.556000
20
-0.298000
0
VERTEX
8
0
10
1.548000
20
-0.306000
0
SEQEND
8
0
0
POLYLINE
8
0
66
1
40
0.025000
41
0.025000
0
VERTEX
8
0
10
0.928000
20
0.096000
0
VERTEX
8
0
10
0.916000
20
0.096000
0
VERTEX
8
0
10
0.878000
20
0.058000
0
VERTEX
8
0
10
0.878000
20
-0.258000
0
VERTEX
8
0
10
0.743000
20
-0.258000
0
VERTEX
8
0
10
0.621000
20
-0.136000
0
VERTEX
8
0
10
-0.468000
20
-0.136000
0
VERTEX
8
0
10
-0.524000
20
-0.081000
0
VERTEX
8
0
10
-0.524000
20
0.166000
0
VERTEX
8
0
10
-0.544000
20
0.187000
0
VERTEX
8
0
10
-0.900000
20
0.187000
0
VERTEX
8
0
10
-0.906000
20
0.192000
0
VERTEX
8
0
10
-0.903000
20
0.192000
0
SEQEND
8
0
0
POLYLINE
8
0
66
1
40
0.025000
41
0.025000
0
VERTEX
8
0
10
-2.128000
20
0.801000
0
VERTEX
8
0
10
-1.399000
20
0.801000
0
VERTEX
8
0
10
-1.260000
20
0.940000
0
VERTEX
8
0
10
1.957000
20
0.940000
0
VERTEX
8
0
10
1.990000
20
0.907000
0
VERTEX
8
0
10
1.990000
20
-0.603000
0
VERTEX
8
0
10
1.889000
20
-0.704000
0
VERTEX
8
0
10
1.631000
20
-0.704000
0
VERTEX
8
0
10
1.534000
20
-0.636000
0
SEQEND
8
0
0
POLYLINE
8
0
66
1
40
0.025000
41
0.025000
0
VERTEX
8
0
10
-1.835000
20
-0.153000
0
VERTEX
8
0
10
-1.835000
20
0.319000
0
VERTEX
8
0
10
-1.625000
20
0.529000
0
VERTEX
8
0
10
1.133000
20
0.529000
0
VERTEX
8
0
10
1.235000
20
0.427000
0
VERTEX
8
0
10
1.235000
20
0.275000
0
VERTEX
8
0
10
1.353000
20
0.157000
0
SEQEND
8
0
0
POLYLINE
8
0
66
1
40
0.025000
41
0.025000
0
VERTEX
8
0
10
-1.685000
20
0.277000
0
VERTEX
8
0
10
-1.685000
20
0.337000
0
VERTEX
8
0
10
-1.594000
20
0.428000
0
VERTEX
8
0
10
0.975000
20
0.428000
0
VERTEX
8
0
10
0.976000
20
0.430000
0
VERTEX
8
0
10
1.001000
20
0.405000
0
VERTEX
8
0
10
1.001000
20
0.328000
0
VERTEX
8
0
10
0.775000
20
0.101000
0
VERTEX
8
0
10
0.761000
20
0.101000
0
SEQEND
8
0
0
POLYLINE
8
0
66
1
40
0.025000
41
0.025000
0
VERTEX
8
0
10
1.687000
20
-0.770000
0
VERTEX
8
0
10
1.397000
20
-0.770000
0
VERTEX
8
0
10
1.266000
20
-0.640000
0
VERTEX
8
0
10
0.502000
20
-0.640000
0
VERTEX
8
0
10
0.497000
20
-0.645000
0
VERTEX
8
0
10
0.468000
20
-0.616000
0
VERTEX
8
0
10
0.152000
20
-0.616000
0
VERTEX
8
0
10
0.152000
20
-0.669000
0
VERTEX
8
0
10
-0.136000
20
-0.958000
0
SEQEND
8
0
0
POLYLINE
8
0
66
1
40
0.025000
41
0.025000
0
VERTEX
8
0
10
-0.383000
20
-1.445000
0
VERTEX
8
0
10
-0.383000
20
-1.552000
0
VERTEX
8
0
10
-0.457000
20
-1.626000
0
VERTEX
8
0
10
-0.817000
20
-1.626000
0
VERTEX
8
0
10
-0.821000
20
-1.630000
0
VERTEX
8
0
10
-0.821000
20
-1.406000
0
VERTEX
8
0
10
-0.946000
20
-1.281000
0
VERTEX
8
0
10
-1.487000
20
-1.281000
0
VERTEX
8
0
10
-1.718000
20
-1.512000
0
VERTEX
8
0
10
-1.768000
20
-1.512000
0
VERTEX
8
0
10
-1.999000
20
-1.744000
0
VERTEX
8
0
10
-2.415000
20
-1.744000
0
VERTEX
8
0
10
-2.436000
20
-1.722000
0
SEQEND
8
0
0
POLYLINE
8
0
66
1
40
0.025000
41
0.025000
0
VERTEX
8
0
10
-0.839000
20
-1.175000
0
VERTEX
8
0
10
-0.512000
20
-1.175000
0
VERTEX
8
0
10
-0.386000
20
-1.301000
0
SEQEND
8
0
0
POLYLINE
8
0
66
1
40
0.025000
41
0.025000
0
VERTEX
8
0
10
2.099000
20
-1.848000
0
VERTEX
8
0
10
2.009000
20
-1.758000
0
VERTEX
8
0
10
2.009000
20
-0.925000
0
VERTEX
8
0
10
1.954000
20
-0.870000
0
VERTEX
8
0
10
1.370000
20
-0.870000
0
VERTEX
8
0
10
1.202000
20
-0.716000
0
VERTEX
8
0
10
0.424000
20
-0.716000
0
VERTEX
8
0
10
0.403000
20
-0.694000
0
SEQEND
8
0
0
POLYLINE
8
0
66
1
40
0.025000
41
0.025000
0
VERTEX
8
0
10
1.648000
20
-0.939000
0
VERTEX
8
0
10
1.378000
20
-0.934000
0
VERTEX
8
0
10
1.359000
20
-0.956000
0
VERTEX
8
0
10
1.301000
20
-1.014000
0
VERTEX
8
0
10
0.049000
20
-1.014000
0
VERTEX
8
0
10
0.023000
20
-0.987000
0
VERTEX
8
0
10
0.023000
20
-0.952000
0
VERTEX
8
0
10
0.018000
20
-0.948000
0
SEQEND
8
0
0
POLYLINE
8
0
66
1
40
0.025000
41
0.025000
0
VERTEX
8
0
10
-0.489000
20
-1.007000
0
VERTEX
8
0
10
-0.851000
20
-1.007000
0
VERTEX
8
0
10
-0.899000
20
-0.959000
0
VERTEX
8
0
10
-1.080000
20
-0.959000
0
VERTEX
8
0
10
-1.132000
20
-0.907000
0
VERTEX
8
0
10
-1.525000
20
-0.907000
0
VERTEX
8
0
10
-1.586000
20
-0.845000
0
VERTEX
8
0
10
-1.981000
20
-0.845000
0
VERTEX
8
0
10
-1.992000
20
-0.856000
0
SEQEND
8
0
0
POLYLINE
8
0
66
1
40
0.025000
41
0.025000
0
VERTEX
8
0
10
0.747000
20
-1.270000
0
VERTEX
8
0
10
0.762000
20
-1.285000
0
VERTEX
8
0
10
0.880000
20
-1.285000
0
VERTEX
8
0
10
0.925000
20
-1.330000
0
VERTEX
8
0
10
0.925000
20
-1.411000
0
VERTEX
8
0
10
0.985000
20
-1.471000
0
VERTEX
8
0
10
1.921000
20
-1.471000
0
VERTEX
8
0
10
1.927000
20
-1.466000
0
VERTEX
8
0
10
1.927000
20
-1.133000
0
VERTEX
8
0
10
1.943000
20
-1.117000
0
SEQEND
8
0
0
POLYLINE
8
0
66
1
40
0.025000
41
0.025000
0
VERTEX
8
0
10
0.439000
20
-1.280000
0
VERTEX
8
0
10
0.381000
20
-1.251000
0
VERTEX
8
0
10
-0.231000
20
-1.251000
0
VERTEX
8
0
10
-0.285000
20
-1.197000
0
VERTEX
8
0
10
-0.285000
20
-1.049000
0
VERTEX
8
0
10
-0.399000
20
-0.935000
0
VERTEX
8
0
10
-0.807000
20
-0.935000
0
VERTEX
8
0
10
-0.819000
20
-0.947000
0
VERTEX
8
0
10
-0.819000
20
-0.628000
0
VERTEX
8
0
10
-0.844000
20
-0.603000
0
VERTEX
8
0
10
-0.949000
20
-0.603000
0
VERTEX
8
0
10
-0.956000
20
-0.610000
0
SEQEND
8
0
0
INSERT
8
0
2
EPAD
10
1.724000
20
1.885000
41
0.070000
42
0.070000
0
CIRCLE
8
0
10
1.724000
20
1.885000
40
0.025000
0
INSERT
8
0
2
EPAD
10
1.924000
20
1.281000
41
0.070000
42
0.070000
0
CIRCLE
8
0
10
1.924000
20
1.281000
40
0.025000
0
INSERT
8
0
2
EPAD
10
0.981000
20
1.880000
41
0.070000
42
0.070000
0
CIRCLE
8
0
10
0.981000
20
1.880000
40
0.025000
0
INSERT
8
0
2
EPAD
10
1.178000
20
1.287000
41
0.070000
42
0.070000
0
CIRCLE
8
0
10
1.178000
20
1.287000
40
0.025000
0
INSERT
8
0
2
EPAD
10
0.244000
20
1.889000
41
0.070000
42
0.070000
0
CIRCLE
8
0
10
0.244000
20
1.889000
40
0.025000
0
INSERT
8
0
2
EPAD
10
0.422000
20
1.292000
41
0.070000
42
0.070000
0
CIRCLE
8
0
10
0.422000
20
1.292000
40
0.025000
0
INSERT
8
0
2
EPAD
10
-0.491000
20
1.888000
41
0.070000
42
0.070000
0
CIRCLE
8
0
10
-0.491000
20
1.888000
40
0.025000
0
INSERT
8
0
2
EPAD
10
-0.329000
20
1.281000
41
0.070000
42
0.070000
0
CIRCLE
8
0
10
-0.329000
20
1.281000
40
0.025000
0
INSERT
8
0
2
EPAD
10
-1.222000
20
1.887000
41
0.070000
42
0.070000
0
CIRCLE
8
0
10
-1.222000
20
1.887000
40
0.025000
0
INSERT
8
0
2
EPAD
10
-1.079000
20
1.294000
41
0.070000
42
0.070000
0
CIRCLE
8
0
10
-1.079000
20
1.294000
40
0.025000
0
INSERT
8
0
2
EPAD
10
-2.009000
20
1.872000
41
0.070000
42
0.070000
0
CIRCLE
8
0
10
-2.009000
20
1.872000
40
0.025000
0
INSERT
8
0
2
EPAD
10
-1.894000
20
1.285000
41
0.070000
42
0.070000
0
CIRCLE
8
0
10
-1.894000
20
1.285000
40
0.025000
0
INSERT
8
0
2
EPAD
10
-2.151000
20
-1.415000
41
0.070000
42
0.070000
0
CIRCLE
8
0
10
-2.151000
20
-1.415000
40
0.025000
0
INSERT
8
0
2
EPAD
10
-2.073000
20
-1.201000
41
0.070000
42
0.070000
0
CIRCLE
8
0
10
-2.073000
20
-1.201000
40
0.025000
0
INSERT
8
0
2
EPAD
10
-2.051000
20
-0.755000
41
0.070000
42
0.070000
0
CIRCLE
8
0
10
-2.051000
20
-0.755000
40
0.025000
0
INSERT
8
0
2
EPAD
10
-1.148000
20
-1.586000
41
0.070000
42
0.070000
0
CIRCLE
8
0
10
-1.148000
20
-1.586000
40
0.025000
0
INSERT
8
0
2
EPAD
10
-0.147000
20
-1.703000
41
0.070000
42
0.070000
0
CIRCLE
8
0
10
-0.147000
20
-1.703000
40
0.025000
0
INSERT
8
0
2
EPAD
10
0.185000
20
-1.470000
41
0.070000
42
0.070000
0
CIRCLE
8
0
10
0.185000
20
-1.470000
40
0.025000
0
INSERT
8
0
2
EPAD
10
-0.687000
20
-2.129000
41
0.070000
42
0.070000
0
CIRCLE
8
0
10
-0.687000
20
-2.129000
40
0.025000
0
INSERT
8
0
2
EPAD
10
-0.056000
20
-1.451000
41
0.070000
42
0.070000
0
CIRCLE
8
0
10
-0.056000
20
-1.451000
40
0.025000
0
INSERT
8
0
2
EPAD
10
0.114000
20
-1.851000
41
0.070000
42
0.070000
0
CIRCLE
8
0
10
0.114000
20
-1.851000
40
0.025000
0
INSERT
8
0
2
EPAD
10
0.354000
20
-1.851000
41
0.070000
42
0.070000
0
CIRCLE
8
0
10
0.354000
20
-1.851000
40
0.025000
0
INSERT
8
0
2
EPAD
10
0.301000
20
-1.353000
41
0.070000
42
0.070000
0
CIRCLE
8
0
10
0.301000
20
-1.353000
40
0.025000
0
INSERT
8
0
2
EPAD
10
1.568000
20
-1.721000
41
0.070000
42
0.070000
0
CIRCLE
8
0
10
1.568000
20
-1.721000
40
0.025000
0
INSERT
8
0
2
EPAD
10
1.889000
20
-1.621000
41
0.070000
42
0.070000
0
CIRCLE
8
0
10
1.889000
20
-1.621000
40
0.025000
0
INSERT
8
0
2
EPAD
10
0.781000
20
-2.123000
41
0.070000
42
0.070000
0
CIRCLE
8
0
10
0.781000
20
-2.123000
40
0.025000
0
INSERT
8
0
2
EPAD
10
1.820000
20
-2.105000
41
0.070000
42
0.070000
0
CIRCLE
8
0
10
1.820000
20
-2.105000
40
0.025000
0
INSERT
8
0
2
EPAD
10
0.783000
20
-0.147000
41
0.070000
42
0.070000
0
CIRCLE
8
0
10
0.783000
20
-0.147000
40
0.025000
0
INSERT
8
0
2
EPAD
10
-0.205000
20
0.248000
41
0.070000
42
0.070000
0
CIRCLE
8
0
10
-0.205000
20
0.248000
40
0.025000
0
INSERT
8
0
2
EPAD
10
0.839000
20
-1.363000
41
0.070000
42
0.070000
0
CIRCLE
8
0
10
0.839000
20
-1.363000
40
0.025000
0
INSERT
8
0
2
EPAD
10
0.831000
20
-1.708000
41
0.070000
42
0.070000
0
CIRCLE
8
0
10
0.831000
20
-1.708000
40
0.025000
0
INSERT
8
0
2
EPAD
10
-1.048000
20
-1.173000
41
0.070000
42
0.070000
0
CIRCLE
8
0
10
-1.048000
20
-1.173000
40
0.025000
0
INSERT
8
0
2
EPAD
10
-1.336000
20
-1.186000
41
0.070000
42
0.070000
0
CIRCLE
8
0
10
-1.336000
20
-1.186000
40
0.025000
0
INSERT
8
0
2
EPAD
10
-0.490000
20
-0.550000
41
0.070000
42
0.070000
0
CIRCLE
8
0
10
-0.490000
20
-0.550000
40
0.025000
0
INSERT
8
0
2
EPAD
10
-0.089000
20
-0.657000
41
0.070000
42
0.070000
0
CIRCLE
8
0
10
-0.089000
20
-0.657000
40
0.025000
0
INSERT
8
0
2
EPAD
10
-0.376000
20
-0.497000
41
0.070000
42
0.070000
0
CIRCLE
8
0
10
-0.376000
20
-0.497000
40
0.025000
0
INSERT
8
0
2
EPAD
10
-0.233000
20
-0.735000
41
0.070000
42
0.070000
0
CIRCLE
8
0
10
-0.233000
20
-0.735000
40
0.025000
0
INSERT
8
0
2
EPAD
10
0.344000
20
-0.420000
41
0.070000
42
0.070000
0
CIRCLE
8
0
10
0.344000
20
-0.420000
40
0.025000
0
INSERT
8
0
2
EPAD
10
1.905000
20
-1.026000
41
0.070000
42
0.070000
0
CIRCLE
8
0
10
1.905000
20
-1.026000
40
0.025000
0
INSERT
8
0
2
EPAD
10
1.521000
20
-1.029000
41
0.070000
42
0.070000
0
CIRCLE
8
0
10
1.521000
20
-1.029000
40
0.025000
0
INSERT
8
0
2
EPAD
10
1.664000
20
-1.238000
41
0.070000
42
0.070000
0
CIRCLE
8
0
10
1.664000
20
-1.238000
40
0.025000
0
INSERT
8
0
2
EPAD
10
1.446000
20
-1.226000
41
0.070000
42
0.070000
0
CIRCLE
8
0
10
1.446000
20
-1.226000
40
0.025000
0
INSERT
8
0
2
EPAD
10
1.866000
20
-0.526000
41
0.070000
42
0.070000
0
CIRCLE
8
0
10
1.866000
20
-0.526000
40
0.025000
0
INSERT
8
0
2
EPAD
10
-2.550000
20
0.686000
41
0.030000
42
0.030000
0
CIRCLE
8
0
10
-2.550000
20
0.686000
40
0.015000
0
INSERT
8
0
2
EPAD
10
-1.151000
20
-1.807000
41
0.030000
42
0.030000
0
CIRCLE
8
0
10
-1.151000
20
-1.807000
40
0.015000
0
INSERT
8
0
2
EPAD
10
1.548000
20
-0.306000
41
0.070000
42
0.070000
0
CIRCLE
8
0
10
1.548000
20
-0.306000
40
0.025000
0
INSERT
8
0
2
EPAD
10
-2.342000
20
0.732000
41
0.070000
42
0.070000
0
CIRCLE
8
0
10
-2.342000
20
0.732000
40
0.025000
0
INSERT
8
0
2
EPAD
10
0.928000
20
0.096000
41
0.070000
42
0.070000
0
CIRCLE
8
0
10
0.928000
20
0.096000
40
0.025000
0
INSERT
8
0
2
EPAD
10
-0.903000
20
0.192000
41
0.070000
42
0.070000
0
CIRCLE
8
0
10
-0.903000
20
0.192000
40
0.025000
0
INSERT
8
0
2
EPAD
10
-2.128000
20
0.801000
41
0.070000
42
0.070000
0
CIRCLE
8
0
10
-2.128000
20
0.801000
40
0.025000
0
INSERT
8
0
2
EPAD
10
1.534000
20
-0.636000
41
0.070000
42
0.070000
0
CIRCLE
8
0
10
1.534000
20
-0.636000
40
0.025000
0
INSERT
8
0
2
EPAD
10
-1.835000
20
-0.153000
41
0.070000
42
0.070000
0
CIRCLE
8
0
10
-1.835000
20
-0.153000
40
0.025000
0
INSERT
8
0
2
EPAD
10
1.353000
20
0.157000
41
0.070000
42
0.070000
0
CIRCLE
8
0
10
1.353000
20
0.157000
40
0.025000
0
INSERT
8
0
2
EPAD
10
-1.685000
20
0.277000
41
0.070000
42
0.070000
0
CIRCLE
8
0
10
-1.685000
20
0.277000
40
0.025000
0
INSERT
8
0
2
EPAD
10
0.761000
20
0.101000
41
0.070000
42
0.070000
0
CIRCLE
8
0
10
0.761000
20
0.101000
40
0.025000
0
INSERT
8
0
2
EPAD
10
1.687000
20
-0.770000
41
0.070000
42
0.070000
0
CIRCLE
8
0
10
1.687000
20
-0.770000
40
0.025000
0
INSERT
8
0
2
EPAD
10
-0.136000
20
-0.958000
41
0.070000
42
0.070000
0
CIRCLE
8
0
10
-0.136000
20
-0.958000
40
0.025000
0
INSERT
8
0
2
EPAD
10
-0.383000
20
-1.445000
41
0.070000
42
0.070000
0
CIRCLE
8
0
10
-0.383000
20
-1.445000
40
0.025000
0
INSERT
8
0
2
EPAD
10
-2.436000
20
-1.722000
41
0.070000
42
0.070000
0
CIRCLE
8
0
10
-2.436000
20
-1.722000
40
0.025000
0
INSERT
8
0
2
EPAD
10
-0.839000
20
-1.175000
41
0.070000
42
0.070000
0
CIRCLE
8
0
10
-0.839000
20
-1.175000
40
0.025000
0
INSERT
8
0
2
EPAD
10
-0.386000
20
-1.301000
41
0.070000
42
0.070000
0
CIRCLE
8
0
10
-0.386000
20
-1.301000
40
0.025000
0
INSERT
8
0
2
EPAD
10
2.099000
20
-1.848000
41
0.070000
42
0.070000
0
CIRCLE
8
0
10
2.099000
20
-1.848000
40
0.025000
0
INSERT
8
0
2
EPAD
10
0.403000
20
-0.694000
41
0.070000
42
0.070000
0
CIRCLE
8
0
10
0.403000
20
-0.694000
40
0.025000
0
INSERT
8
0
2
EPAD
10
1.648000
20
-0.939000
41
0.070000
42
0.070000
0
CIRCLE
8
0
10
1.648000
20
-0.939000
40
0.025000
0
INSERT
8
0
2
EPAD
10
0.018000
20
-0.948000
41
0.070000
42
0.070000
0
CIRCLE
8
0
10
0.018000
20
-0.948000
40
0.025000
0
INSERT
8
0
2
EPAD
10
-0.489000
20
-1.007000
41
0.070000
42
0.070000
0
CIRCLE
8
0
10
-0.489000
20
-1.007000
40
0.025000
0
INSERT
8
0
2
EPAD
10
-1.992000
20
-0.856000
41
0.070000
42
0.070000
0
CIRCLE
8
0
10
-1.992000
20
-0.856000
40
0.025000
0
INSERT
8
0
2
EPAD
10
0.747000
20
-1.270000
41
0.070000
42
0.070000
0
CIRCLE
8
0
10
0.747000
20
-1.270000
40
0.025000
0
INSERT
8
0
2
EPAD
10
1.943000
20
-1.117000
41
0.070000
42
0.070000
0
CIRCLE
8
0
10
1.943000
20
-1.117000
40
0.025000
0
INSERT
8
0
2
EPAD
10
0.439000
20
-1.280000
41
0.070000
42
0.070000
0
CIRCLE
8
0
10
0.439000
20
-1.280000
40
0.025000
0
INSERT
8
0
2
EPAD
10
-0.956000
20
-0.610000
41
0.070000
42
0.070000
0
CIRCLE
8
0
10
-0.956000
20
-0.610000
40
0.025000
0
INSERT
8
0
2
EPAD
10
2.528000
20
2.167000
41
0.250000
42
0.250000
0
CIRCLE
8
0
10
2.528000
20
2.167000
40
0.030000
0
INSERT
8
0
2
EPAD
10
-2.493000
20
-2.120000
41
0.250000
42
0.250000
0
CIRCLE
8
0
10
-2.493000
20
-2.120000
40
0.030000
0
INSERT
8
0
2
EPAD
10
-1.668000
20
-0.961000
41
0.100000
42
0.100000
0
CIRCLE
8
0
10
-1.668000
20
-0.961000
40
0.025000
0
INSERT
8
0
2
EPAD
10
-1.868000
20
-1.161000
41
0.100000
42
0.100000
0
CIRCLE
8
0
10
-1.868000
20
-1.161000
40
0.025000
0
INSERT
8
0
2
EPAD
10
-1.868000
20
-0.961000
41
0.100000
42
0.100000
0
CIRCLE
8
0
10
-1.868000
20
-0.961000
40
0.025000
0
INSERT
8
0
2
EPAD
10
-1.668000
20
-1.161000
41
0.100000
42
0.100000
0
CIRCLE
8
0
10
-1.668000
20
-1.161000
40
0.025000
0
INSERT
8
0
2
EPAD
10
-1.380000
20
-1.058000
41
0.100000
42
0.100000
0
CIRCLE
8
0
10
-1.380000
20
-1.058000
40
0.025000
0
INSERT
8
0
2
EPAD
10
-1.180000
20
-1.058000
41
0.100000
42
0.100000
0
CIRCLE
8
0
10
-1.180000
20
-1.058000
40
0.025000
0
INSERT
8
0
2
EPAD
10
-0.956000
20
-1.079000
41
0.070000
42
0.070000
0
CIRCLE
8
0
10
-0.956000
20
-1.079000
40
0.025000
0
INSERT
8
0
2
EPAD
10
-0.556000
20
-1.079000
41
0.070000
42
0.070000
0
CIRCLE
8
0
10
-0.556000
20
-1.079000
40
0.025000
0
INSERT
8
0
2
EPAD
10
-2.424000
20
-1.549000
41
0.120000
42
0.120000
0
CIRCLE
8
0
10
-2.424000
20
-1.549000
40
0.030000
0
INSERT
8
0
2
EPAD
10
-2.424000
20
-1.349000
41
0.120000
42
0.120000
0
CIRCLE
8
0
10
-2.424000
20
-1.349000
40
0.030000
0
INSERT
8
0
2
EPAD
10
-1.033000
20
-1.978000
41
0.150000
42
0.150000
0
CIRCLE
8
0
10
-1.033000
20
-1.978000
40
0.030000
0
INSERT
8
0
2
EPAD
10
-2.018000
20
-1.978000
41
0.150000
42
0.150000
0
CIRCLE
8
0
10
-2.018000
20
-1.978000
40
0.030000
0
INSERT
8
0
2
RPAD
10
-1.625000
20
-2.108000
41
0.080000
42
0.080000
50
0.000000
0
CIRCLE
8
0
10
-1.625000
20
-2.108000
40
0.025000
0
INSERT
8
0
2
RPAD
10
-1.525000
20
-2.108000
41
0.080000
42
0.080000
50
0.000000
0
CIRCLE
8
0
10
-1.525000
20
-2.108000
40
0.025000
0
INSERT
8
0
2
RPAD
10
-1.425000
20
-2.108000
41
0.080000
42
0.080000
50
0.000000
0
CIRCLE
8
0
10
-1.425000
20
-2.108000
40
0.025000
0
INSERT
8
0
2
EPAD
10
-1.319000
20
-1.636000
41
0.090000
42
0.090000
0
CIRCLE
8
0
10
-1.319000
20
-1.636000
40
0.025000
0
INSERT
8
0
2
EPAD
10
-1.719000
20
-1.636000
41
0.090000
42
0.090000
0
CIRCLE
8
0
10
-1.719000
20
-1.636000
40
0.025000
0
INSERT
8
0
2
EPAD
10
-1.148000
20
-1.411000
41
0.080000
42
0.080000
0
CIRCLE
8
0
10
-1.148000
20
-1.411000
40
0.025000
0
INSERT
8
0
2
EPAD
10
-1.248000
20
-1.411000
41
0.080000
42
0.080000
0
CIRCLE
8
0
10
-1.248000
20
-1.411000
40
0.025000
0
INSERT
8
0
2
EPAD
10
-0.965000
20
-1.621000
41
0.070000
42
0.070000
0
CIRCLE
8
0
10
-0.965000
20
-1.621000
40
0.025000
0
INSERT
8
0
2
EPAD
10
-0.965000
20
-1.421000
41
0.070000
42
0.070000
0
CIRCLE
8
0
10
-0.965000
20
-1.421000
40
0.025000
0
INSERT
8
0
2
EPAD
10
-1.369000
20
-1.407000
41
0.070000
42
0.070000
0
CIRCLE
8
0
10
-1.369000
20
-1.407000
40
0.025000
0
INSERT
8
0
2
EPAD
10
-1.769000
20
-1.407000
41
0.070000
42
0.070000
0
CIRCLE
8
0
10
-1.769000
20
-1.407000
40
0.025000
0
INSERT
8
0
2
RPAD
10
-2.058000
20
-1.557000
41
0.080000
42
0.080000
50
0.000000
0
CIRCLE
8
0
10
-2.058000
20
-1.557000
40
0.025000
0
INSERT
8
0
2
RPAD
10
-1.958000
20
-1.557000
41
0.080000
42
0.080000
50
0.000000
0
CIRCLE
8
0
10
-1.958000
20
-1.557000
40
0.025000
0
INSERT
8
0
2
EPAD
10
-0.675000
20
-1.986000
41
0.120000
42
0.120000
0
CIRCLE
8
0
10
-0.675000
20
-1.986000
40
0.030000
0
INSERT
8
0
2
EPAD
10
-0.475000
20
-1.986000
41
0.120000
42
0.120000
0
CIRCLE
8
0
10
-0.475000
20
-1.986000
40
0.030000
0
INSERT
8
0
2
EPAD
10
-0.275000
20
-1.986000
41
0.120000
42
0.120000
0
CIRCLE
8
0
10
-0.275000
20
-1.986000
40
0.030000
0
INSERT
8
0
2
EPAD
10
-0.075000
20
-1.986000
41
0.120000
42
0.120000
0
CIRCLE
8
0
10
-0.075000
20
-1.986000
40
0.030000
0
INSERT
8
0
2
EPAD
10
0.124000
20
-1.986000
41
0.120000
42
0.120000
0
CIRCLE
8
0
10
0.124000
20
-1.986000
40
0.030000
0
INSERT
8
0
2
EPAD
10
0.378000
20
-1.986000
41
0.120000
42
0.120000
0
CIRCLE
8
0
10
0.378000
20
-1.986000
40
0.030000
0
INSERT
8
0
2
EPAD
10
0.578000
20
-1.986000
41
0.120000
42
0.120000
0
CIRCLE
8
0
10
0.578000
20
-1.986000
40
0.030000
0
INSERT
8
0
2
EPAD
10
0.778000
20
-1.986000
41
0.120000
42
0.120000
0
CIRCLE
8
0
10
0.778000
20
-1.986000
40
0.030000
0
INSERT
8
0
2
EPAD
10
0.978000
20
-1.986000
41
0.120000
42
0.120000
0
CIRCLE
8
0
10
0.978000
20
-1.986000
40
0.030000
0
INSERT
8
0
2
EPAD
10
1.178000
20
-1.986000
41
0.120000
42
0.120000
0
CIRCLE
8
0
10
1.178000
20
-1.986000
40
0.030000
0
INSERT
8
0
2
EPAD
10
1.439000
20
-1.986000
41
0.120000
42
0.120000
0
CIRCLE
8
0
10
1.439000
20
-1.986000
40
0.030000
0
INSERT
8
0
2
EPAD
10
1.639000
20
-1.986000
41
0.120000
42
0.120000
0
CIRCLE
8
0
10
1.639000
20
-1.986000
40
0.030000
0
INSERT
8
0
2
EPAD
10
1.839000
20
-1.986000
41
0.120000
42
0.120000
0
CIRCLE
8
0
10
1.839000
20
-1.986000
40
0.030000
0
INSERT
8
0
2
EPAD
10
2.102000
20
-1.988000
41
0.120000
42
0.120000
0
CIRCLE
8
0
10
2.102000
20
-1.988000
40
0.030000
0
INSERT
8
0
2
EPAD
10
2.302000
20
-1.988000
41
0.120000
42
0.120000
0
CIRCLE
8
0
10
2.302000
20
-1.988000
40
0.030000
0
INSERT
8
0
2
EPAD
10
2.502000
20
-1.988000
41
0.120000
42
0.120000
0
CIRCLE
8
0
10
2.502000
20
-1.988000
40
0.030000
0
INSERT
8
0
2
EPAD
10
1.898000
20
1.886000
41
0.120000
42
0.120000
0
CIRCLE
8
0
10
1.898000
20
1.886000
40
0.030000
0
INSERT
8
0
2
EPAD
10
2.098000
20
1.886000
41
0.120000
42
0.120000
0
CIRCLE
8
0
10
2.098000
20
1.886000
40
0.030000
0
INSERT
8
0
2
EPAD
10
2.298000
20
1.886000
41
0.120000
42
0.120000
0
CIRCLE
8
0
10
2.298000
20
1.886000
40
0.030000
0
INSERT
8
0
2
EPAD
10
1.160000
20
1.887000
41
0.120000
42
0.120000
0
CIRCLE
8
0
10
1.160000
20
1.887000
40
0.030000
0
INSERT
8
0
2
EPAD
10
1.360000
20
1.887000
41
0.120000
42
0.120000
0
CIRCLE
8
0
10
1.360000
20
1.887000
40
0.030000
0
INSERT
8
0
2
EPAD
10
1.560000
20
1.887000
41
0.120000
42
0.120000
0
CIRCLE
8
0
10
1.560000
20
1.887000
40
0.030000
0
INSERT
8
0
2
EPAD
10
0.418000
20
1.887000
41
0.120000
42
0.120000
0
CIRCLE
8
0
10
0.418000
20
1.887000
40
0.030000
0
INSERT
8
0
2
EPAD
10
0.618000
20
1.887000
41
0.120000
42
0.120000
0
CIRCLE
8
0
10
0.618000
20
1.887000
40
0.030000
0
INSERT
8
0
2
EPAD
10
0.818000
20
1.887000
41
0.120000
42
0.120000
0
CIRCLE
8
0
10
0.818000
20
1.887000
40
0.030000
0
INSERT
8
0
2
EPAD
10
-0.324000
20
1.887000
41
0.120000
42
0.120000
0
CIRCLE
8
0
10
-0.324000
20
1.887000
40
0.030000
0
INSERT
8
0
2
EPAD
10
-0.124000
20
1.887000
41
0.120000
42
0.120000
0
CIRCLE
8
0
10
-0.124000
20
1.887000
40
0.030000
0
INSERT
8
0
2
EPAD
10
0.075000
20
1.887000
41
0.120000
42
0.120000
0
CIRCLE
8
0
10
0.075000
20
1.887000
40
0.030000
0
INSERT
8
0
2
EPAD
10
-1.062000
20
1.886000
41
0.120000
42
0.120000
0
CIRCLE
8
0
10
-1.062000
20
1.886000
40
0.030000
0
INSERT
8
0
2
EPAD
10
-0.862000
20
1.886000
41
0.120000
42
0.120000
0
CIRCLE
8
0
10
-0.862000
20
1.886000
40
0.030000
0
INSERT
8
0
2
EPAD
10
-0.662000
20
1.886000
41
0.120000
42
0.120000
0
CIRCLE
8
0
10
-0.662000
20
1.886000
40
0.030000
0
INSERT
8
0
2
EPAD
10
-1.803000
20
1.884000
41
0.120000
42
0.120000
0
CIRCLE
8
0
10
-1.803000
20
1.884000
40
0.030000
0
INSERT
8
0
2
EPAD
10
-1.603000
20
1.884000
41
0.120000
42
0.120000
0
CIRCLE
8
0
10
-1.603000
20
1.884000
40
0.030000
0
INSERT
8
0
2
EPAD
10
-1.403000
20
1.884000
41
0.120000
42
0.120000
0
CIRCLE
8
0
10
-1.403000
20
1.884000
40
0.030000
0
INSERT
8
0
2
EPAD
10
-2.405000
20
1.505000
41
0.120000
42
0.120000
0
CIRCLE
8
0
10
-2.405000
20
1.505000
40
0.030000
0
INSERT
8
0
2
EPAD
10
-2.405000
20
1.705000
41
0.120000
42
0.120000
0
CIRCLE
8
0
10
-2.405000
20
1.705000
40
0.030000
0
INSERT
8
0
2
EPAD
10
-2.405000
20
1.905000
41
0.120000
42
0.120000
0
CIRCLE
8
0
10
-2.405000
20
1.905000
40
0.030000
0
INSERT
8
0
2
EPAD
10
1.987000
20
1.461000
41
0.080000
42
0.080000
0
CIRCLE
8
0
10
1.987000
20
1.461000
40
0.025000
0
INSERT
8
0
2
EPAD
10
2.587000
20
1.461000
41
0.080000
42
0.080000
0
CIRCLE
8
0
10
2.587000
20
1.461000
40
0.025000
0
INSERT
8
0
2
EPAD
10
2.539000
20
1.281000
41
0.070000
42
0.070000
0
CIRCLE
8
0
10
2.539000
20
1.281000
40
0.025000
0
INSERT
8
0
2
EPAD
10
2.039000
20
1.281000
41
0.070000
42
0.070000
0
CIRCLE
8
0
10
2.039000
20
1.281000
40
0.025000
0
INSERT
8
0
2
RPAD
10
2.404000
20
1.075000
41
0.080000
42
0.080000
50
180.000000
0
CIRCLE
8
0
10
2.404000
20
1.075000
40
0.025000
0
INSERT
8
0
2
RPAD
10
2.304000
20
1.075000
41
0.080000
42
0.080000
50
180.000000
0
CIRCLE
8
0
10
2.304000
20
1.075000
40
0.025000
0
INSERT
8
0
2
RPAD
10
2.204000
20
1.075000
41
0.080000
42
0.080000
50
180.000000
0
CIRCLE
8
0
10
2.204000
20
1.075000
40
0.025000
0
INSERT
8
0
2
RPAD
10
2.189000
20
0.310000
41
0.050000
42
0.050000
50
0.000000
0
CIRCLE
8
0
10
2.189000
20
0.310000
40
0.030000
0
INSERT
8
0
2
EPAD
10
2.289000
20
0.310000
41
0.050000
42
0.050000
0
CIRCLE
8
0
10
2.289000
20
0.310000
40
0.030000
0
INSERT
8
0
2
EPAD
10
2.389000
20
0.310000
41
0.050000
42
0.050000
0
CIRCLE
8
0
10
2.389000
20
0.310000
40
0.030000
0
INSERT
8
0
2
EPAD
10
2.389000
20
0.610000
41
0.050000
42
0.050000
0
CIRCLE
8
0
10
2.389000
20
0.610000
40
0.030000
0
INSERT
8
0
2
EPAD
10
2.289000
20
0.610000
41
0.050000
42
0.050000
0
CIRCLE
8
0
10
2.289000
20
0.610000
40
0.030000
0
INSERT
8
0
2
EPAD
10
2.189000
20
0.610000
41
0.050000
42
0.050000
0
CIRCLE
8
0
10
2.189000
20
0.610000
40
0.030000
0
INSERT
8
0
2
EPAD
10
2.547000
20
0.677000
41
0.070000
42
0.070000
0
CIRCLE
8
0
10
2.547000
20
0.677000
40
0.025000
0
INSERT
8
0
2
EPAD
10
2.547000
20
0.277000
41
0.070000
42
0.070000
0
CIRCLE
8
0
10
2.547000
20
0.277000
40
0.025000
0
INSERT
8
0
2
EPAD
10
1.247000
20
1.459000
41
0.080000
42
0.080000
0
CIRCLE
8
0
10
1.247000
20
1.459000
40
0.025000
0
INSERT
8
0
2
EPAD
10
1.847000
20
1.459000
41
0.080000
42
0.080000
0
CIRCLE
8
0
10
1.847000
20
1.459000
40
0.025000
0
INSERT
8
0
2
EPAD
10
1.812000
20
1.285000
41
0.070000
42
0.070000
0
CIRCLE
8
0
10
1.812000
20
1.285000
40
0.025000
0
INSERT
8
0
2
EPAD
10
1.312000
20
1.285000
41
0.070000
42
0.070000
0
CIRCLE
8
0
10
1.312000
20
1.285000
40
0.025000
0
INSERT
8
0
2
RPAD
10
1.684000
20
1.074000
41
0.080000
42
0.080000
50
180.000000
0
CIRCLE
8
0
10
1.684000
20
1.074000
40
0.025000
0
INSERT
8
0
2
RPAD
10
1.584000
20
1.074000
41
0.080000
42
0.080000
50
180.000000
0
CIRCLE
8
0
10
1.584000
20
1.074000
40
0.025000
0
INSERT
8
0
2
RPAD
10
1.484000
20
1.074000
41
0.080000
42
0.080000
50
180.000000
0
CIRCLE
8
0
10
1.484000
20
1.074000
40
0.025000
0
INSERT
8
0
2
RPAD
10
1.467000
20
0.317000
41
0.050000
42
0.050000
50
0.000000
0
CIRCLE
8
0
10
1.467000
20
0.317000
40
0.030000
0
INSERT
8
0
2
EPAD
10
1.567000
20
0.317000
41
0.050000
42
0.050000
0
CIRCLE
8
0
10
1.567000
20
0.317000
40
0.030000
0
INSERT
8
0
2
EPAD
10
1.667000
20
0.317000
41
0.050000
42
0.050000
0
CIRCLE
8
0
10
1.667000
20
0.317000
40
0.030000
0
INSERT
8
0
2
EPAD
10
1.667000
20
0.617000
41
0.050000
42
0.050000
0
CIRCLE
8
0
10
1.667000
20
0.617000
40
0.030000
0
INSERT
8
0
2
EPAD
10
1.567000
20
0.617000
41
0.050000
42
0.050000
0
CIRCLE
8
0
10
1.567000
20
0.617000
40
0.030000
0
INSERT
8
0
2
EPAD
10
1.467000
20
0.617000
41
0.050000
42
0.050000
0
CIRCLE
8
0
10
1.467000
20
0.617000
40
0.030000
0
INSERT
8
0
2
EPAD
10
1.825000
20
0.676000
41
0.070000
42
0.070000
0
CIRCLE
8
0
10
1.825000
20
0.676000
40
0.025000
0
INSERT
8
0
2
EPAD
10
1.825000
20
0.276000
41
0.070000
42
0.070000
0
CIRCLE
8
0
10
1.825000
20
0.276000
40
0.025000
0
INSERT
8
0
2
EPAD
10
-0.245000
20
1.460000
41
0.080000
42
0.080000
0
CIRCLE
8
0
10
-0.245000
20
1.460000
40
0.025000
0
INSERT
8
0
2
EPAD
10
0.354000
20
1.460000
41
0.080000
42
0.080000
0
CIRCLE
8
0
10
0.354000
20
1.460000
40
0.025000
0
INSERT
8
0
2
EPAD
10
0.305000
20
1.288000
41
0.070000
42
0.070000
0
CIRCLE
8
0
10
0.305000
20
1.288000
40
0.025000
0
INSERT
8
0
2
EPAD
10
-0.194000
20
1.288000
41
0.070000
42
0.070000
0
CIRCLE
8
0
10
-0.194000
20
1.288000
40
0.025000
0
INSERT
8
0
2
RPAD
10
0.177000
20
1.077000
41
0.080000
42
0.080000
50
180.000000
0
CIRCLE
8
0
10
0.177000
20
1.077000
40
0.025000
0
INSERT
8
0
2
RPAD
10
0.077000
20
1.077000
41
0.080000
42
0.080000
50
180.000000
0
CIRCLE
8
0
10
0.077000
20
1.077000
40
0.025000
0
INSERT
8
0
2
RPAD
10
-0.022000
20
1.077000
41
0.080000
42
0.080000
50
180.000000
0
CIRCLE
8
0
10
-0.022000
20
1.077000
40
0.025000
0
INSERT
8
0
2
EPAD
10
0.104000
20
0.783000
41
0.090000
42
0.090000
0
CIRCLE
8
0
10
0.104000
20
0.783000
40
0.025000
0
INSERT
8
0
2
RPAD
10
-0.044000
20
0.318000
41
0.050000
42
0.050000
50
0.000000
0
CIRCLE
8
0
10
-0.044000
20
0.318000
40
0.030000
0
INSERT
8
0
2
EPAD
10
0.055000
20
0.318000
41
0.050000
42
0.050000
0
CIRCLE
8
0
10
0.055000
20
0.318000
40
0.030000
0
INSERT
8
0
2
EPAD
10
0.155000
20
0.318000
41
0.050000
42
0.050000
0
CIRCLE
8
0
10
0.155000
20
0.318000
40
0.030000
0
INSERT
8
0
2
EPAD
10
0.155000
20
0.618000
41
0.050000
42
0.050000
0
CIRCLE
8
0
10
0.155000
20
0.618000
40
0.030000
0
INSERT
8
0
2
EPAD
10
0.055000
20
0.618000
41
0.050000
42
0.050000
0
CIRCLE
8
0
10
0.055000
20
0.618000
40
0.030000
0
INSERT
8
0
2
EPAD
10
-0.044000
20
0.618000
41
0.050000
42
0.050000
0
CIRCLE
8
0
10
-0.044000
20
0.618000
40
0.030000
0
INSERT
8
0
2
EPAD
10
0.303000
20
0.680000
41
0.070000
42
0.070000
0
CIRCLE
8
0
10
0.303000
20
0.680000
40
0.025000
0
INSERT
8
0
2
EPAD
10
0.303000
20
0.280000
41
0.070000
42
0.070000
0
CIRCLE
8
0
10
0.303000
20
0.280000
40
0.025000
0
INSERT
8
0
2
EPAD
10
1.100000
20
1.458000
41
0.080000
42
0.080000
0
CIRCLE
8
0
10
1.100000
20
1.458000
40
0.025000
0
INSERT
8
0
2
EPAD
10
0.500000
20
1.458000
41
0.080000
42
0.080000
0
CIRCLE
8
0
10
0.500000
20
1.458000
40
0.025000
0
INSERT
8
0
2
EPAD
10
1.054000
20
1.282000
41
0.070000
42
0.070000
0
CIRCLE
8
0
10
1.054000
20
1.282000
40
0.025000
0
INSERT
8
0
2
EPAD
10
0.554000
20
1.282000
41
0.070000
42
0.070000
0
CIRCLE
8
0
10
0.554000
20
1.282000
40
0.025000
0
INSERT
8
0
2
RPAD
10
0.931000
20
1.074000
41
0.080000
42
0.080000
50
180.000000
0
CIRCLE
8
0
10
0.931000
20
1.074000
40
0.025000
0
INSERT
8
0
2
RPAD
10
0.831000
20
1.074000
41
0.080000
42
0.080000
50
180.000000
0
CIRCLE
8
0
10
0.831000
20
1.074000
40
0.025000
0
INSERT
8
0
2
RPAD
10
0.731000
20
1.074000
41
0.080000
42
0.080000
50
180.000000
0
CIRCLE
8
0
10
0.731000
20
1.074000
40
0.025000
0
INSERT
8
0
2
EPAD
10
0.857000
20
0.781000
41
0.090000
42
0.090000
0
CIRCLE
8
0
10
0.857000
20
0.781000
40
0.025000
0
INSERT
8
0
2
RPAD
10
0.707000
20
0.317000
41
0.050000
42
0.050000
50
0.000000
0
CIRCLE
8
0
10
0.707000
20
0.317000
40
0.030000
0
INSERT
8
0
2
EPAD
10
0.807000
20
0.317000
41
0.050000
42
0.050000
0
CIRCLE
8
0
10
0.807000
20
0.317000
40
0.030000
0
INSERT
8
0
2
EPAD
10
0.907000
20
0.317000
41
0.050000
42
0.050000
0
CIRCLE
8
0
10
0.907000
20
0.317000
40
0.030000
0
INSERT
8
0
2
EPAD
10
0.907000
20
0.617000
41
0.050000
42
0.050000
0
CIRCLE
8
0
10
0.907000
20
0.617000
40
0.030000
0
INSERT
8
0
2
EPAD
10
0.807000
20
0.617000
41
0.050000
42
0.050000
0
CIRCLE
8
0
10
0.807000
20
0.617000
40
0.030000
0
INSERT
8
0
2
EPAD
10
0.707000
20
0.617000
41
0.050000
42
0.050000
0
CIRCLE
8
0
10
0.707000
20
0.617000
40
0.030000
0
INSERT
8
0
2
EPAD
10
1.064000
20
0.677000
41
0.070000
42
0.070000
0
CIRCLE
8
0
10
1.064000
20
0.677000
40
0.025000
0
INSERT
8
0
2
EPAD
10
1.064000
20
0.277000
41
0.070000
42
0.070000
0
CIRCLE
8
0
10
1.064000
20
0.277000
40
0.025000
0
INSERT
8
0
2
EPAD
10
-0.996000
20
1.461000
41
0.080000
42
0.080000
0
CIRCLE
8
0
10
-0.996000
20
1.461000
40
0.025000
0
INSERT
8
0
2
EPAD
10
-0.396000
20
1.461000
41
0.080000
42
0.080000
0
CIRCLE
8
0
10
-0.396000
20
1.461000
40
0.025000
0
INSERT
8
0
2
EPAD
10
-0.445000
20
1.291000
41
0.070000
42
0.070000
0
CIRCLE
8
0
10
-0.445000
20
1.291000
40
0.025000
0
INSERT
8
0
2
EPAD
10
-0.945000
20
1.291000
41
0.070000
42
0.070000
0
CIRCLE
8
0
10
-0.945000
20
1.291000
40
0.025000
0
INSERT
8
0
2
RPAD
10
-0.577000
20
1.075000
41
0.080000
42
0.080000
50
180.000000
0
CIRCLE
8
0
10
-0.577000
20
1.075000
40
0.025000
0
INSERT
8
0
2
RPAD
10
-0.677000
20
1.075000
41
0.080000
42
0.080000
50
180.000000
0
CIRCLE
8
0
10
-0.677000
20
1.075000
40
0.025000
0
INSERT
8
0
2
RPAD
10
-0.777000
20
1.075000
41
0.080000
42
0.080000
50
180.000000
0
CIRCLE
8
0
10
-0.777000
20
1.075000
40
0.025000
0
INSERT
8
0
2
EPAD
10
-0.648000
20
0.780000
41
0.090000
42
0.090000
0
CIRCLE
8
0
10
-0.648000
20
0.780000
40
0.025000
0
INSERT
8
0
2
RPAD
10
-0.801000
20
0.312000
41
0.050000
42
0.050000
50
0.000000
0
CIRCLE
8
0
10
-0.801000
20
0.312000
40
0.030000
0
INSERT
8
0
2
EPAD
10
-0.701000
20
0.312000
41
0.050000
42
0.050000
0
CIRCLE
8
0
10
-0.701000
20
0.312000
40
0.030000
0
INSERT
8
0
2
EPAD
10
-0.601000
20
0.312000
41
0.050000
42
0.050000
0
CIRCLE
8
0
10
-0.601000
20
0.312000
40
0.030000
0
INSERT
8
0
2
EPAD
10
-0.601000
20
0.612000
41
0.050000
42
0.050000
0
CIRCLE
8
0
10
-0.601000
20
0.612000
40
0.030000
0
INSERT
8
0
2
EPAD
10
-0.701000
20
0.612000
41
0.050000
42
0.050000
0
CIRCLE
8
0
10
-0.701000
20
0.612000
40
0.030000
0
INSERT
8
0
2
EPAD
10
-0.801000
20
0.612000
41
0.050000
42
0.050000
0
CIRCLE
8
0
10
-0.801000
20
0.612000
40
0.030000
0
INSERT
8
0
2
EPAD
10
-0.441000
20
0.675000
41
0.070000
42
0.070000
0
CIRCLE
8
0
10
-0.441000
20
0.675000
40
0.025000
0
INSERT
8
0
2
EPAD
10
-0.441000
20
0.275000
41
0.070000
42
0.070000
0
CIRCLE
8
0
10
-0.441000
20
0.275000
40
0.025000
0
INSERT
8
0
2
EPAD
10
-1.743000
20
1.462000
41
0.080000
42
0.080000
0
CIRCLE
8
0
10
-1.743000
20
1.462000
40
0.025000
0
INSERT
8
0
2
EPAD
10
-1.143000
20
1.462000
41
0.080000
42
0.080000
0
CIRCLE
8
0
10
-1.143000
20
1.462000
40
0.025000
0
INSERT
8
0
2
EPAD
10
-1.187000
20
1.296000
41
0.070000
42
0.070000
0
CIRCLE
8
0
10
-1.187000
20
1.296000
40
0.025000
0
INSERT
8
0
2
EPAD
10
-1.687000
20
1.296000
41
0.070000
42
0.070000
0
CIRCLE
8
0
10
-1.687000
20
1.296000
40
0.025000
0
INSERT
8
0
2
RPAD
10
-1.312000
20
1.075000
41
0.080000
42
0.080000
50
180.000000
0
CIRCLE
8
0
10
-1.312000
20
1.075000
40
0.025000
0
INSERT
8
0
2
RPAD
10
-1.412000
20
1.075000
41
0.080000
42
0.080000
50
180.000000
0
CIRCLE
8
0
10
-1.412000
20
1.075000
40
0.025000
0
INSERT
8
0
2
RPAD
10
-1.512000
20
1.075000
41
0.080000
42
0.080000
50
180.000000
0
CIRCLE
8
0
10
-1.512000
20
1.075000
40
0.025000
0
INSERT
8
0
2
RPAD
10
-1.544000
20
0.317000
41
0.050000
42
0.050000
50
0.000000
0
CIRCLE
8
0
10
-1.544000
20
0.317000
40
0.030000
0
INSERT
8
0
2
EPAD
10
-1.444000
20
0.317000
41
0.050000
42
0.050000
0
CIRCLE
8
0
10
-1.444000
20
0.317000
40
0.030000
0
INSERT
8
0
2
EPAD
10
-1.344000
20
0.317000
41
0.050000
42
0.050000
0
CIRCLE
8
0
10
-1.344000
20
0.317000
40
0.030000
0
INSERT
8
0
2
EPAD
10
-1.344000
20
0.617000
41
0.050000
42
0.050000
0
CIRCLE
8
0
10
-1.344000
20
0.617000
40
0.030000
0
INSERT
8
0
2
EPAD
10
-1.444000
20
0.617000
41
0.050000
42
0.050000
0
CIRCLE
8
0
10
-1.444000
20
0.617000
40
0.030000
0
INSERT
8
0
2
EPAD
10
-1.544000
20
0.617000
41
0.050000
42
0.050000
0
CIRCLE
8
0
10
-1.544000
20
0.617000
40
0.030000
0
INSERT
8
0
2
EPAD
10
-1.186000
20
0.682000
41
0.070000
42
0.070000
0
CIRCLE
8
0
10
-1.186000
20
0.682000
40
0.025000
0
INSERT
8
0
2
EPAD
10
-1.186000
20
0.282000
41
0.070000
42
0.070000
0
CIRCLE
8
0
10
-1.186000
20
0.282000
40
0.025000
0
INSERT
8
0
2
RPAD
10
-0.158000
20
-1.132000
41
0.050000
42
0.050000
50
0.000000
0
CIRCLE
8
0
10
-0.158000
20
-1.132000
40
0.030000
0
INSERT
8
0
2
EPAD
10
-0.058000
20
-1.132000
41
0.050000
42
0.050000
0
CIRCLE
8
0
10
-0.058000
20
-1.132000
40
0.030000
0
INSERT
8
0
2
EPAD
10
0.041000
20
-1.132000
41
0.050000
42
0.050000
0
CIRCLE
8
0
10
0.041000
20
-1.132000
40
0.030000
0
INSERT
8
0
2
EPAD
10
0.141000
20
-1.132000
41
0.050000
42
0.050000
0
CIRCLE
8
0
10
0.141000
20
-1.132000
40
0.030000
0
INSERT
8
0
2
EPAD
10
0.241000
20
-1.132000
41
0.050000
42
0.050000
0
CIRCLE
8
0
10
0.241000
20
-1.132000
40
0.030000
0
INSERT
8
0
2
EPAD
10
0.341000
20
-1.132000
41
0.050000
42
0.050000
0
CIRCLE
8
0
10
0.341000
20
-1.132000
40
0.030000
0
INSERT
8
0
2
EPAD
10
0.441000
20
-1.132000
41
0.050000
42
0.050000
0
CIRCLE
8
0
10
0.441000
20
-1.132000
40
0.030000
0
INSERT
8
0
2
EPAD
10
0.541000
20
-1.132000
41
0.050000
42
0.050000
0
CIRCLE
8
0
10
0.541000
20
-1.132000
40
0.030000
0
INSERT
8
0
2
EPAD
10
0.641000
20
-1.132000
41
0.050000
42
0.050000
0
CIRCLE
8
0
10
0.641000
20
-1.132000
40
0.030000
0
INSERT
8
0
2
EPAD
10
0.741000
20
-1.132000
41
0.050000
42
0.050000
0
CIRCLE
8
0
10
0.741000
20
-1.132000
40
0.030000
0
INSERT
8
0
2
EPAD
10
0.841000
20
-1.132000
41
0.050000
42
0.050000
0
CIRCLE
8
0
10
0.841000
20
-1.132000
40
0.030000
0
INSERT
8
0
2
EPAD
10
0.941000
20
-1.132000
41
0.050000
42
0.050000
0
CIRCLE
8
0
10
0.941000
20
-1.132000
40
0.030000
0
INSERT
8
0
2
EPAD
10
1.041000
20
-1.132000
41
0.050000
42
0.050000
0
CIRCLE
8
0
10
1.041000
20
-1.132000
40
0.030000
0
INSERT
8
0
2
EPAD
10
1.141000
20
-1.132000
41
0.050000
42
0.050000
0
CIRCLE
8
0
10
1.141000
20
-1.132000
40
0.030000
0
INSERT
8
0
2
EPAD
10
1.241000
20
-1.132000
41
0.050000
42
0.050000
0
CIRCLE
8
0
10
1.241000
20
-1.132000
40
0.030000
0
INSERT
8
0
2
EPAD
10
1.341000
20
-1.132000
41
0.050000
42
0.050000
0
CIRCLE
8
0
10
1.341000
20
-1.132000
40
0.030000
0
INSERT
8
0
2
EPAD
10
1.441000
20
-1.132000
41
0.050000
42
0.050000
0
CIRCLE
8
0
10
1.441000
20
-1.132000
40
0.030000
0
INSERT
8
0
2
EPAD
10
1.541000
20
-1.132000
41
0.050000
42
0.050000
0
CIRCLE
8
0
10
1.541000
20
-1.132000
40
0.030000
0
INSERT
8
0
2
EPAD
10
1.641000
20
-1.132000
41
0.050000
42
0.050000
0
CIRCLE
8
0
10
1.641000
20
-1.132000
40
0.030000
0
INSERT
8
0
2
EPAD
10
1.741000
20
-1.132000
41
0.050000
42
0.050000
0
CIRCLE
8
0
10
1.741000
20
-1.132000
40
0.030000
0
INSERT
8
0
2
EPAD
10
1.741000
20
-0.532000
41
0.050000
42
0.050000
0
CIRCLE
8
0
10
1.741000
20
-0.532000
40
0.030000
0
INSERT
8
0
2
EPAD
10
1.641000
20
-0.532000
41
0.050000
42
0.050000
0
CIRCLE
8
0
10
1.641000
20
-0.532000
40
0.030000
0
INSERT
8
0
2
EPAD
10
1.541000
20
-0.532000
41
0.050000
42
0.050000
0
CIRCLE
8
0
10
1.541000
20
-0.532000
40
0.030000
0
INSERT
8
0
2
EPAD
10
1.441000
20
-0.532000
41
0.050000
42
0.050000
0
CIRCLE
8
0
10
1.441000
20
-0.532000
40
0.030000
0
INSERT
8
0
2
EPAD
10
1.341000
20
-0.532000
41
0.050000
42
0.050000
0
CIRCLE
8
0
10
1.341000
20
-0.532000
40
0.030000
0
INSERT
8
0
2
EPAD
10
1.241000
20
-0.532000
41
0.050000
42
0.050000
0
CIRCLE
8
0
10
1.241000
20
-0.532000
40
0.030000
0
INSERT
8
0
2
EPAD
10
1.141000
20
-0.532000
41
0.050000
42
0.050000
0
CIRCLE
8
0
10
1.141000
20
-0.532000
40
0.030000
0
INSERT
8
0
2
EPAD
10
1.041000
20
-0.532000
41
0.050000
42
0.050000
0
CIRCLE
8
0
10
1.041000
20
-0.532000
40
0.030000
0
INSERT
8
0
2
EPAD
10
0.941000
20
-0.532000
41
0.050000
42
0.050000
0
CIRCLE
8
0
10
0.941000
20
-0.532000
40
0.030000
0
INSERT
8
0
2
EPAD
10
0.841000
20
-0.532000
41
0.050000
42
0.050000
0
CIRCLE
8
0
10
0.841000
20
-0.532000
40
0.030000
0
INSERT
8
0
2
EPAD
10
0.741000
20
-0.532000
41
0.050000
42
0.050000
0
CIRCLE
8
0
10
0.741000
20
-0.532000
40
0.030000
0
INSERT
8
0
2
EPAD
10
0.641000
20
-0.532000
41
0.050000
42
0.050000
0
CIRCLE
8
0
10
0.641000
20
-0.532000
40
0.030000
0
INSERT
8
0
2
EPAD
10
0.541000
20
-0.532000
41
0.050000
42
0.050000
0
CIRCLE
8
0
10
0.541000
20
-0.532000
40
0.030000
0
INSERT
8
0
2
EPAD
10
0.441000
20
-0.532000
41
0.050000
42
0.050000
0
CIRCLE
8
0
10
0.441000
20
-0.532000
40
0.030000
0
INSERT
8
0
2
EPAD
10
0.341000
20
-0.532000
41
0.050000
42
0.050000
0
CIRCLE
8
0
10
0.341000
20
-0.532000
40
0.030000
0
INSERT
8
0
2
EPAD
10
0.241000
20
-0.532000
41
0.050000
42
0.050000
0
CIRCLE
8
0
10
0.241000
20
-0.532000
40
0.030000
0
INSERT
8
0
2
EPAD
10
0.141000
20
-0.532000
41
0.050000
42
0.050000
0
CIRCLE
8
0
10
0.141000
20
-0.532000
40
0.030000
0
INSERT
8
0
2
EPAD
10
0.041000
20
-0.532000
41
0.050000
42
0.050000
0
CIRCLE
8
0
10
0.041000
20
-0.532000
40
0.030000
0
INSERT
8
0
2
EPAD
10
-0.058000
20
-0.532000
41
0.050000
42
0.050000
0
CIRCLE
8
0
10
-0.058000
20
-0.532000
40
0.030000
0
INSERT
8
0
2
EPAD
10
-0.158000
20
-0.532000
41
0.050000
42
0.050000
0
CIRCLE
8
0
10
-0.158000
20
-0.532000
40
0.030000
0
INSERT
8
0
2
EPAD
10
1.401000
20
-1.356000
41
0.070000
42
0.070000
0
CIRCLE
8
0
10
1.401000
20
-1.356000
40
0.025000
0
INSERT
8
0
2
EPAD
10
1.601000
20
-1.356000
41
0.070000
42
0.070000
0
CIRCLE
8
0
10
1.601000
20
-1.356000
40
0.025000
0
INSERT
8
0
2
EPAD
10
1.012000
20
-1.258000
41
0.070000
42
0.070000
0
CIRCLE
8
0
10
1.012000
20
-1.258000
40
0.025000
0
INSERT
8
0
2
EPAD
10
1.012000
20
-1.358000
41
0.070000
42
0.070000
0
CIRCLE
8
0
10
1.012000
20
-1.358000
40
0.025000
0
INSERT
8
0
2
EPAD
10
1.174000
20
-1.261000
41
0.070000
42
0.070000
0
CIRCLE
8
0
10
1.174000
20
-1.261000
40
0.025000
0
INSERT
8
0
2
EPAD
10
1.174000
20
-1.361000
41
0.070000
42
0.070000
0
CIRCLE
8
0
10
1.174000
20
-1.361000
40
0.025000
0
INSERT
8
0
2
EPAD
10
0.987000
20
-0.912000
41
0.080000
42
0.080000
0
CIRCLE
8
0
10
0.987000
20
-0.912000
40
0.025000
0
INSERT
8
0
2
EPAD
10
1.187000
20
-0.912000
41
0.080000
42
0.080000
0
CIRCLE
8
0
10
1.187000
20
-0.912000
40
0.025000
0
INSERT
8
0
2
EPAD
10
-0.391000
20
-1.131000
41
0.070000
42
0.070000
0
CIRCLE
8
0
10
-0.391000
20
-1.131000
40
0.025000
0
INSERT
8
0
2
EPAD
10
-0.391000
20
-0.731000
41
0.070000
42
0.070000
0
CIRCLE
8
0
10
-0.391000
20
-0.731000
40
0.025000
0
INSERT
8
0
2
EPAD
10
-0.754000
20
-1.257000
41
0.070000
42
0.070000
0
CIRCLE
8
0
10
-0.754000
20
-1.257000
40
0.025000
0
INSERT
8
0
2
EPAD
10
-0.554000
20
-1.257000
41
0.070000
42
0.070000
0
CIRCLE
8
0
10
-0.554000
20
-1.257000
40
0.025000
0
INSERT
8
0
2
EPAD
10
-0.700000
20
-1.542000
41
0.080000
42
0.080000
0
CIRCLE
8
0
10
-0.700000
20
-1.542000
40
0.010000
0
INSERT
8
0
2
EPAD
10
-0.600000
20
-1.542000
41
0.080000
42
0.080000
0
CIRCLE
8
0
10
-0.600000
20
-1.542000
40
0.010000
0
INSERT
8
0
2
EPAD
10
1.846000
20
0.103000
41
0.070000
42
0.070000
0
CIRCLE
8
0
10
1.846000
20
0.103000
40
0.025000
0
INSERT
8
0
2
EPAD
10
1.846000
20
-0.296000
41
0.070000
42
0.070000
0
CIRCLE
8
0
10
1.846000
20
-0.296000
40
0.025000
0
INSERT
8
0
2
EPAD
10
1.178000
20
0.095000
41
0.070000
42
0.070000
0
CIRCLE
8
0
10
1.178000
20
0.095000
40
0.025000
0
INSERT
8
0
2
EPAD
10
1.178000
20
-0.304000
41
0.070000
42
0.070000
0
CIRCLE
8
0
10
1.178000
20
-0.304000
40
0.025000
0
INSERT
8
0
2
EPAD
10
1.744000
20
0.100000
41
0.070000
42
0.070000
0
CIRCLE
8
0
10
1.744000
20
0.100000
40
0.025000
0
INSERT
8
0
2
EPAD
10
1.744000
20
-0.299000
41
0.070000
42
0.070000
0
CIRCLE
8
0
10
1.744000
20
-0.299000
40
0.025000
0
INSERT
8
0
2
EPAD
10
1.646000
20
0.102000
41
0.070000
42
0.070000
0
CIRCLE
8
0
10
1.646000
20
0.102000
40
0.025000
0
INSERT
8
0
2
EPAD
10
1.646000
20
-0.297000
41
0.070000
42
0.070000
0
CIRCLE
8
0
10
1.646000
20
-0.297000
40
0.025000
0
INSERT
8
0
2
EPAD
10
1.049000
20
0.096000
41
0.070000
42
0.070000
0
CIRCLE
8
0
10
1.049000
20
0.096000
40
0.025000
0
INSERT
8
0
2
EPAD
10
1.049000
20
-0.303000
41
0.070000
42
0.070000
0
CIRCLE
8
0
10
1.049000
20
-0.303000
40
0.025000
0
INSERT
8
0
2
EPAD
10
1.435000
20
0.095000
41
0.070000
42
0.070000
0
CIRCLE
8
0
10
1.435000
20
0.095000
40
0.025000
0
INSERT
8
0
2
EPAD
10
1.435000
20
-0.304000
41
0.070000
42
0.070000
0
CIRCLE
8
0
10
1.435000
20
-0.304000
40
0.025000
0
INSERT
8
0
2
EPAD
10
0.551000
20
-0.293000
41
0.070000
42
0.070000
0
CIRCLE
8
0
10
0.551000
20
-0.293000
40
0.025000
0
INSERT
8
0
2
EPAD
10
0.551000
20
0.106000
41
0.070000
42
0.070000
0
CIRCLE
8
0
10
0.551000
20
0.106000
40
0.025000
0
INSERT
8
0
2
EPAD
10
0.431000
20
-0.297000
41
0.070000
42
0.070000
0
CIRCLE
8
0
10
0.431000
20
-0.297000
40
0.025000
0
INSERT
8
0
2
EPAD
10
0.431000
20
0.102000
41
0.070000
42
0.070000
0
CIRCLE
8
0
10
0.431000
20
0.102000
40
0.025000
0
INSERT
8
0
2
EPAD
10
0.311000
20
-0.297000
41
0.070000
42
0.070000
0
CIRCLE
8
0
10
0.311000
20
-0.297000
40
0.025000
0
INSERT
8
0
2
EPAD
10
0.311000
20
0.102000
41
0.070000
42
0.070000
0
CIRCLE
8
0
10
0.311000
20
0.102000
40
0.025000
0
INSERT
8
0
2
EPAD
10
0.193000
20
-0.297000
41
0.070000
42
0.070000
0
CIRCLE
8
0
10
0.193000
20
-0.297000
40
0.025000
0
INSERT
8
0
2
EPAD
10
0.193000
20
0.102000
41
0.070000
42
0.070000
0
CIRCLE
8
0
10
0.193000
20
0.102000
40
0.025000
0
INSERT
8
0
2
EPAD
10
0.070000
20
-0.297000
41
0.070000
42
0.070000
0
CIRCLE
8
0
10
0.070000
20
-0.297000
40
0.025000
0
INSERT
8
0
2
EPAD
10
0.070000
20
0.102000
41
0.070000
42
0.070000
0
CIRCLE
8
0
10
0.070000
20
0.102000
40
0.025000
0
INSERT
8
0
2
EPAD
10
-0.049000
20
-0.297000
41
0.070000
42
0.070000
0
CIRCLE
8
0
10
-0.049000
20
-0.297000
40
0.025000
0
INSERT
8
0
2
EPAD
10
-0.049000
20
0.102000
41
0.070000
42
0.070000
0
CIRCLE
8
0
10
-0.049000
20
0.102000
40
0.025000
0
INSERT
8
0
2
EPAD
10
-0.167000
20
-0.297000
41
0.070000
42
0.070000
0
CIRCLE
8
0
10
-0.167000
20
-0.297000
40
0.025000
0
INSERT
8
0
2
EPAD
10
-0.167000
20
0.102000
41
0.070000
42
0.070000
0
CIRCLE
8
0
10
-0.167000
20
0.102000
40
0.025000
0
INSERT
8
0
2
EPAD
10
-0.284000
20
-0.297000
41
0.070000
42
0.070000
0
CIRCLE
8
0
10
-0.284000
20
-0.297000
40
0.025000
0
INSERT
8
0
2
EPAD
10
-0.284000
20
0.102000
41
0.070000
42
0.070000
0
CIRCLE
8
0
10
-0.284000
20
0.102000
40
0.025000
0
INSERT
8
0
2
EPAD
10
-0.692000
20
0.068000
41
0.080000
42
0.080000
0
CIRCLE
8
0
10
-0.692000
20
0.068000
40
0.010000
0
INSERT
8
0
2
EPAD
10
-0.692000
20
-0.031000
41
0.080000
42
0.080000
0
CIRCLE
8
0
10
-0.692000
20
-0.031000
40
0.010000
0
INSERT
8
0
2
EPAD
10
-0.692000
20
-0.131000
41
0.080000
42
0.080000
0
CIRCLE
8
0
10
-0.692000
20
-0.131000
40
0.010000
0
INSERT
8
0
2
EPAD
10
-0.692000
20
-0.231000
41
0.080000
42
0.080000
0
CIRCLE
8
0
10
-0.692000
20
-0.231000
40
0.010000
0
INSERT
8
0
2
EPAD
10
-0.692000
20
-0.331000
41
0.080000
42
0.080000
0
CIRCLE
8
0
10
-0.692000
20
-0.331000
40
0.010000
0
INSERT
8
0
2
EPAD
10
-0.692000
20
-0.431000
41
0.080000
42
0.080000
0
CIRCLE
8
0
10
-0.692000
20
-0.431000
40
0.010000
0
INSERT
8
0
2
EPAD
10
-0.692000
20
-0.531000
41
0.080000
42
0.080000
0
CIRCLE
8
0
10
-0.692000
20
-0.531000
40
0.010000
0
INSERT
8
0
2
EPAD
10
-0.692000
20
-0.631000
41
0.080000
42
0.080000
0
CIRCLE
8
0
10
-0.692000
20
-0.631000
40
0.010000
0
INSERT
8
0
2
EPAD
10
-0.692000
20
-0.731000
41
0.080000
42
0.080000
0
CIRCLE
8
0
10
-0.692000
20
-0.731000
40
0.010000
0
INSERT
8
0
2
EPAD
10
-0.692000
20
-0.831000
41
0.080000
42
0.080000
0
CIRCLE
8
0
10
-0.692000
20
-0.831000
40
0.010000
0
INSERT
8
0
2
RPAD
10
-1.488000
20
-0.013000
41
0.050000
42
0.050000
50
-90.000000
0
CIRCLE
8
0
10
-1.488000
20
-0.013000
40
0.030000
0
INSERT
8
0
2
EPAD
10
-1.488000
20
-0.113000
41
0.050000
42
0.050000
0
CIRCLE
8
0
10
-1.488000
20
-0.113000
40
0.030000
0
INSERT
8
0
2
EPAD
10
-1.488000
20
-0.213000
41
0.050000
42
0.050000
0
CIRCLE
8
0
10
-1.488000
20
-0.213000
40
0.030000
0
INSERT
8
0
2
EPAD
10
-1.488000
20
-0.313000
41
0.050000
42
0.050000
0
CIRCLE
8
0
10
-1.488000
20
-0.313000
40
0.030000
0
INSERT
8
0
2
EPAD
10
-1.488000
20
-0.413000
41
0.050000
42
0.050000
0
CIRCLE
8
0
10
-1.488000
20
-0.413000
40
0.030000
0
INSERT
8
0
2
EPAD
10
-1.488000
20
-0.513000
41
0.050000
42
0.050000
0
CIRCLE
8
0
10
-1.488000
20
-0.513000
40
0.030000
0
INSERT
8
0
2
EPAD
10
-1.488000
20
-0.613000
41
0.050000
42
0.050000
0
CIRCLE
8
0
10
-1.488000
20
-0.613000
40
0.030000
0
INSERT
8
0
2
EPAD
10
-1.188000
20
-0.613000
41
0.050000
42
0.050000
0
CIRCLE
8
0
10
-1.188000
20
-0.613000
40
0.030000
0
INSERT
8
0
2
EPAD
10
-1.188000
20
-0.513000
41
0.050000
42
0.050000
0
CIRCLE
8
0
10
-1.188000
20
-0.513000
40
0.030000
0
INSERT
8
0
2
EPAD
10
-1.188000
20
-0.413000
41
0.050000
42
0.050000
0
CIRCLE
8
0
10
-1.188000
20
-0.413000
40
0.030000
0
INSERT
8
0
2
EPAD
10
-1.188000
20
-0.313000
41
0.050000
42
0.050000
0
CIRCLE
8
0
10
-1.188000
20
-0.313000
40
0.030000
0
INSERT
8
0
2
EPAD
10
-1.188000
20
-0.213000
41
0.050000
42
0.050000
0
CIRCLE
8
0
10
-1.188000
20
-0.213000
40
0.030000
0
INSERT
8
0
2
EPAD
10
-1.188000
20
-0.113000
41
0.050000
42
0.050000
0
CIRCLE
8
0
10
-1.188000
20
-0.113000
40
0.030000
0
INSERT
8
0
2
EPAD
10
-1.188000
20
-0.013000
41
0.050000
42
0.050000
0
CIRCLE
8
0
10
-1.188000
20
-0.013000
40
0.030000
0
INSERT
8
0
2
EPAD
10
-1.653000
20
-0.410000
41
0.070000
42
0.070000
0
CIRCLE
8
0
10
-1.653000
20
-0.410000
40
0.025000
0
INSERT
8
0
2
EPAD
10
-1.653000
20
-0.010000
41
0.070000
42
0.070000
0
CIRCLE
8
0
10
-1.653000
20
-0.010000
40
0.025000
0
INSERT
8
0
2
EPAD
10
-1.550000
20
-0.792000
41
0.070000
42
0.070000
0
CIRCLE
8
0
10
-1.550000
20
-0.792000
40
0.025000
0
INSERT
8
0
2
EPAD
10
-1.150000
20
-0.792000
41
0.070000
42
0.070000
0
CIRCLE
8
0
10
-1.150000
20
-0.792000
40
0.025000
0
INSERT
8
0
2
EPAD
10
-1.046000
20
-0.428000
41
0.070000
42
0.070000
0
CIRCLE
8
0
10
-1.046000
20
-0.428000
40
0.025000
0
INSERT
8
0
2
EPAD
10
-1.046000
20
-0.828000
41
0.070000
42
0.070000
0
CIRCLE
8
0
10
-1.046000
20
-0.828000
40
0.025000
0
INSERT
8
0
2
EPAD
10
-1.044000
20
0.140000
41
0.070000
42
0.070000
0
CIRCLE
8
0
10
-1.044000
20
0.140000
40
0.025000
0
INSERT
8
0
2
EPAD
10
-1.044000
20
-0.259000
41
0.070000
42
0.070000
0
CIRCLE
8
0
10
-1.044000
20
-0.259000
40
0.025000
0
INSERT
8
0
2
EPAD
10
1.301000
20
-0.304000
41
0.070000
42
0.070000
0
CIRCLE
8
0
10
1.301000
20
-0.304000
40
0.025000
0
INSERT
8
0
2
EPAD
10
1.301000
20
0.095000
41
0.070000
42
0.070000
0
CIRCLE
8
0
10
1.301000
20
0.095000
40
0.025000
0
INSERT
8
0
2
EPAD
10
-0.895000
20
-0.425000
41
0.070000
42
0.070000
0
CIRCLE
8
0
10
-0.895000
20
-0.425000
40
0.025000
0
INSERT
8
0
2
EPAD
10
-0.895000
20
-0.825000
41
0.070000
42
0.070000
0
CIRCLE
8
0
10
-0.895000
20
-0.825000
40
0.025000
0
INSERT
8
0
2
EPAD
10
-1.694000
20
-0.575000
41
0.080000
42
0.080000
0
CIRCLE
8
0
10
-1.694000
20
-0.575000
40
0.025000
0
INSERT
8
0
2
EPAD
10
-1.694000
20
-0.675000
41
0.080000
42
0.080000
0
CIRCLE
8
0
10
-1.694000
20
-0.675000
40
0.025000
0
INSERT
8
0
2
EPAD
10
-2.420000
20
-0.231000
41
0.120000
42
0.120000
0
CIRCLE
8
0
10
-2.420000
20
-0.231000
40
0.030000
0
INSERT
8
0
2
EPAD
10
-2.420000
20
-0.431000
41
0.120000
42
0.120000
0
CIRCLE
8
0
10
-2.420000
20
-0.431000
40
0.030000
0
INSERT
8
0
2
EPAD
10
-2.420000
20
-0.631000
41
0.120000
42
0.120000
0
CIRCLE
8
0
10
-2.420000
20
-0.631000
40
0.030000
0
INSERT
8
0
2
EPAD
10
-2.420000
20
-0.831000
41
0.120000
42
0.120000
0
CIRCLE
8
0
10
-2.420000
20
-0.831000
40
0.030000
0
INSERT
8
0
2
EPAD
10
-2.420000
20
-1.031000
41
0.120000
42
0.120000
0
CIRCLE
8
0
10
-2.420000
20
-1.031000
40
0.030000
0
INSERT
8
0
2
EPAD
10
-2.534000
20
2.172000
41
0.250000
42
0.250000
0
CIRCLE
8
0
10
-2.534000
20
2.172000
40
0.030000
0
INSERT
8
0
2
EPAD
10
-2.051000
20
0.266000
41
0.065000
42
0.065000
0
INSERT
8
0
2
EPAD
10
-2.051000
20
0.392000
41
0.065000
42
0.065000
0
INSERT
8
0
2
EPAD
10
-2.149000
20
0.392000
41
0.065000
42
0.065000
0
INSERT
8
0
2
EPAD
10
-2.149000
20
0.266000
41
0.065000
42
0.065000
0
INSERT
8
0
2
EPAD
10
-2.237000
20
0.566000
41
0.120000
42
0.120000
0
INSERT
8
0
2
EPAD
10
-2.237000
20
0.092000
41
0.120000
42
0.120000
0
POLYLINE
8
0
66
1
40
0.008000
41
0.008000
0
VERTEX
8
0
10
-2.696000
20
-2.332000
0
VERTEX
8
0
10
2.696000
20
-2.332000
0
VERTEX
8
0
10
2.696000
20
2.332000
0
VERTEX
8
0
10
-2.696000
20
2.332000
0
VERTEX
8
0
10
-2.696000
20
-2.332000
0
SEQEND
8
0
0
CIRCLE
8
12632256
10
-1.768000
20
-1.061000
40
0.213000
0
POLYLINE
8
0
66
1
40
0.008000
41
0.008000
0
VERTEX
8
0
10
-1.578000
20
-0.981000
0
VERTEX
8
0
10
-1.618000
20
-0.981000
0
SEQEND
8
0
0
POLYLINE
8
0
66
1
40
0.008000
41
0.008000
0
VERTEX
8
0
10
-1.598000
20
-0.961000
0
VERTEX
8
0
10
-1.598000
20
-1.001000
0
SEQEND
8
0
0
TEXT
8
12632256
10
-1.497000
20
-1.136000
40
0.048000
41
1.041667
50
90.000000
1
BR1
0
CIRCLE
8
12632256
10
-1.280000
20
-1.058000
40
0.200000
0
POLYLINE
8
0
66
1
40
0.008000
41
0.008000
0
VERTEX
8
0
10
-1.405000
20
-0.958000
0
VERTEX
8
0
10
-1.355000
20
-0.958000
0
SEQEND
8
0
0
POLYLINE
8
0
66
1
40
0.008000
41
0.008000
0
VERTEX
8
0
10
-1.380000
20
-0.933000
0
VERTEX
8
0
10
-1.380000
20
-0.983000
0
SEQEND
8
0
0
TEXT
8
12632256
10
-1.054000
20
-1.044000
40
0.048000
41
1.041667
1
C4
0
POLYLINE
8
0
66
1
40
0.008000
41
0.008000
0
VERTEX
8
0
10
-0.906000
20
-1.079000
0
VERTEX
8
0
10
-0.856000
20
-1.079000
0
SEQEND
8
0
0
POLYLINE
8
0
66
1
40
0.008000
41
0.008000
0
VERTEX
8
0
10
-0.856000
20
-1.104000
0
VERTEX
8
0
10
-0.656000
20
-1.104000
0
VERTEX
8
0
10
-0.656000
20
-1.054000
0
VERTEX
8
0
10
-0.856000
20
-1.054000
0
VERTEX
8
0
10
-0.856000
20
-1.104000
0
SEQEND
8
0
0
POLYLINE
8
0
66
1
40
0.008000
41
0.008000
0
VERTEX
8
0
10
-0.656000
20
-1.079000
0
VERTEX
8
0
10
-0.606000
20
-1.079000
0
SEQEND
8
0
0
TEXT
8
12632256
10
-0.846000
20
-1.037000
40
0.048000
41
1.041667
1
R60
0
POLYLINE
8
0
66
1
40
0.008000
41
0.008000
0
VERTEX
8
0
10
-2.624000
20
-1.649000
0
VERTEX
8
0
10
-2.224000
20
-1.649000
0
SEQEND
8
0
0
POLYLINE
8
0
66
1
40
0.008000
41
0.008000
0
VERTEX
8
0
10
-2.624000
20
-1.249000
0
VERTEX
8
0
10
-2.224000
20
-1.249000
0
SEQEND
8
0
0
POLYLINE
8
0
66
1
40
0.008000
41
0.008000
0
VERTEX
8
0
10
-2.224000
20
-1.649000
0
VERTEX
8
0
10
-2.224000
20
-1.249000
0
SEQEND
8
0
0
POLYLINE
8
0
66
1
40
0.008000
41
0.008000
0
VERTEX
8
0
10
-2.624000
20
-1.649000
0
VERTEX
8
0
10
-2.624000
20
-1.249000
0
SEQEND
8
0
0
TEXT
8
12632256
10
-2.633000
20
-1.523000
40
0.048000
41
1.041667
50
90.000000
1
J16
0
POLYLINE
8
0
66
1
40
0.008000
41
0.008000
0
VERTEX
8
0
10
-2.219000
20
-2.222000
0
VERTEX
8
0
10
-0.841000
20
-2.222000
0
VERTEX
8
0
10
-0.841000
20
-1.734000
0
VERTEX
8
0
10
-2.219000
20
-1.734000
0
VERTEX
8
0
10
-2.219000
20
-2.222000
0
SEQEND
8
0
0
POLYLINE
8
0
66
1
40
0.008000
41
0.008000
0
VERTEX
8
0
10
-1.675000
20
-2.158000
0
VERTEX
8
0
10
-1.375000
20
-2.158000
0
VERTEX
8
0
10
-1.375000
20
-2.058000
0
VERTEX
8
0
10
-1.675000
20
-2.058000
0
VERTEX
8
0
10
-1.675000
20
-2.158000
0
SEQEND
8
0
0
POLYLINE
8
0
66
1
40
0.008000
41
0.008000
0
VERTEX
8
0
10
-1.675000
20
-2.058000
0
VERTEX
8
0
10
-1.675000
20
-2.008000
0
VERTEX
8
0
10
-1.375000
20
-2.008000
0
VERTEX
8
0
10
-1.375000
20
-2.058000
0
SEQEND
8
0
0
POLYLINE
8
0
66
1
40
0.008000
41
0.008000
0
VERTEX
8
0
10
-1.675000
20
-2.058000
0
VERTEX
8
0
10
-1.625000
20
-2.008000
0
SEQEND
8
0
0
POLYLINE
8
0
66
1
40
0.008000
41
0.008000
0
VERTEX
8
0
10
-1.625000
20
-2.058000
0
VERTEX
8
0
10
-1.575000
20
-2.008000
0
SEQEND
8
0
0
POLYLINE
8
0
66
1
40
0.008000
41
0.008000
0
VERTEX
8
0
10
-1.575000
20
-2.058000
0
VERTEX
8
0
10
-1.525000
20
-2.008000
0
SEQEND
8
0
0
POLYLINE
8
0
66
1
40
0.008000
41
0.008000
0
VERTEX
8
0
10
-1.525000
20
-2.058000
0
VERTEX
8
0
10
-1.475000
20
-2.008000
0
SEQEND
8
0
0
POLYLINE
8
0
66
1
40
0.008000
41
0.008000
0
VERTEX
8
0
10
-1.475000
20
-2.058000
0
VERTEX
8
0
10
-1.425000
20
-2.008000
0
SEQEND
8
0
0
POLYLINE
8
0
66
1
40
0.008000
41
0.008000
0
VERTEX
8
0
10
-1.425000
20
-2.058000
0
VERTEX
8
0
10
-1.375000
20
-2.008000
0
SEQEND
8
0
0
TEXT
8
12632256
10
-1.600000
20
-1.998000
40
0.048000
41
1.041667
1
U30
0
POLYLINE
8
0
66
1
40
0.008000
41
0.008000
0
VERTEX
8
0
10
-1.621000
20
-1.688000
0
VERTEX
8
0
10
-1.417000
20
-1.688000
0
VERTEX
8
0
10
-1.417000
20
-1.583000
0
VERTEX
8
0
10
-1.621000
20
-1.583000
0
VERTEX
8
0
10
-1.621000
20
-1.688000
0
SEQEND
8
0
0
POLYLINE
8
0
66
1
40
0.008000
41
0.008000
0
VERTEX
8
0
10
-1.589000
20
-1.584000
0
VERTEX
8
0
10
-1.589000
20
-1.687000
0
SEQEND
8
0
0
POLYLINE
8
0
66
1
40
0.008000
41
0.008000
0
VERTEX
8
0
10
-1.649000
20
-1.636000
0
VERTEX
8
0
10
-1.621000
20
-1.636000
0
SEQEND
8
0
0
POLYLINE
8
0
66
1
40
0.008000
41
0.008000
0
VERTEX
8
0
10
-1.417000
20
-1.636000
0
VERTEX
8
0
10
-1.389000
20
-1.636000
0
SEQEND
8
0
0
TEXT
8
12632256
10
-1.569000
20
-1.573000
40
0.048000
41
1.041667
1
D1
0
CIRCLE
8
12632256
10
-1.198000
20
-1.411000
40
0.100000
0
POLYLINE
8
0
66
1
40
0.008000
41
0.008000
0
VERTEX
8
0
10
-1.123000
20
-1.461000
0
VERTEX
8
0
10
-1.173000
20
-1.461000
0
SEQEND
8
0
0
POLYLINE
8
0
66
1
40
0.008000
41
0.008000
0
VERTEX
8
0
10
-1.148000
20
-1.486000
0
VERTEX
8
0
10
-1.148000
20
-1.436000
0
SEQEND
8
0
0
TEXT
8
12632256
10
-1.248000
20
-1.569000
40
0.048000
41
1.041667
1
C5
0
POLYLINE
8
0
66
1
40
0.008000
41
0.008000
0
VERTEX
8
0
10
-0.965000
20
-1.671000
0
VERTEX
8
0
10
-0.975000
20
-1.668000
0
VERTEX
8
0
10
-0.985000
20
-1.660000
0
VERTEX
8
0
10
-0.993000
20
-1.646000
0
VERTEX
8
0
10
-1.000000
20
-1.628000
0
VERTEX
8
0
10
-1.006000
20
-1.606000
0
VERTEX
8
0
10
-1.011000
20
-1.580000
0
VERTEX
8
0
10
-1.014000
20
-1.552000
0
VERTEX
8
0
10
-1.015000
20
-1.521000
0
SEQEND
8
0
0
POLYLINE
8
0
66
1
40
0.008000
41
0.008000
0
VERTEX
8
0
10
-0.965000
20
-1.371000
0
VERTEX
8
0
10
-0.970000
20
-1.372000
0
VERTEX
8
0
10
-0.975000
20
-1.374000
0
VERTEX
8
0
10
-0.985000
20
-1.383000
0
VERTEX
8
0
10
-0.993000
20
-1.396000
0
VERTEX
8
0
10
-1.000000
20
-1.414000
0
VERTEX
8
0
10
-1.006000
20
-1.437000
0
VERTEX
8
0
10
-1.011000
20
-1.462000
0
VERTEX
8
0
10
-1.014000
20
-1.490000
0
VERTEX
8
0
10
-1.015000
20
-1.521000
0
SEQEND
8
0
0
POLYLINE
8
0
66
1
40
0.008000
41
0.008000
0
VERTEX
8
0
10
-0.965000
20
-1.371000
0
VERTEX
8
0
10
-0.960000
20
-1.372000
0
VERTEX
8
0
10
-0.955000
20
-1.374000
0
VERTEX
8
0
10
-0.945000
20
-1.383000
0
VERTEX
8
0
10
-0.937000
20
-1.396000
0
VERTEX
8
0
10
-0.930000
20
-1.414000
0
VERTEX
8
0
10
-0.924000
20
-1.437000
0
VERTEX
8
0
10
-0.919000
20
-1.462000
0
VERTEX
8
0
10
-0.916000
20
-1.490000
0
VERTEX
8
0
10
-0.915000
20
-1.521000
0
SEQEND
8
0
0
POLYLINE
8
0
66
1
40
0.008000
41
0.008000
0
VERTEX
8
0
10
-0.965000
20
-1.671000
0
VERTEX
8
0
10
-0.955000
20
-1.668000
0
VERTEX
8
0
10
-0.945000
20
-1.660000
0
VERTEX
8
0
10
-0.937000
20
-1.646000
0
VERTEX
8
0
10
-0.930000
20
-1.628000
0
VERTEX
8
0
10
-0.924000
20
-1.606000
0
VERTEX
8
0
10
-0.919000
20
-1.580000
0
VERTEX
8
0
10
-0.916000
20
-1.552000
0
VERTEX
8
0
10
-0.915000
20
-1.521000
0
SEQEND
8
0
0
TEXT
8
12632256
10
-1.025000
20
-1.571000
40
0.048000
41
1.041667
50
90.000000
1
C6
0
POLYLINE
8
0
66
1
40
0.008000
41
0.008000
0
VERTEX
8
0
10
-1.419000
20
-1.407000
0
VERTEX
8
0
10
-1.469000
20
-1.407000
0
SEQEND
8
0
0
POLYLINE
8
0
66
1
40
0.008000
41
0.008000
0
VERTEX
8
0
10
-1.669000
20
-1.432000
0
VERTEX
8
0
10
-1.469000
20
-1.432000
0
VERTEX
8
0
10
-1.469000
20
-1.382000
0
VERTEX
8
0
10
-1.669000
20
-1.382000
0
VERTEX
8
0
10
-1.669000
20
-1.432000
0
SEQEND
8
0
0
POLYLINE
8
0
66
1
40
0.008000
41
0.008000
0
VERTEX
8
0
10
-1.669000
20
-1.407000
0
VERTEX
8
0
10
-1.719000
20
-1.407000
0
SEQEND
8
0
0
TEXT
8
12632256
10
-1.644000
20
-1.490000
40
0.048000
41
1.041667
1
R24
0
CIRCLE
8
12632256
10
-2.008000
20
-1.557000
40
0.000000
0
CIRCLE
8
12632256
10
-2.008000
20
-1.557000
40
0.100000
0
POLYLINE
8
0
66
1
40
0.008000
41
0.008000
0
VERTEX
8
0
10
-2.133000
20
-1.457000
0
VERTEX
8
0
10
-2.083000
20
-1.457000
0
SEQEND
8
0
0
POLYLINE
8
0
66
1
40
0.008000
41
0.008000
0
VERTEX
8
0
10
-2.108000
20
-1.432000
0
VERTEX
8
0
10
-2.108000
20
-1.482000
0
SEQEND
8
0
0
TEXT
8
12632256
10
-2.071000
20
-1.422000
40
0.048000
41
1.041667
1
D2
0
TEXT
8
12632256
10
-2.519000
20
-1.222000
40
0.064000
41
1.093750
1
VIN
0
POLYLINE
8
0
66
1
40
0.008000
41
0.008000
0
VERTEX
8
0
10
-0.775000
20
-1.786000
0
VERTEX
8
0
10
-0.775000
20
-2.186000
0
SEQEND
8
0
0
POLYLINE
8
0
66
1
40
0.008000
41
0.008000
0
VERTEX
8
0
10
0.224000
20
-1.786000
0
VERTEX
8
0
10
0.224000
20
-2.186000
0
SEQEND
8
0
0
POLYLINE
8
0
66
1
40
0.008000
41
0.008000
0
VERTEX
8
0
10
0.224000
20
-1.786000
0
VERTEX
8
0
10
-0.775000
20
-1.786000
0
SEQEND
8
0
0
POLYLINE
8
0
66
1
40
0.008000
41
0.008000
0
VERTEX
8
0
10
-0.775000
20
-2.186000
0
VERTEX
8
0
10
0.224000
20
-2.186000
0
SEQEND
8
0
0
TEXT
8
12632256
10
-0.770000
20
-2.267000
40
0.048000
41
1.041667
1
J4
0
TEXT
8
12632256
10
-0.433000
20
-2.295000
40
0.048000
41
1.041667
1
INFLOW
0
POLYLINE
8
0
66
1
40
0.008000
41
0.008000
0
VERTEX
8
0
10
0.278000
20
-1.786000
0
VERTEX
8
0
10
0.278000
20
-2.186000
0
SEQEND
8
0
0
POLYLINE
8
0
66
1
40
0.008000
41
0.008000
0
VERTEX
8
0
10
1.278000
20
-1.786000
0
VERTEX
8
0
10
1.278000
20
-2.186000
0
SEQEND
8
0
0
POLYLINE
8
0
66
1
40
0.008000
41
0.008000
0
VERTEX
8
0
10
1.278000
20
-1.786000
0
VERTEX
8
0
10
0.278000
20
-1.786000
0
SEQEND
8
0
0
POLYLINE
8
0
66
1
40
0.008000
41
0.008000
0
VERTEX
8
0
10
0.278000
20
-2.186000
0
VERTEX
8
0
10
1.278000
20
-2.186000
0
SEQEND
8
0
0
TEXT
8
12632256
10
0.286000
20
-2.275000
40
0.048000
41
1.041667
1
J5
0
TEXT
8
12632256
10
0.614000
20
-2.294000
40
0.048000
41
1.041667
1
DOWNFLOW
0
POLYLINE
8
0
66
1
40
0.008000
41
0.008000
0
VERTEX
8
0
10
-1.502000
20
-1.924000
0
VERTEX
8
0
10
-1.464000
20
-1.924000
0
SEQEND
8
0
0
POLYLINE
8
0
66
1
40
0.008000
41
0.008000
0
VERTEX
8
0
10
-1.502000
20
-1.813000
0
VERTEX
8
0
10
-1.463000
20
-1.813000
0
SEQEND
8
0
0
POLYLINE
8
0
66
1
40
0.008000
41
0.008000
0
VERTEX
8
0
10
-1.422000
20
-1.939000
0
VERTEX
8
0
10
-1.422000
20
-1.959000
0
SEQEND
8
0
0
POLYLINE
8
0
66
1
40
0.008000
41
0.008000
0
VERTEX
8
0
10
-1.432000
20
-1.949000
0
VERTEX
8
0
10
-1.412000
20
-1.949000
0
SEQEND
8
0
0
TEXT
8
12632256
10
-1.609000
20
-1.889000
40
0.048000
41
1.041667
71
2
1
C19
0
POLYLINE
8
0
66
1
40
0.008000
41
0.008000
0
VERTEX
8
0
10
1.339000
20
-1.786000
0
VERTEX
8
0
10
1.339000
20
-2.186000
0
SEQEND
8
0
0
POLYLINE
8
0
66
1
40
0.008000
41
0.008000
0
VERTEX
8
0
10
1.939000
20
-1.786000
0
VERTEX
8
0
10
1.939000
20
-2.186000
0
SEQEND
8
0
0
POLYLINE
8
0
66
1
40
0.008000
41
0.008000
0
VERTEX
8
0
10
1.339000
20
-2.186000
0
VERTEX
8
0
10
1.939000
20
-2.186000
0
SEQEND
8
0
0
POLYLINE
8
0
66
1
40
0.008000
41
0.008000
0
VERTEX
8
0
10
1.939000
20
-1.786000
0
VERTEX
8
0
10
1.339000
20
-1.786000
0
SEQEND
8
0
0
TEXT
8
12632256
10
1.335000
20
-2.266000
40
0.048000
41
1.041667
1
J6
0
TEXT
8
12632256
10
2.139000
20
-2.296000
40
0.048000
41
1.041667
1
SASH DOWN
0
POLYLINE
8
0
66
1
40
0.008000
41
0.008000
0
VERTEX
8
0
10
2.002000
20
-1.788000
0
VERTEX
8
0
10
2.002000
20
-2.188000
0
SEQEND
8
0
0
POLYLINE
8
0
66
1
40
0.008000
41
0.008000
0
VERTEX
8
0
10
2.602000
20
-1.788000
0
VERTEX
8
0
10
2.602000
20
-2.188000
0
SEQEND
8
0
0
POLYLINE
8
0
66
1
40
0.008000
41
0.008000
0
VERTEX
8
0
10
2.002000
20
-2.188000
0
VERTEX
8
0
10
2.602000
20
-2.188000
0
SEQEND
8
0
0
POLYLINE
8
0
66
1
40
0.008000
41
0.008000
0
VERTEX
8
0
10
2.602000
20
-1.788000
0
VERTEX
8
0
10
2.002000
20
-1.788000
0
SEQEND
8
0
0
TEXT
8
12632256
10
1.988000
20
-2.274000
40
0.048000
41
1.041667
1
J7
0
TEXT
8
12632256
10
1.499000
20
-2.294000
40
0.048000
41
1.041667
1
SASH OK
0
POLYLINE
8
0
66
1
40
0.008000
41
0.008000
0
VERTEX
8
0
10
2.059000
20
-1.526000
0
VERTEX
8
0
10
2.531000
20
-1.526000
0
VERTEX
8
0
10
2.531000
20
-1.053000
0
VERTEX
8
0
10
2.059000
20
-1.053000
0
VERTEX
8
0
10
2.059000
20
-1.526000
0
SEQEND
8
0
0
POLYLINE
8
0
66
1
40
0.008000
41
0.008000
0
VERTEX
8
0
10
2.531000
20
-1.231000
0
VERTEX
8
0
10
2.689000
20
-1.231000
0
VERTEX
8
0
10
2.689000
20
-1.191000
0
VERTEX
8
0
10
2.531000
20
-1.191000
0
VERTEX
8
0
10
2.531000
20
-1.231000
0
SEQEND
8
0
0
POLYLINE
8
0
66
1
40
0.008000
41
0.008000
0
VERTEX
8
0
10
2.531000
20
-1.388000
0
VERTEX
8
0
10
2.689000
20
-1.388000
0
VERTEX
8
0
10
2.689000
20
-1.349000
0
VERTEX
8
0
10
2.531000
20
-1.349000
0
VERTEX
8
0
10
2.531000
20
-1.388000
0
SEQEND
8
0
0
TEXT
8
12632256
10
2.631000
20
-1.428000
40
0.048000
41
1.041667
50
90.000000
71
2
1
SP1
0
POLYLINE
8
0
66
1
40
0.008000
41
0.008000
0
VERTEX
8
0
10
2.059000
20
-0.604000
0
VERTEX
8
0
10
2.531000
20
-0.604000
0
VERTEX
8
0
10
2.531000
20
-0.131000
0
VERTEX
8
0
10
2.059000
20
-0.131000
0
VERTEX
8
0
10
2.059000
20
-0.604000
0
SEQEND
8
0
0
POLYLINE
8
0
66
1
40
0.008000
41
0.008000
0
VERTEX
8
0
10
2.531000
20
-0.308000
0
VERTEX
8
0
10
2.689000
20
-0.308000
0
VERTEX
8
0
10
2.689000
20
-0.269000
0
VERTEX
8
0
10
2.531000
20
-0.269000
0
VERTEX
8
0
10
2.531000
20
-0.308000
0
SEQEND
8
0
0
POLYLINE
8
0
66
1
40
0.008000
41
0.008000
0
VERTEX
8
0
10
2.531000
20
-0.466000
0
VERTEX
8
0
10
2.689000
20
-0.466000
0
VERTEX
8
0
10
2.689000
20
-0.426000
0
VERTEX
8
0
10
2.531000
20
-0.426000
0
VERTEX
8
0
10
2.531000
20
-0.466000
0
SEQEND
8
0
0
TEXT
8
12632256
10
2.605000
20
-0.103000
40
0.048000
41
1.041667
50
90.000000
71
2
1
SP2
0
POLYLINE
8
0
66
1
40
0.008000
41
0.008000
0
VERTEX
8
0
10
1.798000
20
2.086000
0
VERTEX
8
0
10
1.798000
20
1.686000
0
SEQEND
8
0
0
POLYLINE
8
0
66
1
40
0.008000
41
0.008000
0
VERTEX
8
0
10
2.398000
20
2.086000
0
VERTEX
8
0
10
2.398000
20
1.686000
0
SEQEND
8
0
0
POLYLINE
8
0
66
1
40
0.008000
41
0.008000
0
VERTEX
8
0
10
1.798000
20
1.686000
0
VERTEX
8
0
10
2.398000
20
1.686000
0
SEQEND
8
0
0
POLYLINE
8
0
66
1
40
0.008000
41
0.008000
0
VERTEX
8
0
10
2.398000
20
2.086000
0
VERTEX
8
0
10
1.798000
20
2.086000
0
SEQEND
8
0
0
TEXT
8
12632256
10
2.023000
20
2.096000
40
0.048000
41
1.041667
1
J13
0
TEXT
8
12632256
10
1.810000
20
2.209000
40
0.064000
41
1.093750
1
LUZ
0
TEXT
8
12632256
10
2.073000
20
2.208000
40
0.064000
41
1.093750
1
N
0
TEXT
8
12632256
10
2.214000
20
2.208000
40
0.064000
41
1.093750
1
L2
0
POLYLINE
8
0
66
1
40
0.008000
41
0.008000
0
VERTEX
8
0
10
1.060000
20
2.087000
0
VERTEX
8
0
10
1.060000
20
1.687000
0
SEQEND
8
0
0
POLYLINE
8
0
66
1
40
0.008000
41
0.008000
0
VERTEX
8
0
10
1.660000
20
2.087000
0
VERTEX
8
0
10
1.660000
20
1.687000
0
SEQEND
8
0
0
POLYLINE
8
0
66
1
40
0.008000
41
0.008000
0
VERTEX
8
0
10
1.060000
20
1.687000
0
VERTEX
8
0
10
1.660000
20
1.687000
0
SEQEND
8
0
0
POLYLINE
8
0
66
1
40
0.008000
41
0.008000
0
VERTEX
8
0
10
1.660000
20
2.087000
0
VERTEX
8
0
10
1.060000
20
2.087000
0
SEQEND
8
0
0
TEXT
8
12632256
10
1.310000
20
2.097000
40
0.048000
41
1.041667
1
J8
0
TEXT
8
12632256
10
1.076000
20
2.214000
40
0.064000
41
1.093750
1
UV
0
TEXT
8
12632256
10
1.349000
20
2.209000
40
0.064000
41
1.093750
1
N
0
TEXT
8
12632256
10
1.536000
20
2.209000
40
0.064000
41
1.093750
1
L2
0
POLYLINE
8
0
66
1
40
0.008000
41
0.008000
0
VERTEX
8
0
10
0.318000
20
2.087000
0
VERTEX
8
0
10
0.318000
20
1.687000
0
SEQEND
8
0
0
POLYLINE
8
0
66
1
40
0.008000
41
0.008000
0
VERTEX
8
0
10
0.918000
20
2.087000
0
VERTEX
8
0
10
0.918000
20
1.687000
0
SEQEND
8
0
0
POLYLINE
8
0
66
1
40
0.008000
41
0.008000
0
VERTEX
8
0
10
0.318000
20
1.687000
0
VERTEX
8
0
10
0.918000
20
1.687000
0
SEQEND
8
0
0
POLYLINE
8
0
66
1
40
0.008000
41
0.008000
0
VERTEX
8
0
10
0.918000
20
2.087000
0
VERTEX
8
0
10
0.318000
20
2.087000
0
SEQEND
8
0
0
TEXT
8
12632256
10
0.568000
20
2.097000
40
0.048000
41
1.041667
1
J2
0
TEXT
8
12632256
10
0.314000
20
2.207000
40
0.064000
41
1.093750
1
MDF
0
TEXT
8
12632256
10
0.606000
20
2.212000
40
0.064000
41
1.093750
1
N
0
TEXT
8
12632256
10
0.793000
20
2.212000
40
0.064000
41
1.093750
1
L2
0
POLYLINE
8
0
66
1
40
0.008000
41
0.008000
0
VERTEX
8
0
10
-0.424000
20
2.087000
0
VERTEX
8
0
10
-0.424000
20
1.687000
0
SEQEND
8
0
0
POLYLINE
8
0
66
1
40
0.008000
41
0.008000
0
VERTEX
8
0
10
0.175000
20
2.087000
0
VERTEX
8
0
10
0.175000
20
1.687000
0
SEQEND
8
0
0
POLYLINE
8
0
66
1
40
0.008000
41
0.008000
0
VERTEX
8
0
10
-0.424000
20
1.687000
0
VERTEX
8
0
10
0.175000
20
1.687000
0
SEQEND
8
0
0
POLYLINE
8
0
66
1
40
0.008000
41
0.008000
0
VERTEX
8
0
10
0.175000
20
2.087000
0
VERTEX
8
0
10
-0.424000
20
2.087000
0
SEQEND
8
0
0
TEXT
8
12632256
10
-0.199000
20
2.097000
40
0.048000
41
1.041667
1
J10
0
TEXT
8
12632256
10
-0.448000
20
2.206000
40
0.064000
41
1.093750
1
MIF
0
TEXT
8
12632256
10
-0.156000
20
2.211000
40
0.064000
41
1.093750
1
N
0
TEXT
8
12632256
10
0.030000
20
2.211000
40
0.064000
41
1.093750
1
L2
0
POLYLINE
8
0
66
1
40
0.008000
41
0.008000
0
VERTEX
8
0
10
-1.162000
20
2.086000
0
VERTEX
8
0
10
-1.162000
20
1.686000
0
SEQEND
8
0
0
POLYLINE
8
0
66
1
40
0.008000
41
0.008000
0
VERTEX
8
0
10
-0.562000
20
2.086000
0
VERTEX
8
0
10
-0.562000
20
1.686000
0
SEQEND
8
0
0
POLYLINE
8
0
66
1
40
0.008000
41
0.008000
0
VERTEX
8
0
10
-1.162000
20
1.686000
0
VERTEX
8
0
10
-0.562000
20
1.686000
0
SEQEND
8
0
0
POLYLINE
8
0
66
1
40
0.008000
41
0.008000
0
VERTEX
8
0
10
-0.562000
20
2.086000
0
VERTEX
8
0
10
-1.162000
20
2.086000
0
SEQEND
8
0
0
TEXT
8
12632256
10
-0.937000
20
2.096000
40
0.048000
41
1.041667
1
J11
0
TEXT
8
12632256
10
-1.212000
20
2.206000
40
0.064000
41
1.093750
1
TOMA
0
TEXT
8
12632256
10
-0.877000
20
2.208000
40
0.064000
41
1.093750
1
N
0
TEXT
8
12632256
10
-0.710000
20
2.210000
40
0.064000
41
1.093750
1
L2
0
POLYLINE
8
0
66
1
40
0.008000
41
0.008000
0
VERTEX
8
0
10
-1.903000
20
2.084000
0
VERTEX
8
0
10
-1.903000
20
1.684000
0
SEQEND
8
0
0
POLYLINE
8
0
66
1
40
0.008000
41
0.008000
0
VERTEX
8
0
10
-1.303000
20
2.084000
0
VERTEX
8
0
10
-1.303000
20
1.684000
0
SEQEND
8
0
0
POLYLINE
8
0
66
1
40
0.008000
41
0.008000
0
VERTEX
8
0
10
-1.903000
20
1.684000
0
VERTEX
8
0
10
-1.303000
20
1.684000
0
SEQEND
8
0
0
POLYLINE
8
0
66
1
40
0.008000
41
0.008000
0
VERTEX
8
0
10
-1.303000
20
2.084000
0
VERTEX
8
0
10
-1.903000
20
2.084000
0
SEQEND
8
0
0
TEXT
8
12632256
10
-1.678000
20
2.094000
40
0.048000
41
1.041667
1
J12
0
TEXT
8
12632256
10
-2.096000
20
2.204000
40
0.064000
41
1.093750
1
ALARMA
0
TEXT
8
12632256
10
-1.636000
20
2.206000
40
0.064000
41
1.093750
1
N
0
TEXT
8
12632256
10
-1.449000
20
2.206000
40
0.064000
41
1.093750
1
L2
0
POLYLINE
8
0
66
1
40
0.008000
41
0.008000
0
VERTEX
8
0
10
-2.605000
20
1.405000
0
VERTEX
8
0
10
-2.205000
20
1.405000
0
SEQEND
8
0
0
POLYLINE
8
0
66
1
40
0.008000
41
0.008000
0
VERTEX
8
0
10
-2.605000
20
2.005000
0
VERTEX
8
0
10
-2.205000
20
2.005000
0
SEQEND
8
0
0
POLYLINE
8
0
66
1
40
0.008000
41
0.008000
0
VERTEX
8
0
10
-2.205000
20
1.405000
0
VERTEX
8
0
10
-2.205000
20
2.005000
0
SEQEND
8
0
0
POLYLINE
8
0
66
1
40
0.008000
41
0.008000
0
VERTEX
8
0
10
-2.605000
20
2.005000
0
VERTEX
8
0
10
-2.605000
20
1.405000
0
SEQEND
8
0
0
TEXT
8
12632256
10
-2.618000
20
1.648000
40
0.048000
41
1.041667
50
90.000000
1
J14
0
TEXT
8
12632256
10
-2.077000
20
1.567000
40
0.064000
41
1.093750
50
90.000000
1
AC IN
0
POLYLINE
8
0
66
1
40
0.008000
41
0.008000
0
VERTEX
8
0
10
1.937000
20
1.361000
0
VERTEX
8
0
10
2.637000
20
1.361000
0
VERTEX
8
0
10
2.637000
20
1.561000
0
VERTEX
8
0
10
1.937000
20
1.561000
0
VERTEX
8
0
10
1.937000
20
1.361000
0
SEQEND
8
0
0
TEXT
8
12632256
10
2.212000
20
1.571000
40
0.048000
41
1.041667
1
C17
0
POLYLINE
8
0
66
1
40
0.008000
41
0.008000
0
VERTEX
8
0
10
2.489000
20
1.281000
0
VERTEX
8
0
10
2.439000
20
1.281000
0
SEQEND
8
0
0
POLYLINE
8
0
66
1
40
0.008000
41
0.008000
0
VERTEX
8
0
10
2.139000
20
1.256000
0
VERTEX
8
0
10
2.439000
20
1.256000
0
VERTEX
8
0
10
2.439000
20
1.306000
0
VERTEX
8
0
10
2.139000
20
1.306000
0
VERTEX
8
0
10
2.139000
20
1.256000
0
SEQEND
8
0
0
POLYLINE
8
0
66
1
40
0.008000
41
0.008000
0
VERTEX
8
0
10
2.139000
20
1.281000
0
VERTEX
8
0
10
2.089000
20
1.281000
0
SEQEND
8
0
0
TEXT
8
12632256
10
2.214000
20
1.198000
40
0.048000
41
1.041667
1
R25
0
POLYLINE
8
0
66
1
40
0.008000
41
0.008000
0
VERTEX
8
0
10
2.154000
20
1.025000
0
VERTEX
8
0
10
2.454000
20
1.025000
0
VERTEX
8
0
10
2.454000
20
1.125000
0
VERTEX
8
0
10
2.154000
20
1.125000
0
VERTEX
8
0
10
2.154000
20
1.025000
0
SEQEND
8
0
0
POLYLINE
8
0
66
1
40
0.008000
41
0.008000
0
VERTEX
8
0
10
2.454000
20
1.025000
0
VERTEX
8
0
10
2.454000
20
0.975000
0
VERTEX
8
0
10
2.154000
20
0.975000
0
VERTEX
8
0
10
2.154000
20
1.025000
0
SEQEND
8
0
0
POLYLINE
8
0
66
1
40
0.008000
41
0.008000
0
VERTEX
8
0
10
2.454000
20
1.025000
0
VERTEX
8
0
10
2.404000
20
0.975000
0
SEQEND
8
0
0
POLYLINE
8
0
66
1
40
0.008000
41
0.008000
0
VERTEX
8
0
10
2.404000
20
1.025000
0
VERTEX
8
0
10
2.354000
20
0.975000
0
SEQEND
8
0
0
POLYLINE
8
0
66
1
40
0.008000
41
0.008000
0
VERTEX
8
0
10
2.354000
20
1.025000
0
VERTEX
8
0
10
2.304000
20
0.975000
0
SEQEND
8
0
0
POLYLINE
8
0
66
1
40
0.008000
41
0.008000
0
VERTEX
8
0
10
2.304000
20
1.025000
0
VERTEX
8
0
10
2.254000
20
0.975000
0
SEQEND
8
0
0
POLYLINE
8
0
66
1
40
0.008000
41
0.008000
0
VERTEX
8
0
10
2.254000
20
1.025000
0
VERTEX
8
0
10
2.204000
20
0.975000
0
SEQEND
8
0
0
POLYLINE
8
0
66
1
40
0.008000
41
0.008000
0
VERTEX
8
0
10
2.204000
20
1.025000
0
VERTEX
8
0
10
2.154000
20
0.975000
0
SEQEND
8
0
0
TEXT
8
12632256
10
2.229000
20
0.917000
40
0.048000
41
1.041667
1
U11
0
POLYLINE
8
0
66
1
40
0.008000
41
0.008000
0
VERTEX
8
0
10
2.139000
20
0.360000
0
VERTEX
8
0
10
2.139000
20
0.410000
0
SEQEND
8
0
0
POLYLINE
8
0
66
1
40
0.008000
41
0.008000
0
VERTEX
8
0
10
2.189000
20
0.460000
0
VERTEX
8
0
10
2.188000
20
0.470000
0
VERTEX
8
0
10
2.185000
20
0.480000
0
VERTEX
8
0
10
2.181000
20
0.488000
0
VERTEX
8
0
10
2.175000
20
0.496000
0
VERTEX
8
0
10
2.168000
20
0.502000
0
VERTEX
8
0
10
2.159000
20
0.506000
0
VERTEX
8
0
10
2.149000
20
0.509000
0
VERTEX
8
0
10
2.139000
20
0.510000
0
SEQEND
8
0
0
POLYLINE
8
0
66
1
40
0.008000
41
0.008000
0
VERTEX
8
0
10
2.189000
20
0.460000
0
VERTEX
8
0
10
2.188000
20
0.450000
0
VERTEX
8
0
10
2.185000
20
0.440000
0
VERTEX
8
0
10
2.181000
20
0.431000
0
VERTEX
8
0
10
2.175000
20
0.424000
0
VERTEX
8
0
10
2.168000
20
0.418000
0
VERTEX
8
0
10
2.159000
20
0.414000
0
VERTEX
8
0
10
2.149000
20
0.411000
0
VERTEX
8
0
10
2.139000
20
0.410000
0
SEQEND
8
0
0
POLYLINE
8
0
66
1
40
0.008000
41
0.008000
0
VERTEX
8
0
10
2.139000
20
0.510000
0
VERTEX
8
0
10
2.139000
20
0.560000
0
SEQEND
8
0
0
POLYLINE
8
0
66
1
40
0.008000
41
0.008000
0
VERTEX
8
0
10
2.439000
20
0.360000
0
VERTEX
8
0
10
2.439000
20
0.560000
0
SEQEND
8
0
0
POLYLINE
8
0
66
1
40
0.008000
41
0.008000
0
VERTEX
8
0
10
2.139000
20
0.360000
0
VERTEX
8
0
10
2.439000
20
0.360000
0
SEQEND
8
0
0
POLYLINE
8
0
66
1
40
0.008000
41
0.008000
0
VERTEX
8
0
10
2.139000
20
0.560000
0
VERTEX
8
0
10
2.439000
20
0.560000
0
SEQEND
8
0
0
TEXT
8
12632256
10
2.129000
20
0.385000
40
0.048000
41
1.041667
50
90.000000
1
U10
0
POLYLINE
8
0
66
1
40
0.008000
41
0.008000
0
VERTEX
8
0
10
2.547000
20
0.627000
0
VERTEX
8
0
10
2.547000
20
0.577000
0
SEQEND
8
0
0
POLYLINE
8
0
66
1
40
0.008000
41
0.008000
0
VERTEX
8
0
10
2.522000
20
0.377000
0
VERTEX
8
0
10
2.572000
20
0.377000
0
VERTEX
8
0
10
2.572000
20
0.577000
0
VERTEX
8
0
10
2.522000
20
0.577000
0
VERTEX
8
0
10
2.522000
20
0.377000
0
SEQEND
8
0
0
POLYLINE
8
0
66
1
40
0.008000
41
0.008000
0
VERTEX
8
0
10
2.547000
20
0.377000
0
VERTEX
8
0
10
2.547000
20
0.327000
0
SEQEND
8
0
0
TEXT
8
12632256
10
2.630000
20
0.402000
40
0.048000
41
1.041667
50
90.000000
1
R11
0
POLYLINE
8
0
66
1
40
0.008000
41
0.008000
0
VERTEX
8
0
10
1.197000
20
1.359000
0
VERTEX
8
0
10
1.897000
20
1.359000
0
VERTEX
8
0
10
1.897000
20
1.559000
0
VERTEX
8
0
10
1.197000
20
1.559000
0
VERTEX
8
0
10
1.197000
20
1.359000
0
SEQEND
8
0
0
TEXT
8
12632256
10
1.472000
20
1.569000
40
0.048000
41
1.041667
1
C12
0
POLYLINE
8
0
66
1
40
0.008000
41
0.008000
0
VERTEX
8
0
10
1.762000
20
1.285000
0
VERTEX
8
0
10
1.712000
20
1.285000
0
SEQEND
8
0
0
POLYLINE
8
0
66
1
40
0.008000
41
0.008000
0
VERTEX
8
0
10
1.412000
20
1.260000
0
VERTEX
8
0
10
1.712000
20
1.260000
0
VERTEX
8
0
10
1.712000
20
1.310000
0
VERTEX
8
0
10
1.412000
20
1.310000
0
VERTEX
8
0
10
1.412000
20
1.260000
0
SEQEND
8
0
0
POLYLINE
8
0
66
1
40
0.008000
41
0.008000
0
VERTEX
8
0
10
1.412000
20
1.285000
0
VERTEX
8
0
10
1.362000
20
1.285000
0
SEQEND
8
0
0
TEXT
8
12632256
10
1.487000
20
1.202000
40
0.048000
41
1.041667
1
R13
0
POLYLINE
8
0
66
1
40
0.008000
41
0.008000
0
VERTEX
8
0
10
1.434000
20
1.024000
0
VERTEX
8
0
10
1.734000
20
1.024000
0
VERTEX
8
0
10
1.734000
20
1.124000
0
VERTEX
8
0
10
1.434000
20
1.124000
0
VERTEX
8
0
10
1.434000
20
1.024000
0
SEQEND
8
0
0
POLYLINE
8
0
66
1
40
0.008000
41
0.008000
0
VERTEX
8
0
10
1.734000
20
1.024000
0
VERTEX
8
0
10
1.734000
20
0.974000
0
VERTEX
8
0
10
1.434000
20
0.974000
0
VERTEX
8
0
10
1.434000
20
1.024000
0
SEQEND
8
0
0
POLYLINE
8
0
66
1
40
0.008000
41
0.008000
0
VERTEX
8
0
10
1.734000
20
1.024000
0
VERTEX
8
0
10
1.684000
20
0.974000
0
SEQEND
8
0
0
POLYLINE
8
0
66
1
40
0.008000
41
0.008000
0
VERTEX
8
0
10
1.684000
20
1.024000
0
VERTEX
8
0
10
1.634000
20
0.974000
0
SEQEND
8
0
0
POLYLINE
8
0
66
1
40
0.008000
41
0.008000
0
VERTEX
8
0
10
1.634000
20
1.024000
0
VERTEX
8
0
10
1.584000
20
0.974000
0
SEQEND
8
0
0
POLYLINE
8
0
66
1
40
0.008000
41
0.008000
0
VERTEX
8
0
10
1.584000
20
1.024000
0
VERTEX
8
0
10
1.534000
20
0.974000
0
SEQEND
8
0
0
POLYLINE
8
0
66
1
40
0.008000
41
0.008000
0
VERTEX
8
0
10
1.534000
20
1.024000
0
VERTEX
8
0
10
1.484000
20
0.974000
0
SEQEND
8
0
0
POLYLINE
8
0
66
1
40
0.008000
41
0.008000
0
VERTEX
8
0
10
1.484000
20
1.024000
0
VERTEX
8
0
10
1.434000
20
0.974000
0
SEQEND
8
0
0
TEXT
8
12632256
10
1.534000
20
0.916000
40
0.048000
41
1.041667
1
U4
0
POLYLINE
8
0
66
1
40
0.008000
41
0.008000
0
VERTEX
8
0
10
1.417000
20
0.367000
0
VERTEX
8
0
10
1.417000
20
0.417000
0
SEQEND
8
0
0
POLYLINE
8
0
66
1
40
0.008000
41
0.008000
0
VERTEX
8
0
10
1.467000
20
0.467000
0
VERTEX
8
0
10
1.466000
20
0.477000
0
VERTEX
8
0
10
1.463000
20
0.487000
0
VERTEX
8
0
10
1.459000
20
0.495000
0
VERTEX
8
0
10
1.453000
20
0.502000
0
VERTEX
8
0
10
1.446000
20
0.509000
0
VERTEX
8
0
10
1.437000
20
0.513000
0
VERTEX
8
0
10
1.427000
20
0.516000
0
VERTEX
8
0
10
1.417000
20
0.517000
0
SEQEND
8
0
0
POLYLINE
8
0
66
1
40
0.008000
41
0.008000
0
VERTEX
8
0
10
1.467000
20
0.467000
0
VERTEX
8
0
10
1.466000
20
0.457000
0
VERTEX
8
0
10
1.463000
20
0.447000
0
VERTEX
8
0
10
1.459000
20
0.438000
0
VERTEX
8
0
10
1.453000
20
0.431000
0
VERTEX
8
0
10
1.446000
20
0.425000
0
VERTEX
8
0
10
1.437000
20
0.421000
0
VERTEX
8
0
10
1.427000
20
0.418000
0
VERTEX
8
0
10
1.417000
20
0.417000
0
SEQEND
8
0
0
POLYLINE
8
0
66
1
40
0.008000
41
0.008000
0
VERTEX
8
0
10
1.417000
20
0.517000
0
VERTEX
8
0
10
1.417000
20
0.567000
0
SEQEND
8
0
0
POLYLINE
8
0
66
1
40
0.008000
41
0.008000
0
VERTEX
8
0
10
1.717000
20
0.367000
0
VERTEX
8
0
10
1.717000
20
0.567000
0
SEQEND
8
0
0
POLYLINE
8
0
66
1
40
0.008000
41
0.008000
0
VERTEX
8
0
10
1.417000
20
0.367000
0
VERTEX
8
0
10
1.717000
20
0.367000
0
SEQEND
8
0
0
POLYLINE
8
0
66
1
40
0.008000
41
0.008000
0
VERTEX
8
0
10
1.417000
20
0.567000
0
VERTEX
8
0
10
1.717000
20
0.567000
0
SEQEND
8
0
0
TEXT
8
12632256
10
1.407000
20
0.417000
40
0.048000
41
1.041667
50
90.000000
1
U3
0
POLYLINE
8
0
66
1
40
0.008000
41
0.008000
0
VERTEX
8
0
10
1.825000
20
0.626000
0
VERTEX
8
0
10
1.825000
20
0.576000
0
SEQEND
8
0
0
POLYLINE
8
0
66
1
40
0.008000
41
0.008000
0
VERTEX
8
0
10
1.800000
20
0.376000
0
VERTEX
8
0
10
1.850000
20
0.376000
0
VERTEX
8
0
10
1.850000
20
0.576000
0
VERTEX
8
0
10
1.800000
20
0.576000
0
VERTEX
8
0
10
1.800000
20
0.376000
0
SEQEND
8
0
0
POLYLINE
8
0
66
1
40
0.008000
41
0.008000
0
VERTEX
8
0
10
1.825000
20
0.376000
0
VERTEX
8
0
10
1.825000
20
0.326000
0
SEQEND
8
0
0
TEXT
8
12632256
10
1.908000
20
0.401000
40
0.048000
41
1.041667
50
90.000000
1
R10
0
POLYLINE
8
0
66
1
40
0.008000
41
0.008000
0
VERTEX
8
0
10
-0.295000
20
1.360000
0
VERTEX
8
0
10
0.404000
20
1.360000
0
VERTEX
8
0
10
0.404000
20
1.560000
0
VERTEX
8
0
10
-0.295000
20
1.560000
0
VERTEX
8
0
10
-0.295000
20
1.360000
0
SEQEND
8
0
0
TEXT
8
12632256
10
-0.020000
20
1.570000
40
0.048000
41
1.041667
1
C13
0
POLYLINE
8
0
66
1
40
0.008000
41
0.008000
0
VERTEX
8
0
10
0.255000
20
1.288000
0
VERTEX
8
0
10
0.205000
20
1.288000
0
SEQEND
8
0
0
POLYLINE
8
0
66
1
40
0.008000
41
0.008000
0
VERTEX
8
0
10
-0.094000
20
1.263000
0
VERTEX
8
0
10
0.205000
20
1.263000
0
VERTEX
8
0
10
0.205000
20
1.313000
0
VERTEX
8
0
10
-0.094000
20
1.313000
0
VERTEX
8
0
10
-0.094000
20
1.263000
0
SEQEND
8
0
0
POLYLINE
8
0
66
1
40
0.008000
41
0.008000
0
VERTEX
8
0
10
-0.094000
20
1.288000
0
VERTEX
8
0
10
-0.144000
20
1.288000
0
SEQEND
8
0
0
TEXT
8
12632256
10
-0.019000
20
1.205000
40
0.048000
41
1.041667
1
R17
0
POLYLINE
8
0
66
1
40
0.008000
41
0.008000
0
VERTEX
8
0
10
-0.072000
20
1.027000
0
VERTEX
8
0
10
0.227000
20
1.027000
0
VERTEX
8
0
10
0.227000
20
1.127000
0
VERTEX
8
0
10
-0.072000
20
1.127000
0
VERTEX
8
0
10
-0.072000
20
1.027000
0
SEQEND
8
0
0
POLYLINE
8
0
66
1
40
0.008000
41
0.008000
0
VERTEX
8
0
10
0.227000
20
1.027000
0
VERTEX
8
0
10
0.227000
20
0.977000
0
VERTEX
8
0
10
-0.072000
20
0.977000
0
VERTEX
8
0
10
-0.072000
20
1.027000
0
SEQEND
8
0
0
POLYLINE
8
0
66
1
40
0.008000
41
0.008000
0
VERTEX
8
0
10
0.227000
20
1.027000
0
VERTEX
8
0
10
0.177000
20
0.977000
0
SEQEND
8
0
0
POLYLINE
8
0
66
1
40
0.008000
41
0.008000
0
VERTEX
8
0
10
0.177000
20
1.027000
0
VERTEX
8
0
10
0.127000
20
0.977000
0
SEQEND
8
0
0
POLYLINE
8
0
66
1
40
0.008000
41
0.008000
0
VERTEX
8
0
10
0.127000
20
1.027000
0
VERTEX
8
0
10
0.077000
20
0.977000
0
SEQEND
8
0
0
POLYLINE
8
0
66
1
40
0.008000
41
0.008000
0
VERTEX
8
0
10
0.077000
20
1.027000
0
VERTEX
8
0
10
0.027000
20
0.977000
0
SEQEND
8
0
0
POLYLINE
8
0
66
1
40
0.008000
41
0.008000
0
VERTEX
8
0
10
0.027000
20
1.027000
0
VERTEX
8
0
10
-0.022000
20
0.977000
0
SEQEND
8
0
0
POLYLINE
8
0
66
1
40
0.008000
41
0.008000
0
VERTEX
8
0
10
-0.022000
20
1.027000
0
VERTEX
8
0
10
-0.072000
20
0.977000
0
SEQEND
8
0
0
TEXT
8
12632256
10
0.027000
20
0.919000
40
0.048000
41
1.041667
1
U6
0
POLYLINE
8
0
66
1
40
0.008000
41
0.008000
0
VERTEX
8
0
10
0.386000
20
0.733000
0
VERTEX
8
0
10
0.386000
20
1.166000
0
SEQEND
8
0
0
POLYLINE
8
0
66
1
40
0.008000
41
0.008000
0
VERTEX
8
0
10
0.386000
20
0.733000
0
VERTEX
8
0
10
-0.203000
20
0.733000
0
VERTEX
8
0
10
-0.203000
20
1.166000
0
SEQEND
8
0
0
POLYLINE
8
0
66
1
40
0.008000
41
0.008000
0
VERTEX
8
0
10
0.347000
20
1.166000
0
VERTEX
8
0
10
0.347000
20
0.969000
0
SEQEND
8
0
0
POLYLINE
8
0
66
1
40
0.008000
41
0.008000
0
VERTEX
8
0
10
-0.164000
20
1.166000
0
VERTEX
8
0
10
-0.164000
20
0.969000
0
SEQEND
8
0
0
POLYLINE
8
0
66
1
40
0.008000
41
0.008000
0
VERTEX
8
0
10
0.386000
20
0.969000
0
VERTEX
8
0
10
-0.199000
20
0.969000
0
SEQEND
8
0
0
POLYLINE
8
0
66
1
40
0.008000
41
0.008000
0
VERTEX
8
0
10
0.386000
20
1.170000
0
VERTEX
8
0
10
0.347000
20
1.170000
0
SEQEND
8
0
0
POLYLINE
8
0
66
1
40
0.008000
41
0.008000
0
VERTEX
8
0
10
-0.164000
20
1.170000
0
VERTEX
8
0
10
-0.203000
20
1.170000
0
SEQEND
8
0
0
POLYLINE
8
0
66
1
40
0.008000
41
0.008000
0
VERTEX
8
0
10
0.319000
20
0.736000
0
VERTEX
8
0
10
0.319000
20
0.965000
0
SEQEND
8
0
0
POLYLINE
8
0
66
1
40
0.008000
41
0.008000
0
VERTEX
8
0
10
0.244000
20
0.740000
0
VERTEX
8
0
10
0.244000
20
0.969000
0
SEQEND
8
0
0
POLYLINE
8
0
66
1
40
0.008000
41
0.008000
0
VERTEX
8
0
10
-0.034000
20
0.736000
0
VERTEX
8
0
10
-0.034000
20
0.969000
0
SEQEND
8
0
0
POLYLINE
8
0
66
1
40
0.008000
41
0.008000
0
VERTEX
8
0
10
-0.113000
20
0.740000
0
VERTEX
8
0
10
-0.113000
20
0.969000
0
SEQEND
8
0
0
POLYLINE
8
0
66
1
40
0.008000
41
0.008000
0
VERTEX
8
0
10
0.174000
20
0.740000
0
VERTEX
8
0
10
0.174000
20
0.768000
0
SEQEND
8
0
0
POLYLINE
8
0
66
1
40
0.008000
41
0.008000
0
VERTEX
8
0
10
0.170000
20
0.772000
0
VERTEX
8
0
10
0.134000
20
0.772000
0
VERTEX
8
0
10
0.134000
20
0.815000
0
VERTEX
8
0
10
0.071000
20
0.815000
0
VERTEX
8
0
10
0.071000
20
0.776000
0
VERTEX
8
0
10
0.071000
20
0.772000
0
VERTEX
8
0
10
0.028000
20
0.772000
0
SEQEND
8
0
0
POLYLINE
8
0
66
1
40
0.008000
41
0.008000
0
VERTEX
8
0
10
0.028000
20
0.776000
0
VERTEX
8
0
10
0.028000
20
0.736000
0
SEQEND
8
0
0
POLYLINE
8
0
66
1
40
0.008000
41
0.008000
0
VERTEX
8
0
10
-0.094000
20
0.368000
0
VERTEX
8
0
10
-0.094000
20
0.418000
0
SEQEND
8
0
0
POLYLINE
8
0
66
1
40
0.008000
41
0.008000
0
VERTEX
8
0
10
-0.044000
20
0.468000
0
VERTEX
8
0
10
-0.045000
20
0.478000
0
VERTEX
8
0
10
-0.048000
20
0.488000
0
VERTEX
8
0
10
-0.052000
20
0.496000
0
VERTEX
8
0
10
-0.058000
20
0.504000
0
VERTEX
8
0
10
-0.065000
20
0.510000
0
VERTEX
8
0
10
-0.074000
20
0.514000
0
VERTEX
8
0
10
-0.084000
20
0.517000
0
VERTEX
8
0
10
-0.094000
20
0.518000
0
SEQEND
8
0
0
POLYLINE
8
0
66
1
40
0.008000
41
0.008000
0
VERTEX
8
0
10
-0.044000
20
0.468000
0
VERTEX
8
0
10
-0.045000
20
0.458000
0
VERTEX
8
0
10
-0.048000
20
0.448000
0
VERTEX
8
0
10
-0.052000
20
0.439000
0
VERTEX
8
0
10
-0.058000
20
0.432000
0
VERTEX
8
0
10
-0.065000
20
0.426000
0
VERTEX
8
0
10
-0.074000
20
0.422000
0
VERTEX
8
0
10
-0.084000
20
0.419000
0
VERTEX
8
0
10
-0.094000
20
0.418000
0
SEQEND
8
0
0
POLYLINE
8
0
66
1
40
0.008000
41
0.008000
0
VERTEX
8
0
10
-0.094000
20
0.518000
0
VERTEX
8
0
10
-0.094000
20
0.568000
0
SEQEND
8
0
0
POLYLINE
8
0
66
1
40
0.008000
41
0.008000
0
VERTEX
8
0
10
0.205000
20
0.368000
0
VERTEX
8
0
10
0.205000
20
0.568000
0
SEQEND
8
0
0
POLYLINE
8
0
66
1
40
0.008000
41
0.008000
0
VERTEX
8
0
10
-0.094000
20
0.368000
0
VERTEX
8
0
10
0.205000
20
0.368000
0
SEQEND
8
0
0
POLYLINE
8
0
66
1
40
0.008000
41
0.008000
0
VERTEX
8
0
10
-0.094000
20
0.568000
0
VERTEX
8
0
10
0.205000
20
0.568000
0
SEQEND
8
0
0
TEXT
8
12632256
10
-0.104000
20
0.418000
40
0.048000
41
1.041667
50
90.000000
1
U5
0
POLYLINE
8
0
66
1
40
0.008000
41
0.008000
0
VERTEX
8
0
10
0.303000
20
0.630000
0
VERTEX
8
0
10
0.303000
20
0.580000
0
SEQEND
8
0
0
POLYLINE
8
0
66
1
40
0.008000
41
0.008000
0
VERTEX
8
0
10
0.278000
20
0.380000
0
VERTEX
8
0
10
0.328000
20
0.380000
0
VERTEX
8
0
10
0.328000
20
0.580000
0
VERTEX
8
0
10
0.278000
20
0.580000
0
VERTEX
8
0
10
0.278000
20
0.380000
0
SEQEND
8
0
0
POLYLINE
8
0
66
1
40
0.008000
41
0.008000
0
VERTEX
8
0
10
0.303000
20
0.380000
0
VERTEX
8
0
10
0.303000
20
0.330000
0
SEQEND
8
0
0
TEXT
8
12632256
10
0.386000
20
0.405000
40
0.048000
41
1.041667
50
90.000000
1
R14
0
POLYLINE
8
0
66
1
40
0.008000
41
0.008000
0
VERTEX
8
0
10
0.450000
20
1.358000
0
VERTEX
8
0
10
1.150000
20
1.358000
0
VERTEX
8
0
10
1.150000
20
1.558000
0
VERTEX
8
0
10
0.450000
20
1.558000
0
VERTEX
8
0
10
0.450000
20
1.358000
0
SEQEND
8
0
0
TEXT
8
12632256
10
0.781000
20
1.573000
40
0.048000
41
1.041667
1
C3
0
POLYLINE
8
0
66
1
40
0.008000
41
0.008000
0
VERTEX
8
0
10
1.004000
20
1.282000
0
VERTEX
8
0
10
0.954000
20
1.282000
0
SEQEND
8
0
0
POLYLINE
8
0
66
1
40
0.008000
41
0.008000
0
VERTEX
8
0
10
0.654000
20
1.257000
0
VERTEX
8
0
10
0.954000
20
1.257000
0
VERTEX
8
0
10
0.954000
20
1.307000
0
VERTEX
8
0
10
0.654000
20
1.307000
0
VERTEX
8
0
10
0.654000
20
1.257000
0
SEQEND
8
0
0
POLYLINE
8
0
66
1
40
0.008000
41
0.008000
0
VERTEX
8
0
10
0.654000
20
1.282000
0
VERTEX
8
0
10
0.604000
20
1.282000
0
SEQEND
8
0
0
TEXT
8
12632256
10
0.754000
20
1.199000
40
0.048000
41
1.041667
1
R4
0
POLYLINE
8
0
66
1
40
0.008000
41
0.008000
0
VERTEX
8
0
10
0.681000
20
1.024000
0
VERTEX
8
0
10
0.981000
20
1.024000
0
VERTEX
8
0
10
0.981000
20
1.124000
0
VERTEX
8
0
10
0.681000
20
1.124000
0
VERTEX
8
0
10
0.681000
20
1.024000
0
SEQEND
8
0
0
POLYLINE
8
0
66
1
40
0.008000
41
0.008000
0
VERTEX
8
0
10
0.981000
20
1.024000
0
VERTEX
8
0
10
0.981000
20
0.974000
0
VERTEX
8
0
10
0.681000
20
0.974000
0
VERTEX
8
0
10
0.681000
20
1.024000
0
SEQEND
8
0
0
POLYLINE
8
0
66
1
40
0.008000
41
0.008000
0
VERTEX
8
0
10
0.981000
20
1.024000
0
VERTEX
8
0
10
0.931000
20
0.974000
0
SEQEND
8
0
0
POLYLINE
8
0
66
1
40
0.008000
41
0.008000
0
VERTEX
8
0
10
0.931000
20
1.024000
0
VERTEX
8
0
10
0.881000
20
0.974000
0
SEQEND
8
0
0
POLYLINE
8
0
66
1
40
0.008000
41
0.008000
0
VERTEX
8
0
10
0.881000
20
1.024000
0
VERTEX
8
0
10
0.831000
20
0.974000
0
SEQEND
8
0
0
POLYLINE
8
0
66
1
40
0.008000
41
0.008000
0
VERTEX
8
0
10
0.831000
20
1.024000
0
VERTEX
8
0
10
0.781000
20
0.974000
0
SEQEND
8
0
0
POLYLINE
8
0
66
1
40
0.008000
41
0.008000
0
VERTEX
8
0
10
0.781000
20
1.024000
0
VERTEX
8
0
10
0.731000
20
0.974000
0
SEQEND
8
0
0
POLYLINE
8
0
66
1
40
0.008000
41
0.008000
0
VERTEX
8
0
10
0.731000
20
1.024000
0
VERTEX
8
0
10
0.681000
20
0.974000
0
SEQEND
8
0
0
TEXT
8
12632256
10
0.756000
20
0.916000
40
0.048000
41
1.041667
1
U13
0
POLYLINE
8
0
66
1
40
0.008000
41
0.008000
0
VERTEX
8
0
10
1.139000
20
0.731000
0
VERTEX
8
0
10
1.139000
20
1.164000
0
SEQEND
8
0
0
POLYLINE
8
0
66
1
40
0.008000
41
0.008000
0
VERTEX
8
0
10
1.139000
20
0.731000
0
VERTEX
8
0
10
0.549000
20
0.731000
0
VERTEX
8
0
10
0.549000
20
1.164000
0
SEQEND
8
0
0
POLYLINE
8
0
66
1
40
0.008000
41
0.008000
0
VERTEX
8
0
10
1.100000
20
1.164000
0
VERTEX
8
0
10
1.100000
20
0.967000
0
SEQEND
8
0
0
POLYLINE
8
0
66
1
40
0.008000
41
0.008000
0
VERTEX
8
0
10
0.588000
20
1.164000
0
VERTEX
8
0
10
0.588000
20
0.967000
0
SEQEND
8
0
0
POLYLINE
8
0
66
1
40
0.008000
41
0.008000
0
VERTEX
8
0
10
1.139000
20
0.967000
0
VERTEX
8
0
10
0.553000
20
0.967000
0
SEQEND
8
0
0
POLYLINE
8
0
66
1
40
0.008000
41
0.008000
0
VERTEX
8
0
10
1.139000
20
1.168000
0
VERTEX
8
0
10
1.100000
20
1.168000
0
SEQEND
8
0
0
POLYLINE
8
0
66
1
40
0.008000
41
0.008000
0
VERTEX
8
0
10
0.588000
20
1.168000
0
VERTEX
8
0
10
0.549000
20
1.168000
0
SEQEND
8
0
0
POLYLINE
8
0
66
1
40
0.008000
41
0.008000
0
VERTEX
8
0
10
1.072000
20
0.734000
0
VERTEX
8
0
10
1.072000
20
0.963000
0
SEQEND
8
0
0
POLYLINE
8
0
66
1
40
0.008000
41
0.008000
0
VERTEX
8
0
10
0.997000
20
0.738000
0
VERTEX
8
0
10
0.997000
20
0.967000
0
SEQEND
8
0
0
POLYLINE
8
0
66
1
40
0.008000
41
0.008000
0
VERTEX
8
0
10
0.718000
20
0.734000
0
VERTEX
8
0
10
0.718000
20
0.967000
0
SEQEND
8
0
0
POLYLINE
8
0
66
1
40
0.008000
41
0.008000
0
VERTEX
8
0
10
0.639000
20
0.738000
0
VERTEX
8
0
10
0.639000
20
0.967000
0
SEQEND
8
0
0
POLYLINE
8
0
66
1
40
0.008000
41
0.008000
0
VERTEX
8
0
10
0.927000
20
0.738000
0
VERTEX
8
0
10
0.927000
20
0.766000
0
SEQEND
8
0
0
POLYLINE
8
0
66
1
40
0.008000
41
0.008000
0
VERTEX
8
0
10
0.923000
20
0.770000
0
VERTEX
8
0
10
0.887000
20
0.770000
0
VERTEX
8
0
10
0.887000
20
0.813000
0
VERTEX
8
0
10
0.824000
20
0.813000
0
VERTEX
8
0
10
0.824000
20
0.774000
0
VERTEX
8
0
10
0.824000
20
0.770000
0
VERTEX
8
0
10
0.781000
20
0.770000
0
SEQEND
8
0
0
POLYLINE
8
0
66
1
40
0.008000
41
0.008000
0
VERTEX
8
0
10
0.781000
20
0.774000
0
VERTEX
8
0
10
0.781000
20
0.734000
0
SEQEND
8
0
0
POLYLINE
8
0
66
1
40
0.008000
41
0.008000
0
VERTEX
8
0
10
0.657000
20
0.367000
0
VERTEX
8
0
10
0.657000
20
0.417000
0
SEQEND
8
0
0
POLYLINE
8
0
66
1
40
0.008000
41
0.008000
0
VERTEX
8
0
10
0.707000
20
0.467000
0
VERTEX
8
0
10
0.706000
20
0.477000
0
VERTEX
8
0
10
0.703000
20
0.487000
0
VERTEX
8
0
10
0.699000
20
0.495000
0
VERTEX
8
0
10
0.693000
20
0.502000
0
VERTEX
8
0
10
0.686000
20
0.509000
0
VERTEX
8
0
10
0.677000
20
0.513000
0
VERTEX
8
0
10
0.667000
20
0.516000
0
VERTEX
8
0
10
0.657000
20
0.517000
0
SEQEND
8
0
0
POLYLINE
8
0
66
1
40
0.008000
41
0.008000
0
VERTEX
8
0
10
0.707000
20
0.467000
0
VERTEX
8
0
10
0.706000
20
0.457000
0
VERTEX
8
0
10
0.703000
20
0.447000
0
VERTEX
8
0
10
0.699000
20
0.438000
0
VERTEX
8
0
10
0.693000
20
0.431000
0
VERTEX
8
0
10
0.686000
20
0.425000
0
VERTEX
8
0
10
0.677000
20
0.421000
0
VERTEX
8
0
10
0.667000
20
0.418000
0
VERTEX
8
0
10
0.657000
20
0.417000
0
SEQEND
8
0
0
POLYLINE
8
0
66
1
40
0.008000
41
0.008000
0
VERTEX
8
0
10
0.657000
20
0.517000
0
VERTEX
8
0
10
0.657000
20
0.567000
0
SEQEND
8
0
0
POLYLINE
8
0
66
1
40
0.008000
41
0.008000
0
VERTEX
8
0
10
0.957000
20
0.367000
0
VERTEX
8
0
10
0.957000
20
0.567000
0
SEQEND
8
0
0
POLYLINE
8
0
66
1
40
0.008000
41
0.008000
0
VERTEX
8
0
10
0.657000
20
0.367000
0
VERTEX
8
0
10
0.957000
20
0.367000
0
SEQEND
8
0
0
POLYLINE
8
0
66
1
40
0.008000
41
0.008000
0
VERTEX
8
0
10
0.657000
20
0.567000
0
VERTEX
8
0
10
0.957000
20
0.567000
0
SEQEND
8
0
0
TEXT
8
12632256
10
0.647000
20
0.417000
40
0.048000
41
1.041667
50
90.000000
1
U2
0
POLYLINE
8
0
66
1
40
0.008000
41
0.008000
0
VERTEX
8
0
10
1.064000
20
0.627000
0
VERTEX
8
0
10
1.064000
20
0.577000
0
SEQEND
8
0
0
POLYLINE
8
0
66
1
40
0.008000
41
0.008000
0
VERTEX
8
0
10
1.039000
20
0.377000
0
VERTEX
8
0
10
1.089000
20
0.377000
0
VERTEX
8
0
10
1.089000
20
0.577000
0
VERTEX
8
0
10
1.039000
20
0.577000
0
VERTEX
8
0
10
1.039000
20
0.377000
0
SEQEND
8
0
0
POLYLINE
8
0
66
1
40
0.008000
41
0.008000
0
VERTEX
8
0
10
1.064000
20
0.377000
0
VERTEX
8
0
10
1.064000
20
0.327000
0
SEQEND
8
0
0
TEXT
8
12632256
10
1.147000
20
0.427000
40
0.048000
41
1.041667
50
90.000000
1
R7
0
POLYLINE
8
0
66
1
40
0.008000
41
0.008000
0
VERTEX
8
0
10
-1.046000
20
1.361000
0
VERTEX
8
0
10
-0.346000
20
1.361000
0
VERTEX
8
0
10
-0.346000
20
1.561000
0
VERTEX
8
0
10
-1.046000
20
1.561000
0
VERTEX
8
0
10
-1.046000
20
1.361000
0
SEQEND
8
0
0
TEXT
8
12632256
10
-0.771000
20
1.571000
40
0.048000
41
1.041667
1
C14
0
POLYLINE
8
0
66
1
40
0.008000
41
0.008000
0
VERTEX
8
0
10
-0.495000
20
1.291000
0
VERTEX
8
0
10
-0.545000
20
1.291000
0
SEQEND
8
0
0
POLYLINE
8
0
66
1
40
0.008000
41
0.008000
0
VERTEX
8
0
10
-0.845000
20
1.266000
0
VERTEX
8
0
10
-0.545000
20
1.266000
0
VERTEX
8
0
10
-0.545000
20
1.316000
0
VERTEX
8
0
10
-0.845000
20
1.316000
0
VERTEX
8
0
10
-0.845000
20
1.266000
0
SEQEND
8
0
0
POLYLINE
8
0
66
1
40
0.008000
41
0.008000
0
VERTEX
8
0
10
-0.845000
20
1.291000
0
VERTEX
8
0
10
-0.895000
20
1.291000
0
SEQEND
8
0
0
TEXT
8
12632256
10
-0.770000
20
1.208000
40
0.048000
41
1.041667
1
R20
0
POLYLINE
8
0
66
1
40
0.008000
41
0.008000
0
VERTEX
8
0
10
-0.827000
20
1.025000
0
VERTEX
8
0
10
-0.527000
20
1.025000
0
VERTEX
8
0
10
-0.527000
20
1.125000
0
VERTEX
8
0
10
-0.827000
20
1.125000
0
VERTEX
8
0
10
-0.827000
20
1.025000
0
SEQEND
8
0
0
POLYLINE
8
0
66
1
40
0.008000
41
0.008000
0
VERTEX
8
0
10
-0.527000
20
1.025000
0
VERTEX
8
0
10
-0.527000
20
0.975000
0
VERTEX
8
0
10
-0.827000
20
0.975000
0
VERTEX
8
0
10
-0.827000
20
1.025000
0
SEQEND
8
0
0
POLYLINE
8
0
66
1
40
0.008000
41
0.008000
0
VERTEX
8
0
10
-0.527000
20
1.025000
0
VERTEX
8
0
10
-0.577000
20
0.975000
0
SEQEND
8
0
0
POLYLINE
8
0
66
1
40
0.008000
41
0.008000
0
VERTEX
8
0
10
-0.577000
20
1.025000
0
VERTEX
8
0
10
-0.627000
20
0.975000
0
SEQEND
8
0
0
POLYLINE
8
0
66
1
40
0.008000
41
0.008000
0
VERTEX
8
0
10
-0.627000
20
1.025000
0
VERTEX
8
0
10
-0.677000
20
0.975000
0
SEQEND
8
0
0
POLYLINE
8
0
66
1
40
0.008000
41
0.008000
0
VERTEX
8
0
10
-0.677000
20
1.025000
0
VERTEX
8
0
10
-0.727000
20
0.975000
0
SEQEND
8
0
0
POLYLINE
8
0
66
1
40
0.008000
41
0.008000
0
VERTEX
8
0
10
-0.727000
20
1.025000
0
VERTEX
8
0
10
-0.777000
20
0.975000
0
SEQEND
8
0
0
POLYLINE
8
0
66
1
40
0.008000
41
0.008000
0
VERTEX
8
0
10
-0.777000
20
1.025000
0
VERTEX
8
0
10
-0.827000
20
0.975000
0
SEQEND
8
0
0
TEXT
8
12632256
10
-0.727000
20
0.917000
40
0.048000
41
1.041667
1
U8
0
POLYLINE
8
0
66
1
40
0.008000
41
0.008000
0
VERTEX
8
0
10
-0.366000
20
0.730000
0
VERTEX
8
0
10
-0.366000
20
1.163000
0
SEQEND
8
0
0
POLYLINE
8
0
66
1
40
0.008000
41
0.008000
0
VERTEX
8
0
10
-0.366000
20
0.730000
0
VERTEX
8
0
10
-0.956000
20
0.730000
0
VERTEX
8
0
10
-0.956000
20
1.163000
0
SEQEND
8
0
0
POLYLINE
8
0
66
1
40
0.008000
41
0.008000
0
VERTEX
8
0
10
-0.405000
20
1.163000
0
VERTEX
8
0
10
-0.405000
20
0.966000
0
SEQEND
8
0
0
POLYLINE
8
0
66
1
40
0.008000
41
0.008000
0
VERTEX
8
0
10
-0.917000
20
1.163000
0
VERTEX
8
0
10
-0.917000
20
0.966000
0
SEQEND
8
0
0
POLYLINE
8
0
66
1
40
0.008000
41
0.008000
0
VERTEX
8
0
10
-0.366000
20
0.966000
0
VERTEX
8
0
10
-0.952000
20
0.966000
0
SEQEND
8
0
0
POLYLINE
8
0
66
1
40
0.008000
41
0.008000
0
VERTEX
8
0
10
-0.366000
20
1.167000
0
VERTEX
8
0
10
-0.405000
20
1.167000
0
SEQEND
8
0
0
POLYLINE
8
0
66
1
40
0.008000
41
0.008000
0
VERTEX
8
0
10
-0.917000
20
1.167000
0
VERTEX
8
0
10
-0.956000
20
1.167000
0
SEQEND
8
0
0
POLYLINE
8
0
66
1
40
0.008000
41
0.008000
0
VERTEX
8
0
10
-0.433000
20
0.733000
0
VERTEX
8
0
10
-0.433000
20
0.962000
0
SEQEND
8
0
0
POLYLINE
8
0
66
1
40
0.008000
41
0.008000
0
VERTEX
8
0
10
-0.508000
20
0.737000
0
VERTEX
8
0
10
-0.508000
20
0.966000
0
SEQEND
8
0
0
POLYLINE
8
0
66
1
40
0.008000
41
0.008000
0
VERTEX
8
0
10
-0.787000
20
0.733000
0
VERTEX
8
0
10
-0.787000
20
0.966000
0
SEQEND
8
0
0
POLYLINE
8
0
66
1
40
0.008000
41
0.008000
0
VERTEX
8
0
10
-0.866000
20
0.737000
0
VERTEX
8
0
10
-0.866000
20
0.966000
0
SEQEND
8
0
0
POLYLINE
8
0
66
1
40
0.008000
41
0.008000
0
VERTEX
8
0
10
-0.578000
20
0.737000
0
VERTEX
8
0
10
-0.578000
20
0.765000
0
SEQEND
8
0
0
POLYLINE
8
0
66
1
40
0.008000
41
0.008000
0
VERTEX
8
0
10
-0.582000
20
0.769000
0
VERTEX
8
0
10
-0.618000
20
0.769000
0
VERTEX
8
0
10
-0.618000
20
0.812000
0
VERTEX
8
0
10
-0.681000
20
0.812000
0
VERTEX
8
0
10
-0.681000
20
0.773000
0
VERTEX
8
0
10
-0.681000
20
0.769000
0
VERTEX
8
0
10
-0.724000
20
0.769000
0
SEQEND
8
0
0
POLYLINE
8
0
66
1
40
0.008000
41
0.008000
0
VERTEX
8
0
10
-0.724000
20
0.773000
0
VERTEX
8
0
10
-0.724000
20
0.733000
0
SEQEND
8
0
0
POLYLINE
8
0
66
1
40
0.008000
41
0.008000
0
VERTEX
8
0
10
-0.851000
20
0.362000
0
VERTEX
8
0
10
-0.851000
20
0.412000
0
SEQEND
8
0
0
POLYLINE
8
0
66
1
40
0.008000
41
0.008000
0
VERTEX
8
0
10
-0.801000
20
0.462000
0
VERTEX
8
0
10
-0.802000
20
0.472000
0
VERTEX
8
0
10
-0.805000
20
0.482000
0
VERTEX
8
0
10
-0.809000
20
0.490000
0
VERTEX
8
0
10
-0.815000
20
0.498000
0
VERTEX
8
0
10
-0.822000
20
0.504000
0
VERTEX
8
0
10
-0.831000
20
0.508000
0
VERTEX
8
0
10
-0.841000
20
0.511000
0
VERTEX
8
0
10
-0.851000
20
0.512000
0
SEQEND
8
0
0
POLYLINE
8
0
66
1
40
0.008000
41
0.008000
0
VERTEX
8
0
10
-0.801000
20
0.462000
0
VERTEX
8
0
10
-0.802000
20
0.452000
0
VERTEX
8
0
10
-0.805000
20
0.442000
0
VERTEX
8
0
10
-0.809000
20
0.433000
0
VERTEX
8
0
10
-0.815000
20
0.426000
0
VERTEX
8
0
10
-0.822000
20
0.420000
0
VERTEX
8
0
10
-0.831000
20
0.416000
0
VERTEX
8
0
10
-0.841000
20
0.413000
0
VERTEX
8
0
10
-0.851000
20
0.412000
0
SEQEND
8
0
0
POLYLINE
8
0
66
1
40
0.008000
41
0.008000
0
VERTEX
8
0
10
-0.851000
20
0.512000
0
VERTEX
8
0
10
-0.851000
20
0.562000
0
SEQEND
8
0
0
POLYLINE
8
0
66
1
40
0.008000
41
0.008000
0
VERTEX
8
0
10
-0.551000
20
0.362000
0
VERTEX
8
0
10
-0.551000
20
0.562000
0
SEQEND
8
0
0
POLYLINE
8
0
66
1
40
0.008000
41
0.008000
0
VERTEX
8
0
10
-0.851000
20
0.362000
0
VERTEX
8
0
10
-0.551000
20
0.362000
0
SEQEND
8
0
0
POLYLINE
8
0
66
1
40
0.008000
41
0.008000
0
VERTEX
8
0
10
-0.851000
20
0.562000
0
VERTEX
8
0
10
-0.551000
20
0.562000
0
SEQEND
8
0
0
TEXT
8
12632256
10
-0.861000
20
0.412000
40
0.048000
41
1.041667
50
90.000000
1
U7
0
POLYLINE
8
0
66
1
40
0.008000
41
0.008000
0
VERTEX
8
0
10
-0.441000
20
0.625000
0
VERTEX
8
0
10
-0.441000
20
0.575000
0
SEQEND
8
0
0
POLYLINE
8
0
66
1
40
0.008000
41
0.008000
0
VERTEX
8
0
10
-0.466000
20
0.375000
0
VERTEX
8
0
10
-0.416000
20
0.375000
0
VERTEX
8
0
10
-0.416000
20
0.575000
0
VERTEX
8
0
10
-0.466000
20
0.575000
0
VERTEX
8
0
10
-0.466000
20
0.375000
0
SEQEND
8
0
0
POLYLINE
8
0
66
1
40
0.008000
41
0.008000
0
VERTEX
8
0
10
-0.441000
20
0.375000
0
VERTEX
8
0
10
-0.441000
20
0.325000
0
SEQEND
8
0
0
TEXT
8
12632256
10
-0.358000
20
0.400000
40
0.048000
41
1.041667
50
90.000000
1
R18
0
POLYLINE
8
0
66
1
40
0.008000
41
0.008000
0
VERTEX
8
0
10
-1.793000
20
1.362000
0
VERTEX
8
0
10
-1.093000
20
1.362000
0
VERTEX
8
0
10
-1.093000
20
1.562000
0
VERTEX
8
0
10
-1.793000
20
1.562000
0
VERTEX
8
0
10
-1.793000
20
1.362000
0
SEQEND
8
0
0
TEXT
8
12632256
10
-1.518000
20
1.572000
40
0.048000
41
1.041667
1
C15
0
POLYLINE
8
0
66
1
40
0.008000
41
0.008000
0
VERTEX
8
0
10
-1.237000
20
1.296000
0
VERTEX
8
0
10
-1.287000
20
1.296000
0
SEQEND
8
0
0
POLYLINE
8
0
66
1
40
0.008000
41
0.008000
0
VERTEX
8
0
10
-1.587000
20
1.271000
0
VERTEX
8
0
10
-1.287000
20
1.271000
0
VERTEX
8
0
10
-1.287000
20
1.321000
0
VERTEX
8
0
10
-1.587000
20
1.321000
0
VERTEX
8
0
10
-1.587000
20
1.271000
0
SEQEND
8
0
0
POLYLINE
8
0
66
1
40
0.008000
41
0.008000
0
VERTEX
8
0
10
-1.587000
20
1.296000
0
VERTEX
8
0
10
-1.637000
20
1.296000
0
SEQEND
8
0
0
TEXT
8
12632256
10
-1.512000
20
1.213000
40
0.048000
41
1.041667
1
R23
0
POLYLINE
8
0
66
1
40
0.008000
41
0.008000
0
VERTEX
8
0
10
-1.562000
20
1.025000
0
VERTEX
8
0
10
-1.262000
20
1.025000
0
VERTEX
8
0
10
-1.262000
20
1.125000
0
VERTEX
8
0
10
-1.562000
20
1.125000
0
VERTEX
8
0
10
-1.562000
20
1.025000
0
SEQEND
8
0
0
POLYLINE
8
0
66
1
40
0.008000
41
0.008000
0
VERTEX
8
0
10
-1.262000
20
1.025000
0
VERTEX
8
0
10
-1.262000
20
0.975000
0
VERTEX
8
0
10
-1.562000
20
0.975000
0
VERTEX
8
0
10
-1.562000
20
1.025000
0
SEQEND
8
0
0
POLYLINE
8
0
66
1
40
0.008000
41
0.008000
0
VERTEX
8
0
10
-1.262000
20
1.025000
0
VERTEX
8
0
10
-1.312000
20
0.975000
0
SEQEND
8
0
0
POLYLINE
8
0
66
1
40
0.008000
41
0.008000
0
VERTEX
8
0
10
-1.312000
20
1.025000
0
VERTEX
8
0
10
-1.362000
20
0.975000
0
SEQEND
8
0
0
POLYLINE
8
0
66
1
40
0.008000
41
0.008000
0
VERTEX
8
0
10
-1.362000
20
1.025000
0
VERTEX
8
0
10
-1.412000
20
0.975000
0
SEQEND
8
0
0
POLYLINE
8
0
66
1
40
0.008000
41
0.008000
0
VERTEX
8
0
10
-1.412000
20
1.025000
0
VERTEX
8
0
10
-1.462000
20
0.975000
0
SEQEND
8
0
0
POLYLINE
8
0
66
1
40
0.008000
41
0.008000
0
VERTEX
8
0
10
-1.462000
20
1.025000
0
VERTEX
8
0
10
-1.512000
20
0.975000
0
SEQEND
8
0
0
POLYLINE
8
0
66
1
40
0.008000
41
0.008000
0
VERTEX
8
0
10
-1.512000
20
1.025000
0
VERTEX
8
0
10
-1.562000
20
0.975000
0
SEQEND
8
0
0
TEXT
8
12632256
10
-1.487000
20
0.917000
40
0.048000
41
1.041667
1
U12
0
POLYLINE
8
0
66
1
40
0.008000
41
0.008000
0
VERTEX
8
0
10
-1.594000
20
0.367000
0
VERTEX
8
0
10
-1.594000
20
0.417000
0
SEQEND
8
0
0
POLYLINE
8
0
66
1
40
0.008000
41
0.008000
0
VERTEX
8
0
10
-1.544000
20
0.467000
0
VERTEX
8
0
10
-1.545000
20
0.477000
0
VERTEX
8
0
10
-1.548000
20
0.487000
0
VERTEX
8
0
10
-1.552000
20
0.495000
0
VERTEX
8
0
10
-1.558000
20
0.502000
0
VERTEX
8
0
10
-1.565000
20
0.509000
0
VERTEX
8
0
10
-1.574000
20
0.513000
0
VERTEX
8
0
10
-1.584000
20
0.516000
0
VERTEX
8
0
10
-1.594000
20
0.517000
0
SEQEND
8
0
0
POLYLINE
8
0
66
1
40
0.008000
41
0.008000
0
VERTEX
8
0
10
-1.544000
20
0.467000
0
VERTEX
8
0
10
-1.545000
20
0.457000
0
VERTEX
8
0
10
-1.548000
20
0.447000
0
VERTEX
8
0
10
-1.552000
20
0.438000
0
VERTEX
8
0
10
-1.558000
20
0.431000
0
VERTEX
8
0
10
-1.565000
20
0.425000
0
VERTEX
8
0
10
-1.574000
20
0.421000
0
VERTEX
8
0
10
-1.584000
20
0.418000
0
VERTEX
8
0
10
-1.594000
20
0.417000
0
SEQEND
8
0
0
POLYLINE
8
0
66
1
40
0.008000
41
0.008000
0
VERTEX
8
0
10
-1.594000
20
0.517000
0
VERTEX
8
0
10
-1.594000
20
0.567000
0
SEQEND
8
0
0
POLYLINE
8
0
66
1
40
0.008000
41
0.008000
0
VERTEX
8
0
10
-1.294000
20
0.367000
0
VERTEX
8
0
10
-1.294000
20
0.567000
0
SEQEND
8
0
0
POLYLINE
8
0
66
1
40
0.008000
41
0.008000
0
VERTEX
8
0
10
-1.594000
20
0.367000
0
VERTEX
8
0
10
-1.294000
20
0.367000
0
SEQEND
8
0
0
POLYLINE
8
0
66
1
40
0.008000
41
0.008000
0
VERTEX
8
0
10
-1.594000
20
0.567000
0
VERTEX
8
0
10
-1.294000
20
0.567000
0
SEQEND
8
0
0
TEXT
8
12632256
10
-1.426000
20
0.412000
40
0.048000
41
1.041667
50
90.000000
1
U9
0
POLYLINE
8
0
66
1
40
0.008000
41
0.008000
0
VERTEX
8
0
10
-1.186000
20
0.632000
0
VERTEX
8
0
10
-1.186000
20
0.582000
0
SEQEND
8
0
0
POLYLINE
8
0
66
1
40
0.008000
41
0.008000
0
VERTEX
8
0
10
-1.211000
20
0.382000
0
VERTEX
8
0
10
-1.161000
20
0.382000
0
VERTEX
8
0
10
-1.161000
20
0.582000
0
VERTEX
8
0
10
-1.211000
20
0.582000
0
VERTEX
8
0
10
-1.211000
20
0.382000
0
SEQEND
8
0
0
POLYLINE
8
0
66
1
40
0.008000
41
0.008000
0
VERTEX
8
0
10
-1.186000
20
0.382000
0
VERTEX
8
0
10
-1.186000
20
0.332000
0
SEQEND
8
0
0
TEXT
8
12632256
10
-1.103000
20
0.407000
40
0.048000
41
1.041667
50
90.000000
1
R21
0
POLYLINE
8
0
66
1
40
0.008000
41
0.008000
0
VERTEX
8
0
10
-0.108000
20
-0.832000
0
VERTEX
8
0
10
-0.110000
20
-0.812000
0
VERTEX
8
0
10
-0.116000
20
-0.793000
0
VERTEX
8
0
10
-0.125000
20
-0.776000
0
VERTEX
8
0
10
-0.137000
20
-0.761000
0
VERTEX
8
0
10
-0.152000
20
-0.749000
0
VERTEX
8
0
10
-0.169000
20
-0.740000
0
VERTEX
8
0
10
-0.188000
20
-0.734000
0
VERTEX
8
0
10
-0.208000
20
-0.732000
0
SEQEND
8
0
0
POLYLINE
8
0
66
1
40
0.008000
41
0.008000
0
VERTEX
8
0
10
-0.108000
20
-0.832000
0
VERTEX
8
0
10
-0.110000
20
-0.853000
0
VERTEX
8
0
10
-0.116000
20
-0.872000
0
VERTEX
8
0
10
-0.125000
20
-0.889000
0
VERTEX
8
0
10
-0.137000
20
-0.903000
0
VERTEX
8
0
10
-0.152000
20
-0.915000
0
VERTEX
8
0
10
-0.169000
20
-0.924000
0
VERTEX
8
0
10
-0.188000
20
-0.930000
0
VERTEX
8
0
10
-0.208000
20
-0.932000
0
SEQEND
8
0
0
POLYLINE
8
0
66
1
40
0.008000
41
0.008000
0
VERTEX
8
0
10
-0.208000
20
-0.732000
0
VERTEX
8
0
10
-0.208000
20
-0.582000
0
SEQEND
8
0
0
POLYLINE
8
0
66
1
40
0.008000
41
0.008000
0
VERTEX
8
0
10
1.791000
20
-0.582000
0
VERTEX
8
0
10
1.791000
20
-1.082000
0
SEQEND
8
0
0
POLYLINE
8
0
66
1
40
0.008000
41
0.008000
0
VERTEX
8
0
10
-0.208000
20
-1.082000
0
VERTEX
8
0
10
-0.208000
20
-0.932000
0
SEQEND
8
0
0
POLYLINE
8
0
66
1
40
0.008000
41
0.008000
0
VERTEX
8
0
10
-0.208000
20
-0.582000
0
VERTEX
8
0
10
1.791000
20
-0.582000
0
SEQEND
8
0
0
POLYLINE
8
0
66
1
40
0.008000
41
0.008000
0
VERTEX
8
0
10
-0.208000
20
-1.082000
0
VERTEX
8
0
10
1.791000
20
-1.082000
0
SEQEND
8
0
0
TEXT
8
12632256
10
-0.218000
20
-0.882000
40
0.048000
41
1.041667
50
90.000000
1
U1
0
POLYLINE
8
0
66
1
40
0.008000
41
0.008000
0
VERTEX
8
0
10
1.351000
20
-1.356000
0
VERTEX
8
0
10
1.354000
20
-1.346000
0
VERTEX
8
0
10
1.362000
20
-1.336000
0
VERTEX
8
0
10
1.376000
20
-1.328000
0
VERTEX
8
0
10
1.394000
20
-1.320000
0
VERTEX
8
0
10
1.416000
20
-1.314000
0
VERTEX
8
0
10
1.442000
20
-1.310000
0
VERTEX
8
0
10
1.470000
20
-1.307000
0
VERTEX
8
0
10
1.501000
20
-1.306000
0
SEQEND
8
0
0
POLYLINE
8
0
66
1
40
0.008000
41
0.008000
0
VERTEX
8
0
10
1.651000
20
-1.356000
0
VERTEX
8
0
10
1.648000
20
-1.346000
0
VERTEX
8
0
10
1.639000
20
-1.336000
0
VERTEX
8
0
10
1.626000
20
-1.328000
0
VERTEX
8
0
10
1.608000
20
-1.320000
0
VERTEX
8
0
10
1.586000
20
-1.314000
0
VERTEX
8
0
10
1.560000
20
-1.310000
0
VERTEX
8
0
10
1.532000
20
-1.307000
0
VERTEX
8
0
10
1.501000
20
-1.306000
0
SEQEND
8
0
0
POLYLINE
8
0
66
1
40
0.008000
41
0.008000
0
VERTEX
8
0
10
1.651000
20
-1.356000
0
VERTEX
8
0
10
1.648000
20
-1.366000
0
VERTEX
8
0
10
1.639000
20
-1.376000
0
VERTEX
8
0
10
1.626000
20
-1.384000
0
VERTEX
8
0
10
1.608000
20
-1.392000
0
VERTEX
8
0
10
1.586000
20
-1.398000
0
VERTEX
8
0
10
1.560000
20
-1.402000
0
VERTEX
8
0
10
1.532000
20
-1.405000
0
VERTEX
8
0
10
1.501000
20
-1.406000
0
SEQEND
8
0
0
POLYLINE
8
0
66
1
40
0.008000
41
0.008000
0
VERTEX
8
0
10
1.351000
20
-1.356000
0
VERTEX
8
0
10
1.354000
20
-1.366000
0
VERTEX
8
0
10
1.362000
20
-1.376000
0
VERTEX
8
0
10
1.376000
20
-1.384000
0
VERTEX
8
0
10
1.394000
20
-1.392000
0
VERTEX
8
0
10
1.416000
20
-1.398000
0
VERTEX
8
0
10
1.442000
20
-1.402000
0
VERTEX
8
0
10
1.470000
20
-1.405000
0
VERTEX
8
0
10
1.501000
20
-1.406000
0
SEQEND
8
0
0
TEXT
8
12632256
10
1.467000
20
-1.296000
40
0.048000
41
1.041667
1
C1
0
POLYLINE
8
0
66
1
40
0.008000
41
0.008000
0
VERTEX
8
0
10
1.012000
20
-1.208000
0
VERTEX
8
0
10
1.022000
20
-1.210000
0
VERTEX
8
0
10
1.032000
20
-1.216000
0
VERTEX
8
0
10
1.040000
20
-1.225000
0
VERTEX
8
0
10
1.048000
20
-1.237000
0
VERTEX
8
0
10
1.054000
20
-1.252000
0
VERTEX
8
0
10
1.058000
20
-1.269000
0
VERTEX
8
0
10
1.061000
20
-1.288000
0
VERTEX
8
0
10
1.062000
20
-1.308000
0
SEQEND
8
0
0
POLYLINE
8
0
66
1
40
0.008000
41
0.008000
0
VERTEX
8
0
10
1.012000
20
-1.408000
0
VERTEX
8
0
10
1.022000
20
-1.406000
0
VERTEX
8
0
10
1.032000
20
-1.400000
0
VERTEX
8
0
10
1.040000
20
-1.391000
0
VERTEX
8
0
10
1.048000
20
-1.379000
0
VERTEX
8
0
10
1.054000
20
-1.364000
0
VERTEX
8
0
10
1.058000
20
-1.347000
0
VERTEX
8
0
10
1.061000
20
-1.328000
0
VERTEX
8
0
10
1.062000
20
-1.308000
0
SEQEND
8
0
0
POLYLINE
8
0
66
1
40
0.008000
41
0.008000
0
VERTEX
8
0
10
1.012000
20
-1.208000
0
VERTEX
8
0
10
1.002000
20
-1.210000
0
VERTEX
8
0
10
0.992000
20
-1.216000
0
VERTEX
8
0
10
0.984000
20
-1.225000
0
VERTEX
8
0
10
0.976000
20
-1.237000
0
VERTEX
8
0
10
0.970000
20
-1.252000
0
VERTEX
8
0
10
0.966000
20
-1.269000
0
VERTEX
8
0
10
0.963000
20
-1.288000
0
VERTEX
8
0
10
0.962000
20
-1.308000
0
SEQEND
8
0
0
POLYLINE
8
0
66
1
40
0.008000
41
0.008000
0
VERTEX
8
0
10
1.012000
20
-1.408000
0
VERTEX
8
0
10
1.002000
20
-1.406000
0
VERTEX
8
0
10
0.992000
20
-1.400000
0
VERTEX
8
0
10
0.984000
20
-1.391000
0
VERTEX
8
0
10
0.976000
20
-1.379000
0
VERTEX
8
0
10
0.970000
20
-1.364000
0
VERTEX
8
0
10
0.966000
20
-1.347000
0
VERTEX
8
0
10
0.963000
20
-1.328000
0
VERTEX
8
0
10
0.962000
20
-1.308000
0
SEQEND
8
0
0
TEXT
8
12632256
10
1.120000
20
-1.358000
40
0.048000
41
1.041667
50
90.000000
1
C8
0
POLYLINE
8
0
66
1
40
0.008000
41
0.008000
0
VERTEX
8
0
10
1.174000
20
-1.211000
0
VERTEX
8
0
10
1.184000
20
-1.213000
0
VERTEX
8
0
10
1.194000
20
-1.219000
0
VERTEX
8
0
10
1.202000
20
-1.228000
0
VERTEX
8
0
10
1.210000
20
-1.240000
0
VERTEX
8
0
10
1.216000
20
-1.255000
0
VERTEX
8
0
10
1.220000
20
-1.272000
0
VERTEX
8
0
10
1.223000
20
-1.291000
0
VERTEX
8
0
10
1.224000
20
-1.311000
0
SEQEND
8
0
0
POLYLINE
8
0
66
1
40
0.008000
41
0.008000
0
VERTEX
8
0
10
1.174000
20
-1.411000
0
VERTEX
8
0
10
1.184000
20
-1.409000
0
VERTEX
8
0
10
1.194000
20
-1.403000
0
VERTEX
8
0
10
1.202000
20
-1.394000
0
VERTEX
8
0
10
1.210000
20
-1.382000
0
VERTEX
8
0
10
1.216000
20
-1.367000
0
VERTEX
8
0
10
1.220000
20
-1.350000
0
VERTEX
8
0
10
1.223000
20
-1.331000
0
VERTEX
8
0
10
1.224000
20
-1.311000
0
SEQEND
8
0
0
POLYLINE
8
0
66
1
40
0.008000
41
0.008000
0
VERTEX
8
0
10
1.174000
20
-1.211000
0
VERTEX
8
0
10
1.164000
20
-1.213000
0
VERTEX
8
0
10
1.154000
20
-1.219000
0
VERTEX
8
0
10
1.146000
20
-1.228000
0
VERTEX
8
0
10
1.138000
20
-1.240000
0
VERTEX
8
0
10
1.132000
20
-1.255000
0
VERTEX
8
0
10
1.128000
20
-1.272000
0
VERTEX
8
0
10
1.125000
20
-1.291000
0
VERTEX
8
0
10
1.124000
20
-1.311000
0
SEQEND
8
0
0
POLYLINE
8
0
66
1
40
0.008000
41
0.008000
0
VERTEX
8
0
10
1.174000
20
-1.411000
0
VERTEX
8
0
10
1.164000
20
-1.409000
0
VERTEX
8
0
10
1.154000
20
-1.403000
0
VERTEX
8
0
10
1.146000
20
-1.394000
0
VERTEX
8
0
10
1.138000
20
-1.382000
0
VERTEX
8
0
10
1.132000
20
-1.367000
0
VERTEX
8
0
10
1.128000
20
-1.350000
0
VERTEX
8
0
10
1.125000
20
-1.331000
0
VERTEX
8
0
10
1.124000
20
-1.311000
0
SEQEND
8
0
0
TEXT
8
12632256
10
1.282000
20
-1.361000
40
0.048000
41
1.041667
50
90.000000
1
C9
0
POLYLINE
8
0
66
1
40
0.008000
41
0.008000
0
VERTEX
8
0
10
0.937000
20
-0.812000
0
VERTEX
8
0
10
1.237000
20
-0.812000
0
VERTEX
8
0
10
1.287000
20
-0.862000
0
VERTEX
8
0
10
1.287000
20
-0.962000
0
VERTEX
8
0
10
1.237000
20
-1.012000
0
VERTEX
8
0
10
0.937000
20
-1.012000
0
VERTEX
8
0
10
0.887000
20
-0.962000
0
VERTEX
8
0
10
0.887000
20
-0.862000
0
VERTEX
8
0
10
0.937000
20
-0.812000
0
SEQEND
8
0
0
TEXT
8
12632256
10
1.037000
20
-0.802000
40
0.048000
41
1.041667
1
X1
0
POLYLINE
8
0
66
1
40
0.008000
41
0.008000
0
VERTEX
8
0
10
0.717000
20
-0.625000
0
VERTEX
8
0
10
0.679000
20
-0.625000
0
SEQEND
8
0
0
POLYLINE
8
0
66
1
40
0.008000
41
0.008000
0
VERTEX
8
0
10
0.717000
20
-0.736000
0
VERTEX
8
0
10
0.678000
20
-0.736000
0
SEQEND
8
0
0
POLYLINE
8
0
66
1
40
0.008000
41
0.008000
0
VERTEX
8
0
10
0.637000
20
-0.610000
0
VERTEX
8
0
10
0.637000
20
-0.590000
0
SEQEND
8
0
0
POLYLINE
8
0
66
1
40
0.008000
41
0.008000
0
VERTEX
8
0
10
0.647000
20
-0.600000
0
VERTEX
8
0
10
0.627000
20
-0.600000
0
SEQEND
8
0
0
TEXT
8
12632256
10
0.951000
20
-0.696000
40
0.048000
41
1.041667
71
2
1
C16
0
POLYLINE
8
0
66
1
40
0.008000
41
0.008000
0
VERTEX
8
0
10
0.805000
20
-0.951000
0
VERTEX
8
0
10
0.767000
20
-0.951000
0
SEQEND
8
0
0
POLYLINE
8
0
66
1
40
0.008000
41
0.008000
0
VERTEX
8
0
10
0.805000
20
-1.062000
0
VERTEX
8
0
10
0.766000
20
-1.062000
0
SEQEND
8
0
0
POLYLINE
8
0
66
1
40
0.008000
41
0.008000
0
VERTEX
8
0
10
0.725000
20
-0.936000
0
VERTEX
8
0
10
0.725000
20
-0.916000
0
SEQEND
8
0
0
POLYLINE
8
0
66
1
40
0.008000
41
0.008000
0
VERTEX
8
0
10
0.735000
20
-0.926000
0
VERTEX
8
0
10
0.715000
20
-0.926000
0
SEQEND
8
0
0
TEXT
8
12632256
10
0.863000
20
-0.910000
40
0.048000
41
1.041667
71
2
1
C18
0
TEXT
8
12632256
10
-0.731000
20
-1.753000
40
0.064000
41
1.093750
1
T
0
TEXT
8
12632256
10
-0.571000
20
-1.750000
40
0.064000
41
1.093750
1
V12
0
TEXT
8
12632256
10
-0.245000
20
-1.754000
40
0.064000
41
1.093750
50
90.000000
1
GND
0
TEXT
8
12632256
10
-0.052000
20
-1.756000
40
0.064000
41
1.093750
50
90.000000
1
5V
0
TEXT
8
12632256
10
0.156000
20
-1.750000
40
0.064000
41
1.093750
50
90.000000
1
VF
0
TEXT
8
12632256
10
0.322000
20
-1.754000
40
0.064000
41
1.093750
1
T
0
TEXT
8
12632256
10
0.482000
20
-1.751000
40
0.064000
41
1.093750
1
V12
0
TEXT
8
12632256
10
0.808000
20
-1.755000
40
0.064000
41
1.093750
50
90.000000
1
GND
0
TEXT
8
12632256
10
1.001000
20
-1.757000
40
0.064000
41
1.093750
50
90.000000
1
5V
0
TEXT
8
12632256
10
1.210000
20
-1.751000
40
0.064000
41
1.093750
50
90.000000
1
VF
0
TEXT
8
12632256
10
1.451000
20
-1.749000
40
0.064000
41
1.093750
50
90.000000
1
OUT
0
TEXT
8
12632256
10
1.672000
20
-1.742000
40
0.064000
41
1.093750
50
90.000000
1
VCC
0
TEXT
8
12632256
10
1.865000
20
-1.756000
40
0.064000
41
1.093750
50
90.000000
1
GND
0
TEXT
8
12632256
10
2.107000
20
-1.745000
40
0.064000
41
1.093750
50
90.000000
1
OUT
0
TEXT
8
12632256
10
2.328000
20
-1.738000
40
0.064000
41
1.093750
50
90.000000
1
VCC
0
TEXT
8
12632256
10
2.521000
20
-1.752000
40
0.064000
41
1.093750
50
90.000000
1
GND
0
TEXT
8
12632256
10
2.093000
20
-1.185000
40
0.064000
41
1.093750
1
FLITRO
0
TEXT
8
12632256
10
2.042000
20
-1.381000
40
0.064000
41
1.093750
1
DOWNFLOW
0
TEXT
8
12632256
10
2.087000
20
-0.425000
40
0.064000
41
1.093750
1
INFLOW
0
TEXT
8
12632256
10
2.082000
20
-0.265000
40
0.064000
41
1.093750
1
FLITRO
0
POLYLINE
8
0
66
1
40
0.008000
41
0.008000
0
VERTEX
8
0
10
-0.391000
20
-1.081000
0
VERTEX
8
0
10
-0.391000
20
-1.031000
0
SEQEND
8
0
0
POLYLINE
8
0
66
1
40
0.008000
41
0.008000
0
VERTEX
8
0
10
-0.416000
20
-1.031000
0
VERTEX
8
0
10
-0.366000
20
-1.031000
0
VERTEX
8
0
10
-0.366000
20
-0.831000
0
VERTEX
8
0
10
-0.416000
20
-0.831000
0
VERTEX
8
0
10
-0.416000
20
-1.031000
0
SEQEND
8
0
0
POLYLINE
8
0
66
1
40
0.008000
41
0.008000
0
VERTEX
8
0
10
-0.391000
20
-0.831000
0
VERTEX
8
0
10
-0.391000
20
-0.781000
0
SEQEND
8
0
0
TEXT
8
12632256
10
-0.426000
20
-0.981000
40
0.048000
41
1.041667
50
90.000000
1
R1
0
POLYLINE
8
0
66
1
40
0.008000
41
0.008000
0
VERTEX
8
0
10
-0.804000
20
-1.257000
0
VERTEX
8
0
10
-0.801000
20
-1.247000
0
VERTEX
8
0
10
-0.793000
20
-1.237000
0
VERTEX
8
0
10
-0.779000
20
-1.229000
0
VERTEX
8
0
10
-0.761000
20
-1.222000
0
VERTEX
8
0
10
-0.739000
20
-1.215000
0
VERTEX
8
0
10
-0.713000
20
-1.211000
0
VERTEX
8
0
10
-0.685000
20
-1.208000
0
VERTEX
8
0
10
-0.654000
20
-1.207000
0
SEQEND
8
0
0
POLYLINE
8
0
66
1
40
0.008000
41
0.008000
0
VERTEX
8
0
10
-0.504000
20
-1.257000
0
VERTEX
8
0
10
-0.507000
20
-1.247000
0
VERTEX
8
0
10
-0.516000
20
-1.237000
0
VERTEX
8
0
10
-0.530000
20
-1.229000
0
VERTEX
8
0
10
-0.548000
20
-1.222000
0
VERTEX
8
0
10
-0.570000
20
-1.215000
0
VERTEX
8
0
10
-0.595000
20
-1.211000
0
VERTEX
8
0
10
-0.623000
20
-1.208000
0
VERTEX
8
0
10
-0.654000
20
-1.207000
0
SEQEND
8
0
0
POLYLINE
8
0
66
1
40
0.008000
41
0.008000
0
VERTEX
8
0
10
-0.504000
20
-1.257000
0
VERTEX
8
0
10
-0.507000
20
-1.267000
0
VERTEX
8
0
10
-0.516000
20
-1.277000
0
VERTEX
8
0
10
-0.530000
20
-1.285000
0
VERTEX
8
0
10
-0.548000
20
-1.292000
0
VERTEX
8
0
10
-0.570000
20
-1.299000
0
VERTEX
8
0
10
-0.595000
20
-1.303000
0
VERTEX
8
0
10
-0.623000
20
-1.306000
0
VERTEX
8
0
10
-0.654000
20
-1.307000
0
SEQEND
8
0
0
POLYLINE
8
0
66
1
40
0.008000
41
0.008000
0
VERTEX
8
0
10
-0.804000
20
-1.257000
0
VERTEX
8
0
10
-0.801000
20
-1.267000
0
VERTEX
8
0
10
-0.793000
20
-1.277000
0
VERTEX
8
0
10
-0.779000
20
-1.285000
0
VERTEX
8
0
10
-0.761000
20
-1.292000
0
VERTEX
8
0
10
-0.739000
20
-1.299000
0
VERTEX
8
0
10
-0.713000
20
-1.303000
0
VERTEX
8
0
10
-0.685000
20
-1.306000
0
VERTEX
8
0
10
-0.654000
20
-1.307000
0
SEQEND
8
0
0
TEXT
8
12632256
10
-0.704000
20
-1.197000
40
0.048000
41
1.041667
1
C2
0
POLYLINE
8
0
66
1
40
0.008000
41
0.008000
0
VERTEX
8
0
10
-0.800000
20
-1.642000
0
VERTEX
8
0
10
-0.500000
20
-1.642000
0
VERTEX
8
0
10
-0.500000
20
-1.392000
0
VERTEX
8
0
10
-0.800000
20
-1.392000
0
VERTEX
8
0
10
-0.800000
20
-1.642000
0
SEQEND
8
0
0
POLYLINE
8
0
66
1
40
0.008000
41
0.008000
0
VERTEX
8
0
10
-0.800000
20
-1.442000
0
VERTEX
8
0
10
-0.500000
20
-1.442000
0
SEQEND
8
0
0
TEXT
8
12632256
10
-0.700000
20
-1.382000
40
0.048000
41
1.041667
1
J1
0
POLYLINE
8
0
66
1
40
0.008000
41
0.008000
0
VERTEX
8
0
10
1.846000
20
0.053000
0
VERTEX
8
0
10
1.846000
20
0.003000
0
SEQEND
8
0
0
POLYLINE
8
0
66
1
40
0.008000
41
0.008000
0
VERTEX
8
0
10
1.821000
20
-0.196000
0
VERTEX
8
0
10
1.871000
20
-0.196000
0
VERTEX
8
0
10
1.871000
20
0.003000
0
VERTEX
8
0
10
1.821000
20
0.003000
0
VERTEX
8
0
10
1.821000
20
-0.196000
0
SEQEND
8
0
0
POLYLINE
8
0
66
1
40
0.008000
41
0.008000
0
VERTEX
8
0
10
1.846000
20
-0.196000
0
VERTEX
8
0
10
1.846000
20
-0.246000
0
SEQEND
8
0
0
TEXT
8
12632256
10
1.929000
20
-0.171000
40
0.048000
41
1.041667
50
90.000000
1
R16
0
POLYLINE
8
0
66
1
40
0.008000
41
0.008000
0
VERTEX
8
0
10
1.178000
20
0.045000
0
VERTEX
8
0
10
1.178000
20
-0.004000
0
SEQEND
8
0
0
POLYLINE
8
0
66
1
40
0.008000
41
0.008000
0
VERTEX
8
0
10
1.153000
20
-0.204000
0
VERTEX
8
0
10
1.203000
20
-0.204000
0
VERTEX
8
0
10
1.203000
20
-0.004000
0
VERTEX
8
0
10
1.153000
20
-0.004000
0
VERTEX
8
0
10
1.153000
20
-0.204000
0
SEQEND
8
0
0
POLYLINE
8
0
66
1
40
0.008000
41
0.008000
0
VERTEX
8
0
10
1.178000
20
-0.204000
0
VERTEX
8
0
10
1.178000
20
-0.254000
0
SEQEND
8
0
0
TEXT
8
12632256
10
1.261000
20
-0.179000
40
0.048000
41
1.041667
50
90.000000
1
R12
0
POLYLINE
8
0
66
1
40
0.008000
41
0.008000
0
VERTEX
8
0
10
1.744000
20
0.050000
0
VERTEX
8
0
10
1.744000
20
0.000000
0
SEQEND
8
0
0
POLYLINE
8
0
66
1
40
0.008000
41
0.008000
0
VERTEX
8
0
10
1.719000
20
-0.199000
0
VERTEX
8
0
10
1.769000
20
-0.199000
0
VERTEX
8
0
10
1.769000
20
0.000000
0
VERTEX
8
0
10
1.719000
20
0.000000
0
VERTEX
8
0
10
1.719000
20
-0.199000
0
SEQEND
8
0
0
POLYLINE
8
0
66
1
40
0.008000
41
0.008000
0
VERTEX
8
0
10
1.744000
20
-0.199000
0
VERTEX
8
0
10
1.744000
20
-0.249000
0
SEQEND
8
0
0
TEXT
8
12632256
10
1.827000
20
-0.149000
40
0.048000
41
1.041667
50
90.000000
1
R8
0
POLYLINE
8
0
66
1
40
0.008000
41
0.008000
0
VERTEX
8
0
10
1.646000
20
0.052000
0
VERTEX
8
0
10
1.646000
20
0.002000
0
SEQEND
8
0
0
POLYLINE
8
0
66
1
40
0.008000
41
0.008000
0
VERTEX
8
0
10
1.621000
20
-0.197000
0
VERTEX
8
0
10
1.671000
20
-0.197000
0
VERTEX
8
0
10
1.671000
20
0.002000
0
VERTEX
8
0
10
1.621000
20
0.002000
0
VERTEX
8
0
10
1.621000
20
-0.197000
0
SEQEND
8
0
0
POLYLINE
8
0
66
1
40
0.008000
41
0.008000
0
VERTEX
8
0
10
1.646000
20
-0.197000
0
VERTEX
8
0
10
1.646000
20
-0.247000
0
SEQEND
8
0
0
TEXT
8
12632256
10
1.729000
20
-0.172000
40
0.048000
41
1.041667
50
90.000000
1
R15
0
POLYLINE
8
0
66
1
40
0.008000
41
0.008000
0
VERTEX
8
0
10
1.049000
20
0.046000
0
VERTEX
8
0
10
1.049000
20
-0.003000
0
SEQEND
8
0
0
POLYLINE
8
0
66
1
40
0.008000
41
0.008000
0
VERTEX
8
0
10
1.024000
20
-0.203000
0
VERTEX
8
0
10
1.074000
20
-0.203000
0
VERTEX
8
0
10
1.074000
20
-0.003000
0
VERTEX
8
0
10
1.024000
20
-0.003000
0
VERTEX
8
0
10
1.024000
20
-0.203000
0
SEQEND
8
0
0
POLYLINE
8
0
66
1
40
0.008000
41
0.008000
0
VERTEX
8
0
10
1.049000
20
-0.203000
0
VERTEX
8
0
10
1.049000
20
-0.253000
0
SEQEND
8
0
0
TEXT
8
12632256
10
1.143000
20
-0.184000
40
0.048000
41
1.041667
50
90.000000
1
R19
0
POLYLINE
8
0
66
1
40
0.008000
41
0.008000
0
VERTEX
8
0
10
1.435000
20
0.045000
0
VERTEX
8
0
10
1.435000
20
-0.004000
0
SEQEND
8
0
0
POLYLINE
8
0
66
1
40
0.008000
41
0.008000
0
VERTEX
8
0
10
1.410000
20
-0.204000
0
VERTEX
8
0
10
1.460000
20
-0.204000
0
VERTEX
8
0
10
1.460000
20
-0.004000
0
VERTEX
8
0
10
1.410000
20
-0.004000
0
VERTEX
8
0
10
1.410000
20
-0.204000
0
SEQEND
8
0
0
POLYLINE
8
0
66
1
40
0.008000
41
0.008000
0
VERTEX
8
0
10
1.435000
20
-0.204000
0
VERTEX
8
0
10
1.435000
20
-0.254000
0
SEQEND
8
0
0
TEXT
8
12632256
10
1.518000
20
-0.179000
40
0.048000
41
1.041667
50
90.000000
1
R22
0
POLYLINE
8
0
66
1
40
0.008000
41
0.008000
0
VERTEX
8
0
10
0.551000
20
-0.243000
0
VERTEX
8
0
10
0.551000
20
-0.193000
0
SEQEND
8
0
0
POLYLINE
8
0
66
1
40
0.008000
41
0.008000
0
VERTEX
8
0
10
0.526000
20
-0.193000
0
VERTEX
8
0
10
0.576000
20
-0.193000
0
VERTEX
8
0
10
0.576000
20
0.006000
0
VERTEX
8
0
10
0.526000
20
0.006000
0
VERTEX
8
0
10
0.526000
20
-0.193000
0
SEQEND
8
0
0
POLYLINE
8
0
66
1
40
0.008000
41
0.008000
0
VERTEX
8
0
10
0.551000
20
0.006000
0
VERTEX
8
0
10
0.551000
20
0.056000
0
SEQEND
8
0
0
TEXT
8
12632256
10
0.516000
20
-0.143000
40
0.048000
41
1.041667
50
90.000000
1
R2
0
POLYLINE
8
0
66
1
40
0.008000
41
0.008000
0
VERTEX
8
0
10
0.431000
20
-0.247000
0
VERTEX
8
0
10
0.431000
20
-0.197000
0
SEQEND
8
0
0
POLYLINE
8
0
66
1
40
0.008000
41
0.008000
0
VERTEX
8
0
10
0.406000
20
-0.197000
0
VERTEX
8
0
10
0.456000
20
-0.197000
0
VERTEX
8
0
10
0.456000
20
0.002000
0
VERTEX
8
0
10
0.406000
20
0.002000
0
VERTEX
8
0
10
0.406000
20
-0.197000
0
SEQEND
8
0
0
POLYLINE
8
0
66
1
40
0.008000
41
0.008000
0
VERTEX
8
0
10
0.431000
20
0.002000
0
VERTEX
8
0
10
0.431000
20
0.052000
0
SEQEND
8
0
0
TEXT
8
12632256
10
0.396000
20
-0.147000
40
0.048000
41
1.041667
50
90.000000
1
R3
0
POLYLINE
8
0
66
1
40
0.008000
41
0.008000
0
VERTEX
8
0
10
0.311000
20
-0.247000
0
VERTEX
8
0
10
0.311000
20
-0.197000
0
SEQEND
8
0
0
POLYLINE
8
0
66
1
40
0.008000
41
0.008000
0
VERTEX
8
0
10
0.286000
20
-0.197000
0
VERTEX
8
0
10
0.336000
20
-0.197000
0
VERTEX
8
0
10
0.336000
20
0.002000
0
VERTEX
8
0
10
0.286000
20
0.002000
0
VERTEX
8
0
10
0.286000
20
-0.197000
0
SEQEND
8
0
0
POLYLINE
8
0
66
1
40
0.008000
41
0.008000
0
VERTEX
8
0
10
0.311000
20
0.002000
0
VERTEX
8
0
10
0.311000
20
0.052000
0
SEQEND
8
0
0
TEXT
8
12632256
10
0.276000
20
-0.147000
40
0.048000
41
1.041667
50
90.000000
1
R5
0
POLYLINE
8
0
66
1
40
0.008000
41
0.008000
0
VERTEX
8
0
10
0.193000
20
-0.247000
0
VERTEX
8
0
10
0.193000
20
-0.197000
0
SEQEND
8
0
0
POLYLINE
8
0
66
1
40
0.008000
41
0.008000
0
VERTEX
8
0
10
0.168000
20
-0.197000
0
VERTEX
8
0
10
0.218000
20
-0.197000
0
VERTEX
8
0
10
0.218000
20
0.002000
0
VERTEX
8
0
10
0.168000
20
0.002000
0
VERTEX
8
0
10
0.168000
20
-0.197000
0
SEQEND
8
0
0
POLYLINE
8
0
66
1
40
0.008000
41
0.008000
0
VERTEX
8
0
10
0.193000
20
0.002000
0
VERTEX
8
0
10
0.193000
20
0.052000
0
SEQEND
8
0
0
TEXT
8
12632256
10
0.158000
20
-0.147000
40
0.048000
41
1.041667
50
90.000000
1
R6
0
POLYLINE
8
0
66
1
40
0.008000
41
0.008000
0
VERTEX
8
0
10
0.070000
20
-0.247000
0
VERTEX
8
0
10
0.070000
20
-0.197000
0
SEQEND
8
0
0
POLYLINE
8
0
66
1
40
0.008000
41
0.008000
0
VERTEX
8
0
10
0.045000
20
-0.197000
0
VERTEX
8
0
10
0.095000
20
-0.197000
0
VERTEX
8
0
10
0.095000
20
0.002000
0
VERTEX
8
0
10
0.045000
20
0.002000
0
VERTEX
8
0
10
0.045000
20
-0.197000
0
SEQEND
8
0
0
POLYLINE
8
0
66
1
40
0.008000
41
0.008000
0
VERTEX
8
0
10
0.070000
20
0.002000
0
VERTEX
8
0
10
0.070000
20
0.052000
0
SEQEND
8
0
0
TEXT
8
12632256
10
0.035000
20
-0.147000
40
0.048000
41
1.041667
50
90.000000
1
R9
0
POLYLINE
8
0
66
1
40
0.008000
41
0.008000
0
VERTEX
8
0
10
-0.049000
20
-0.247000
0
VERTEX
8
0
10
-0.049000
20
-0.197000
0
SEQEND
8
0
0
POLYLINE
8
0
66
1
40
0.008000
41
0.008000
0
VERTEX
8
0
10
-0.074000
20
-0.197000
0
VERTEX
8
0
10
-0.024000
20
-0.197000
0
VERTEX
8
0
10
-0.024000
20
0.002000
0
VERTEX
8
0
10
-0.074000
20
0.002000
0
VERTEX
8
0
10
-0.074000
20
-0.197000
0
SEQEND
8
0
0
POLYLINE
8
0
66
1
40
0.008000
41
0.008000
0
VERTEX
8
0
10
-0.049000
20
0.002000
0
VERTEX
8
0
10
-0.049000
20
0.052000
0
SEQEND
8
0
0
TEXT
8
12632256
10
-0.084000
20
-0.172000
40
0.048000
41
1.041667
50
90.000000
1
R26
0
POLYLINE
8
0
66
1
40
0.008000
41
0.008000
0
VERTEX
8
0
10
-0.167000
20
-0.247000
0
VERTEX
8
0
10
-0.167000
20
-0.197000
0
SEQEND
8
0
0
POLYLINE
8
0
66
1
40
0.008000
41
0.008000
0
VERTEX
8
0
10
-0.192000
20
-0.197000
0
VERTEX
8
0
10
-0.142000
20
-0.197000
0
VERTEX
8
0
10
-0.142000
20
0.002000
0
VERTEX
8
0
10
-0.192000
20
0.002000
0
VERTEX
8
0
10
-0.192000
20
-0.197000
0
SEQEND
8
0
0
POLYLINE
8
0
66
1
40
0.008000
41
0.008000
0
VERTEX
8
0
10
-0.167000
20
0.002000
0
VERTEX
8
0
10
-0.167000
20
0.052000
0
SEQEND
8
0
0
TEXT
8
12632256
10
-0.202000
20
-0.172000
40
0.048000
41
1.041667
50
90.000000
1
R27
0
POLYLINE
8
0
66
1
40
0.008000
41
0.008000
0
VERTEX
8
0
10
-0.284000
20
-0.247000
0
VERTEX
8
0
10
-0.284000
20
-0.197000
0
SEQEND
8
0
0
POLYLINE
8
0
66
1
40
0.008000
41
0.008000
0
VERTEX
8
0
10
-0.309000
20
-0.197000
0
VERTEX
8
0
10
-0.259000
20
-0.197000
0
VERTEX
8
0
10
-0.259000
20
0.002000
0
VERTEX
8
0
10
-0.309000
20
0.002000
0
VERTEX
8
0
10
-0.309000
20
-0.197000
0
SEQEND
8
0
0
POLYLINE
8
0
66
1
40
0.008000
41
0.008000
0
VERTEX
8
0
10
-0.284000
20
0.002000
0
VERTEX
8
0
10
-0.284000
20
0.052000
0
SEQEND
8
0
0
TEXT
8
12632256
10
-0.319000
20
-0.172000
40
0.048000
41
1.041667
50
90.000000
1
R28
0
POLYLINE
8
0
66
1
40
0.008000
41
0.008000
0
VERTEX
8
0
10
-0.792000
20
-0.931000
0
VERTEX
8
0
10
-0.542000
20
-0.931000
0
VERTEX
8
0
10
-0.542000
20
0.168000
0
VERTEX
8
0
10
-0.792000
20
0.168000
0
VERTEX
8
0
10
-0.792000
20
-0.931000
0
SEQEND
8
0
0
POLYLINE
8
0
66
1
40
0.008000
41
0.008000
0
VERTEX
8
0
10
-0.592000
20
0.168000
0
VERTEX
8
0
10
-0.592000
20
-0.931000
0
SEQEND
8
0
0
TEXT
8
12632256
10
-0.484000
20
-0.431000
40
0.048000
41
1.041667
50
90.000000
1
J3
0
POLYLINE
8
0
66
1
40
0.008000
41
0.008000
0
VERTEX
8
0
10
-1.288000
20
0.036000
0
VERTEX
8
0
10
-1.238000
20
0.036000
0
SEQEND
8
0
0
POLYLINE
8
0
66
1
40
0.008000
41
0.008000
0
VERTEX
8
0
10
-1.438000
20
0.036000
0
VERTEX
8
0
10
-1.388000
20
0.036000
0
SEQEND
8
0
0
POLYLINE
8
0
66
1
40
0.008000
41
0.008000
0
VERTEX
8
0
10
-1.338000
20
-0.013000
0
VERTEX
8
0
10
-1.328000
20
-0.012000
0
VERTEX
8
0
10
-1.318000
20
-0.009000
0
VERTEX
8
0
10
-1.310000
20
-0.005000
0
VERTEX
8
0
10
-1.302000
20
0.001000
0
VERTEX
8
0
10
-1.296000
20
0.008000
0
VERTEX
8
0
10
-1.292000
20
0.016000
0
VERTEX
8
0
10
-1.289000
20
0.026000
0
VERTEX
8
0
10
-1.288000
20
0.036000
0
SEQEND
8
0
0
POLYLINE
8
0
66
1
40
0.008000
41
0.008000
0
VERTEX
8
0
10
-1.338000
20
-0.013000
0
VERTEX
8
0
10
-1.348000
20
-0.012000
0
VERTEX
8
0
10
-1.358000
20
-0.009000
0
VERTEX
8
0
10
-1.367000
20
-0.005000
0
VERTEX
8
0
10
-1.374000
20
0.001000
0
VERTEX
8
0
10
-1.380000
20
0.008000
0
VERTEX
8
0
10
-1.384000
20
0.016000
0
VERTEX
8
0
10
-1.387000
20
0.026000
0
VERTEX
8
0
10
-1.388000
20
0.036000
0
SEQEND
8
0
0
POLYLINE
8
0
66
1
40
0.008000
41
0.008000
0
VERTEX
8
0
10
-1.438000
20
0.036000
0
VERTEX
8
0
10
-1.438000
20
-0.663000
0
VERTEX
8
0
10
-1.238000
20
-0.663000
0
VERTEX
8
0
10
-1.238000
20
0.036000
0
SEQEND
8
0
0
TEXT
8
12632256
10
-1.413000
20
0.046000
40
0.048000
41
1.041667
1
U20
0
POLYLINE
8
0
66
1
40
0.008000
41
0.008000
0
VERTEX
8
0
10
-1.653000
20
-0.360000
0
VERTEX
8
0
10
-1.653000
20
-0.310000
0
SEQEND
8
0
0
POLYLINE
8
0
66
1
40
0.008000
41
0.008000
0
VERTEX
8
0
10
-1.678000
20
-0.310000
0
VERTEX
8
0
10
-1.628000
20
-0.310000
0
VERTEX
8
0
10
-1.628000
20
-0.110000
0
VERTEX
8
0
10
-1.678000
20
-0.110000
0
VERTEX
8
0
10
-1.678000
20
-0.310000
0
SEQEND
8
0
0
POLYLINE
8
0
66
1
40
0.008000
41
0.008000
0
VERTEX
8
0
10
-1.653000
20
-0.110000
0
VERTEX
8
0
10
-1.653000
20
-0.060000
0
SEQEND
8
0
0
TEXT
8
12632256
10
-1.688000
20
-0.285000
40
0.048000
41
1.041667
50
90.000000
1
R30
0
POLYLINE
8
0
66
1
40
0.008000
41
0.008000
0
VERTEX
8
0
10
-1.500000
20
-0.792000
0
VERTEX
8
0
10
-1.450000
20
-0.792000
0
SEQEND
8
0
0
POLYLINE
8
0
66
1
40
0.008000
41
0.008000
0
VERTEX
8
0
10
-1.450000
20
-0.817000
0
VERTEX
8
0
10
-1.250000
20
-0.817000
0
VERTEX
8
0
10
-1.250000
20
-0.767000
0
VERTEX
8
0
10
-1.450000
20
-0.767000
0
VERTEX
8
0
10
-1.450000
20
-0.817000
0
SEQEND
8
0
0
POLYLINE
8
0
66
1
40
0.008000
41
0.008000
0
VERTEX
8
0
10
-1.250000
20
-0.792000
0
VERTEX
8
0
10
-1.200000
20
-0.792000
0
SEQEND
8
0
0
TEXT
8
12632256
10
-1.425000
20
-0.757000
40
0.048000
41
1.041667
1
R50
0
POLYLINE
8
0
66
1
40
0.008000
41
0.008000
0
VERTEX
8
0
10
-1.046000
20
-0.478000
0
VERTEX
8
0
10
-1.046000
20
-0.528000
0
SEQEND
8
0
0
POLYLINE
8
0
66
1
40
0.008000
41
0.008000
0
VERTEX
8
0
10
-1.071000
20
-0.728000
0
VERTEX
8
0
10
-1.021000
20
-0.728000
0
VERTEX
8
0
10
-1.021000
20
-0.528000
0
VERTEX
8
0
10
-1.071000
20
-0.528000
0
VERTEX
8
0
10
-1.071000
20
-0.728000
0
SEQEND
8
0
0
POLYLINE
8
0
66
1
40
0.008000
41
0.008000
0
VERTEX
8
0
10
-1.046000
20
-0.728000
0
VERTEX
8
0
10
-1.046000
20
-0.778000
0
SEQEND
8
0
0
TEXT
8
12632256
10
-0.963000
20
-0.703000
40
0.048000
41
1.041667
50
90.000000
1
R70
0
POLYLINE
8
0
66
1
40
0.008000
41
0.008000
0
VERTEX
8
0
10
-1.044000
20
0.090000
0
VERTEX
8
0
10
-1.044000
20
0.040000
0
SEQEND
8
0
0
POLYLINE
8
0
66
1
40
0.008000
41
0.008000
0
VERTEX
8
0
10
-1.069000
20
-0.159000
0
VERTEX
8
0
10
-1.019000
20
-0.159000
0
VERTEX
8
0
10
-1.019000
20
0.040000
0
VERTEX
8
0
10
-1.069000
20
0.040000
0
VERTEX
8
0
10
-1.069000
20
-0.159000
0
SEQEND
8
0
0
POLYLINE
8
0
66
1
40
0.008000
41
0.008000
0
VERTEX
8
0
10
-1.044000
20
-0.159000
0
VERTEX
8
0
10
-1.044000
20
-0.209000
0
SEQEND
8
0
0
TEXT
8
12632256
10
-0.961000
20
-0.134000
40
0.048000
41
1.041667
50
90.000000
1
R71
0
POLYLINE
8
0
66
1
40
0.008000
41
0.008000
0
VERTEX
8
0
10
1.301000
20
-0.254000
0
VERTEX
8
0
10
1.301000
20
-0.204000
0
SEQEND
8
0
0
POLYLINE
8
0
66
1
40
0.008000
41
0.008000
0
VERTEX
8
0
10
1.276000
20
-0.204000
0
VERTEX
8
0
10
1.326000
20
-0.204000
0
VERTEX
8
0
10
1.326000
20
-0.004000
0
VERTEX
8
0
10
1.276000
20
-0.004000
0
VERTEX
8
0
10
1.276000
20
-0.204000
0
SEQEND
8
0
0
POLYLINE
8
0
66
1
40
0.008000
41
0.008000
0
VERTEX
8
0
10
1.301000
20
-0.004000
0
VERTEX
8
0
10
1.301000
20
0.045000
0
SEQEND
8
0
0
TEXT
8
12632256
10
1.388000
20
-0.182000
40
0.048000
41
1.041667
50
90.000000
1
R41
0
POLYLINE
8
0
66
1
40
0.008000
41
0.008000
0
VERTEX
8
0
10
-0.895000
20
-0.475000
0
VERTEX
8
0
10
-0.895000
20
-0.525000
0
SEQEND
8
0
0
POLYLINE
8
0
66
1
40
0.008000
41
0.008000
0
VERTEX
8
0
10
-0.920000
20
-0.725000
0
VERTEX
8
0
10
-0.870000
20
-0.725000
0
VERTEX
8
0
10
-0.870000
20
-0.525000
0
VERTEX
8
0
10
-0.920000
20
-0.525000
0
VERTEX
8
0
10
-0.920000
20
-0.725000
0
SEQEND
8
0
0
POLYLINE
8
0
66
1
40
0.008000
41
0.008000
0
VERTEX
8
0
10
-0.895000
20
-0.725000
0
VERTEX
8
0
10
-0.895000
20
-0.775000
0
SEQEND
8
0
0
TEXT
8
12632256
10
-0.812000
20
-0.700000
40
0.048000
41
1.041667
50
90.000000
1
R40
0
CIRCLE
8
12632256
10
-1.694000
20
-0.625000
40
0.100000
0
POLYLINE
8
0
66
1
40
0.008000
41
0.008000
0
VERTEX
8
0
10
-1.644000
20
-0.550000
0
VERTEX
8
0
10
-1.644000
20
-0.600000
0
SEQEND
8
0
0
POLYLINE
8
0
66
1
40
0.008000
41
0.008000
0
VERTEX
8
0
10
-1.619000
20
-0.575000
0
VERTEX
8
0
10
-1.669000
20
-0.575000
0
SEQEND
8
0
0
TEXT
8
12632256
10
-1.536000
20
-0.700000
40
0.048000
41
1.041667
50
90.000000
1
C32
0
POLYLINE
8
0
66
1
40
0.008000
41
0.008000
0
VERTEX
8
0
10
-2.620000
20
-0.131000
0
VERTEX
8
0
10
-2.220000
20
-0.131000
0
SEQEND
8
0
0
POLYLINE
8
0
66
1
40
0.008000
41
0.008000
0
VERTEX
8
0
10
-2.620000
20
-1.131000
0
VERTEX
8
0
10
-2.220000
20
-1.131000
0
SEQEND
8
0
0
POLYLINE
8
0
66
1
40
0.008000
41
0.008000
0
VERTEX
8
0
10
-2.620000
20
-1.131000
0
VERTEX
8
0
10
-2.620000
20
-0.131000
0
SEQEND
8
0
0
POLYLINE
8
0
66
1
40
0.008000
41
0.008000
0
VERTEX
8
0
10
-2.220000
20
-0.131000
0
VERTEX
8
0
10
-2.220000
20
-1.131000
0
SEQEND
8
0
0
TEXT
8
12632256
10
-2.690000
20
-0.746000
40
0.048000
41
1.041667
50
90.000000
71
4
1
J15
0
POLYLINE
8
0
66
1
40
0.000000
41
0.000000
0
VERTEX
8
0
10
-0.481000
20
-1.549000
0
VERTEX
8
0
10
1.359000
20
-1.549000
0
VERTEX
8
0
10
1.359000
20
-1.188000
0
VERTEX
8
0
10
-0.481000
20
-1.188000
0
VERTEX
8
0
10
-0.481000
20
-1.549000
0
SEQEND
8
0
0
TEXT
8
12632256
10
-2.154000
20
-0.263000
40
0.064000
41
1.093750
50
180.000000
71
6
1
DAM
0
TEXT
8
12632256
10
-2.147000
20
-0.468000
40
0.064000
41
1.093750
50
180.000000
71
6
1
FEED
0
TEXT
8
12632256
10
-2.160000
20
-0.644000
40
0.064000
41
1.093750
50
180.000000
71
6
1
GND
0
TEXT
8
12632256
10
-2.181000
20
-0.860000
40
0.064000
41
1.093750
50
180.000000
71
6
1
O1
0
TEXT
8
12632256
10
-2.190000
20
-1.054000
40
0.064000
41
1.093750
50
180.000000
71
6
1
O2
0
POLYLINE
8
0
66
1
40
0.027000
41
0.027000
0
VERTEX
8
0
10
-2.617000
20
0.674000
0
VERTEX
8
0
10
-1.758000
20
0.674000
0
VERTEX
8
0
10
-1.758000
20
1.313000
0
VERTEX
8
0
10
-2.617000
20
1.313000
0
VERTEX
8
0
10
-2.617000
20
0.674000
0
SEQEND
8
0
0
TEXT
8
12632256
10
-2.430000
20
1.178000
40
0.112000
41
0.714286
1
Cabina
0
TEXT
8
12632256
10
-2.511000
20
1.023000
40
0.096000
41
0.625000
1
Bioseguridad
0
TEXT
8
12632256
10
-2.415000
20
0.752000
40
0.096000
41
1.145833
1
2017
0
TEXT
8
12632256
10
-2.263000
20
0.877000
40
0.096000
41
0.937500
1
B2
0
POLYLINE
8
0
66
1
40
0.006000
41
0.006000
0
VERTEX
8
0
10
-2.641000
20
0.291000
0
VERTEX
8
0
10
-2.691000
20
0.266000
0
SEQEND
8
0
0
POLYLINE
8
0
66
1
40
0.006000
41
0.006000
0
VERTEX
8
0
10
-2.641000
20
0.241000
0
VERTEX
8
0
10
-2.691000
20
0.266000
0
SEQEND
8
0
0
POLYLINE
8
0
66
1
40
0.006000
41
0.006000
0
VERTEX
8
0
10
-2.641000
20
0.565000
0
VERTEX
8
0
10
-2.641000
20
0.093000
0
VERTEX
8
0
10
-1.991000
20
0.093000
0
VERTEX
8
0
10
-1.991000
20
0.565000
0
VERTEX
8
0
10
-2.641000
20
0.565000
0
SEQEND
8
0
0
TEXT
8
12632256
10
-1.934000
20
0.279000
40
0.048000
41
1.041667
50
90.000000
1
J9
0
TEXT
8
12632256
10
-2.614000
20
-0.089000
40
0.064000
41
1.093750
1
DAMPER
0
ENDSEC
0
EOF

