  0
SECTION
  2
HEADER
  9
$ACADVER
  1
AC2.10
  0
ENDSEC
  0
SECTION
  2
TABLES
  0
TABLE
  2
LAYER
 70
     8
  0
LAYER
  2
0
 62
     7
 70
0
  6
CONTINUOUS
  0
LAYER
  2
1
 62
     1
 70
0
  6
CONTINUOUS
  0
LAYER
  2
2
 62
     2
 70
0
  6
CONTINUOUS
  0
LAYER
  2
3
 62
     3
 70
0
  6
CONTINUOUS
  0
LAYER
  2
4
 62
     4
 70
0
  6
CONTINUOUS
  0
LAYER
  2
5
 62
     5
 70
0
  6
CONTINUOUS
  0
LAYER
  2
6
 62
     6
 70
0
  6
CONTINUOUS
  0
LAYER
  2
7
 62
     7
 70
0
  6
CONTINUOUS
  0
ENDTAB
  0
TABLE
  2
STYLE
 70
     1
  0
STYLE
 70
     0
  2
STANDARD
  3
TXT
 40
0.00
 41
1.00
 42
1.00
 50
0.00
 71
     0
  0
ENDTAB
  0
ENDSEC
  0
SECTION
  2
BLOCKS
  0
BLOCK
  8
0
  2
EPAD
 70
0
 10
0.0
 20
0.0
  0
POLYLINE
  8
0
 66
1
 70
1
 40
0.5
 41
0.5
  0
VERTEX
  8
0
 10
-0.25
 20
0.0
 42
1.0
  0
VERTEX
  8
0
 10
0.25
 20
0.0
 42
1.0
  0
SEQEND
  8
0
  0
ENDBLK
  8
0
  0
BLOCK
  8
0
  2
RPAD
 70
0
 10
0.0
 20
0.0
  0
TRACE
  8
0
 10
-0.5
 20
-0.5
 11
-0.5
 21
0.5
 12
0.5
 22
-0.5
 13
0.5
 23
0.5
  0
ENDBLK
  8
0
  0
ENDSEC
0
SECTION
2
ENTITIES
0
POLYLINE
8
0
66
1
40
0.025000
41
0.025000
0
VERTEX
8
0
10
-2.093000
20
-2.066000
0
VERTEX
8
0
10
-2.093000
20
-1.911000
0
VERTEX
8
0
10
-2.039000
20
-1.857000
0
VERTEX
8
0
10
-2.039000
20
-1.644000
0
VERTEX
8
0
10
-2.168000
20
-1.515000
0
SEQEND
8
0
0
POLYLINE
8
0
66
1
40
0.025000
41
0.025000
0
VERTEX
8
0
10
-2.323000
20
-0.289000
0
VERTEX
8
0
10
-2.153000
20
-0.459000
0
VERTEX
8
0
10
-1.972000
20
-0.459000
0
SEQEND
8
0
0
POLYLINE
8
0
66
1
40
0.025000
41
0.025000
0
VERTEX
8
0
10
-1.937000
20
0.103000
0
VERTEX
8
0
10
-2.107000
20
0.273000
0
VERTEX
8
0
10
-2.107000
20
0.340000
0
SEQEND
8
0
0
POLYLINE
8
0
66
1
40
0.025000
41
0.025000
0
VERTEX
8
0
10
-1.620000
20
0.108000
0
VERTEX
8
0
10
-1.842000
20
0.330000
0
VERTEX
8
0
10
-2.003000
20
0.330000
0
SEQEND
8
0
0
POLYLINE
8
0
66
1
40
0.025000
41
0.025000
0
VERTEX
8
0
10
-2.253000
20
0.104000
0
VERTEX
8
0
10
-2.253000
20
0.299000
0
VERTEX
8
0
10
-2.319000
20
0.365000
0
VERTEX
8
0
10
-2.319000
20
0.368000
0
SEQEND
8
0
0
POLYLINE
8
0
66
1
40
0.025000
41
0.025000
0
VERTEX
8
0
10
-2.041000
20
-0.114000
0
VERTEX
8
0
10
-2.041000
20
-0.195000
0
VERTEX
8
0
10
-1.939000
20
-0.297000
0
VERTEX
8
0
10
-0.925000
20
-0.297000
0
VERTEX
8
0
10
-0.236000
20
-0.985000
0
VERTEX
8
0
10
0.495000
20
-0.985000
0
SEQEND
8
0
0
POLYLINE
8
0
66
1
40
0.025000
41
0.025000
0
VERTEX
8
0
10
-1.934000
20
-0.149000
0
VERTEX
8
0
10
-0.677000
20
-0.149000
0
VERTEX
8
0
10
0.001000
20
-0.828000
0
VERTEX
8
0
10
0.759000
20
-0.828000
0
VERTEX
8
0
10
0.790000
20
-0.797000
0
SEQEND
8
0
0
POLYLINE
8
0
66
1
40
0.025000
41
0.025000
0
VERTEX
8
0
10
-1.418000
20
0.363000
0
VERTEX
8
0
10
-0.840000
20
0.363000
0
VERTEX
8
0
10
-0.733000
20
0.255000
0
SEQEND
8
0
0
POLYLINE
8
0
66
1
40
0.025000
41
0.025000
0
VERTEX
8
0
10
-1.531000
20
0.361000
0
VERTEX
8
0
10
-1.414000
20
0.244000
0
VERTEX
8
0
10
-0.877000
20
0.244000
0
VERTEX
8
0
10
-0.862000
20
0.230000
0
SEQEND
8
0
0
POLYLINE
8
0
66
1
40
0.025000
41
0.025000
0
VERTEX
8
0
10
-1.365000
20
0.110000
0
VERTEX
8
0
10
-1.394000
20
0.110000
0
VERTEX
8
0
10
-1.629000
20
0.345000
0
SEQEND
8
0
0
POLYLINE
8
0
66
1
40
0.025000
41
0.025000
0
VERTEX
8
0
10
-1.511000
20
0.115000
0
VERTEX
8
0
10
-1.733000
20
0.337000
0
VERTEX
8
0
10
-1.751000
20
0.337000
0
SEQEND
8
0
0
POLYLINE
8
0
66
1
40
0.025000
41
0.025000
0
VERTEX
8
0
10
-1.098000
20
0.678000
0
VERTEX
8
0
10
-1.337000
20
0.917000
0
VERTEX
8
0
10
-1.510000
20
0.917000
0
SEQEND
8
0
0
POLYLINE
8
0
66
1
40
0.025000
41
0.025000
0
VERTEX
8
0
10
-0.810000
20
0.689000
0
VERTEX
8
0
10
-1.195000
20
1.074000
0
VERTEX
8
0
10
-1.346000
20
1.074000
0
SEQEND
8
0
0
POLYLINE
8
0
66
1
40
0.025000
41
0.025000
0
VERTEX
8
0
10
-1.013000
20
0.153000
0
VERTEX
8
0
10
-0.780000
20
0.153000
0
VERTEX
8
0
10
-0.403000
20
-0.222000
0
VERTEX
8
0
10
-0.403000
20
-0.228000
0
VERTEX
8
0
10
-0.395000
20
-0.236000
0
SEQEND
8
0
0
POLYLINE
8
0
66
1
40
0.025000
41
0.025000
0
VERTEX
8
0
10
0.104000
20
-1.665000
0
VERTEX
8
0
10
0.315000
20
-1.455000
0
VERTEX
8
0
10
0.315000
20
-1.345000
0
SEQEND
8
0
0
POLYLINE
8
0
66
1
40
0.025000
41
0.025000
0
VERTEX
8
0
10
-1.707000
20
-1.087000
0
VERTEX
8
0
10
-1.707000
20
-1.149000
0
VERTEX
8
0
10
-1.608000
20
-1.248000
0
VERTEX
8
0
10
-1.222000
20
-1.248000
0
VERTEX
8
0
10
-1.186000
20
-1.283000
0
SEQEND
8
0
0
POLYLINE
8
0
66
1
40
0.025000
41
0.025000
0
VERTEX
8
0
10
0.840000
20
-1.723000
0
VERTEX
8
0
10
0.166000
20
-1.723000
0
VERTEX
8
0
10
0.119000
20
-1.771000
0
SEQEND
8
0
0
POLYLINE
8
0
66
1
40
0.025000
41
0.025000
0
VERTEX
8
0
10
2.232000
20
-1.686000
0
VERTEX
8
0
10
2.113000
20
-1.566000
0
VERTEX
8
0
10
1.245000
20
-1.566000
0
VERTEX
8
0
10
1.190000
20
-1.512000
0
VERTEX
8
0
10
1.028000
20
-1.512000
0
VERTEX
8
0
10
0.914000
20
-1.397000
0
SEQEND
8
0
0
POLYLINE
8
0
66
1
40
0.050000
41
0.050000
0
VERTEX
8
0
10
-1.106000
20
1.302000
0
VERTEX
8
0
10
-1.106000
20
1.744000
0
VERTEX
8
0
10
-0.947000
20
1.903000
0
SEQEND
8
0
0
POLYLINE
8
0
66
1
40
0.050000
41
0.050000
0
VERTEX
8
0
10
-0.192000
20
1.304000
0
VERTEX
8
0
10
-0.192000
20
1.213000
0
VERTEX
8
0
10
-0.168000
20
1.190000
0
VERTEX
8
0
10
-0.013000
20
1.190000
0
VERTEX
8
0
10
0.063000
20
1.267000
0
VERTEX
8
0
10
0.063000
20
1.525000
0
VERTEX
8
0
10
-0.057000
20
1.646000
0
VERTEX
8
0
10
-0.141000
20
1.646000
0
VERTEX
8
0
10
-0.198000
20
1.703000
0
VERTEX
8
0
10
-0.198000
20
1.881000
0
VERTEX
8
0
10
-0.185000
20
1.895000
0
SEQEND
8
0
0
POLYLINE
8
0
66
1
40
0.050000
41
0.050000
0
VERTEX
8
0
10
0.549000
20
1.307000
0
VERTEX
8
0
10
0.549000
20
1.240000
0
VERTEX
8
0
10
0.573000
20
1.217000
0
VERTEX
8
0
10
0.750000
20
1.217000
0
VERTEX
8
0
10
0.841000
20
1.307000
0
VERTEX
8
0
10
0.841000
20
1.533000
0
VERTEX
8
0
10
0.721000
20
1.653000
0
VERTEX
8
0
10
0.611000
20
1.653000
0
VERTEX
8
0
10
0.540000
20
1.724000
0
VERTEX
8
0
10
0.540000
20
1.901000
0
SEQEND
8
0
0
POLYLINE
8
0
66
1
40
0.050000
41
0.050000
0
VERTEX
8
0
10
1.284000
20
1.301000
0
VERTEX
8
0
10
1.284000
20
1.244000
0
VERTEX
8
0
10
1.338000
20
1.190000
0
VERTEX
8
0
10
1.455000
20
1.190000
0
VERTEX
8
0
10
1.586000
20
1.321000
0
VERTEX
8
0
10
1.586000
20
1.560000
0
VERTEX
8
0
10
1.493000
20
1.653000
0
VERTEX
8
0
10
1.358000
20
1.653000
0
VERTEX
8
0
10
1.277000
20
1.734000
0
VERTEX
8
0
10
1.277000
20
1.911000
0
VERTEX
8
0
10
1.281000
20
1.915000
0
SEQEND
8
0
0
POLYLINE
8
0
66
1
40
0.050000
41
0.050000
0
VERTEX
8
0
10
2.039000
20
1.911000
0
VERTEX
8
0
10
2.039000
20
2.126000
0
VERTEX
8
0
10
2.093000
20
2.180000
0
VERTEX
8
0
10
2.579000
20
2.180000
0
VERTEX
8
0
10
2.616000
20
2.143000
0
VERTEX
8
0
10
2.616000
20
2.036000
0
VERTEX
8
0
10
2.613000
20
2.032000
0
SEQEND
8
0
0
POLYLINE
8
0
66
1
40
0.025000
41
0.025000
0
VERTEX
8
0
10
1.603000
20
-0.816000
0
VERTEX
8
0
10
1.161000
20
-0.816000
0
VERTEX
8
0
10
1.062000
20
-0.915000
0
VERTEX
8
0
10
0.770000
20
-0.915000
0
VERTEX
8
0
10
0.726000
20
-0.959000
0
SEQEND
8
0
0
POLYLINE
8
0
66
1
40
0.025000
41
0.025000
0
VERTEX
8
0
10
1.167000
20
-1.706000
0
VERTEX
8
0
10
1.047000
20
-1.586000
0
VERTEX
8
0
10
0.869000
20
-1.586000
0
VERTEX
8
0
10
0.801000
20
-1.518000
0
SEQEND
8
0
0
POLYLINE
8
0
66
1
40
0.025000
41
0.025000
0
VERTEX
8
0
10
2.270000
20
-0.881000
0
VERTEX
8
0
10
1.850000
20
-0.881000
0
VERTEX
8
0
10
1.691000
20
-1.040000
0
SEQEND
8
0
0
POLYLINE
8
0
66
1
40
0.025000
41
0.025000
0
VERTEX
8
0
10
0.448000
20
-1.111000
0
VERTEX
8
0
10
0.817000
20
-1.111000
0
VERTEX
8
0
10
0.948000
20
-0.980000
0
VERTEX
8
0
10
1.075000
20
-0.980000
0
VERTEX
8
0
10
1.191000
20
-0.865000
0
VERTEX
8
0
10
1.541000
20
-0.865000
0
VERTEX
8
0
10
1.599000
20
-0.923000
0
VERTEX
8
0
10
1.689000
20
-0.923000
0
VERTEX
8
0
10
1.824000
20
-0.788000
0
VERTEX
8
0
10
2.317000
20
-0.788000
0
VERTEX
8
0
10
2.365000
20
-0.836000
0
VERTEX
8
0
10
2.398000
20
-0.836000
0
VERTEX
8
0
10
2.498000
20
-0.736000
0
SEQEND
8
0
0
POLYLINE
8
0
66
1
40
0.025000
41
0.025000
0
VERTEX
8
0
10
2.837000
20
-1.791000
0
VERTEX
8
0
10
2.173000
20
-1.791000
0
VERTEX
8
0
10
2.165000
20
-1.783000
0
SEQEND
8
0
0
POLYLINE
8
0
66
1
40
0.025000
41
0.025000
0
VERTEX
8
0
10
2.119000
20
-0.419000
0
VERTEX
8
0
10
2.160000
20
-0.428000
0
VERTEX
8
0
10
2.160000
20
-0.664000
0
VERTEX
8
0
10
2.162000
20
-0.664000
0
SEQEND
8
0
0
POLYLINE
8
0
66
1
40
0.025000
41
0.025000
0
VERTEX
8
0
10
1.770000
20
-1.757000
0
VERTEX
8
0
10
1.830000
20
-1.757000
0
VERTEX
8
0
10
1.943000
20
-1.870000
0
VERTEX
8
0
10
2.003000
20
-1.930000
0
VERTEX
8
0
10
2.545000
20
-1.930000
0
SEQEND
8
0
0
POLYLINE
8
0
66
1
40
0.025000
41
0.025000
0
VERTEX
8
0
10
2.718000
20
-2.200000
0
VERTEX
8
0
10
1.910000
20
-2.200000
0
VERTEX
8
0
10
1.830000
20
-2.120000
0
VERTEX
8
0
10
1.830000
20
-1.941000
0
SEQEND
8
0
0
POLYLINE
8
0
66
1
40
0.025000
41
0.025000
0
VERTEX
8
0
10
2.092000
20
-1.168000
0
VERTEX
8
0
10
2.092000
20
-0.969000
0
VERTEX
8
0
10
2.090000
20
-0.967000
0
SEQEND
8
0
0
INSERT
8
0
2
EPAD
10
-2.093000
20
-2.066000
41
0.070000
42
0.070000
0
CIRCLE
8
0
10
-2.093000
20
-2.066000
40
0.025000
0
INSERT
8
0
2
EPAD
10
-2.168000
20
-1.515000
41
0.070000
42
0.070000
0
CIRCLE
8
0
10
-2.168000
20
-1.515000
40
0.025000
0
INSERT
8
0
2
EPAD
10
-2.323000
20
-0.289000
41
0.070000
42
0.070000
0
CIRCLE
8
0
10
-2.323000
20
-0.289000
40
0.025000
0
INSERT
8
0
2
EPAD
10
-1.972000
20
-0.459000
41
0.070000
42
0.070000
0
CIRCLE
8
0
10
-1.972000
20
-0.459000
40
0.025000
0
INSERT
8
0
2
EPAD
10
-1.937000
20
0.103000
41
0.070000
42
0.070000
0
CIRCLE
8
0
10
-1.937000
20
0.103000
40
0.025000
0
INSERT
8
0
2
EPAD
10
-2.107000
20
0.340000
41
0.070000
42
0.070000
0
CIRCLE
8
0
10
-2.107000
20
0.340000
40
0.025000
0
INSERT
8
0
2
EPAD
10
-1.620000
20
0.108000
41
0.070000
42
0.070000
0
CIRCLE
8
0
10
-1.620000
20
0.108000
40
0.025000
0
INSERT
8
0
2
EPAD
10
-2.003000
20
0.330000
41
0.070000
42
0.070000
0
CIRCLE
8
0
10
-2.003000
20
0.330000
40
0.025000
0
INSERT
8
0
2
EPAD
10
-2.253000
20
0.104000
41
0.070000
42
0.070000
0
CIRCLE
8
0
10
-2.253000
20
0.104000
40
0.025000
0
INSERT
8
0
2
EPAD
10
-2.319000
20
0.368000
41
0.070000
42
0.070000
0
CIRCLE
8
0
10
-2.319000
20
0.368000
40
0.025000
0
INSERT
8
0
2
EPAD
10
-2.041000
20
-0.114000
41
0.070000
42
0.070000
0
CIRCLE
8
0
10
-2.041000
20
-0.114000
40
0.025000
0
INSERT
8
0
2
EPAD
10
0.495000
20
-0.985000
41
0.070000
42
0.070000
0
CIRCLE
8
0
10
0.495000
20
-0.985000
40
0.025000
0
INSERT
8
0
2
EPAD
10
-1.934000
20
-0.149000
41
0.070000
42
0.070000
0
CIRCLE
8
0
10
-1.934000
20
-0.149000
40
0.025000
0
INSERT
8
0
2
EPAD
10
0.790000
20
-0.797000
41
0.070000
42
0.070000
0
CIRCLE
8
0
10
0.790000
20
-0.797000
40
0.025000
0
INSERT
8
0
2
EPAD
10
-1.418000
20
0.363000
41
0.070000
42
0.070000
0
CIRCLE
8
0
10
-1.418000
20
0.363000
40
0.025000
0
INSERT
8
0
2
EPAD
10
-0.733000
20
0.255000
41
0.070000
42
0.070000
0
CIRCLE
8
0
10
-0.733000
20
0.255000
40
0.025000
0
INSERT
8
0
2
EPAD
10
-1.531000
20
0.361000
41
0.070000
42
0.070000
0
CIRCLE
8
0
10
-1.531000
20
0.361000
40
0.025000
0
INSERT
8
0
2
EPAD
10
-0.862000
20
0.230000
41
0.070000
42
0.070000
0
CIRCLE
8
0
10
-0.862000
20
0.230000
40
0.025000
0
INSERT
8
0
2
EPAD
10
-1.365000
20
0.110000
41
0.070000
42
0.070000
0
CIRCLE
8
0
10
-1.365000
20
0.110000
40
0.025000
0
INSERT
8
0
2
EPAD
10
-1.629000
20
0.345000
41
0.070000
42
0.070000
0
CIRCLE
8
0
10
-1.629000
20
0.345000
40
0.025000
0
INSERT
8
0
2
EPAD
10
-1.511000
20
0.115000
41
0.070000
42
0.070000
0
CIRCLE
8
0
10
-1.511000
20
0.115000
40
0.025000
0
INSERT
8
0
2
EPAD
10
-1.751000
20
0.337000
41
0.070000
42
0.070000
0
CIRCLE
8
0
10
-1.751000
20
0.337000
40
0.025000
0
INSERT
8
0
2
EPAD
10
-1.098000
20
0.678000
41
0.070000
42
0.070000
0
CIRCLE
8
0
10
-1.098000
20
0.678000
40
0.025000
0
INSERT
8
0
2
EPAD
10
-1.510000
20
0.917000
41
0.070000
42
0.070000
0
CIRCLE
8
0
10
-1.510000
20
0.917000
40
0.025000
0
INSERT
8
0
2
EPAD
10
-0.810000
20
0.689000
41
0.070000
42
0.070000
0
CIRCLE
8
0
10
-0.810000
20
0.689000
40
0.025000
0
INSERT
8
0
2
EPAD
10
-1.346000
20
1.074000
41
0.070000
42
0.070000
0
CIRCLE
8
0
10
-1.346000
20
1.074000
40
0.025000
0
INSERT
8
0
2
EPAD
10
-1.013000
20
0.153000
41
0.070000
42
0.070000
0
CIRCLE
8
0
10
-1.013000
20
0.153000
40
0.025000
0
INSERT
8
0
2
EPAD
10
-0.395000
20
-0.236000
41
0.070000
42
0.070000
0
CIRCLE
8
0
10
-0.395000
20
-0.236000
40
0.025000
0
INSERT
8
0
2
EPAD
10
0.104000
20
-1.665000
41
0.070000
42
0.070000
0
CIRCLE
8
0
10
0.104000
20
-1.665000
40
0.025000
0
INSERT
8
0
2
EPAD
10
0.315000
20
-1.345000
41
0.070000
42
0.070000
0
CIRCLE
8
0
10
0.315000
20
-1.345000
40
0.025000
0
INSERT
8
0
2
EPAD
10
-1.707000
20
-1.087000
41
0.070000
42
0.070000
0
CIRCLE
8
0
10
-1.707000
20
-1.087000
40
0.025000
0
INSERT
8
0
2
EPAD
10
-1.186000
20
-1.283000
41
0.070000
42
0.070000
0
CIRCLE
8
0
10
-1.186000
20
-1.283000
40
0.025000
0
INSERT
8
0
2
EPAD
10
0.840000
20
-1.723000
41
0.070000
42
0.070000
0
CIRCLE
8
0
10
0.840000
20
-1.723000
40
0.025000
0
INSERT
8
0
2
EPAD
10
0.119000
20
-1.771000
41
0.070000
42
0.070000
0
CIRCLE
8
0
10
0.119000
20
-1.771000
40
0.025000
0
INSERT
8
0
2
EPAD
10
2.232000
20
-1.686000
41
0.070000
42
0.070000
0
CIRCLE
8
0
10
2.232000
20
-1.686000
40
0.025000
0
INSERT
8
0
2
EPAD
10
0.914000
20
-1.397000
41
0.070000
42
0.070000
0
CIRCLE
8
0
10
0.914000
20
-1.397000
40
0.025000
0
INSERT
8
0
2
EPAD
10
-1.106000
20
1.302000
41
0.070000
42
0.070000
0
CIRCLE
8
0
10
-1.106000
20
1.302000
40
0.025000
0
INSERT
8
0
2
EPAD
10
-0.947000
20
1.903000
41
0.070000
42
0.070000
0
CIRCLE
8
0
10
-0.947000
20
1.903000
40
0.025000
0
INSERT
8
0
2
EPAD
10
-0.192000
20
1.304000
41
0.070000
42
0.070000
0
CIRCLE
8
0
10
-0.192000
20
1.304000
40
0.025000
0
INSERT
8
0
2
EPAD
10
-0.185000
20
1.895000
41
0.070000
42
0.070000
0
CIRCLE
8
0
10
-0.185000
20
1.895000
40
0.025000
0
INSERT
8
0
2
EPAD
10
0.549000
20
1.307000
41
0.070000
42
0.070000
0
CIRCLE
8
0
10
0.549000
20
1.307000
40
0.025000
0
INSERT
8
0
2
EPAD
10
0.540000
20
1.901000
41
0.070000
42
0.070000
0
CIRCLE
8
0
10
0.540000
20
1.901000
40
0.025000
0
INSERT
8
0
2
EPAD
10
1.284000
20
1.301000
41
0.070000
42
0.070000
0
CIRCLE
8
0
10
1.284000
20
1.301000
40
0.025000
0
INSERT
8
0
2
EPAD
10
1.281000
20
1.915000
41
0.070000
42
0.070000
0
CIRCLE
8
0
10
1.281000
20
1.915000
40
0.025000
0
INSERT
8
0
2
EPAD
10
2.039000
20
1.911000
41
0.070000
42
0.070000
0
CIRCLE
8
0
10
2.039000
20
1.911000
40
0.025000
0
INSERT
8
0
2
EPAD
10
2.613000
20
2.032000
41
0.070000
42
0.070000
0
CIRCLE
8
0
10
2.613000
20
2.032000
40
0.025000
0
INSERT
8
0
2
EPAD
10
1.603000
20
-0.816000
41
0.070000
42
0.070000
0
CIRCLE
8
0
10
1.603000
20
-0.816000
40
0.025000
0
INSERT
8
0
2
EPAD
10
0.726000
20
-0.959000
41
0.070000
42
0.070000
0
CIRCLE
8
0
10
0.726000
20
-0.959000
40
0.025000
0
INSERT
8
0
2
EPAD
10
1.167000
20
-1.706000
41
0.070000
42
0.070000
0
CIRCLE
8
0
10
1.167000
20
-1.706000
40
0.025000
0
INSERT
8
0
2
EPAD
10
0.801000
20
-1.518000
41
0.070000
42
0.070000
0
CIRCLE
8
0
10
0.801000
20
-1.518000
40
0.025000
0
INSERT
8
0
2
EPAD
10
1.691000
20
-1.040000
41
0.070000
42
0.070000
0
CIRCLE
8
0
10
1.691000
20
-1.040000
40
0.025000
0
INSERT
8
0
2
EPAD
10
0.448000
20
-1.111000
41
0.070000
42
0.070000
0
CIRCLE
8
0
10
0.448000
20
-1.111000
40
0.025000
0
INSERT
8
0
2
EPAD
10
2.498000
20
-0.736000
41
0.070000
42
0.070000
0
CIRCLE
8
0
10
2.498000
20
-0.736000
40
0.025000
0
INSERT
8
0
2
EPAD
10
2.837000
20
-1.791000
41
0.070000
42
0.070000
0
CIRCLE
8
0
10
2.837000
20
-1.791000
40
0.025000
0
INSERT
8
0
2
EPAD
10
2.165000
20
-1.783000
41
0.070000
42
0.070000
0
CIRCLE
8
0
10
2.165000
20
-1.783000
40
0.025000
0
INSERT
8
0
2
EPAD
10
2.119000
20
-0.419000
41
0.070000
42
0.070000
0
CIRCLE
8
0
10
2.119000
20
-0.419000
40
0.025000
0
INSERT
8
0
2
EPAD
10
2.162000
20
-0.664000
41
0.070000
42
0.070000
0
CIRCLE
8
0
10
2.162000
20
-0.664000
40
0.025000
0
INSERT
8
0
2
EPAD
10
1.770000
20
-1.757000
41
0.070000
42
0.070000
0
CIRCLE
8
0
10
1.770000
20
-1.757000
40
0.025000
0
INSERT
8
0
2
EPAD
10
2.545000
20
-1.930000
41
0.070000
42
0.070000
0
CIRCLE
8
0
10
2.545000
20
-1.930000
40
0.025000
0
INSERT
8
0
2
EPAD
10
2.718000
20
-2.200000
41
0.070000
42
0.070000
0
CIRCLE
8
0
10
2.718000
20
-2.200000
40
0.025000
0
INSERT
8
0
2
EPAD
10
1.830000
20
-1.941000
41
0.070000
42
0.070000
0
CIRCLE
8
0
10
1.830000
20
-1.941000
40
0.025000
0
INSERT
8
0
2
EPAD
10
2.092000
20
-1.168000
41
0.070000
42
0.070000
0
CIRCLE
8
0
10
2.092000
20
-1.168000
40
0.025000
0
INSERT
8
0
2
EPAD
10
2.090000
20
-0.967000
41
0.070000
42
0.070000
0
CIRCLE
8
0
10
2.090000
20
-0.967000
40
0.025000
0
INSERT
8
0
2
EPAD
10
-2.845000
20
-2.169000
41
0.250000
42
0.250000
0
CIRCLE
8
0
10
-2.845000
20
-2.169000
40
0.030000
0
INSERT
8
0
2
EPAD
10
-2.636000
20
-1.708000
41
0.100000
42
0.100000
0
CIRCLE
8
0
10
-2.636000
20
-1.708000
40
0.025000
0
INSERT
8
0
2
EPAD
10
-2.836000
20
-1.908000
41
0.100000
42
0.100000
0
CIRCLE
8
0
10
-2.836000
20
-1.908000
40
0.025000
0
INSERT
8
0
2
EPAD
10
-2.836000
20
-1.708000
41
0.100000
42
0.100000
0
CIRCLE
8
0
10
-2.836000
20
-1.708000
40
0.025000
0
INSERT
8
0
2
EPAD
10
-2.636000
20
-1.908000
41
0.100000
42
0.100000
0
CIRCLE
8
0
10
-2.636000
20
-1.908000
40
0.025000
0
INSERT
8
0
2
RPAD
10
-2.636000
20
-0.566000
41
0.050000
42
0.050000
50
0.000000
0
CIRCLE
8
0
10
-2.636000
20
-0.566000
40
0.030000
0
INSERT
8
0
2
EPAD
10
-2.536000
20
-0.566000
41
0.050000
42
0.050000
0
CIRCLE
8
0
10
-2.536000
20
-0.566000
40
0.030000
0
INSERT
8
0
2
EPAD
10
-2.436000
20
-0.566000
41
0.050000
42
0.050000
0
CIRCLE
8
0
10
-2.436000
20
-0.566000
40
0.030000
0
INSERT
8
0
2
EPAD
10
-2.336000
20
-0.566000
41
0.050000
42
0.050000
0
CIRCLE
8
0
10
-2.336000
20
-0.566000
40
0.030000
0
INSERT
8
0
2
EPAD
10
-2.236000
20
-0.566000
41
0.050000
42
0.050000
0
CIRCLE
8
0
10
-2.236000
20
-0.566000
40
0.030000
0
INSERT
8
0
2
EPAD
10
-2.136000
20
-0.566000
41
0.050000
42
0.050000
0
CIRCLE
8
0
10
-2.136000
20
-0.566000
40
0.030000
0
INSERT
8
0
2
EPAD
10
-2.036000
20
-0.566000
41
0.050000
42
0.050000
0
CIRCLE
8
0
10
-2.036000
20
-0.566000
40
0.030000
0
INSERT
8
0
2
EPAD
10
-1.936000
20
-0.566000
41
0.050000
42
0.050000
0
CIRCLE
8
0
10
-1.936000
20
-0.566000
40
0.030000
0
INSERT
8
0
2
EPAD
10
-1.836000
20
-0.566000
41
0.050000
42
0.050000
0
CIRCLE
8
0
10
-1.836000
20
-0.566000
40
0.030000
0
INSERT
8
0
2
EPAD
10
-1.736000
20
-0.566000
41
0.050000
42
0.050000
0
CIRCLE
8
0
10
-1.736000
20
-0.566000
40
0.030000
0
INSERT
8
0
2
EPAD
10
-1.636000
20
-0.566000
41
0.050000
42
0.050000
0
CIRCLE
8
0
10
-1.636000
20
-0.566000
40
0.030000
0
INSERT
8
0
2
EPAD
10
-1.536000
20
-0.566000
41
0.050000
42
0.050000
0
CIRCLE
8
0
10
-1.536000
20
-0.566000
40
0.030000
0
INSERT
8
0
2
EPAD
10
-1.436000
20
-0.566000
41
0.050000
42
0.050000
0
CIRCLE
8
0
10
-1.436000
20
-0.566000
40
0.030000
0
INSERT
8
0
2
EPAD
10
-1.336000
20
-0.566000
41
0.050000
42
0.050000
0
CIRCLE
8
0
10
-1.336000
20
-0.566000
40
0.030000
0
INSERT
8
0
2
EPAD
10
-1.236000
20
-0.566000
41
0.050000
42
0.050000
0
CIRCLE
8
0
10
-1.236000
20
-0.566000
40
0.030000
0
INSERT
8
0
2
EPAD
10
-1.136000
20
-0.566000
41
0.050000
42
0.050000
0
CIRCLE
8
0
10
-1.136000
20
-0.566000
40
0.030000
0
INSERT
8
0
2
EPAD
10
-1.036000
20
-0.566000
41
0.050000
42
0.050000
0
CIRCLE
8
0
10
-1.036000
20
-0.566000
40
0.030000
0
INSERT
8
0
2
EPAD
10
-0.936000
20
-0.566000
41
0.050000
42
0.050000
0
CIRCLE
8
0
10
-0.936000
20
-0.566000
40
0.030000
0
INSERT
8
0
2
EPAD
10
-0.836000
20
-0.566000
41
0.050000
42
0.050000
0
CIRCLE
8
0
10
-0.836000
20
-0.566000
40
0.030000
0
INSERT
8
0
2
EPAD
10
-0.736000
20
-0.566000
41
0.050000
42
0.050000
0
CIRCLE
8
0
10
-0.736000
20
-0.566000
40
0.030000
0
INSERT
8
0
2
EPAD
10
-0.736000
20
0.033000
41
0.050000
42
0.050000
0
CIRCLE
8
0
10
-0.736000
20
0.033000
40
0.030000
0
INSERT
8
0
2
EPAD
10
-0.836000
20
0.033000
41
0.050000
42
0.050000
0
CIRCLE
8
0
10
-0.836000
20
0.033000
40
0.030000
0
INSERT
8
0
2
EPAD
10
-0.936000
20
0.033000
41
0.050000
42
0.050000
0
CIRCLE
8
0
10
-0.936000
20
0.033000
40
0.030000
0
INSERT
8
0
2
EPAD
10
-1.036000
20
0.033000
41
0.050000
42
0.050000
0
CIRCLE
8
0
10
-1.036000
20
0.033000
40
0.030000
0
INSERT
8
0
2
EPAD
10
-1.136000
20
0.033000
41
0.050000
42
0.050000
0
CIRCLE
8
0
10
-1.136000
20
0.033000
40
0.030000
0
INSERT
8
0
2
EPAD
10
-1.236000
20
0.033000
41
0.050000
42
0.050000
0
CIRCLE
8
0
10
-1.236000
20
0.033000
40
0.030000
0
INSERT
8
0
2
EPAD
10
-1.336000
20
0.033000
41
0.050000
42
0.050000
0
CIRCLE
8
0
10
-1.336000
20
0.033000
40
0.030000
0
INSERT
8
0
2
EPAD
10
-1.436000
20
0.033000
41
0.050000
42
0.050000
0
CIRCLE
8
0
10
-1.436000
20
0.033000
40
0.030000
0
INSERT
8
0
2
EPAD
10
-1.536000
20
0.033000
41
0.050000
42
0.050000
0
CIRCLE
8
0
10
-1.536000
20
0.033000
40
0.030000
0
INSERT
8
0
2
EPAD
10
-1.636000
20
0.033000
41
0.050000
42
0.050000
0
CIRCLE
8
0
10
-1.636000
20
0.033000
40
0.030000
0
INSERT
8
0
2
EPAD
10
-1.736000
20
0.033000
41
0.050000
42
0.050000
0
CIRCLE
8
0
10
-1.736000
20
0.033000
40
0.030000
0
INSERT
8
0
2
EPAD
10
-1.836000
20
0.033000
41
0.050000
42
0.050000
0
CIRCLE
8
0
10
-1.836000
20
0.033000
40
0.030000
0
INSERT
8
0
2
EPAD
10
-1.936000
20
0.033000
41
0.050000
42
0.050000
0
CIRCLE
8
0
10
-1.936000
20
0.033000
40
0.030000
0
INSERT
8
0
2
EPAD
10
-2.036000
20
0.033000
41
0.050000
42
0.050000
0
CIRCLE
8
0
10
-2.036000
20
0.033000
40
0.030000
0
INSERT
8
0
2
EPAD
10
-2.136000
20
0.033000
41
0.050000
42
0.050000
0
CIRCLE
8
0
10
-2.136000
20
0.033000
40
0.030000
0
INSERT
8
0
2
EPAD
10
-2.236000
20
0.033000
41
0.050000
42
0.050000
0
CIRCLE
8
0
10
-2.236000
20
0.033000
40
0.030000
0
INSERT
8
0
2
EPAD
10
-2.336000
20
0.033000
41
0.050000
42
0.050000
0
CIRCLE
8
0
10
-2.336000
20
0.033000
40
0.030000
0
INSERT
8
0
2
EPAD
10
-2.436000
20
0.033000
41
0.050000
42
0.050000
0
CIRCLE
8
0
10
-2.436000
20
0.033000
40
0.030000
0
INSERT
8
0
2
EPAD
10
-2.536000
20
0.033000
41
0.050000
42
0.050000
0
CIRCLE
8
0
10
-2.536000
20
0.033000
40
0.030000
0
INSERT
8
0
2
EPAD
10
-2.636000
20
0.033000
41
0.050000
42
0.050000
0
CIRCLE
8
0
10
-2.636000
20
0.033000
40
0.030000
0
INSERT
8
0
2
RPAD
10
0.095000
20
-1.232000
41
0.050000
42
0.050000
50
0.000000
0
CIRCLE
8
0
10
0.095000
20
-1.232000
40
0.030000
0
INSERT
8
0
2
EPAD
10
0.195000
20
-1.232000
41
0.050000
42
0.050000
0
CIRCLE
8
0
10
0.195000
20
-1.232000
40
0.030000
0
INSERT
8
0
2
EPAD
10
0.295000
20
-1.232000
41
0.050000
42
0.050000
0
CIRCLE
8
0
10
0.295000
20
-1.232000
40
0.030000
0
INSERT
8
0
2
EPAD
10
0.395000
20
-1.232000
41
0.050000
42
0.050000
0
CIRCLE
8
0
10
0.395000
20
-1.232000
40
0.030000
0
INSERT
8
0
2
EPAD
10
0.495000
20
-1.232000
41
0.050000
42
0.050000
0
CIRCLE
8
0
10
0.495000
20
-1.232000
40
0.030000
0
INSERT
8
0
2
EPAD
10
0.595000
20
-1.232000
41
0.050000
42
0.050000
0
CIRCLE
8
0
10
0.595000
20
-1.232000
40
0.030000
0
INSERT
8
0
2
EPAD
10
0.695000
20
-1.232000
41
0.050000
42
0.050000
0
CIRCLE
8
0
10
0.695000
20
-1.232000
40
0.030000
0
INSERT
8
0
2
EPAD
10
0.795000
20
-1.232000
41
0.050000
42
0.050000
0
CIRCLE
8
0
10
0.795000
20
-1.232000
40
0.030000
0
INSERT
8
0
2
EPAD
10
0.895000
20
-1.232000
41
0.050000
42
0.050000
0
CIRCLE
8
0
10
0.895000
20
-1.232000
40
0.030000
0
INSERT
8
0
2
EPAD
10
0.995000
20
-1.232000
41
0.050000
42
0.050000
0
CIRCLE
8
0
10
0.995000
20
-1.232000
40
0.030000
0
INSERT
8
0
2
EPAD
10
1.095000
20
-1.232000
41
0.050000
42
0.050000
0
CIRCLE
8
0
10
1.095000
20
-1.232000
40
0.030000
0
INSERT
8
0
2
EPAD
10
1.195000
20
-1.232000
41
0.050000
42
0.050000
0
CIRCLE
8
0
10
1.195000
20
-1.232000
40
0.030000
0
INSERT
8
0
2
EPAD
10
1.295000
20
-1.232000
41
0.050000
42
0.050000
0
CIRCLE
8
0
10
1.295000
20
-1.232000
40
0.030000
0
INSERT
8
0
2
EPAD
10
1.395000
20
-1.232000
41
0.050000
42
0.050000
0
CIRCLE
8
0
10
1.395000
20
-1.232000
40
0.030000
0
INSERT
8
0
2
EPAD
10
1.495000
20
-1.232000
41
0.050000
42
0.050000
0
CIRCLE
8
0
10
1.495000
20
-1.232000
40
0.030000
0
INSERT
8
0
2
EPAD
10
1.595000
20
-1.232000
41
0.050000
42
0.050000
0
CIRCLE
8
0
10
1.595000
20
-1.232000
40
0.030000
0
INSERT
8
0
2
EPAD
10
1.695000
20
-1.232000
41
0.050000
42
0.050000
0
CIRCLE
8
0
10
1.695000
20
-1.232000
40
0.030000
0
INSERT
8
0
2
EPAD
10
1.795000
20
-1.232000
41
0.050000
42
0.050000
0
CIRCLE
8
0
10
1.795000
20
-1.232000
40
0.030000
0
INSERT
8
0
2
EPAD
10
1.895000
20
-1.232000
41
0.050000
42
0.050000
0
CIRCLE
8
0
10
1.895000
20
-1.232000
40
0.030000
0
INSERT
8
0
2
EPAD
10
1.995000
20
-1.232000
41
0.050000
42
0.050000
0
CIRCLE
8
0
10
1.995000
20
-1.232000
40
0.030000
0
INSERT
8
0
2
EPAD
10
1.995000
20
-0.632000
41
0.050000
42
0.050000
0
CIRCLE
8
0
10
1.995000
20
-0.632000
40
0.030000
0
INSERT
8
0
2
EPAD
10
1.895000
20
-0.632000
41
0.050000
42
0.050000
0
CIRCLE
8
0
10
1.895000
20
-0.632000
40
0.030000
0
INSERT
8
0
2
EPAD
10
1.795000
20
-0.632000
41
0.050000
42
0.050000
0
CIRCLE
8
0
10
1.795000
20
-0.632000
40
0.030000
0
INSERT
8
0
2
EPAD
10
1.695000
20
-0.632000
41
0.050000
42
0.050000
0
CIRCLE
8
0
10
1.695000
20
-0.632000
40
0.030000
0
INSERT
8
0
2
EPAD
10
1.595000
20
-0.632000
41
0.050000
42
0.050000
0
CIRCLE
8
0
10
1.595000
20
-0.632000
40
0.030000
0
INSERT
8
0
2
EPAD
10
1.495000
20
-0.632000
41
0.050000
42
0.050000
0
CIRCLE
8
0
10
1.495000
20
-0.632000
40
0.030000
0
INSERT
8
0
2
EPAD
10
1.395000
20
-0.632000
41
0.050000
42
0.050000
0
CIRCLE
8
0
10
1.395000
20
-0.632000
40
0.030000
0
INSERT
8
0
2
EPAD
10
1.295000
20
-0.632000
41
0.050000
42
0.050000
0
CIRCLE
8
0
10
1.295000
20
-0.632000
40
0.030000
0
INSERT
8
0
2
EPAD
10
1.195000
20
-0.632000
41
0.050000
42
0.050000
0
CIRCLE
8
0
10
1.195000
20
-0.632000
40
0.030000
0
INSERT
8
0
2
EPAD
10
1.095000
20
-0.632000
41
0.050000
42
0.050000
0
CIRCLE
8
0
10
1.095000
20
-0.632000
40
0.030000
0
INSERT
8
0
2
EPAD
10
0.995000
20
-0.632000
41
0.050000
42
0.050000
0
CIRCLE
8
0
10
0.995000
20
-0.632000
40
0.030000
0
INSERT
8
0
2
EPAD
10
0.895000
20
-0.632000
41
0.050000
42
0.050000
0
CIRCLE
8
0
10
0.895000
20
-0.632000
40
0.030000
0
INSERT
8
0
2
EPAD
10
0.795000
20
-0.632000
41
0.050000
42
0.050000
0
CIRCLE
8
0
10
0.795000
20
-0.632000
40
0.030000
0
INSERT
8
0
2
EPAD
10
0.695000
20
-0.632000
41
0.050000
42
0.050000
0
CIRCLE
8
0
10
0.695000
20
-0.632000
40
0.030000
0
INSERT
8
0
2
EPAD
10
0.595000
20
-0.632000
41
0.050000
42
0.050000
0
CIRCLE
8
0
10
0.595000
20
-0.632000
40
0.030000
0
INSERT
8
0
2
EPAD
10
0.495000
20
-0.632000
41
0.050000
42
0.050000
0
CIRCLE
8
0
10
0.495000
20
-0.632000
40
0.030000
0
INSERT
8
0
2
EPAD
10
0.395000
20
-0.632000
41
0.050000
42
0.050000
0
CIRCLE
8
0
10
0.395000
20
-0.632000
40
0.030000
0
INSERT
8
0
2
EPAD
10
0.295000
20
-0.632000
41
0.050000
42
0.050000
0
CIRCLE
8
0
10
0.295000
20
-0.632000
40
0.030000
0
INSERT
8
0
2
EPAD
10
0.195000
20
-0.632000
41
0.050000
42
0.050000
0
CIRCLE
8
0
10
0.195000
20
-0.632000
40
0.030000
0
INSERT
8
0
2
EPAD
10
0.095000
20
-0.632000
41
0.050000
42
0.050000
0
CIRCLE
8
0
10
0.095000
20
-0.632000
40
0.030000
0
INSERT
8
0
2
EPAD
10
-2.751000
20
-1.259000
41
0.120000
42
0.120000
0
CIRCLE
8
0
10
-2.751000
20
-1.259000
40
0.030000
0
INSERT
8
0
2
EPAD
10
-2.751000
20
-1.459000
41
0.120000
42
0.120000
0
CIRCLE
8
0
10
-2.751000
20
-1.459000
40
0.030000
0
INSERT
8
0
2
EPAD
10
-2.207000
20
-1.685000
41
0.100000
42
0.100000
0
CIRCLE
8
0
10
-2.207000
20
-1.685000
40
0.025000
0
INSERT
8
0
2
EPAD
10
-2.207000
20
-1.885000
41
0.100000
42
0.100000
0
CIRCLE
8
0
10
-2.207000
20
-1.885000
40
0.025000
0
INSERT
8
0
2
EPAD
10
-2.101000
20
-2.188000
41
0.070000
42
0.070000
0
CIRCLE
8
0
10
-2.101000
20
-2.188000
40
0.025000
0
INSERT
8
0
2
EPAD
10
-2.501000
20
-2.188000
41
0.070000
42
0.070000
0
CIRCLE
8
0
10
-2.501000
20
-2.188000
40
0.025000
0
INSERT
8
0
2
RPAD
10
-1.390000
20
-2.161000
41
0.080000
42
0.080000
50
0.000000
0
CIRCLE
8
0
10
-1.390000
20
-2.161000
40
0.025000
0
INSERT
8
0
2
RPAD
10
-1.290000
20
-2.161000
41
0.080000
42
0.080000
50
0.000000
0
CIRCLE
8
0
10
-1.290000
20
-2.161000
40
0.025000
0
INSERT
8
0
2
RPAD
10
-1.190000
20
-2.161000
41
0.080000
42
0.080000
50
0.000000
0
CIRCLE
8
0
10
-1.190000
20
-2.161000
40
0.025000
0
INSERT
8
0
2
EPAD
10
-0.794000
20
-2.035000
41
0.150000
42
0.150000
0
CIRCLE
8
0
10
-0.794000
20
-2.035000
40
0.030000
0
INSERT
8
0
2
EPAD
10
-1.778000
20
-2.035000
41
0.150000
42
0.150000
0
CIRCLE
8
0
10
-1.778000
20
-2.035000
40
0.030000
0
INSERT
8
0
2
EPAD
10
-1.062000
20
-1.696000
41
0.090000
42
0.090000
0
CIRCLE
8
0
10
-1.062000
20
-1.696000
40
0.025000
0
INSERT
8
0
2
EPAD
10
-1.462000
20
-1.696000
41
0.090000
42
0.090000
0
CIRCLE
8
0
10
-1.462000
20
-1.696000
40
0.025000
0
INSERT
8
0
2
EPAD
10
-1.225000
20
-1.409000
41
0.080000
42
0.080000
0
CIRCLE
8
0
10
-1.225000
20
-1.409000
40
0.025000
0
INSERT
8
0
2
EPAD
10
-1.325000
20
-1.409000
41
0.080000
42
0.080000
0
CIRCLE
8
0
10
-1.325000
20
-1.409000
40
0.025000
0
INSERT
8
0
2
EPAD
10
-1.073000
20
-1.401000
41
0.070000
42
0.070000
0
CIRCLE
8
0
10
-1.073000
20
-1.401000
40
0.025000
0
INSERT
8
0
2
EPAD
10
-0.873000
20
-1.401000
41
0.070000
42
0.070000
0
CIRCLE
8
0
10
-0.873000
20
-1.401000
40
0.025000
0
INSERT
8
0
2
EPAD
10
-1.014000
20
-0.763000
41
0.070000
42
0.070000
0
CIRCLE
8
0
10
-1.014000
20
-0.763000
40
0.025000
0
INSERT
8
0
2
EPAD
10
-0.814000
20
-0.763000
41
0.070000
42
0.070000
0
CIRCLE
8
0
10
-0.814000
20
-0.763000
40
0.025000
0
INSERT
8
0
2
EPAD
10
-2.904000
20
-0.966000
41
0.070000
42
0.070000
0
CIRCLE
8
0
10
-2.904000
20
-0.966000
40
0.025000
0
INSERT
8
0
2
EPAD
10
-2.904000
20
-0.566000
41
0.070000
42
0.070000
0
CIRCLE
8
0
10
-2.904000
20
-0.566000
40
0.025000
0
INSERT
8
0
2
EPAD
10
-2.676000
20
-0.850000
41
0.080000
42
0.080000
0
CIRCLE
8
0
10
-2.676000
20
-0.850000
40
0.010000
0
INSERT
8
0
2
EPAD
10
-2.576000
20
-0.850000
41
0.080000
42
0.080000
0
CIRCLE
8
0
10
-2.576000
20
-0.850000
40
0.010000
0
INSERT
8
0
2
EPAD
10
-2.739000
20
-1.082000
41
0.070000
42
0.070000
0
CIRCLE
8
0
10
-2.739000
20
-1.082000
40
0.025000
0
INSERT
8
0
2
EPAD
10
-2.539000
20
-1.082000
41
0.070000
42
0.070000
0
CIRCLE
8
0
10
-2.539000
20
-1.082000
40
0.025000
0
INSERT
8
0
2
EPAD
10
-2.345000
20
-0.846000
41
0.080000
42
0.080000
0
CIRCLE
8
0
10
-2.345000
20
-0.846000
40
0.010000
0
INSERT
8
0
2
EPAD
10
-2.245000
20
-0.846000
41
0.080000
42
0.080000
0
CIRCLE
8
0
10
-2.245000
20
-0.846000
40
0.010000
0
INSERT
8
0
2
EPAD
10
-2.145000
20
-0.846000
41
0.080000
42
0.080000
0
CIRCLE
8
0
10
-2.145000
20
-0.846000
40
0.010000
0
INSERT
8
0
2
EPAD
10
-2.045000
20
-0.846000
41
0.080000
42
0.080000
0
CIRCLE
8
0
10
-2.045000
20
-0.846000
40
0.010000
0
INSERT
8
0
2
EPAD
10
-1.945000
20
-0.846000
41
0.080000
42
0.080000
0
CIRCLE
8
0
10
-1.945000
20
-0.846000
40
0.010000
0
INSERT
8
0
2
EPAD
10
-1.845000
20
-0.846000
41
0.080000
42
0.080000
0
CIRCLE
8
0
10
-1.845000
20
-0.846000
40
0.010000
0
INSERT
8
0
2
EPAD
10
-1.745000
20
-0.846000
41
0.080000
42
0.080000
0
CIRCLE
8
0
10
-1.745000
20
-0.846000
40
0.010000
0
INSERT
8
0
2
EPAD
10
-1.645000
20
-0.846000
41
0.080000
42
0.080000
0
CIRCLE
8
0
10
-1.645000
20
-0.846000
40
0.010000
0
INSERT
8
0
2
EPAD
10
-2.341000
20
-1.003000
41
0.070000
42
0.070000
0
CIRCLE
8
0
10
-2.341000
20
-1.003000
40
0.025000
0
INSERT
8
0
2
EPAD
10
-2.341000
20
-1.403000
41
0.070000
42
0.070000
0
CIRCLE
8
0
10
-2.341000
20
-1.403000
40
0.025000
0
INSERT
8
0
2
EPAD
10
-2.231000
20
-1.003000
41
0.070000
42
0.070000
0
CIRCLE
8
0
10
-2.231000
20
-1.003000
40
0.025000
0
INSERT
8
0
2
EPAD
10
-2.231000
20
-1.403000
41
0.070000
42
0.070000
0
CIRCLE
8
0
10
-2.231000
20
-1.403000
40
0.025000
0
INSERT
8
0
2
EPAD
10
-2.121000
20
-1.000000
41
0.070000
42
0.070000
0
CIRCLE
8
0
10
-2.121000
20
-1.000000
40
0.025000
0
INSERT
8
0
2
EPAD
10
-2.121000
20
-1.400000
41
0.070000
42
0.070000
0
CIRCLE
8
0
10
-2.121000
20
-1.400000
40
0.025000
0
INSERT
8
0
2
EPAD
10
-2.014000
20
-1.003000
41
0.070000
42
0.070000
0
CIRCLE
8
0
10
-2.014000
20
-1.003000
40
0.025000
0
INSERT
8
0
2
EPAD
10
-2.014000
20
-1.403000
41
0.070000
42
0.070000
0
CIRCLE
8
0
10
-2.014000
20
-1.403000
40
0.025000
0
INSERT
8
0
2
EPAD
10
-0.807000
20
0.550000
41
0.080000
42
0.080000
0
CIRCLE
8
0
10
-0.807000
20
0.550000
40
0.010000
0
INSERT
8
0
2
EPAD
10
-0.907000
20
0.550000
41
0.080000
42
0.080000
0
CIRCLE
8
0
10
-0.907000
20
0.550000
40
0.010000
0
INSERT
8
0
2
EPAD
10
-1.007000
20
0.550000
41
0.080000
42
0.080000
0
CIRCLE
8
0
10
-1.007000
20
0.550000
40
0.010000
0
INSERT
8
0
2
EPAD
10
-1.107000
20
0.550000
41
0.080000
42
0.080000
0
CIRCLE
8
0
10
-1.107000
20
0.550000
40
0.010000
0
INSERT
8
0
2
EPAD
10
-1.207000
20
0.550000
41
0.080000
42
0.080000
0
CIRCLE
8
0
10
-1.207000
20
0.550000
40
0.010000
0
INSERT
8
0
2
EPAD
10
-1.307000
20
0.550000
41
0.080000
42
0.080000
0
CIRCLE
8
0
10
-1.307000
20
0.550000
40
0.010000
0
INSERT
8
0
2
EPAD
10
-1.407000
20
0.550000
41
0.080000
42
0.080000
0
CIRCLE
8
0
10
-1.407000
20
0.550000
40
0.010000
0
INSERT
8
0
2
EPAD
10
-1.507000
20
0.550000
41
0.080000
42
0.080000
0
CIRCLE
8
0
10
-1.507000
20
0.550000
40
0.010000
0
INSERT
8
0
2
EPAD
10
-1.607000
20
0.550000
41
0.080000
42
0.080000
0
CIRCLE
8
0
10
-1.607000
20
0.550000
40
0.010000
0
INSERT
8
0
2
EPAD
10
-1.707000
20
0.550000
41
0.080000
42
0.080000
0
CIRCLE
8
0
10
-1.707000
20
0.550000
40
0.010000
0
INSERT
8
0
2
EPAD
10
-1.807000
20
0.550000
41
0.080000
42
0.080000
0
CIRCLE
8
0
10
-1.807000
20
0.550000
40
0.010000
0
INSERT
8
0
2
EPAD
10
-1.907000
20
0.550000
41
0.080000
42
0.080000
0
CIRCLE
8
0
10
-1.907000
20
0.550000
40
0.010000
0
INSERT
8
0
2
EPAD
10
-2.007000
20
0.550000
41
0.080000
42
0.080000
0
CIRCLE
8
0
10
-2.007000
20
0.550000
40
0.010000
0
INSERT
8
0
2
EPAD
10
-2.107000
20
0.550000
41
0.080000
42
0.080000
0
CIRCLE
8
0
10
-2.107000
20
0.550000
40
0.010000
0
INSERT
8
0
2
EPAD
10
-2.207000
20
0.550000
41
0.080000
42
0.080000
0
CIRCLE
8
0
10
-2.207000
20
0.550000
40
0.010000
0
INSERT
8
0
2
EPAD
10
-2.307000
20
0.550000
41
0.080000
42
0.080000
0
CIRCLE
8
0
10
-2.307000
20
0.550000
40
0.010000
0
INSERT
8
0
2
EPAD
10
-2.407000
20
0.550000
41
0.080000
42
0.080000
0
CIRCLE
8
0
10
-2.407000
20
0.550000
40
0.010000
0
INSERT
8
0
2
EPAD
10
-2.507000
20
0.550000
41
0.080000
42
0.080000
0
CIRCLE
8
0
10
-2.507000
20
0.550000
40
0.010000
0
INSERT
8
0
2
EPAD
10
-2.607000
20
0.550000
41
0.080000
42
0.080000
0
CIRCLE
8
0
10
-2.607000
20
0.550000
40
0.010000
0
INSERT
8
0
2
EPAD
10
-2.707000
20
0.550000
41
0.080000
42
0.080000
0
CIRCLE
8
0
10
-2.707000
20
0.550000
40
0.010000
0
INSERT
8
0
2
EPAD
10
-2.518000
20
-0.275000
41
0.070000
42
0.070000
0
CIRCLE
8
0
10
-2.518000
20
-0.275000
40
0.025000
0
INSERT
8
0
2
EPAD
10
-2.918000
20
-0.275000
41
0.070000
42
0.070000
0
CIRCLE
8
0
10
-2.918000
20
-0.275000
40
0.025000
0
INSERT
8
0
2
EPAD
10
-1.428000
20
-0.775000
41
0.080000
42
0.080000
0
CIRCLE
8
0
10
-1.428000
20
-0.775000
40
0.025000
0
INSERT
8
0
2
EPAD
10
-1.228000
20
-0.775000
41
0.080000
42
0.080000
0
CIRCLE
8
0
10
-1.228000
20
-0.775000
40
0.025000
0
INSERT
8
0
2
EPAD
10
-1.443000
20
-0.972000
41
0.070000
42
0.070000
0
CIRCLE
8
0
10
-1.443000
20
-0.972000
40
0.025000
0
INSERT
8
0
2
EPAD
10
-1.443000
20
-1.072000
41
0.070000
42
0.070000
0
CIRCLE
8
0
10
-1.443000
20
-1.072000
40
0.025000
0
INSERT
8
0
2
EPAD
10
-1.231000
20
-0.976000
41
0.070000
42
0.070000
0
CIRCLE
8
0
10
-1.231000
20
-0.976000
40
0.025000
0
INSERT
8
0
2
EPAD
10
-1.231000
20
-1.076000
41
0.070000
42
0.070000
0
CIRCLE
8
0
10
-1.231000
20
-1.076000
40
0.025000
0
INSERT
8
0
2
EPAD
10
-0.432000
20
-2.043000
41
0.120000
42
0.120000
0
CIRCLE
8
0
10
-0.432000
20
-2.043000
40
0.030000
0
INSERT
8
0
2
EPAD
10
-0.232000
20
-2.043000
41
0.120000
42
0.120000
0
CIRCLE
8
0
10
-0.232000
20
-2.043000
40
0.030000
0
INSERT
8
0
2
EPAD
10
-0.032000
20
-2.043000
41
0.120000
42
0.120000
0
CIRCLE
8
0
10
-0.032000
20
-2.043000
40
0.030000
0
INSERT
8
0
2
EPAD
10
0.167000
20
-2.043000
41
0.120000
42
0.120000
0
CIRCLE
8
0
10
0.167000
20
-2.043000
40
0.030000
0
INSERT
8
0
2
EPAD
10
0.367000
20
-2.043000
41
0.120000
42
0.120000
0
CIRCLE
8
0
10
0.367000
20
-2.043000
40
0.030000
0
INSERT
8
0
2
EPAD
10
0.638000
20
-2.043000
41
0.120000
42
0.120000
0
CIRCLE
8
0
10
0.638000
20
-2.043000
40
0.030000
0
INSERT
8
0
2
EPAD
10
0.838000
20
-2.043000
41
0.120000
42
0.120000
0
CIRCLE
8
0
10
0.838000
20
-2.043000
40
0.030000
0
INSERT
8
0
2
EPAD
10
1.038000
20
-2.043000
41
0.120000
42
0.120000
0
CIRCLE
8
0
10
1.038000
20
-2.043000
40
0.030000
0
INSERT
8
0
2
EPAD
10
1.306000
20
-2.047000
41
0.120000
42
0.120000
0
CIRCLE
8
0
10
1.306000
20
-2.047000
40
0.030000
0
INSERT
8
0
2
EPAD
10
1.506000
20
-2.047000
41
0.120000
42
0.120000
0
CIRCLE
8
0
10
1.506000
20
-2.047000
40
0.030000
0
INSERT
8
0
2
EPAD
10
1.706000
20
-2.047000
41
0.120000
42
0.120000
0
CIRCLE
8
0
10
1.706000
20
-2.047000
40
0.030000
0
INSERT
8
0
2
EPAD
10
0.562000
20
-0.114000
41
0.070000
42
0.070000
0
CIRCLE
8
0
10
0.562000
20
-0.114000
40
0.025000
0
INSERT
8
0
2
EPAD
10
0.562000
20
-0.514000
41
0.070000
42
0.070000
0
CIRCLE
8
0
10
0.562000
20
-0.514000
40
0.025000
0
INSERT
8
0
2
EPAD
10
0.453000
20
-0.114000
41
0.070000
42
0.070000
0
CIRCLE
8
0
10
0.453000
20
-0.114000
40
0.025000
0
INSERT
8
0
2
EPAD
10
0.453000
20
-0.514000
41
0.070000
42
0.070000
0
CIRCLE
8
0
10
0.453000
20
-0.514000
40
0.025000
0
INSERT
8
0
2
EPAD
10
0.335000
20
-0.114000
41
0.070000
42
0.070000
0
CIRCLE
8
0
10
0.335000
20
-0.114000
40
0.025000
0
INSERT
8
0
2
EPAD
10
0.335000
20
-0.514000
41
0.070000
42
0.070000
0
CIRCLE
8
0
10
0.335000
20
-0.514000
40
0.025000
0
INSERT
8
0
2
EPAD
10
0.229000
20
-0.114000
41
0.070000
42
0.070000
0
CIRCLE
8
0
10
0.229000
20
-0.114000
40
0.025000
0
INSERT
8
0
2
EPAD
10
0.229000
20
-0.514000
41
0.070000
42
0.070000
0
CIRCLE
8
0
10
0.229000
20
-0.514000
40
0.025000
0
INSERT
8
0
2
EPAD
10
0.124000
20
-0.114000
41
0.070000
42
0.070000
0
CIRCLE
8
0
10
0.124000
20
-0.114000
40
0.025000
0
INSERT
8
0
2
EPAD
10
0.124000
20
-0.514000
41
0.070000
42
0.070000
0
CIRCLE
8
0
10
0.124000
20
-0.514000
40
0.025000
0
INSERT
8
0
2
RPAD
10
2.301000
20
0.345000
41
0.050000
42
0.050000
50
0.000000
0
CIRCLE
8
0
10
2.301000
20
0.345000
40
0.030000
0
INSERT
8
0
2
EPAD
10
2.401000
20
0.345000
41
0.050000
42
0.050000
0
CIRCLE
8
0
10
2.401000
20
0.345000
40
0.030000
0
INSERT
8
0
2
EPAD
10
2.501000
20
0.345000
41
0.050000
42
0.050000
0
CIRCLE
8
0
10
2.501000
20
0.345000
40
0.030000
0
INSERT
8
0
2
EPAD
10
2.501000
20
0.645000
41
0.050000
42
0.050000
0
CIRCLE
8
0
10
2.501000
20
0.645000
40
0.030000
0
INSERT
8
0
2
EPAD
10
2.401000
20
0.645000
41
0.050000
42
0.050000
0
CIRCLE
8
0
10
2.401000
20
0.645000
40
0.030000
0
INSERT
8
0
2
EPAD
10
2.301000
20
0.645000
41
0.050000
42
0.050000
0
CIRCLE
8
0
10
2.301000
20
0.645000
40
0.030000
0
INSERT
8
0
2
RPAD
10
1.566000
20
0.345000
41
0.050000
42
0.050000
50
0.000000
0
CIRCLE
8
0
10
1.566000
20
0.345000
40
0.030000
0
INSERT
8
0
2
EPAD
10
1.666000
20
0.345000
41
0.050000
42
0.050000
0
CIRCLE
8
0
10
1.666000
20
0.345000
40
0.030000
0
INSERT
8
0
2
EPAD
10
1.766000
20
0.345000
41
0.050000
42
0.050000
0
CIRCLE
8
0
10
1.766000
20
0.345000
40
0.030000
0
INSERT
8
0
2
EPAD
10
1.766000
20
0.645000
41
0.050000
42
0.050000
0
CIRCLE
8
0
10
1.766000
20
0.645000
40
0.030000
0
INSERT
8
0
2
EPAD
10
1.666000
20
0.645000
41
0.050000
42
0.050000
0
CIRCLE
8
0
10
1.666000
20
0.645000
40
0.030000
0
INSERT
8
0
2
EPAD
10
1.566000
20
0.645000
41
0.050000
42
0.050000
0
CIRCLE
8
0
10
1.566000
20
0.645000
40
0.030000
0
INSERT
8
0
2
RPAD
10
0.966000
20
0.345000
41
0.050000
42
0.050000
50
0.000000
0
CIRCLE
8
0
10
0.966000
20
0.345000
40
0.030000
0
INSERT
8
0
2
EPAD
10
1.066000
20
0.345000
41
0.050000
42
0.050000
0
CIRCLE
8
0
10
1.066000
20
0.345000
40
0.030000
0
INSERT
8
0
2
EPAD
10
1.166000
20
0.345000
41
0.050000
42
0.050000
0
CIRCLE
8
0
10
1.166000
20
0.345000
40
0.030000
0
INSERT
8
0
2
EPAD
10
1.166000
20
0.645000
41
0.050000
42
0.050000
0
CIRCLE
8
0
10
1.166000
20
0.645000
40
0.030000
0
INSERT
8
0
2
EPAD
10
1.066000
20
0.645000
41
0.050000
42
0.050000
0
CIRCLE
8
0
10
1.066000
20
0.645000
40
0.030000
0
INSERT
8
0
2
EPAD
10
0.966000
20
0.645000
41
0.050000
42
0.050000
0
CIRCLE
8
0
10
0.966000
20
0.645000
40
0.030000
0
INSERT
8
0
2
RPAD
10
0.353000
20
0.345000
41
0.050000
42
0.050000
50
0.000000
0
CIRCLE
8
0
10
0.353000
20
0.345000
40
0.030000
0
INSERT
8
0
2
EPAD
10
0.453000
20
0.345000
41
0.050000
42
0.050000
0
CIRCLE
8
0
10
0.453000
20
0.345000
40
0.030000
0
INSERT
8
0
2
EPAD
10
0.553000
20
0.345000
41
0.050000
42
0.050000
0
CIRCLE
8
0
10
0.553000
20
0.345000
40
0.030000
0
INSERT
8
0
2
EPAD
10
0.553000
20
0.645000
41
0.050000
42
0.050000
0
CIRCLE
8
0
10
0.553000
20
0.645000
40
0.030000
0
INSERT
8
0
2
EPAD
10
0.453000
20
0.645000
41
0.050000
42
0.050000
0
CIRCLE
8
0
10
0.453000
20
0.645000
40
0.030000
0
INSERT
8
0
2
EPAD
10
0.353000
20
0.645000
41
0.050000
42
0.050000
0
CIRCLE
8
0
10
0.353000
20
0.645000
40
0.030000
0
INSERT
8
0
2
RPAD
10
-0.232000
20
0.345000
41
0.050000
42
0.050000
50
0.000000
0
CIRCLE
8
0
10
-0.232000
20
0.345000
40
0.030000
0
INSERT
8
0
2
EPAD
10
-0.132000
20
0.345000
41
0.050000
42
0.050000
0
CIRCLE
8
0
10
-0.132000
20
0.345000
40
0.030000
0
INSERT
8
0
2
EPAD
10
-0.032000
20
0.345000
41
0.050000
42
0.050000
0
CIRCLE
8
0
10
-0.032000
20
0.345000
40
0.030000
0
INSERT
8
0
2
EPAD
10
-0.032000
20
0.645000
41
0.050000
42
0.050000
0
CIRCLE
8
0
10
-0.032000
20
0.645000
40
0.030000
0
INSERT
8
0
2
EPAD
10
-0.132000
20
0.645000
41
0.050000
42
0.050000
0
CIRCLE
8
0
10
-0.132000
20
0.645000
40
0.030000
0
INSERT
8
0
2
EPAD
10
-0.232000
20
0.645000
41
0.050000
42
0.050000
0
CIRCLE
8
0
10
-0.232000
20
0.645000
40
0.030000
0
INSERT
8
0
2
EPAD
10
2.657000
20
0.695000
41
0.070000
42
0.070000
0
CIRCLE
8
0
10
2.657000
20
0.695000
40
0.025000
0
INSERT
8
0
2
EPAD
10
2.657000
20
0.295000
41
0.070000
42
0.070000
0
CIRCLE
8
0
10
2.657000
20
0.295000
40
0.025000
0
INSERT
8
0
2
RPAD
10
2.516000
20
1.113000
41
0.080000
42
0.080000
50
180.000000
0
CIRCLE
8
0
10
2.516000
20
1.113000
40
0.025000
0
INSERT
8
0
2
RPAD
10
2.416000
20
1.113000
41
0.080000
42
0.080000
50
180.000000
0
CIRCLE
8
0
10
2.416000
20
1.113000
40
0.025000
0
INSERT
8
0
2
RPAD
10
2.316000
20
1.113000
41
0.080000
42
0.080000
50
180.000000
0
CIRCLE
8
0
10
2.316000
20
1.113000
40
0.025000
0
INSERT
8
0
2
EPAD
10
2.116000
20
1.488000
41
0.080000
42
0.080000
0
CIRCLE
8
0
10
2.116000
20
1.488000
40
0.025000
0
INSERT
8
0
2
EPAD
10
2.716000
20
1.488000
41
0.080000
42
0.080000
0
CIRCLE
8
0
10
2.716000
20
1.488000
40
0.025000
0
INSERT
8
0
2
EPAD
10
2.666000
20
1.314000
41
0.070000
42
0.070000
0
CIRCLE
8
0
10
2.666000
20
1.314000
40
0.025000
0
INSERT
8
0
2
EPAD
10
2.166000
20
1.314000
41
0.070000
42
0.070000
0
CIRCLE
8
0
10
2.166000
20
1.314000
40
0.025000
0
INSERT
8
0
2
EPAD
10
2.216000
20
1.911000
41
0.120000
42
0.120000
0
CIRCLE
8
0
10
2.216000
20
1.911000
40
0.030000
0
INSERT
8
0
2
EPAD
10
2.416000
20
1.911000
41
0.120000
42
0.120000
0
CIRCLE
8
0
10
2.416000
20
1.911000
40
0.030000
0
INSERT
8
0
2
EPAD
10
2.616000
20
1.911000
41
0.120000
42
0.120000
0
CIRCLE
8
0
10
2.616000
20
1.911000
40
0.030000
0
INSERT
8
0
2
EPAD
10
-0.117000
20
-1.240000
41
0.070000
42
0.070000
0
CIRCLE
8
0
10
-0.117000
20
-1.240000
40
0.025000
0
INSERT
8
0
2
EPAD
10
-0.117000
20
-0.840000
41
0.070000
42
0.070000
0
CIRCLE
8
0
10
-0.117000
20
-0.840000
40
0.025000
0
INSERT
8
0
2
EPAD
10
1.612000
20
-1.683000
41
0.070000
42
0.070000
0
CIRCLE
8
0
10
1.612000
20
-1.683000
40
0.025000
0
INSERT
8
0
2
EPAD
10
1.612000
20
-1.483000
41
0.070000
42
0.070000
0
CIRCLE
8
0
10
1.612000
20
-1.483000
40
0.025000
0
INSERT
8
0
2
EPAD
10
-0.380000
20
-1.625000
41
0.080000
42
0.080000
0
CIRCLE
8
0
10
-0.380000
20
-1.625000
40
0.010000
0
INSERT
8
0
2
EPAD
10
-0.280000
20
-1.625000
41
0.080000
42
0.080000
0
CIRCLE
8
0
10
-0.280000
20
-1.625000
40
0.010000
0
INSERT
8
0
2
EPAD
10
-2.890000
20
0.803000
41
0.060000
42
0.060000
0
CIRCLE
8
0
10
-2.890000
20
0.803000
40
0.025000
0
INSERT
8
0
2
EPAD
10
-2.810000
20
0.803000
41
0.060000
42
0.060000
0
CIRCLE
8
0
10
-2.810000
20
0.803000
40
0.025000
0
INSERT
8
0
2
EPAD
10
-2.730000
20
0.803000
41
0.060000
42
0.060000
0
CIRCLE
8
0
10
-2.730000
20
0.803000
40
0.025000
0
INSERT
8
0
2
EPAD
10
1.938000
20
0.695000
41
0.070000
42
0.070000
0
CIRCLE
8
0
10
1.938000
20
0.695000
40
0.025000
0
INSERT
8
0
2
EPAD
10
1.938000
20
0.295000
41
0.070000
42
0.070000
0
CIRCLE
8
0
10
1.938000
20
0.295000
40
0.025000
0
INSERT
8
0
2
RPAD
10
1.778000
20
1.113000
41
0.080000
42
0.080000
50
180.000000
0
CIRCLE
8
0
10
1.778000
20
1.113000
40
0.025000
0
INSERT
8
0
2
RPAD
10
1.678000
20
1.113000
41
0.080000
42
0.080000
50
180.000000
0
CIRCLE
8
0
10
1.678000
20
1.113000
40
0.025000
0
INSERT
8
0
2
RPAD
10
1.578000
20
1.113000
41
0.080000
42
0.080000
50
180.000000
0
CIRCLE
8
0
10
1.578000
20
1.113000
40
0.025000
0
INSERT
8
0
2
EPAD
10
1.378000
20
1.488000
41
0.080000
42
0.080000
0
CIRCLE
8
0
10
1.378000
20
1.488000
40
0.025000
0
INSERT
8
0
2
EPAD
10
1.978000
20
1.488000
41
0.080000
42
0.080000
0
CIRCLE
8
0
10
1.978000
20
1.488000
40
0.025000
0
INSERT
8
0
2
EPAD
10
1.928000
20
1.314000
41
0.070000
42
0.070000
0
CIRCLE
8
0
10
1.928000
20
1.314000
40
0.025000
0
INSERT
8
0
2
EPAD
10
1.428000
20
1.314000
41
0.070000
42
0.070000
0
CIRCLE
8
0
10
1.428000
20
1.314000
40
0.025000
0
INSERT
8
0
2
EPAD
10
1.478000
20
1.911000
41
0.120000
42
0.120000
0
CIRCLE
8
0
10
1.478000
20
1.911000
40
0.030000
0
INSERT
8
0
2
EPAD
10
1.678000
20
1.911000
41
0.120000
42
0.120000
0
CIRCLE
8
0
10
1.678000
20
1.911000
40
0.030000
0
INSERT
8
0
2
EPAD
10
1.878000
20
1.911000
41
0.120000
42
0.120000
0
CIRCLE
8
0
10
1.878000
20
1.911000
40
0.030000
0
INSERT
8
0
2
EPAD
10
0.620000
20
1.488000
41
0.080000
42
0.080000
0
CIRCLE
8
0
10
0.620000
20
1.488000
40
0.025000
0
INSERT
8
0
2
EPAD
10
1.220000
20
1.488000
41
0.080000
42
0.080000
0
CIRCLE
8
0
10
1.220000
20
1.488000
40
0.025000
0
INSERT
8
0
2
EPAD
10
1.170000
20
1.314000
41
0.070000
42
0.070000
0
CIRCLE
8
0
10
1.170000
20
1.314000
40
0.025000
0
INSERT
8
0
2
EPAD
10
0.670000
20
1.314000
41
0.070000
42
0.070000
0
CIRCLE
8
0
10
0.670000
20
1.314000
40
0.025000
0
INSERT
8
0
2
EPAD
10
-0.113000
20
1.488000
41
0.080000
42
0.080000
0
CIRCLE
8
0
10
-0.113000
20
1.488000
40
0.025000
0
INSERT
8
0
2
EPAD
10
0.486000
20
1.488000
41
0.080000
42
0.080000
0
CIRCLE
8
0
10
0.486000
20
1.488000
40
0.025000
0
INSERT
8
0
2
EPAD
10
0.436000
20
1.314000
41
0.070000
42
0.070000
0
CIRCLE
8
0
10
0.436000
20
1.314000
40
0.025000
0
INSERT
8
0
2
EPAD
10
-0.063000
20
1.314000
41
0.070000
42
0.070000
0
CIRCLE
8
0
10
-0.063000
20
1.314000
40
0.025000
0
INSERT
8
0
2
EPAD
10
-0.848000
20
1.488000
41
0.080000
42
0.080000
0
CIRCLE
8
0
10
-0.848000
20
1.488000
40
0.025000
0
INSERT
8
0
2
EPAD
10
-0.248000
20
1.488000
41
0.080000
42
0.080000
0
CIRCLE
8
0
10
-0.248000
20
1.488000
40
0.025000
0
INSERT
8
0
2
EPAD
10
-0.298000
20
1.314000
41
0.070000
42
0.070000
0
CIRCLE
8
0
10
-0.298000
20
1.314000
40
0.025000
0
INSERT
8
0
2
EPAD
10
-0.798000
20
1.314000
41
0.070000
42
0.070000
0
CIRCLE
8
0
10
-0.798000
20
1.314000
40
0.025000
0
INSERT
8
0
2
EPAD
10
1.331000
20
0.695000
41
0.070000
42
0.070000
0
CIRCLE
8
0
10
1.331000
20
0.695000
40
0.025000
0
INSERT
8
0
2
EPAD
10
1.331000
20
0.295000
41
0.070000
42
0.070000
0
CIRCLE
8
0
10
1.331000
20
0.295000
40
0.025000
0
INSERT
8
0
2
EPAD
10
0.726000
20
0.695000
41
0.070000
42
0.070000
0
CIRCLE
8
0
10
0.726000
20
0.695000
40
0.025000
0
INSERT
8
0
2
EPAD
10
0.726000
20
0.295000
41
0.070000
42
0.070000
0
CIRCLE
8
0
10
0.726000
20
0.295000
40
0.025000
0
INSERT
8
0
2
EPAD
10
0.115000
20
0.695000
41
0.070000
42
0.070000
0
CIRCLE
8
0
10
0.115000
20
0.695000
40
0.025000
0
INSERT
8
0
2
EPAD
10
0.115000
20
0.295000
41
0.070000
42
0.070000
0
CIRCLE
8
0
10
0.115000
20
0.295000
40
0.025000
0
INSERT
8
0
2
RPAD
10
1.020000
20
1.113000
41
0.080000
42
0.080000
50
180.000000
0
CIRCLE
8
0
10
1.020000
20
1.113000
40
0.025000
0
INSERT
8
0
2
RPAD
10
0.920000
20
1.113000
41
0.080000
42
0.080000
50
180.000000
0
CIRCLE
8
0
10
0.920000
20
1.113000
40
0.025000
0
INSERT
8
0
2
RPAD
10
0.820000
20
1.113000
41
0.080000
42
0.080000
50
180.000000
0
CIRCLE
8
0
10
0.820000
20
1.113000
40
0.025000
0
INSERT
8
0
2
RPAD
10
0.286000
20
1.113000
41
0.080000
42
0.080000
50
180.000000
0
CIRCLE
8
0
10
0.286000
20
1.113000
40
0.025000
0
INSERT
8
0
2
RPAD
10
0.186000
20
1.113000
41
0.080000
42
0.080000
50
180.000000
0
CIRCLE
8
0
10
0.186000
20
1.113000
40
0.025000
0
INSERT
8
0
2
RPAD
10
0.086000
20
1.113000
41
0.080000
42
0.080000
50
180.000000
0
CIRCLE
8
0
10
0.086000
20
1.113000
40
0.025000
0
INSERT
8
0
2
RPAD
10
-0.448000
20
1.113000
41
0.080000
42
0.080000
50
180.000000
0
CIRCLE
8
0
10
-0.448000
20
1.113000
40
0.025000
0
INSERT
8
0
2
RPAD
10
-0.548000
20
1.113000
41
0.080000
42
0.080000
50
180.000000
0
CIRCLE
8
0
10
-0.548000
20
1.113000
40
0.025000
0
INSERT
8
0
2
RPAD
10
-0.648000
20
1.113000
41
0.080000
42
0.080000
50
180.000000
0
CIRCLE
8
0
10
-0.648000
20
1.113000
40
0.025000
0
INSERT
8
0
2
EPAD
10
0.720000
20
1.911000
41
0.120000
42
0.120000
0
CIRCLE
8
0
10
0.720000
20
1.911000
40
0.030000
0
INSERT
8
0
2
EPAD
10
0.920000
20
1.911000
41
0.120000
42
0.120000
0
CIRCLE
8
0
10
0.920000
20
1.911000
40
0.030000
0
INSERT
8
0
2
EPAD
10
1.120000
20
1.911000
41
0.120000
42
0.120000
0
CIRCLE
8
0
10
1.120000
20
1.911000
40
0.030000
0
INSERT
8
0
2
EPAD
10
-0.013000
20
1.911000
41
0.120000
42
0.120000
0
CIRCLE
8
0
10
-0.013000
20
1.911000
40
0.030000
0
INSERT
8
0
2
EPAD
10
0.186000
20
1.911000
41
0.120000
42
0.120000
0
CIRCLE
8
0
10
0.186000
20
1.911000
40
0.030000
0
INSERT
8
0
2
EPAD
10
0.386000
20
1.911000
41
0.120000
42
0.120000
0
CIRCLE
8
0
10
0.386000
20
1.911000
40
0.030000
0
INSERT
8
0
2
EPAD
10
-0.748000
20
1.911000
41
0.120000
42
0.120000
0
CIRCLE
8
0
10
-0.748000
20
1.911000
40
0.030000
0
INSERT
8
0
2
EPAD
10
-0.548000
20
1.911000
41
0.120000
42
0.120000
0
CIRCLE
8
0
10
-0.548000
20
1.911000
40
0.030000
0
INSERT
8
0
2
EPAD
10
-0.348000
20
1.911000
41
0.120000
42
0.120000
0
CIRCLE
8
0
10
-0.348000
20
1.911000
40
0.030000
0
INSERT
8
0
2
EPAD
10
-1.703000
20
1.911000
41
0.120000
42
0.120000
0
CIRCLE
8
0
10
-1.703000
20
1.911000
40
0.030000
0
INSERT
8
0
2
EPAD
10
-1.503000
20
1.911000
41
0.120000
42
0.120000
0
CIRCLE
8
0
10
-1.503000
20
1.911000
40
0.030000
0
INSERT
8
0
2
EPAD
10
-1.303000
20
1.911000
41
0.120000
42
0.120000
0
CIRCLE
8
0
10
-1.303000
20
1.911000
40
0.030000
0
INSERT
8
0
2
EPAD
10
0.792000
20
-0.514000
41
0.070000
42
0.070000
0
CIRCLE
8
0
10
0.792000
20
-0.514000
40
0.025000
0
INSERT
8
0
2
EPAD
10
0.792000
20
-0.114000
41
0.070000
42
0.070000
0
CIRCLE
8
0
10
0.792000
20
-0.114000
40
0.025000
0
INSERT
8
0
2
EPAD
10
0.682000
20
-0.514000
41
0.070000
42
0.070000
0
CIRCLE
8
0
10
0.682000
20
-0.514000
40
0.025000
0
INSERT
8
0
2
EPAD
10
0.682000
20
-0.114000
41
0.070000
42
0.070000
0
CIRCLE
8
0
10
0.682000
20
-0.114000
40
0.025000
0
INSERT
8
0
2
EPAD
10
1.448000
20
-1.007000
41
0.080000
42
0.080000
0
CIRCLE
8
0
10
1.448000
20
-1.007000
40
0.025000
0
INSERT
8
0
2
EPAD
10
1.248000
20
-1.007000
41
0.080000
42
0.080000
0
CIRCLE
8
0
10
1.248000
20
-1.007000
40
0.025000
0
INSERT
8
0
2
EPAD
10
1.426000
20
-1.354000
41
0.070000
42
0.070000
0
CIRCLE
8
0
10
1.426000
20
-1.354000
40
0.025000
0
INSERT
8
0
2
EPAD
10
1.426000
20
-1.454000
41
0.070000
42
0.070000
0
CIRCLE
8
0
10
1.426000
20
-1.454000
40
0.025000
0
INSERT
8
0
2
EPAD
10
1.272000
20
-1.358000
41
0.070000
42
0.070000
0
CIRCLE
8
0
10
1.272000
20
-1.358000
40
0.025000
0
INSERT
8
0
2
EPAD
10
1.272000
20
-1.458000
41
0.070000
42
0.070000
0
CIRCLE
8
0
10
1.272000
20
-1.458000
40
0.025000
0
INSERT
8
0
2
EPAD
10
-0.443000
20
-1.350000
41
0.070000
42
0.070000
0
CIRCLE
8
0
10
-0.443000
20
-1.350000
40
0.025000
0
INSERT
8
0
2
EPAD
10
-0.243000
20
-1.350000
41
0.070000
42
0.070000
0
CIRCLE
8
0
10
-0.243000
20
-1.350000
40
0.025000
0
INSERT
8
0
2
EPAD
10
-1.619000
20
1.086000
41
0.080000
42
0.080000
0
CIRCLE
8
0
10
-1.619000
20
1.086000
40
0.025000
0
INSERT
8
0
2
EPAD
10
-1.819000
20
1.086000
41
0.080000
42
0.080000
0
CIRCLE
8
0
10
-1.819000
20
1.086000
40
0.025000
0
INSERT
8
0
2
EPAD
10
-1.719000
20
0.866000
41
0.080000
42
0.080000
0
CIRCLE
8
0
10
-1.719000
20
0.866000
40
0.025000
0
INSERT
8
0
2
EPAD
10
0.943000
20
0.819000
41
0.090000
42
0.090000
0
CIRCLE
8
0
10
0.943000
20
0.819000
40
0.025000
0
INSERT
8
0
2
EPAD
10
0.199000
20
0.823000
41
0.090000
42
0.090000
0
CIRCLE
8
0
10
0.199000
20
0.823000
40
0.025000
0
INSERT
8
0
2
EPAD
10
2.126000
20
-1.393000
41
0.250000
42
0.250000
0
CIRCLE
8
0
10
2.126000
20
-1.393000
40
0.030000
0
INSERT
8
0
2
EPAD
10
2.808000
20
2.188000
41
0.250000
42
0.250000
0
CIRCLE
8
0
10
2.808000
20
2.188000
40
0.030000
0
INSERT
8
0
2
EPAD
10
-2.861000
20
2.181000
41
0.250000
42
0.250000
0
CIRCLE
8
0
10
-2.861000
20
2.181000
40
0.030000
0
INSERT
8
0
2
EPAD
10
-0.140000
20
-0.334000
41
0.250000
42
0.250000
0
CIRCLE
8
0
10
-0.140000
20
-0.334000
40
0.030000
0
INSERT
8
0
2
RPAD
10
-0.555000
20
-1.099000
41
0.080000
42
0.080000
50
0.000000
0
CIRCLE
8
0
10
-0.555000
20
-1.099000
40
0.025000
0
INSERT
8
0
2
RPAD
10
-0.455000
20
-1.099000
41
0.080000
42
0.080000
50
0.000000
0
CIRCLE
8
0
10
-0.455000
20
-1.099000
40
0.025000
0
INSERT
8
0
2
EPAD
10
-1.059000
20
-1.099000
41
0.070000
42
0.070000
0
CIRCLE
8
0
10
-1.059000
20
-1.099000
40
0.025000
0
INSERT
8
0
2
EPAD
10
-0.659000
20
-1.099000
41
0.070000
42
0.070000
0
CIRCLE
8
0
10
-0.659000
20
-1.099000
40
0.025000
0
INSERT
8
0
2
RPAD
10
2.336000
20
-0.128000
41
0.050000
42
0.050000
50
-90.000000
0
CIRCLE
8
0
10
2.336000
20
-0.128000
40
0.030000
0
INSERT
8
0
2
EPAD
10
2.336000
20
-0.228000
41
0.050000
42
0.050000
0
CIRCLE
8
0
10
2.336000
20
-0.228000
40
0.030000
0
INSERT
8
0
2
EPAD
10
2.336000
20
-0.328000
41
0.050000
42
0.050000
0
CIRCLE
8
0
10
2.336000
20
-0.328000
40
0.030000
0
INSERT
8
0
2
EPAD
10
2.336000
20
-0.428000
41
0.050000
42
0.050000
0
CIRCLE
8
0
10
2.336000
20
-0.428000
40
0.030000
0
INSERT
8
0
2
EPAD
10
2.336000
20
-0.528000
41
0.050000
42
0.050000
0
CIRCLE
8
0
10
2.336000
20
-0.528000
40
0.030000
0
INSERT
8
0
2
EPAD
10
2.336000
20
-0.628000
41
0.050000
42
0.050000
0
CIRCLE
8
0
10
2.336000
20
-0.628000
40
0.030000
0
INSERT
8
0
2
EPAD
10
2.336000
20
-0.728000
41
0.050000
42
0.050000
0
CIRCLE
8
0
10
2.336000
20
-0.728000
40
0.030000
0
INSERT
8
0
2
EPAD
10
2.636000
20
-0.728000
41
0.050000
42
0.050000
0
CIRCLE
8
0
10
2.636000
20
-0.728000
40
0.030000
0
INSERT
8
0
2
EPAD
10
2.636000
20
-0.628000
41
0.050000
42
0.050000
0
CIRCLE
8
0
10
2.636000
20
-0.628000
40
0.030000
0
INSERT
8
0
2
EPAD
10
2.636000
20
-0.528000
41
0.050000
42
0.050000
0
CIRCLE
8
0
10
2.636000
20
-0.528000
40
0.030000
0
INSERT
8
0
2
EPAD
10
2.636000
20
-0.428000
41
0.050000
42
0.050000
0
CIRCLE
8
0
10
2.636000
20
-0.428000
40
0.030000
0
INSERT
8
0
2
EPAD
10
2.636000
20
-0.328000
41
0.050000
42
0.050000
0
CIRCLE
8
0
10
2.636000
20
-0.328000
40
0.030000
0
INSERT
8
0
2
EPAD
10
2.636000
20
-0.228000
41
0.050000
42
0.050000
0
CIRCLE
8
0
10
2.636000
20
-0.228000
40
0.030000
0
INSERT
8
0
2
EPAD
10
2.636000
20
-0.128000
41
0.050000
42
0.050000
0
CIRCLE
8
0
10
2.636000
20
-0.128000
40
0.030000
0
INSERT
8
0
2
EPAD
10
2.782000
20
-0.787000
41
0.080000
42
0.080000
0
CIRCLE
8
0
10
2.782000
20
-0.787000
40
0.025000
0
INSERT
8
0
2
EPAD
10
2.882000
20
-0.787000
41
0.080000
42
0.080000
0
CIRCLE
8
0
10
2.882000
20
-0.787000
40
0.025000
0
INSERT
8
0
2
EPAD
10
2.270000
20
-0.881000
41
0.070000
42
0.070000
0
CIRCLE
8
0
10
2.270000
20
-0.881000
40
0.025000
0
INSERT
8
0
2
EPAD
10
2.670000
20
-0.881000
41
0.070000
42
0.070000
0
CIRCLE
8
0
10
2.670000
20
-0.881000
40
0.025000
0
INSERT
8
0
2
EPAD
10
1.756000
20
-0.319000
41
0.070000
42
0.070000
0
CIRCLE
8
0
10
1.756000
20
-0.319000
40
0.025000
0
INSERT
8
0
2
EPAD
10
2.156000
20
-0.319000
41
0.070000
42
0.070000
0
CIRCLE
8
0
10
2.156000
20
-0.319000
40
0.025000
0
INSERT
8
0
2
EPAD
10
2.156000
20
-0.207000
41
0.070000
42
0.070000
0
CIRCLE
8
0
10
2.156000
20
-0.207000
40
0.025000
0
INSERT
8
0
2
EPAD
10
1.756000
20
-0.207000
41
0.070000
42
0.070000
0
CIRCLE
8
0
10
1.756000
20
-0.207000
40
0.025000
0
INSERT
8
0
2
EPAD
10
2.375000
20
0.067000
41
0.070000
42
0.070000
0
CIRCLE
8
0
10
2.375000
20
0.067000
40
0.025000
0
INSERT
8
0
2
EPAD
10
2.775000
20
0.067000
41
0.070000
42
0.070000
0
CIRCLE
8
0
10
2.775000
20
0.067000
40
0.025000
0
INSERT
8
0
2
EPAD
10
2.766000
20
-0.479000
41
0.070000
42
0.070000
0
CIRCLE
8
0
10
2.766000
20
-0.479000
40
0.025000
0
INSERT
8
0
2
EPAD
10
2.766000
20
-0.079000
41
0.070000
42
0.070000
0
CIRCLE
8
0
10
2.766000
20
-0.079000
40
0.025000
0
INSERT
8
0
2
EPAD
10
2.868000
20
-0.079000
41
0.070000
42
0.070000
0
CIRCLE
8
0
10
2.868000
20
-0.079000
40
0.025000
0
INSERT
8
0
2
EPAD
10
2.868000
20
-0.479000
41
0.070000
42
0.070000
0
CIRCLE
8
0
10
2.868000
20
-0.479000
40
0.025000
0
INSERT
8
0
2
EPAD
10
1.960000
20
-2.048000
41
0.120000
42
0.120000
0
CIRCLE
8
0
10
1.960000
20
-2.048000
40
0.030000
0
INSERT
8
0
2
EPAD
10
2.160000
20
-2.048000
41
0.120000
42
0.120000
0
CIRCLE
8
0
10
2.160000
20
-2.048000
40
0.030000
0
INSERT
8
0
2
EPAD
10
2.360000
20
-2.048000
41
0.120000
42
0.120000
0
CIRCLE
8
0
10
2.360000
20
-2.048000
40
0.030000
0
INSERT
8
0
2
EPAD
10
2.560000
20
-2.048000
41
0.120000
42
0.120000
0
CIRCLE
8
0
10
2.560000
20
-2.048000
40
0.030000
0
INSERT
8
0
2
EPAD
10
2.760000
20
-2.048000
41
0.120000
42
0.120000
0
CIRCLE
8
0
10
2.760000
20
-2.048000
40
0.030000
0
POLYLINE
8
0
66
1
40
0.008000
41
0.008000
0
VERTEX
8
0
10
-3.022000
20
-2.334000
0
VERTEX
8
0
10
3.022000
20
-2.334000
0
VERTEX
8
0
10
3.022000
20
2.334000
0
VERTEX
8
0
10
-3.022000
20
2.334000
0
VERTEX
8
0
10
-3.022000
20
-2.334000
0
SEQEND
8
0
0
CIRCLE
8
12632256
10
-2.736000
20
-1.808000
40
0.213000
0
POLYLINE
8
0
66
1
40
0.008000
41
0.008000
0
VERTEX
8
0
10
-2.546000
20
-1.728000
0
VERTEX
8
0
10
-2.586000
20
-1.728000
0
SEQEND
8
0
0
POLYLINE
8
0
66
1
40
0.008000
41
0.008000
0
VERTEX
8
0
10
-2.566000
20
-1.708000
0
VERTEX
8
0
10
-2.566000
20
-1.748000
0
SEQEND
8
0
0
TEXT
8
12632256
10
-2.493000
20
-1.702000
40
0.048000
41
1.041667
50
90.000000
1
BR1
0
POLYLINE
8
0
66
1
40
0.008000
41
0.008000
0
VERTEX
8
0
10
-2.586000
20
-0.266000
0
VERTEX
8
0
10
-2.588000
20
-0.246000
0
VERTEX
8
0
10
-2.594000
20
-0.227000
0
VERTEX
8
0
10
-2.603000
20
-0.210000
0
VERTEX
8
0
10
-2.615000
20
-0.195000
0
VERTEX
8
0
10
-2.630000
20
-0.183000
0
VERTEX
8
0
10
-2.647000
20
-0.174000
0
VERTEX
8
0
10
-2.666000
20
-0.168000
0
VERTEX
8
0
10
-2.686000
20
-0.166000
0
SEQEND
8
0
0
POLYLINE
8
0
66
1
40
0.008000
41
0.008000
0
VERTEX
8
0
10
-2.586000
20
-0.266000
0
VERTEX
8
0
10
-2.588000
20
-0.287000
0
VERTEX
8
0
10
-2.594000
20
-0.306000
0
VERTEX
8
0
10
-2.603000
20
-0.323000
0
VERTEX
8
0
10
-2.615000
20
-0.337000
0
VERTEX
8
0
10
-2.630000
20
-0.349000
0
VERTEX
8
0
10
-2.647000
20
-0.358000
0
VERTEX
8
0
10
-2.666000
20
-0.364000
0
VERTEX
8
0
10
-2.686000
20
-0.366000
0
SEQEND
8
0
0
POLYLINE
8
0
66
1
40
0.008000
41
0.008000
0
VERTEX
8
0
10
-2.686000
20
-0.166000
0
VERTEX
8
0
10
-2.686000
20
-0.016000
0
SEQEND
8
0
0
POLYLINE
8
0
66
1
40
0.008000
41
0.008000
0
VERTEX
8
0
10
-0.686000
20
-0.016000
0
VERTEX
8
0
10
-0.686000
20
-0.516000
0
SEQEND
8
0
0
POLYLINE
8
0
66
1
40
0.008000
41
0.008000
0
VERTEX
8
0
10
-2.686000
20
-0.516000
0
VERTEX
8
0
10
-2.686000
20
-0.366000
0
SEQEND
8
0
0
POLYLINE
8
0
66
1
40
0.008000
41
0.008000
0
VERTEX
8
0
10
-2.686000
20
-0.016000
0
VERTEX
8
0
10
-0.686000
20
-0.016000
0
SEQEND
8
0
0
POLYLINE
8
0
66
1
40
0.008000
41
0.008000
0
VERTEX
8
0
10
-2.686000
20
-0.516000
0
VERTEX
8
0
10
-0.686000
20
-0.516000
0
SEQEND
8
0
0
TEXT
8
12632256
10
-2.704000
20
-0.179000
40
0.048000
41
1.041667
50
90.000000
1
U1
0
POLYLINE
8
0
66
1
40
0.008000
41
0.008000
0
VERTEX
8
0
10
0.145000
20
-0.932000
0
VERTEX
8
0
10
0.143000
20
-0.912000
0
VERTEX
8
0
10
0.137000
20
-0.893000
0
VERTEX
8
0
10
0.128000
20
-0.876000
0
VERTEX
8
0
10
0.116000
20
-0.861000
0
VERTEX
8
0
10
0.101000
20
-0.849000
0
VERTEX
8
0
10
0.084000
20
-0.840000
0
VERTEX
8
0
10
0.065000
20
-0.834000
0
VERTEX
8
0
10
0.045000
20
-0.832000
0
SEQEND
8
0
0
POLYLINE
8
0
66
1
40
0.008000
41
0.008000
0
VERTEX
8
0
10
0.145000
20
-0.932000
0
VERTEX
8
0
10
0.143000
20
-0.953000
0
VERTEX
8
0
10
0.137000
20
-0.972000
0
VERTEX
8
0
10
0.128000
20
-0.989000
0
VERTEX
8
0
10
0.116000
20
-1.003000
0
VERTEX
8
0
10
0.101000
20
-1.015000
0
VERTEX
8
0
10
0.084000
20
-1.024000
0
VERTEX
8
0
10
0.065000
20
-1.030000
0
VERTEX
8
0
10
0.045000
20
-1.032000
0
SEQEND
8
0
0
POLYLINE
8
0
66
1
40
0.008000
41
0.008000
0
VERTEX
8
0
10
0.045000
20
-0.832000
0
VERTEX
8
0
10
0.045000
20
-0.682000
0
SEQEND
8
0
0
POLYLINE
8
0
66
1
40
0.008000
41
0.008000
0
VERTEX
8
0
10
2.045000
20
-0.682000
0
VERTEX
8
0
10
2.045000
20
-1.182000
0
SEQEND
8
0
0
POLYLINE
8
0
66
1
40
0.008000
41
0.008000
0
VERTEX
8
0
10
0.045000
20
-1.182000
0
VERTEX
8
0
10
0.045000
20
-1.032000
0
SEQEND
8
0
0
POLYLINE
8
0
66
1
40
0.008000
41
0.008000
0
VERTEX
8
0
10
0.045000
20
-0.682000
0
VERTEX
8
0
10
2.045000
20
-0.682000
0
SEQEND
8
0
0
POLYLINE
8
0
66
1
40
0.008000
41
0.008000
0
VERTEX
8
0
10
0.045000
20
-1.182000
0
VERTEX
8
0
10
2.045000
20
-1.182000
0
SEQEND
8
0
0
TEXT
8
12632256
10
0.035000
20
-0.982000
40
0.048000
41
1.041667
50
90.000000
1
U2
0
POLYLINE
8
0
66
1
40
0.008000
41
0.008000
0
VERTEX
8
0
10
-2.551000
20
-1.159000
0
VERTEX
8
0
10
-2.951000
20
-1.159000
0
SEQEND
8
0
0
POLYLINE
8
0
66
1
40
0.008000
41
0.008000
0
VERTEX
8
0
10
-2.551000
20
-1.559000
0
VERTEX
8
0
10
-2.951000
20
-1.559000
0
SEQEND
8
0
0
POLYLINE
8
0
66
1
40
0.008000
41
0.008000
0
VERTEX
8
0
10
-2.951000
20
-1.159000
0
VERTEX
8
0
10
-2.951000
20
-1.559000
0
SEQEND
8
0
0
POLYLINE
8
0
66
1
40
0.008000
41
0.008000
0
VERTEX
8
0
10
-2.551000
20
-1.159000
0
VERTEX
8
0
10
-2.551000
20
-1.559000
0
SEQEND
8
0
0
TEXT
8
12632256
10
-2.964000
20
-1.440000
40
0.048000
41
1.041667
50
90.000000
1
J16
0
CIRCLE
8
12632256
10
-2.207000
20
-1.785000
40
0.200000
0
POLYLINE
8
0
66
1
40
0.008000
41
0.008000
0
VERTEX
8
0
10
-2.107000
20
-1.660000
0
VERTEX
8
0
10
-2.107000
20
-1.710000
0
SEQEND
8
0
0
POLYLINE
8
0
66
1
40
0.008000
41
0.008000
0
VERTEX
8
0
10
-2.082000
20
-1.685000
0
VERTEX
8
0
10
-2.132000
20
-1.685000
0
SEQEND
8
0
0
TEXT
8
12632256
10
-2.174000
20
-2.098000
40
0.048000
41
1.041667
50
90.000000
1
C4
0
POLYLINE
8
0
66
1
40
0.008000
41
0.008000
0
VERTEX
8
0
10
-2.151000
20
-2.188000
0
VERTEX
8
0
10
-2.201000
20
-2.188000
0
SEQEND
8
0
0
POLYLINE
8
0
66
1
40
0.008000
41
0.008000
0
VERTEX
8
0
10
-2.401000
20
-2.213000
0
VERTEX
8
0
10
-2.201000
20
-2.213000
0
VERTEX
8
0
10
-2.201000
20
-2.163000
0
VERTEX
8
0
10
-2.401000
20
-2.163000
0
VERTEX
8
0
10
-2.401000
20
-2.213000
0
SEQEND
8
0
0
POLYLINE
8
0
66
1
40
0.008000
41
0.008000
0
VERTEX
8
0
10
-2.401000
20
-2.188000
0
VERTEX
8
0
10
-2.451000
20
-2.188000
0
SEQEND
8
0
0
TEXT
8
12632256
10
-2.376000
20
-2.271000
40
0.048000
41
1.041667
1
R60
0
POLYLINE
8
0
66
1
40
0.008000
41
0.008000
0
VERTEX
8
0
10
-1.440000
20
-2.211000
0
VERTEX
8
0
10
-1.140000
20
-2.211000
0
VERTEX
8
0
10
-1.140000
20
-2.111000
0
VERTEX
8
0
10
-1.440000
20
-2.111000
0
VERTEX
8
0
10
-1.440000
20
-2.211000
0
SEQEND
8
0
0
POLYLINE
8
0
66
1
40
0.008000
41
0.008000
0
VERTEX
8
0
10
-1.440000
20
-2.111000
0
VERTEX
8
0
10
-1.440000
20
-2.061000
0
VERTEX
8
0
10
-1.140000
20
-2.061000
0
VERTEX
8
0
10
-1.140000
20
-2.111000
0
SEQEND
8
0
0
POLYLINE
8
0
66
1
40
0.008000
41
0.008000
0
VERTEX
8
0
10
-1.440000
20
-2.111000
0
VERTEX
8
0
10
-1.390000
20
-2.061000
0
SEQEND
8
0
0
POLYLINE
8
0
66
1
40
0.008000
41
0.008000
0
VERTEX
8
0
10
-1.390000
20
-2.111000
0
VERTEX
8
0
10
-1.340000
20
-2.061000
0
SEQEND
8
0
0
POLYLINE
8
0
66
1
40
0.008000
41
0.008000
0
VERTEX
8
0
10
-1.340000
20
-2.111000
0
VERTEX
8
0
10
-1.290000
20
-2.061000
0
SEQEND
8
0
0
POLYLINE
8
0
66
1
40
0.008000
41
0.008000
0
VERTEX
8
0
10
-1.290000
20
-2.111000
0
VERTEX
8
0
10
-1.240000
20
-2.061000
0
SEQEND
8
0
0
POLYLINE
8
0
66
1
40
0.008000
41
0.008000
0
VERTEX
8
0
10
-1.240000
20
-2.111000
0
VERTEX
8
0
10
-1.190000
20
-2.061000
0
SEQEND
8
0
0
POLYLINE
8
0
66
1
40
0.008000
41
0.008000
0
VERTEX
8
0
10
-1.190000
20
-2.111000
0
VERTEX
8
0
10
-1.140000
20
-2.061000
0
SEQEND
8
0
0
TEXT
8
12632256
10
-1.365000
20
-2.051000
40
0.048000
41
1.041667
1
U30
0
POLYLINE
8
0
66
1
40
0.008000
41
0.008000
0
VERTEX
8
0
10
-1.979000
20
-2.279000
0
VERTEX
8
0
10
-0.601000
20
-2.279000
0
VERTEX
8
0
10
-0.601000
20
-1.791000
0
VERTEX
8
0
10
-1.979000
20
-1.791000
0
VERTEX
8
0
10
-1.979000
20
-2.279000
0
SEQEND
8
0
0
POLYLINE
8
0
66
1
40
0.008000
41
0.008000
0
VERTEX
8
0
10
-1.364000
20
-1.748000
0
VERTEX
8
0
10
-1.160000
20
-1.748000
0
VERTEX
8
0
10
-1.160000
20
-1.643000
0
VERTEX
8
0
10
-1.364000
20
-1.643000
0
VERTEX
8
0
10
-1.364000
20
-1.748000
0
SEQEND
8
0
0
POLYLINE
8
0
66
1
40
0.008000
41
0.008000
0
VERTEX
8
0
10
-1.332000
20
-1.644000
0
VERTEX
8
0
10
-1.332000
20
-1.747000
0
SEQEND
8
0
0
POLYLINE
8
0
66
1
40
0.008000
41
0.008000
0
VERTEX
8
0
10
-1.392000
20
-1.696000
0
VERTEX
8
0
10
-1.364000
20
-1.696000
0
SEQEND
8
0
0
POLYLINE
8
0
66
1
40
0.008000
41
0.008000
0
VERTEX
8
0
10
-1.160000
20
-1.696000
0
VERTEX
8
0
10
-1.132000
20
-1.696000
0
SEQEND
8
0
0
TEXT
8
12632256
10
-1.312000
20
-1.633000
40
0.048000
41
1.041667
1
D1
0
CIRCLE
8
12632256
10
-1.275000
20
-1.409000
40
0.100000
0
POLYLINE
8
0
66
1
40
0.008000
41
0.008000
0
VERTEX
8
0
10
-1.200000
20
-1.459000
0
VERTEX
8
0
10
-1.250000
20
-1.459000
0
SEQEND
8
0
0
POLYLINE
8
0
66
1
40
0.008000
41
0.008000
0
VERTEX
8
0
10
-1.225000
20
-1.484000
0
VERTEX
8
0
10
-1.225000
20
-1.434000
0
SEQEND
8
0
0
TEXT
8
12632256
10
-1.325000
20
-1.567000
40
0.048000
41
1.041667
1
C5
0
POLYLINE
8
0
66
1
40
0.008000
41
0.008000
0
VERTEX
8
0
10
-1.123000
20
-1.401000
0
VERTEX
8
0
10
-1.120000
20
-1.391000
0
VERTEX
8
0
10
-1.112000
20
-1.381000
0
VERTEX
8
0
10
-1.098000
20
-1.373000
0
VERTEX
8
0
10
-1.080000
20
-1.366000
0
VERTEX
8
0
10
-1.058000
20
-1.359000
0
VERTEX
8
0
10
-1.032000
20
-1.355000
0
VERTEX
8
0
10
-1.004000
20
-1.352000
0
VERTEX
8
0
10
-0.973000
20
-1.351000
0
SEQEND
8
0
0
POLYLINE
8
0
66
1
40
0.008000
41
0.008000
0
VERTEX
8
0
10
-0.823000
20
-1.401000
0
VERTEX
8
0
10
-0.826000
20
-1.391000
0
VERTEX
8
0
10
-0.835000
20
-1.381000
0
VERTEX
8
0
10
-0.848000
20
-1.373000
0
VERTEX
8
0
10
-0.866000
20
-1.366000
0
VERTEX
8
0
10
-0.888000
20
-1.359000
0
VERTEX
8
0
10
-0.914000
20
-1.355000
0
VERTEX
8
0
10
-0.942000
20
-1.352000
0
VERTEX
8
0
10
-0.973000
20
-1.351000
0
SEQEND
8
0
0
POLYLINE
8
0
66
1
40
0.008000
41
0.008000
0
VERTEX
8
0
10
-0.823000
20
-1.401000
0
VERTEX
8
0
10
-0.826000
20
-1.411000
0
VERTEX
8
0
10
-0.835000
20
-1.421000
0
VERTEX
8
0
10
-0.848000
20
-1.429000
0
VERTEX
8
0
10
-0.866000
20
-1.436000
0
VERTEX
8
0
10
-0.888000
20
-1.443000
0
VERTEX
8
0
10
-0.914000
20
-1.447000
0
VERTEX
8
0
10
-0.942000
20
-1.450000
0
VERTEX
8
0
10
-0.973000
20
-1.451000
0
SEQEND
8
0
0
POLYLINE
8
0
66
1
40
0.008000
41
0.008000
0
VERTEX
8
0
10
-1.123000
20
-1.401000
0
VERTEX
8
0
10
-1.120000
20
-1.411000
0
VERTEX
8
0
10
-1.112000
20
-1.421000
0
VERTEX
8
0
10
-1.098000
20
-1.429000
0
VERTEX
8
0
10
-1.080000
20
-1.436000
0
VERTEX
8
0
10
-1.058000
20
-1.443000
0
VERTEX
8
0
10
-1.032000
20
-1.447000
0
VERTEX
8
0
10
-1.004000
20
-1.450000
0
VERTEX
8
0
10
-0.973000
20
-1.451000
0
SEQEND
8
0
0
TEXT
8
12632256
10
-1.030000
20
-1.341000
40
0.048000
41
1.041667
1
C6
0
POLYLINE
8
0
66
1
40
0.008000
41
0.008000
0
VERTEX
8
0
10
-1.064000
20
-0.763000
0
VERTEX
8
0
10
-1.061000
20
-0.753000
0
VERTEX
8
0
10
-1.053000
20
-0.743000
0
VERTEX
8
0
10
-1.039000
20
-0.735000
0
VERTEX
8
0
10
-1.021000
20
-0.728000
0
VERTEX
8
0
10
-0.999000
20
-0.721000
0
VERTEX
8
0
10
-0.973000
20
-0.717000
0
VERTEX
8
0
10
-0.945000
20
-0.714000
0
VERTEX
8
0
10
-0.914000
20
-0.713000
0
SEQEND
8
0
0
POLYLINE
8
0
66
1
40
0.008000
41
0.008000
0
VERTEX
8
0
10
-0.764000
20
-0.763000
0
VERTEX
8
0
10
-0.767000
20
-0.753000
0
VERTEX
8
0
10
-0.776000
20
-0.743000
0
VERTEX
8
0
10
-0.790000
20
-0.735000
0
VERTEX
8
0
10
-0.808000
20
-0.728000
0
VERTEX
8
0
10
-0.830000
20
-0.721000
0
VERTEX
8
0
10
-0.855000
20
-0.717000
0
VERTEX
8
0
10
-0.883000
20
-0.714000
0
VERTEX
8
0
10
-0.914000
20
-0.713000
0
SEQEND
8
0
0
POLYLINE
8
0
66
1
40
0.008000
41
0.008000
0
VERTEX
8
0
10
-0.764000
20
-0.763000
0
VERTEX
8
0
10
-0.767000
20
-0.773000
0
VERTEX
8
0
10
-0.776000
20
-0.783000
0
VERTEX
8
0
10
-0.790000
20
-0.791000
0
VERTEX
8
0
10
-0.808000
20
-0.798000
0
VERTEX
8
0
10
-0.830000
20
-0.805000
0
VERTEX
8
0
10
-0.855000
20
-0.809000
0
VERTEX
8
0
10
-0.883000
20
-0.812000
0
VERTEX
8
0
10
-0.914000
20
-0.813000
0
SEQEND
8
0
0
POLYLINE
8
0
66
1
40
0.008000
41
0.008000
0
VERTEX
8
0
10
-1.064000
20
-0.763000
0
VERTEX
8
0
10
-1.061000
20
-0.773000
0
VERTEX
8
0
10
-1.053000
20
-0.783000
0
VERTEX
8
0
10
-1.039000
20
-0.791000
0
VERTEX
8
0
10
-1.021000
20
-0.798000
0
VERTEX
8
0
10
-0.999000
20
-0.805000
0
VERTEX
8
0
10
-0.973000
20
-0.809000
0
VERTEX
8
0
10
-0.945000
20
-0.812000
0
VERTEX
8
0
10
-0.914000
20
-0.813000
0
SEQEND
8
0
0
TEXT
8
12632256
10
-0.964000
20
-0.703000
40
0.048000
41
1.041667
1
C1
0
POLYLINE
8
0
66
1
40
0.008000
41
0.008000
0
VERTEX
8
0
10
-2.904000
20
-0.916000
0
VERTEX
8
0
10
-2.904000
20
-0.866000
0
SEQEND
8
0
0
POLYLINE
8
0
66
1
40
0.008000
41
0.008000
0
VERTEX
8
0
10
-2.929000
20
-0.866000
0
VERTEX
8
0
10
-2.879000
20
-0.866000
0
VERTEX
8
0
10
-2.879000
20
-0.666000
0
VERTEX
8
0
10
-2.929000
20
-0.666000
0
VERTEX
8
0
10
-2.929000
20
-0.866000
0
SEQEND
8
0
0
POLYLINE
8
0
66
1
40
0.008000
41
0.008000
0
VERTEX
8
0
10
-2.904000
20
-0.666000
0
VERTEX
8
0
10
-2.904000
20
-0.616000
0
SEQEND
8
0
0
TEXT
8
12632256
10
-2.939000
20
-0.816000
40
0.048000
41
1.041667
50
90.000000
1
R1
0
POLYLINE
8
0
66
1
40
0.008000
41
0.008000
0
VERTEX
8
0
10
-2.776000
20
-0.950000
0
VERTEX
8
0
10
-2.476000
20
-0.950000
0
VERTEX
8
0
10
-2.476000
20
-0.700000
0
VERTEX
8
0
10
-2.776000
20
-0.700000
0
VERTEX
8
0
10
-2.776000
20
-0.950000
0
SEQEND
8
0
0
POLYLINE
8
0
66
1
40
0.008000
41
0.008000
0
VERTEX
8
0
10
-2.776000
20
-0.750000
0
VERTEX
8
0
10
-2.476000
20
-0.750000
0
SEQEND
8
0
0
TEXT
8
12632256
10
-2.676000
20
-0.690000
40
0.048000
41
1.041667
1
J1
0
POLYLINE
8
0
66
1
40
0.008000
41
0.008000
0
VERTEX
8
0
10
-2.789000
20
-1.082000
0
VERTEX
8
0
10
-2.786000
20
-1.072000
0
VERTEX
8
0
10
-2.778000
20
-1.062000
0
VERTEX
8
0
10
-2.764000
20
-1.054000
0
VERTEX
8
0
10
-2.746000
20
-1.046000
0
VERTEX
8
0
10
-2.724000
20
-1.040000
0
VERTEX
8
0
10
-2.698000
20
-1.036000
0
VERTEX
8
0
10
-2.670000
20
-1.033000
0
VERTEX
8
0
10
-2.639000
20
-1.032000
0
SEQEND
8
0
0
POLYLINE
8
0
66
1
40
0.008000
41
0.008000
0
VERTEX
8
0
10
-2.489000
20
-1.082000
0
VERTEX
8
0
10
-2.492000
20
-1.072000
0
VERTEX
8
0
10
-2.501000
20
-1.062000
0
VERTEX
8
0
10
-2.514000
20
-1.054000
0
VERTEX
8
0
10
-2.532000
20
-1.046000
0
VERTEX
8
0
10
-2.554000
20
-1.040000
0
VERTEX
8
0
10
-2.580000
20
-1.036000
0
VERTEX
8
0
10
-2.608000
20
-1.033000
0
VERTEX
8
0
10
-2.639000
20
-1.032000
0
SEQEND
8
0
0
POLYLINE
8
0
66
1
40
0.008000
41
0.008000
0
VERTEX
8
0
10
-2.489000
20
-1.082000
0
VERTEX
8
0
10
-2.492000
20
-1.092000
0
VERTEX
8
0
10
-2.501000
20
-1.102000
0
VERTEX
8
0
10
-2.514000
20
-1.110000
0
VERTEX
8
0
10
-2.532000
20
-1.118000
0
VERTEX
8
0
10
-2.554000
20
-1.124000
0
VERTEX
8
0
10
-2.580000
20
-1.128000
0
VERTEX
8
0
10
-2.608000
20
-1.131000
0
VERTEX
8
0
10
-2.639000
20
-1.132000
0
SEQEND
8
0
0
POLYLINE
8
0
66
1
40
0.008000
41
0.008000
0
VERTEX
8
0
10
-2.789000
20
-1.082000
0
VERTEX
8
0
10
-2.786000
20
-1.092000
0
VERTEX
8
0
10
-2.778000
20
-1.102000
0
VERTEX
8
0
10
-2.764000
20
-1.110000
0
VERTEX
8
0
10
-2.746000
20
-1.118000
0
VERTEX
8
0
10
-2.724000
20
-1.124000
0
VERTEX
8
0
10
-2.698000
20
-1.128000
0
VERTEX
8
0
10
-2.670000
20
-1.131000
0
VERTEX
8
0
10
-2.639000
20
-1.132000
0
SEQEND
8
0
0
TEXT
8
12632256
10
-2.695000
20
-1.018000
40
0.048000
41
1.041667
1
C2
0
POLYLINE
8
0
66
1
40
0.008000
41
0.008000
0
VERTEX
8
0
10
-2.445000
20
-0.946000
0
VERTEX
8
0
10
-1.545000
20
-0.946000
0
VERTEX
8
0
10
-1.545000
20
-0.696000
0
VERTEX
8
0
10
-2.445000
20
-0.696000
0
VERTEX
8
0
10
-2.445000
20
-0.946000
0
SEQEND
8
0
0
POLYLINE
8
0
66
1
40
0.008000
41
0.008000
0
VERTEX
8
0
10
-2.445000
20
-0.746000
0
VERTEX
8
0
10
-1.545000
20
-0.746000
0
SEQEND
8
0
0
TEXT
8
12632256
10
-1.906000
20
-1.051000
40
0.048000
41
1.041667
1
J3
0
POLYLINE
8
0
66
1
40
0.008000
41
0.008000
0
VERTEX
8
0
10
-2.341000
20
-1.053000
0
VERTEX
8
0
10
-2.341000
20
-1.103000
0
SEQEND
8
0
0
POLYLINE
8
0
66
1
40
0.008000
41
0.008000
0
VERTEX
8
0
10
-2.366000
20
-1.303000
0
VERTEX
8
0
10
-2.316000
20
-1.303000
0
VERTEX
8
0
10
-2.316000
20
-1.103000
0
VERTEX
8
0
10
-2.366000
20
-1.103000
0
VERTEX
8
0
10
-2.366000
20
-1.303000
0
SEQEND
8
0
0
POLYLINE
8
0
66
1
40
0.008000
41
0.008000
0
VERTEX
8
0
10
-2.341000
20
-1.303000
0
VERTEX
8
0
10
-2.341000
20
-1.353000
0
SEQEND
8
0
0
TEXT
8
12632256
10
-2.258000
20
-1.253000
40
0.048000
41
1.041667
50
90.000000
1
R2
0
POLYLINE
8
0
66
1
40
0.008000
41
0.008000
0
VERTEX
8
0
10
-2.231000
20
-1.053000
0
VERTEX
8
0
10
-2.231000
20
-1.103000
0
SEQEND
8
0
0
POLYLINE
8
0
66
1
40
0.008000
41
0.008000
0
VERTEX
8
0
10
-2.256000
20
-1.303000
0
VERTEX
8
0
10
-2.206000
20
-1.303000
0
VERTEX
8
0
10
-2.206000
20
-1.103000
0
VERTEX
8
0
10
-2.256000
20
-1.103000
0
VERTEX
8
0
10
-2.256000
20
-1.303000
0
SEQEND
8
0
0
POLYLINE
8
0
66
1
40
0.008000
41
0.008000
0
VERTEX
8
0
10
-2.231000
20
-1.303000
0
VERTEX
8
0
10
-2.231000
20
-1.353000
0
SEQEND
8
0
0
TEXT
8
12632256
10
-2.148000
20
-1.253000
40
0.048000
41
1.041667
50
90.000000
1
R3
0
POLYLINE
8
0
66
1
40
0.008000
41
0.008000
0
VERTEX
8
0
10
-2.121000
20
-1.050000
0
VERTEX
8
0
10
-2.121000
20
-1.100000
0
SEQEND
8
0
0
POLYLINE
8
0
66
1
40
0.008000
41
0.008000
0
VERTEX
8
0
10
-2.146000
20
-1.300000
0
VERTEX
8
0
10
-2.096000
20
-1.300000
0
VERTEX
8
0
10
-2.096000
20
-1.100000
0
VERTEX
8
0
10
-2.146000
20
-1.100000
0
VERTEX
8
0
10
-2.146000
20
-1.300000
0
SEQEND
8
0
0
POLYLINE
8
0
66
1
40
0.008000
41
0.008000
0
VERTEX
8
0
10
-2.121000
20
-1.300000
0
VERTEX
8
0
10
-2.121000
20
-1.350000
0
SEQEND
8
0
0
TEXT
8
12632256
10
-2.038000
20
-1.250000
40
0.048000
41
1.041667
50
90.000000
1
R5
0
POLYLINE
8
0
66
1
40
0.008000
41
0.008000
0
VERTEX
8
0
10
-2.014000
20
-1.053000
0
VERTEX
8
0
10
-2.014000
20
-1.103000
0
SEQEND
8
0
0
POLYLINE
8
0
66
1
40
0.008000
41
0.008000
0
VERTEX
8
0
10
-2.039000
20
-1.303000
0
VERTEX
8
0
10
-1.989000
20
-1.303000
0
VERTEX
8
0
10
-1.989000
20
-1.103000
0
VERTEX
8
0
10
-2.039000
20
-1.103000
0
VERTEX
8
0
10
-2.039000
20
-1.303000
0
SEQEND
8
0
0
POLYLINE
8
0
66
1
40
0.008000
41
0.008000
0
VERTEX
8
0
10
-2.014000
20
-1.303000
0
VERTEX
8
0
10
-2.014000
20
-1.353000
0
SEQEND
8
0
0
TEXT
8
12632256
10
-1.931000
20
-1.253000
40
0.048000
41
1.041667
50
90.000000
1
R6
0
POLYLINE
8
0
66
1
40
0.008000
41
0.008000
0
VERTEX
8
0
10
-2.807000
20
0.400000
0
VERTEX
8
0
10
-0.707000
20
0.400000
0
VERTEX
8
0
10
-0.707000
20
0.650000
0
VERTEX
8
0
10
-2.807000
20
0.650000
0
VERTEX
8
0
10
-2.807000
20
0.400000
0
SEQEND
8
0
0
POLYLINE
8
0
66
1
40
0.008000
41
0.008000
0
VERTEX
8
0
10
-0.707000
20
0.450000
0
VERTEX
8
0
10
-2.807000
20
0.450000
0
SEQEND
8
0
0
TEXT
8
12632256
10
-1.807000
20
0.342000
40
0.048000
41
1.041667
1
J9
0
POLYLINE
8
0
66
1
40
0.008000
41
0.008000
0
VERTEX
8
0
10
-2.568000
20
-0.275000
0
VERTEX
8
0
10
-2.618000
20
-0.275000
0
SEQEND
8
0
0
POLYLINE
8
0
66
1
40
0.008000
41
0.008000
0
VERTEX
8
0
10
-2.818000
20
-0.300000
0
VERTEX
8
0
10
-2.618000
20
-0.300000
0
VERTEX
8
0
10
-2.618000
20
-0.250000
0
VERTEX
8
0
10
-2.818000
20
-0.250000
0
VERTEX
8
0
10
-2.818000
20
-0.300000
0
SEQEND
8
0
0
POLYLINE
8
0
66
1
40
0.008000
41
0.008000
0
VERTEX
8
0
10
-2.818000
20
-0.275000
0
VERTEX
8
0
10
-2.868000
20
-0.275000
0
SEQEND
8
0
0
TEXT
8
12632256
10
-2.768000
20
-0.370000
40
0.048000
41
1.041667
1
R9
0
POLYLINE
8
0
66
1
40
0.008000
41
0.008000
0
VERTEX
8
0
10
-1.478000
20
-0.675000
0
VERTEX
8
0
10
-1.178000
20
-0.675000
0
VERTEX
8
0
10
-1.128000
20
-0.725000
0
VERTEX
8
0
10
-1.128000
20
-0.825000
0
VERTEX
8
0
10
-1.178000
20
-0.875000
0
VERTEX
8
0
10
-1.478000
20
-0.875000
0
VERTEX
8
0
10
-1.528000
20
-0.825000
0
VERTEX
8
0
10
-1.528000
20
-0.725000
0
VERTEX
8
0
10
-1.478000
20
-0.675000
0
SEQEND
8
0
0
TEXT
8
12632256
10
-1.378000
20
-0.665000
40
0.048000
41
1.041667
1
X1
0
POLYLINE
8
0
66
1
40
0.008000
41
0.008000
0
VERTEX
8
0
10
-1.443000
20
-0.922000
0
VERTEX
8
0
10
-1.433000
20
-0.924000
0
VERTEX
8
0
10
-1.423000
20
-0.930000
0
VERTEX
8
0
10
-1.415000
20
-0.939000
0
VERTEX
8
0
10
-1.408000
20
-0.951000
0
VERTEX
8
0
10
-1.402000
20
-0.966000
0
VERTEX
8
0
10
-1.397000
20
-0.983000
0
VERTEX
8
0
10
-1.394000
20
-1.002000
0
VERTEX
8
0
10
-1.393000
20
-1.022000
0
SEQEND
8
0
0
POLYLINE
8
0
66
1
40
0.008000
41
0.008000
0
VERTEX
8
0
10
-1.443000
20
-1.122000
0
VERTEX
8
0
10
-1.433000
20
-1.120000
0
VERTEX
8
0
10
-1.423000
20
-1.114000
0
VERTEX
8
0
10
-1.415000
20
-1.105000
0
VERTEX
8
0
10
-1.408000
20
-1.093000
0
VERTEX
8
0
10
-1.402000
20
-1.078000
0
VERTEX
8
0
10
-1.397000
20
-1.061000
0
VERTEX
8
0
10
-1.394000
20
-1.042000
0
VERTEX
8
0
10
-1.393000
20
-1.022000
0
SEQEND
8
0
0
POLYLINE
8
0
66
1
40
0.008000
41
0.008000
0
VERTEX
8
0
10
-1.443000
20
-0.922000
0
VERTEX
8
0
10
-1.453000
20
-0.924000
0
VERTEX
8
0
10
-1.463000
20
-0.930000
0
VERTEX
8
0
10
-1.471000
20
-0.939000
0
VERTEX
8
0
10
-1.478000
20
-0.951000
0
VERTEX
8
0
10
-1.484000
20
-0.966000
0
VERTEX
8
0
10
-1.489000
20
-0.983000
0
VERTEX
8
0
10
-1.492000
20
-1.002000
0
VERTEX
8
0
10
-1.493000
20
-1.022000
0
SEQEND
8
0
0
POLYLINE
8
0
66
1
40
0.008000
41
0.008000
0
VERTEX
8
0
10
-1.443000
20
-1.122000
0
VERTEX
8
0
10
-1.453000
20
-1.120000
0
VERTEX
8
0
10
-1.463000
20
-1.114000
0
VERTEX
8
0
10
-1.471000
20
-1.105000
0
VERTEX
8
0
10
-1.478000
20
-1.093000
0
VERTEX
8
0
10
-1.484000
20
-1.078000
0
VERTEX
8
0
10
-1.489000
20
-1.061000
0
VERTEX
8
0
10
-1.492000
20
-1.042000
0
VERTEX
8
0
10
-1.493000
20
-1.022000
0
SEQEND
8
0
0
TEXT
8
12632256
10
-1.335000
20
-1.072000
40
0.048000
41
1.041667
50
90.000000
1
C8
0
POLYLINE
8
0
66
1
40
0.008000
41
0.008000
0
VERTEX
8
0
10
-1.231000
20
-0.926000
0
VERTEX
8
0
10
-1.221000
20
-0.928000
0
VERTEX
8
0
10
-1.211000
20
-0.934000
0
VERTEX
8
0
10
-1.203000
20
-0.943000
0
VERTEX
8
0
10
-1.196000
20
-0.955000
0
VERTEX
8
0
10
-1.190000
20
-0.970000
0
VERTEX
8
0
10
-1.185000
20
-0.987000
0
VERTEX
8
0
10
-1.182000
20
-1.006000
0
VERTEX
8
0
10
-1.181000
20
-1.026000
0
SEQEND
8
0
0
POLYLINE
8
0
66
1
40
0.008000
41
0.008000
0
VERTEX
8
0
10
-1.231000
20
-1.126000
0
VERTEX
8
0
10
-1.221000
20
-1.124000
0
VERTEX
8
0
10
-1.211000
20
-1.118000
0
VERTEX
8
0
10
-1.203000
20
-1.109000
0
VERTEX
8
0
10
-1.196000
20
-1.097000
0
VERTEX
8
0
10
-1.190000
20
-1.082000
0
VERTEX
8
0
10
-1.185000
20
-1.065000
0
VERTEX
8
0
10
-1.182000
20
-1.046000
0
VERTEX
8
0
10
-1.181000
20
-1.026000
0
SEQEND
8
0
0
POLYLINE
8
0
66
1
40
0.008000
41
0.008000
0
VERTEX
8
0
10
-1.231000
20
-0.926000
0
VERTEX
8
0
10
-1.241000
20
-0.928000
0
VERTEX
8
0
10
-1.251000
20
-0.934000
0
VERTEX
8
0
10
-1.259000
20
-0.943000
0
VERTEX
8
0
10
-1.266000
20
-0.955000
0
VERTEX
8
0
10
-1.272000
20
-0.970000
0
VERTEX
8
0
10
-1.277000
20
-0.987000
0
VERTEX
8
0
10
-1.280000
20
-1.006000
0
VERTEX
8
0
10
-1.281000
20
-1.026000
0
SEQEND
8
0
0
POLYLINE
8
0
66
1
40
0.008000
41
0.008000
0
VERTEX
8
0
10
-1.231000
20
-1.126000
0
VERTEX
8
0
10
-1.241000
20
-1.124000
0
VERTEX
8
0
10
-1.251000
20
-1.118000
0
VERTEX
8
0
10
-1.259000
20
-1.109000
0
VERTEX
8
0
10
-1.266000
20
-1.097000
0
VERTEX
8
0
10
-1.272000
20
-1.082000
0
VERTEX
8
0
10
-1.277000
20
-1.065000
0
VERTEX
8
0
10
-1.280000
20
-1.046000
0
VERTEX
8
0
10
-1.281000
20
-1.026000
0
SEQEND
8
0
0
TEXT
8
12632256
10
-1.123000
20
-1.076000
40
0.048000
41
1.041667
50
90.000000
1
C9
0
POLYLINE
8
0
66
1
40
0.008000
41
0.008000
0
VERTEX
8
0
10
-0.532000
20
-1.843000
0
VERTEX
8
0
10
-0.532000
20
-2.243000
0
SEQEND
8
0
0
POLYLINE
8
0
66
1
40
0.008000
41
0.008000
0
VERTEX
8
0
10
0.467000
20
-1.843000
0
VERTEX
8
0
10
0.467000
20
-2.243000
0
SEQEND
8
0
0
POLYLINE
8
0
66
1
40
0.008000
41
0.008000
0
VERTEX
8
0
10
0.467000
20
-1.843000
0
VERTEX
8
0
10
-0.532000
20
-1.843000
0
SEQEND
8
0
0
POLYLINE
8
0
66
1
40
0.008000
41
0.008000
0
VERTEX
8
0
10
-0.532000
20
-2.243000
0
VERTEX
8
0
10
0.467000
20
-2.243000
0
SEQEND
8
0
0
TEXT
8
12632256
10
-0.573000
20
-2.314000
40
0.048000
41
1.041667
1
J4
0
POLYLINE
8
0
66
1
40
0.008000
41
0.008000
0
VERTEX
8
0
10
0.538000
20
-1.843000
0
VERTEX
8
0
10
0.538000
20
-2.243000
0
SEQEND
8
0
0
POLYLINE
8
0
66
1
40
0.008000
41
0.008000
0
VERTEX
8
0
10
1.138000
20
-1.843000
0
VERTEX
8
0
10
1.138000
20
-2.243000
0
SEQEND
8
0
0
POLYLINE
8
0
66
1
40
0.008000
41
0.008000
0
VERTEX
8
0
10
0.538000
20
-2.243000
0
VERTEX
8
0
10
1.138000
20
-2.243000
0
SEQEND
8
0
0
POLYLINE
8
0
66
1
40
0.008000
41
0.008000
0
VERTEX
8
0
10
1.138000
20
-1.843000
0
VERTEX
8
0
10
0.538000
20
-1.843000
0
SEQEND
8
0
0
TEXT
8
12632256
10
0.483000
20
-2.314000
40
0.048000
41
1.041667
1
J6
0
POLYLINE
8
0
66
1
40
0.008000
41
0.008000
0
VERTEX
8
0
10
1.206000
20
-1.847000
0
VERTEX
8
0
10
1.206000
20
-2.247000
0
SEQEND
8
0
0
POLYLINE
8
0
66
1
40
0.008000
41
0.008000
0
VERTEX
8
0
10
1.806000
20
-1.847000
0
VERTEX
8
0
10
1.806000
20
-2.247000
0
SEQEND
8
0
0
POLYLINE
8
0
66
1
40
0.008000
41
0.008000
0
VERTEX
8
0
10
1.206000
20
-2.247000
0
VERTEX
8
0
10
1.806000
20
-2.247000
0
SEQEND
8
0
0
POLYLINE
8
0
66
1
40
0.008000
41
0.008000
0
VERTEX
8
0
10
1.806000
20
-1.847000
0
VERTEX
8
0
10
1.206000
20
-1.847000
0
SEQEND
8
0
0
TEXT
8
12632256
10
1.146000
20
-2.323000
40
0.048000
41
1.041667
1
J7
0
POLYLINE
8
0
66
1
40
0.008000
41
0.008000
0
VERTEX
8
0
10
2.313000
20
-1.582000
0
VERTEX
8
0
10
2.786000
20
-1.582000
0
VERTEX
8
0
10
2.786000
20
-1.110000
0
VERTEX
8
0
10
2.313000
20
-1.110000
0
VERTEX
8
0
10
2.313000
20
-1.582000
0
SEQEND
8
0
0
POLYLINE
8
0
66
1
40
0.008000
41
0.008000
0
VERTEX
8
0
10
2.786000
20
-1.287000
0
VERTEX
8
0
10
2.943000
20
-1.287000
0
VERTEX
8
0
10
2.943000
20
-1.248000
0
VERTEX
8
0
10
2.786000
20
-1.248000
0
VERTEX
8
0
10
2.786000
20
-1.287000
0
SEQEND
8
0
0
POLYLINE
8
0
66
1
40
0.008000
41
0.008000
0
VERTEX
8
0
10
2.786000
20
-1.444000
0
VERTEX
8
0
10
2.943000
20
-1.444000
0
VERTEX
8
0
10
2.943000
20
-1.405000
0
VERTEX
8
0
10
2.786000
20
-1.405000
0
VERTEX
8
0
10
2.786000
20
-1.444000
0
SEQEND
8
0
0
TEXT
8
12632256
10
2.904000
20
-1.027000
40
0.048000
41
1.041667
50
90.000000
71
2
1
SP1
0
POLYLINE
8
0
66
1
40
0.008000
41
0.008000
0
VERTEX
8
0
10
0.562000
20
-0.164000
0
VERTEX
8
0
10
0.562000
20
-0.214000
0
SEQEND
8
0
0
POLYLINE
8
0
66
1
40
0.008000
41
0.008000
0
VERTEX
8
0
10
0.537000
20
-0.414000
0
VERTEX
8
0
10
0.587000
20
-0.414000
0
VERTEX
8
0
10
0.587000
20
-0.214000
0
VERTEX
8
0
10
0.537000
20
-0.214000
0
VERTEX
8
0
10
0.537000
20
-0.414000
0
SEQEND
8
0
0
POLYLINE
8
0
66
1
40
0.008000
41
0.008000
0
VERTEX
8
0
10
0.562000
20
-0.414000
0
VERTEX
8
0
10
0.562000
20
-0.464000
0
SEQEND
8
0
0
TEXT
8
12632256
10
0.645000
20
-0.389000
40
0.048000
41
1.041667
50
90.000000
1
R16
0
POLYLINE
8
0
66
1
40
0.008000
41
0.008000
0
VERTEX
8
0
10
0.453000
20
-0.164000
0
VERTEX
8
0
10
0.453000
20
-0.214000
0
SEQEND
8
0
0
POLYLINE
8
0
66
1
40
0.008000
41
0.008000
0
VERTEX
8
0
10
0.428000
20
-0.414000
0
VERTEX
8
0
10
0.478000
20
-0.414000
0
VERTEX
8
0
10
0.478000
20
-0.214000
0
VERTEX
8
0
10
0.428000
20
-0.214000
0
VERTEX
8
0
10
0.428000
20
-0.414000
0
SEQEND
8
0
0
POLYLINE
8
0
66
1
40
0.008000
41
0.008000
0
VERTEX
8
0
10
0.453000
20
-0.414000
0
VERTEX
8
0
10
0.453000
20
-0.464000
0
SEQEND
8
0
0
TEXT
8
12632256
10
0.536000
20
-0.389000
40
0.048000
41
1.041667
50
90.000000
1
R12
0
POLYLINE
8
0
66
1
40
0.008000
41
0.008000
0
VERTEX
8
0
10
0.335000
20
-0.164000
0
VERTEX
8
0
10
0.335000
20
-0.214000
0
SEQEND
8
0
0
POLYLINE
8
0
66
1
40
0.008000
41
0.008000
0
VERTEX
8
0
10
0.310000
20
-0.414000
0
VERTEX
8
0
10
0.360000
20
-0.414000
0
VERTEX
8
0
10
0.360000
20
-0.214000
0
VERTEX
8
0
10
0.310000
20
-0.214000
0
VERTEX
8
0
10
0.310000
20
-0.414000
0
SEQEND
8
0
0
POLYLINE
8
0
66
1
40
0.008000
41
0.008000
0
VERTEX
8
0
10
0.335000
20
-0.414000
0
VERTEX
8
0
10
0.335000
20
-0.464000
0
SEQEND
8
0
0
TEXT
8
12632256
10
0.418000
20
-0.389000
40
0.048000
41
1.041667
50
90.000000
1
R15
0
POLYLINE
8
0
66
1
40
0.008000
41
0.008000
0
VERTEX
8
0
10
0.229000
20
-0.164000
0
VERTEX
8
0
10
0.229000
20
-0.214000
0
SEQEND
8
0
0
POLYLINE
8
0
66
1
40
0.008000
41
0.008000
0
VERTEX
8
0
10
0.204000
20
-0.414000
0
VERTEX
8
0
10
0.254000
20
-0.414000
0
VERTEX
8
0
10
0.254000
20
-0.214000
0
VERTEX
8
0
10
0.204000
20
-0.214000
0
VERTEX
8
0
10
0.204000
20
-0.414000
0
SEQEND
8
0
0
POLYLINE
8
0
66
1
40
0.008000
41
0.008000
0
VERTEX
8
0
10
0.229000
20
-0.414000
0
VERTEX
8
0
10
0.229000
20
-0.464000
0
SEQEND
8
0
0
TEXT
8
12632256
10
0.312000
20
-0.389000
40
0.048000
41
1.041667
50
90.000000
1
R19
0
POLYLINE
8
0
66
1
40
0.008000
41
0.008000
0
VERTEX
8
0
10
0.124000
20
-0.164000
0
VERTEX
8
0
10
0.124000
20
-0.214000
0
SEQEND
8
0
0
POLYLINE
8
0
66
1
40
0.008000
41
0.008000
0
VERTEX
8
0
10
0.099000
20
-0.414000
0
VERTEX
8
0
10
0.149000
20
-0.414000
0
VERTEX
8
0
10
0.149000
20
-0.214000
0
VERTEX
8
0
10
0.099000
20
-0.214000
0
VERTEX
8
0
10
0.099000
20
-0.414000
0
SEQEND
8
0
0
POLYLINE
8
0
66
1
40
0.008000
41
0.008000
0
VERTEX
8
0
10
0.124000
20
-0.414000
0
VERTEX
8
0
10
0.124000
20
-0.464000
0
SEQEND
8
0
0
TEXT
8
12632256
10
0.207000
20
-0.389000
40
0.048000
41
1.041667
50
90.000000
1
R22
0
POLYLINE
8
0
66
1
40
0.008000
41
0.008000
0
VERTEX
8
0
10
2.251000
20
0.395000
0
VERTEX
8
0
10
2.251000
20
0.445000
0
SEQEND
8
0
0
POLYLINE
8
0
66
1
40
0.008000
41
0.008000
0
VERTEX
8
0
10
2.301000
20
0.495000
0
VERTEX
8
0
10
2.300000
20
0.505000
0
VERTEX
8
0
10
2.297000
20
0.515000
0
VERTEX
8
0
10
2.293000
20
0.523000
0
VERTEX
8
0
10
2.287000
20
0.530000
0
VERTEX
8
0
10
2.280000
20
0.537000
0
VERTEX
8
0
10
2.271000
20
0.541000
0
VERTEX
8
0
10
2.261000
20
0.544000
0
VERTEX
8
0
10
2.251000
20
0.545000
0
SEQEND
8
0
0
POLYLINE
8
0
66
1
40
0.008000
41
0.008000
0
VERTEX
8
0
10
2.301000
20
0.495000
0
VERTEX
8
0
10
2.300000
20
0.485000
0
VERTEX
8
0
10
2.297000
20
0.475000
0
VERTEX
8
0
10
2.293000
20
0.466000
0
VERTEX
8
0
10
2.287000
20
0.459000
0
VERTEX
8
0
10
2.280000
20
0.453000
0
VERTEX
8
0
10
2.271000
20
0.449000
0
VERTEX
8
0
10
2.261000
20
0.446000
0
VERTEX
8
0
10
2.251000
20
0.445000
0
SEQEND
8
0
0
POLYLINE
8
0
66
1
40
0.008000
41
0.008000
0
VERTEX
8
0
10
2.251000
20
0.545000
0
VERTEX
8
0
10
2.251000
20
0.595000
0
SEQEND
8
0
0
POLYLINE
8
0
66
1
40
0.008000
41
0.008000
0
VERTEX
8
0
10
2.551000
20
0.395000
0
VERTEX
8
0
10
2.551000
20
0.595000
0
SEQEND
8
0
0
POLYLINE
8
0
66
1
40
0.008000
41
0.008000
0
VERTEX
8
0
10
2.251000
20
0.395000
0
VERTEX
8
0
10
2.551000
20
0.395000
0
SEQEND
8
0
0
POLYLINE
8
0
66
1
40
0.008000
41
0.008000
0
VERTEX
8
0
10
2.251000
20
0.595000
0
VERTEX
8
0
10
2.551000
20
0.595000
0
SEQEND
8
0
0
TEXT
8
12632256
10
2.241000
20
0.420000
40
0.048000
41
1.041667
50
90.000000
1
U10
0
POLYLINE
8
0
66
1
40
0.008000
41
0.008000
0
VERTEX
8
0
10
1.516000
20
0.395000
0
VERTEX
8
0
10
1.516000
20
0.445000
0
SEQEND
8
0
0
POLYLINE
8
0
66
1
40
0.008000
41
0.008000
0
VERTEX
8
0
10
1.566000
20
0.495000
0
VERTEX
8
0
10
1.565000
20
0.505000
0
VERTEX
8
0
10
1.562000
20
0.515000
0
VERTEX
8
0
10
1.558000
20
0.523000
0
VERTEX
8
0
10
1.552000
20
0.530000
0
VERTEX
8
0
10
1.545000
20
0.537000
0
VERTEX
8
0
10
1.536000
20
0.541000
0
VERTEX
8
0
10
1.526000
20
0.544000
0
VERTEX
8
0
10
1.516000
20
0.545000
0
SEQEND
8
0
0
POLYLINE
8
0
66
1
40
0.008000
41
0.008000
0
VERTEX
8
0
10
1.566000
20
0.495000
0
VERTEX
8
0
10
1.565000
20
0.485000
0
VERTEX
8
0
10
1.562000
20
0.475000
0
VERTEX
8
0
10
1.558000
20
0.466000
0
VERTEX
8
0
10
1.552000
20
0.459000
0
VERTEX
8
0
10
1.545000
20
0.453000
0
VERTEX
8
0
10
1.536000
20
0.449000
0
VERTEX
8
0
10
1.526000
20
0.446000
0
VERTEX
8
0
10
1.516000
20
0.445000
0
SEQEND
8
0
0
POLYLINE
8
0
66
1
40
0.008000
41
0.008000
0
VERTEX
8
0
10
1.516000
20
0.545000
0
VERTEX
8
0
10
1.516000
20
0.595000
0
SEQEND
8
0
0
POLYLINE
8
0
66
1
40
0.008000
41
0.008000
0
VERTEX
8
0
10
1.816000
20
0.395000
0
VERTEX
8
0
10
1.816000
20
0.595000
0
SEQEND
8
0
0
POLYLINE
8
0
66
1
40
0.008000
41
0.008000
0
VERTEX
8
0
10
1.516000
20
0.395000
0
VERTEX
8
0
10
1.816000
20
0.395000
0
SEQEND
8
0
0
POLYLINE
8
0
66
1
40
0.008000
41
0.008000
0
VERTEX
8
0
10
1.516000
20
0.595000
0
VERTEX
8
0
10
1.816000
20
0.595000
0
SEQEND
8
0
0
TEXT
8
12632256
10
1.506000
20
0.445000
40
0.048000
41
1.041667
50
90.000000
1
U3
0
POLYLINE
8
0
66
1
40
0.008000
41
0.008000
0
VERTEX
8
0
10
0.916000
20
0.395000
0
VERTEX
8
0
10
0.916000
20
0.445000
0
SEQEND
8
0
0
POLYLINE
8
0
66
1
40
0.008000
41
0.008000
0
VERTEX
8
0
10
0.966000
20
0.495000
0
VERTEX
8
0
10
0.965000
20
0.505000
0
VERTEX
8
0
10
0.962000
20
0.515000
0
VERTEX
8
0
10
0.958000
20
0.523000
0
VERTEX
8
0
10
0.952000
20
0.530000
0
VERTEX
8
0
10
0.945000
20
0.537000
0
VERTEX
8
0
10
0.936000
20
0.541000
0
VERTEX
8
0
10
0.926000
20
0.544000
0
VERTEX
8
0
10
0.916000
20
0.545000
0
SEQEND
8
0
0
POLYLINE
8
0
66
1
40
0.008000
41
0.008000
0
VERTEX
8
0
10
0.966000
20
0.495000
0
VERTEX
8
0
10
0.965000
20
0.485000
0
VERTEX
8
0
10
0.962000
20
0.475000
0
VERTEX
8
0
10
0.958000
20
0.466000
0
VERTEX
8
0
10
0.952000
20
0.459000
0
VERTEX
8
0
10
0.945000
20
0.453000
0
VERTEX
8
0
10
0.936000
20
0.449000
0
VERTEX
8
0
10
0.926000
20
0.446000
0
VERTEX
8
0
10
0.916000
20
0.445000
0
SEQEND
8
0
0
POLYLINE
8
0
66
1
40
0.008000
41
0.008000
0
VERTEX
8
0
10
0.916000
20
0.545000
0
VERTEX
8
0
10
0.916000
20
0.595000
0
SEQEND
8
0
0
POLYLINE
8
0
66
1
40
0.008000
41
0.008000
0
VERTEX
8
0
10
1.216000
20
0.395000
0
VERTEX
8
0
10
1.216000
20
0.595000
0
SEQEND
8
0
0
POLYLINE
8
0
66
1
40
0.008000
41
0.008000
0
VERTEX
8
0
10
0.916000
20
0.395000
0
VERTEX
8
0
10
1.216000
20
0.395000
0
SEQEND
8
0
0
POLYLINE
8
0
66
1
40
0.008000
41
0.008000
0
VERTEX
8
0
10
0.916000
20
0.595000
0
VERTEX
8
0
10
1.216000
20
0.595000
0
SEQEND
8
0
0
TEXT
8
12632256
10
0.906000
20
0.445000
40
0.048000
41
1.041667
50
90.000000
1
U5
0
POLYLINE
8
0
66
1
40
0.008000
41
0.008000
0
VERTEX
8
0
10
0.303000
20
0.395000
0
VERTEX
8
0
10
0.303000
20
0.445000
0
SEQEND
8
0
0
POLYLINE
8
0
66
1
40
0.008000
41
0.008000
0
VERTEX
8
0
10
0.353000
20
0.495000
0
VERTEX
8
0
10
0.352000
20
0.505000
0
VERTEX
8
0
10
0.349000
20
0.515000
0
VERTEX
8
0
10
0.345000
20
0.523000
0
VERTEX
8
0
10
0.339000
20
0.530000
0
VERTEX
8
0
10
0.332000
20
0.537000
0
VERTEX
8
0
10
0.323000
20
0.541000
0
VERTEX
8
0
10
0.313000
20
0.544000
0
VERTEX
8
0
10
0.303000
20
0.545000
0
SEQEND
8
0
0
POLYLINE
8
0
66
1
40
0.008000
41
0.008000
0
VERTEX
8
0
10
0.353000
20
0.495000
0
VERTEX
8
0
10
0.352000
20
0.485000
0
VERTEX
8
0
10
0.349000
20
0.475000
0
VERTEX
8
0
10
0.345000
20
0.466000
0
VERTEX
8
0
10
0.339000
20
0.459000
0
VERTEX
8
0
10
0.332000
20
0.453000
0
VERTEX
8
0
10
0.323000
20
0.449000
0
VERTEX
8
0
10
0.313000
20
0.446000
0
VERTEX
8
0
10
0.303000
20
0.445000
0
SEQEND
8
0
0
POLYLINE
8
0
66
1
40
0.008000
41
0.008000
0
VERTEX
8
0
10
0.303000
20
0.545000
0
VERTEX
8
0
10
0.303000
20
0.595000
0
SEQEND
8
0
0
POLYLINE
8
0
66
1
40
0.008000
41
0.008000
0
VERTEX
8
0
10
0.603000
20
0.395000
0
VERTEX
8
0
10
0.603000
20
0.595000
0
SEQEND
8
0
0
POLYLINE
8
0
66
1
40
0.008000
41
0.008000
0
VERTEX
8
0
10
0.303000
20
0.395000
0
VERTEX
8
0
10
0.603000
20
0.395000
0
SEQEND
8
0
0
POLYLINE
8
0
66
1
40
0.008000
41
0.008000
0
VERTEX
8
0
10
0.303000
20
0.595000
0
VERTEX
8
0
10
0.603000
20
0.595000
0
SEQEND
8
0
0
TEXT
8
12632256
10
0.293000
20
0.445000
40
0.048000
41
1.041667
50
90.000000
1
U7
0
POLYLINE
8
0
66
1
40
0.008000
41
0.008000
0
VERTEX
8
0
10
-0.282000
20
0.395000
0
VERTEX
8
0
10
-0.282000
20
0.445000
0
SEQEND
8
0
0
POLYLINE
8
0
66
1
40
0.008000
41
0.008000
0
VERTEX
8
0
10
-0.232000
20
0.495000
0
VERTEX
8
0
10
-0.233000
20
0.505000
0
VERTEX
8
0
10
-0.236000
20
0.515000
0
VERTEX
8
0
10
-0.240000
20
0.523000
0
VERTEX
8
0
10
-0.246000
20
0.530000
0
VERTEX
8
0
10
-0.253000
20
0.537000
0
VERTEX
8
0
10
-0.262000
20
0.541000
0
VERTEX
8
0
10
-0.272000
20
0.544000
0
VERTEX
8
0
10
-0.282000
20
0.545000
0
SEQEND
8
0
0
POLYLINE
8
0
66
1
40
0.008000
41
0.008000
0
VERTEX
8
0
10
-0.232000
20
0.495000
0
VERTEX
8
0
10
-0.233000
20
0.485000
0
VERTEX
8
0
10
-0.236000
20
0.475000
0
VERTEX
8
0
10
-0.240000
20
0.466000
0
VERTEX
8
0
10
-0.246000
20
0.459000
0
VERTEX
8
0
10
-0.253000
20
0.453000
0
VERTEX
8
0
10
-0.262000
20
0.449000
0
VERTEX
8
0
10
-0.272000
20
0.446000
0
VERTEX
8
0
10
-0.282000
20
0.445000
0
SEQEND
8
0
0
POLYLINE
8
0
66
1
40
0.008000
41
0.008000
0
VERTEX
8
0
10
-0.282000
20
0.545000
0
VERTEX
8
0
10
-0.282000
20
0.595000
0
SEQEND
8
0
0
POLYLINE
8
0
66
1
40
0.008000
41
0.008000
0
VERTEX
8
0
10
0.017000
20
0.395000
0
VERTEX
8
0
10
0.017000
20
0.595000
0
SEQEND
8
0
0
POLYLINE
8
0
66
1
40
0.008000
41
0.008000
0
VERTEX
8
0
10
-0.282000
20
0.395000
0
VERTEX
8
0
10
0.017000
20
0.395000
0
SEQEND
8
0
0
POLYLINE
8
0
66
1
40
0.008000
41
0.008000
0
VERTEX
8
0
10
-0.282000
20
0.595000
0
VERTEX
8
0
10
0.017000
20
0.595000
0
SEQEND
8
0
0
TEXT
8
12632256
10
-0.292000
20
0.445000
40
0.048000
41
1.041667
50
90.000000
1
U9
0
POLYLINE
8
0
66
1
40
0.008000
41
0.008000
0
VERTEX
8
0
10
2.657000
20
0.645000
0
VERTEX
8
0
10
2.657000
20
0.595000
0
SEQEND
8
0
0
POLYLINE
8
0
66
1
40
0.008000
41
0.008000
0
VERTEX
8
0
10
2.632000
20
0.395000
0
VERTEX
8
0
10
2.682000
20
0.395000
0
VERTEX
8
0
10
2.682000
20
0.595000
0
VERTEX
8
0
10
2.632000
20
0.595000
0
VERTEX
8
0
10
2.632000
20
0.395000
0
SEQEND
8
0
0
POLYLINE
8
0
66
1
40
0.008000
41
0.008000
0
VERTEX
8
0
10
2.657000
20
0.395000
0
VERTEX
8
0
10
2.657000
20
0.345000
0
SEQEND
8
0
0
TEXT
8
12632256
10
2.740000
20
0.420000
40
0.048000
41
1.041667
50
90.000000
1
R11
0
POLYLINE
8
0
66
1
40
0.008000
41
0.008000
0
VERTEX
8
0
10
2.266000
20
1.063000
0
VERTEX
8
0
10
2.566000
20
1.063000
0
VERTEX
8
0
10
2.566000
20
1.163000
0
VERTEX
8
0
10
2.266000
20
1.163000
0
VERTEX
8
0
10
2.266000
20
1.063000
0
SEQEND
8
0
0
POLYLINE
8
0
66
1
40
0.008000
41
0.008000
0
VERTEX
8
0
10
2.566000
20
1.063000
0
VERTEX
8
0
10
2.566000
20
1.013000
0
VERTEX
8
0
10
2.266000
20
1.013000
0
VERTEX
8
0
10
2.266000
20
1.063000
0
SEQEND
8
0
0
POLYLINE
8
0
66
1
40
0.008000
41
0.008000
0
VERTEX
8
0
10
2.566000
20
1.063000
0
VERTEX
8
0
10
2.516000
20
1.013000
0
SEQEND
8
0
0
POLYLINE
8
0
66
1
40
0.008000
41
0.008000
0
VERTEX
8
0
10
2.516000
20
1.063000
0
VERTEX
8
0
10
2.466000
20
1.013000
0
SEQEND
8
0
0
POLYLINE
8
0
66
1
40
0.008000
41
0.008000
0
VERTEX
8
0
10
2.466000
20
1.063000
0
VERTEX
8
0
10
2.416000
20
1.013000
0
SEQEND
8
0
0
POLYLINE
8
0
66
1
40
0.008000
41
0.008000
0
VERTEX
8
0
10
2.416000
20
1.063000
0
VERTEX
8
0
10
2.366000
20
1.013000
0
SEQEND
8
0
0
POLYLINE
8
0
66
1
40
0.008000
41
0.008000
0
VERTEX
8
0
10
2.366000
20
1.063000
0
VERTEX
8
0
10
2.316000
20
1.013000
0
SEQEND
8
0
0
POLYLINE
8
0
66
1
40
0.008000
41
0.008000
0
VERTEX
8
0
10
2.316000
20
1.063000
0
VERTEX
8
0
10
2.266000
20
1.013000
0
SEQEND
8
0
0
TEXT
8
12632256
10
2.341000
20
0.955000
40
0.048000
41
1.041667
1
U11
0
POLYLINE
8
0
66
1
40
0.008000
41
0.008000
0
VERTEX
8
0
10
2.066000
20
1.388000
0
VERTEX
8
0
10
2.766000
20
1.388000
0
VERTEX
8
0
10
2.766000
20
1.588000
0
VERTEX
8
0
10
2.066000
20
1.588000
0
VERTEX
8
0
10
2.066000
20
1.388000
0
SEQEND
8
0
0
TEXT
8
12632256
10
2.341000
20
1.598000
40
0.048000
41
1.041667
1
C17
0
POLYLINE
8
0
66
1
40
0.008000
41
0.008000
0
VERTEX
8
0
10
2.616000
20
1.314000
0
VERTEX
8
0
10
2.566000
20
1.314000
0
SEQEND
8
0
0
POLYLINE
8
0
66
1
40
0.008000
41
0.008000
0
VERTEX
8
0
10
2.266000
20
1.289000
0
VERTEX
8
0
10
2.566000
20
1.289000
0
VERTEX
8
0
10
2.566000
20
1.339000
0
VERTEX
8
0
10
2.266000
20
1.339000
0
VERTEX
8
0
10
2.266000
20
1.289000
0
SEQEND
8
0
0
POLYLINE
8
0
66
1
40
0.008000
41
0.008000
0
VERTEX
8
0
10
2.266000
20
1.314000
0
VERTEX
8
0
10
2.216000
20
1.314000
0
SEQEND
8
0
0
TEXT
8
12632256
10
2.391000
20
1.231000
40
0.048000
41
1.041667
1
R25
0
POLYLINE
8
0
66
1
40
0.008000
41
0.008000
0
VERTEX
8
0
10
2.116000
20
2.111000
0
VERTEX
8
0
10
2.116000
20
1.711000
0
SEQEND
8
0
0
POLYLINE
8
0
66
1
40
0.008000
41
0.008000
0
VERTEX
8
0
10
2.716000
20
2.111000
0
VERTEX
8
0
10
2.716000
20
1.711000
0
SEQEND
8
0
0
POLYLINE
8
0
66
1
40
0.008000
41
0.008000
0
VERTEX
8
0
10
2.116000
20
1.711000
0
VERTEX
8
0
10
2.716000
20
1.711000
0
SEQEND
8
0
0
POLYLINE
8
0
66
1
40
0.008000
41
0.008000
0
VERTEX
8
0
10
2.716000
20
2.111000
0
VERTEX
8
0
10
2.116000
20
2.111000
0
SEQEND
8
0
0
TEXT
8
12632256
10
2.341000
20
2.121000
40
0.048000
41
1.041667
1
J13
0
POLYLINE
8
0
66
1
40
0.008000
41
0.008000
0
VERTEX
8
0
10
-0.117000
20
-1.190000
0
VERTEX
8
0
10
-0.117000
20
-1.140000
0
SEQEND
8
0
0
POLYLINE
8
0
66
1
40
0.008000
41
0.008000
0
VERTEX
8
0
10
-0.142000
20
-1.140000
0
VERTEX
8
0
10
-0.092000
20
-1.140000
0
VERTEX
8
0
10
-0.092000
20
-0.940000
0
VERTEX
8
0
10
-0.142000
20
-0.940000
0
VERTEX
8
0
10
-0.142000
20
-1.140000
0
SEQEND
8
0
0
POLYLINE
8
0
66
1
40
0.008000
41
0.008000
0
VERTEX
8
0
10
-0.117000
20
-0.940000
0
VERTEX
8
0
10
-0.117000
20
-0.890000
0
SEQEND
8
0
0
TEXT
8
12632256
10
-0.152000
20
-1.090000
40
0.048000
41
1.041667
50
90.000000
1
R4
0
POLYLINE
8
0
66
1
40
0.008000
41
0.008000
0
VERTEX
8
0
10
1.612000
20
-1.733000
0
VERTEX
8
0
10
1.602000
20
-1.730000
0
VERTEX
8
0
10
1.592000
20
-1.722000
0
VERTEX
8
0
10
1.584000
20
-1.708000
0
VERTEX
8
0
10
1.576000
20
-1.690000
0
VERTEX
8
0
10
1.570000
20
-1.668000
0
VERTEX
8
0
10
1.566000
20
-1.642000
0
VERTEX
8
0
10
1.563000
20
-1.614000
0
VERTEX
8
0
10
1.562000
20
-1.583000
0
SEQEND
8
0
0
POLYLINE
8
0
66
1
40
0.008000
41
0.008000
0
VERTEX
8
0
10
1.612000
20
-1.433000
0
VERTEX
8
0
10
1.607000
20
-1.434000
0
VERTEX
8
0
10
1.602000
20
-1.436000
0
VERTEX
8
0
10
1.592000
20
-1.445000
0
VERTEX
8
0
10
1.584000
20
-1.458000
0
VERTEX
8
0
10
1.576000
20
-1.476000
0
VERTEX
8
0
10
1.570000
20
-1.499000
0
VERTEX
8
0
10
1.566000
20
-1.524000
0
VERTEX
8
0
10
1.563000
20
-1.552000
0
VERTEX
8
0
10
1.562000
20
-1.583000
0
SEQEND
8
0
0
POLYLINE
8
0
66
1
40
0.008000
41
0.008000
0
VERTEX
8
0
10
1.612000
20
-1.433000
0
VERTEX
8
0
10
1.617000
20
-1.434000
0
VERTEX
8
0
10
1.622000
20
-1.436000
0
VERTEX
8
0
10
1.632000
20
-1.445000
0
VERTEX
8
0
10
1.640000
20
-1.458000
0
VERTEX
8
0
10
1.648000
20
-1.476000
0
VERTEX
8
0
10
1.654000
20
-1.499000
0
VERTEX
8
0
10
1.658000
20
-1.524000
0
VERTEX
8
0
10
1.661000
20
-1.552000
0
VERTEX
8
0
10
1.662000
20
-1.583000
0
SEQEND
8
0
0
POLYLINE
8
0
66
1
40
0.008000
41
0.008000
0
VERTEX
8
0
10
1.612000
20
-1.733000
0
VERTEX
8
0
10
1.622000
20
-1.730000
0
VERTEX
8
0
10
1.632000
20
-1.722000
0
VERTEX
8
0
10
1.640000
20
-1.708000
0
VERTEX
8
0
10
1.648000
20
-1.690000
0
VERTEX
8
0
10
1.654000
20
-1.668000
0
VERTEX
8
0
10
1.658000
20
-1.642000
0
VERTEX
8
0
10
1.661000
20
-1.614000
0
VERTEX
8
0
10
1.662000
20
-1.583000
0
SEQEND
8
0
0
TEXT
8
12632256
10
1.548000
20
-1.629000
40
0.048000
41
1.041667
50
90.000000
1
C7
0
POLYLINE
8
0
66
1
40
0.008000
41
0.008000
0
VERTEX
8
0
10
-0.480000
20
-1.725000
0
VERTEX
8
0
10
-0.180000
20
-1.725000
0
VERTEX
8
0
10
-0.180000
20
-1.475000
0
VERTEX
8
0
10
-0.480000
20
-1.475000
0
VERTEX
8
0
10
-0.480000
20
-1.725000
0
SEQEND
8
0
0
POLYLINE
8
0
66
1
40
0.008000
41
0.008000
0
VERTEX
8
0
10
-0.480000
20
-1.525000
0
VERTEX
8
0
10
-0.180000
20
-1.525000
0
SEQEND
8
0
0
TEXT
8
12632256
10
-0.380000
20
-1.465000
40
0.048000
41
1.041667
1
J2
0
POLYLINE
8
0
66
1
40
0.008000
41
0.008000
0
VERTEX
8
0
10
-2.910000
20
0.738000
0
VERTEX
8
0
10
-2.710000
20
0.738000
0
SEQEND
8
0
0
POLYLINE
8
0
66
1
40
0.008000
41
0.008000
0
VERTEX
8
0
10
-2.940000
20
0.803000
0
VERTEX
8
0
10
-2.938000
20
0.788000
0
VERTEX
8
0
10
-2.932000
20
0.772000
0
VERTEX
8
0
10
-2.923000
20
0.756000
0
VERTEX
8
0
10
-2.910000
20
0.738000
0
SEQEND
8
0
0
POLYLINE
8
0
66
1
40
0.008000
41
0.008000
0
VERTEX
8
0
10
-2.940000
20
0.803000
0
VERTEX
8
0
10
-2.939000
20
0.828000
0
VERTEX
8
0
10
-2.932000
20
0.852000
0
VERTEX
8
0
10
-2.921000
20
0.873000
0
VERTEX
8
0
10
-2.905000
20
0.892000
0
VERTEX
8
0
10
-2.886000
20
0.907000
0
VERTEX
8
0
10
-2.863000
20
0.918000
0
VERTEX
8
0
10
-2.838000
20
0.926000
0
VERTEX
8
0
10
-2.810000
20
0.928000
0
SEQEND
8
0
0
POLYLINE
8
0
66
1
40
0.008000
41
0.008000
0
VERTEX
8
0
10
-2.680000
20
0.803000
0
VERTEX
8
0
10
-2.682000
20
0.788000
0
VERTEX
8
0
10
-2.688000
20
0.772000
0
VERTEX
8
0
10
-2.697000
20
0.756000
0
VERTEX
8
0
10
-2.710000
20
0.738000
0
SEQEND
8
0
0
POLYLINE
8
0
66
1
40
0.008000
41
0.008000
0
VERTEX
8
0
10
-2.680000
20
0.803000
0
VERTEX
8
0
10
-2.681000
20
0.828000
0
VERTEX
8
0
10
-2.688000
20
0.852000
0
VERTEX
8
0
10
-2.699000
20
0.873000
0
VERTEX
8
0
10
-2.715000
20
0.892000
0
VERTEX
8
0
10
-2.734000
20
0.907000
0
VERTEX
8
0
10
-2.757000
20
0.918000
0
VERTEX
8
0
10
-2.782000
20
0.926000
0
VERTEX
8
0
10
-2.810000
20
0.928000
0
SEQEND
8
0
0
TEXT
8
12632256
10
-2.860000
20
0.938000
40
0.048000
41
1.041667
1
Q1
0
POLYLINE
8
0
66
1
40
0.008000
41
0.008000
0
VERTEX
8
0
10
1.938000
20
0.645000
0
VERTEX
8
0
10
1.938000
20
0.595000
0
SEQEND
8
0
0
POLYLINE
8
0
66
1
40
0.008000
41
0.008000
0
VERTEX
8
0
10
1.913000
20
0.395000
0
VERTEX
8
0
10
1.963000
20
0.395000
0
VERTEX
8
0
10
1.963000
20
0.595000
0
VERTEX
8
0
10
1.913000
20
0.595000
0
VERTEX
8
0
10
1.913000
20
0.395000
0
SEQEND
8
0
0
POLYLINE
8
0
66
1
40
0.008000
41
0.008000
0
VERTEX
8
0
10
1.938000
20
0.395000
0
VERTEX
8
0
10
1.938000
20
0.345000
0
SEQEND
8
0
0
TEXT
8
12632256
10
2.021000
20
0.420000
40
0.048000
41
1.041667
50
90.000000
1
R10
0
POLYLINE
8
0
66
1
40
0.008000
41
0.008000
0
VERTEX
8
0
10
1.528000
20
1.063000
0
VERTEX
8
0
10
1.828000
20
1.063000
0
VERTEX
8
0
10
1.828000
20
1.163000
0
VERTEX
8
0
10
1.528000
20
1.163000
0
VERTEX
8
0
10
1.528000
20
1.063000
0
SEQEND
8
0
0
POLYLINE
8
0
66
1
40
0.008000
41
0.008000
0
VERTEX
8
0
10
1.828000
20
1.063000
0
VERTEX
8
0
10
1.828000
20
1.013000
0
VERTEX
8
0
10
1.528000
20
1.013000
0
VERTEX
8
0
10
1.528000
20
1.063000
0
SEQEND
8
0
0
POLYLINE
8
0
66
1
40
0.008000
41
0.008000
0
VERTEX
8
0
10
1.828000
20
1.063000
0
VERTEX
8
0
10
1.778000
20
1.013000
0
SEQEND
8
0
0
POLYLINE
8
0
66
1
40
0.008000
41
0.008000
0
VERTEX
8
0
10
1.778000
20
1.063000
0
VERTEX
8
0
10
1.728000
20
1.013000
0
SEQEND
8
0
0
POLYLINE
8
0
66
1
40
0.008000
41
0.008000
0
VERTEX
8
0
10
1.728000
20
1.063000
0
VERTEX
8
0
10
1.678000
20
1.013000
0
SEQEND
8
0
0
POLYLINE
8
0
66
1
40
0.008000
41
0.008000
0
VERTEX
8
0
10
1.678000
20
1.063000
0
VERTEX
8
0
10
1.628000
20
1.013000
0
SEQEND
8
0
0
POLYLINE
8
0
66
1
40
0.008000
41
0.008000
0
VERTEX
8
0
10
1.628000
20
1.063000
0
VERTEX
8
0
10
1.578000
20
1.013000
0
SEQEND
8
0
0
POLYLINE
8
0
66
1
40
0.008000
41
0.008000
0
VERTEX
8
0
10
1.578000
20
1.063000
0
VERTEX
8
0
10
1.528000
20
1.013000
0
SEQEND
8
0
0
TEXT
8
12632256
10
1.628000
20
0.955000
40
0.048000
41
1.041667
1
U4
0
POLYLINE
8
0
66
1
40
0.008000
41
0.008000
0
VERTEX
8
0
10
1.328000
20
1.388000
0
VERTEX
8
0
10
2.028000
20
1.388000
0
VERTEX
8
0
10
2.028000
20
1.588000
0
VERTEX
8
0
10
1.328000
20
1.588000
0
VERTEX
8
0
10
1.328000
20
1.388000
0
SEQEND
8
0
0
TEXT
8
12632256
10
1.603000
20
1.598000
40
0.048000
41
1.041667
1
C12
0
POLYLINE
8
0
66
1
40
0.008000
41
0.008000
0
VERTEX
8
0
10
1.878000
20
1.314000
0
VERTEX
8
0
10
1.828000
20
1.314000
0
SEQEND
8
0
0
POLYLINE
8
0
66
1
40
0.008000
41
0.008000
0
VERTEX
8
0
10
1.528000
20
1.289000
0
VERTEX
8
0
10
1.828000
20
1.289000
0
VERTEX
8
0
10
1.828000
20
1.339000
0
VERTEX
8
0
10
1.528000
20
1.339000
0
VERTEX
8
0
10
1.528000
20
1.289000
0
SEQEND
8
0
0
POLYLINE
8
0
66
1
40
0.008000
41
0.008000
0
VERTEX
8
0
10
1.528000
20
1.314000
0
VERTEX
8
0
10
1.478000
20
1.314000
0
SEQEND
8
0
0
TEXT
8
12632256
10
1.653000
20
1.231000
40
0.048000
41
1.041667
1
R13
0
POLYLINE
8
0
66
1
40
0.008000
41
0.008000
0
VERTEX
8
0
10
1.378000
20
2.111000
0
VERTEX
8
0
10
1.378000
20
1.711000
0
SEQEND
8
0
0
POLYLINE
8
0
66
1
40
0.008000
41
0.008000
0
VERTEX
8
0
10
1.978000
20
2.111000
0
VERTEX
8
0
10
1.978000
20
1.711000
0
SEQEND
8
0
0
POLYLINE
8
0
66
1
40
0.008000
41
0.008000
0
VERTEX
8
0
10
1.378000
20
1.711000
0
VERTEX
8
0
10
1.978000
20
1.711000
0
SEQEND
8
0
0
POLYLINE
8
0
66
1
40
0.008000
41
0.008000
0
VERTEX
8
0
10
1.978000
20
2.111000
0
VERTEX
8
0
10
1.378000
20
2.111000
0
SEQEND
8
0
0
TEXT
8
12632256
10
1.628000
20
2.121000
40
0.048000
41
1.041667
1
J8
0
POLYLINE
8
0
66
1
40
0.008000
41
0.008000
0
VERTEX
8
0
10
0.570000
20
1.388000
0
VERTEX
8
0
10
1.270000
20
1.388000
0
VERTEX
8
0
10
1.270000
20
1.588000
0
VERTEX
8
0
10
0.570000
20
1.588000
0
VERTEX
8
0
10
0.570000
20
1.388000
0
SEQEND
8
0
0
TEXT
8
12632256
10
0.845000
20
1.598000
40
0.048000
41
1.041667
1
C13
0
POLYLINE
8
0
66
1
40
0.008000
41
0.008000
0
VERTEX
8
0
10
1.120000
20
1.314000
0
VERTEX
8
0
10
1.070000
20
1.314000
0
SEQEND
8
0
0
POLYLINE
8
0
66
1
40
0.008000
41
0.008000
0
VERTEX
8
0
10
0.770000
20
1.289000
0
VERTEX
8
0
10
1.070000
20
1.289000
0
VERTEX
8
0
10
1.070000
20
1.339000
0
VERTEX
8
0
10
0.770000
20
1.339000
0
VERTEX
8
0
10
0.770000
20
1.289000
0
SEQEND
8
0
0
POLYLINE
8
0
66
1
40
0.008000
41
0.008000
0
VERTEX
8
0
10
0.770000
20
1.314000
0
VERTEX
8
0
10
0.720000
20
1.314000
0
SEQEND
8
0
0
TEXT
8
12632256
10
0.895000
20
1.231000
40
0.048000
41
1.041667
1
R17
0
POLYLINE
8
0
66
1
40
0.008000
41
0.008000
0
VERTEX
8
0
10
-0.163000
20
1.388000
0
VERTEX
8
0
10
0.536000
20
1.388000
0
VERTEX
8
0
10
0.536000
20
1.588000
0
VERTEX
8
0
10
-0.163000
20
1.588000
0
VERTEX
8
0
10
-0.163000
20
1.388000
0
SEQEND
8
0
0
TEXT
8
12632256
10
0.111000
20
1.598000
40
0.048000
41
1.041667
1
C14
0
POLYLINE
8
0
66
1
40
0.008000
41
0.008000
0
VERTEX
8
0
10
0.386000
20
1.314000
0
VERTEX
8
0
10
0.336000
20
1.314000
0
SEQEND
8
0
0
POLYLINE
8
0
66
1
40
0.008000
41
0.008000
0
VERTEX
8
0
10
0.036000
20
1.289000
0
VERTEX
8
0
10
0.336000
20
1.289000
0
VERTEX
8
0
10
0.336000
20
1.339000
0
VERTEX
8
0
10
0.036000
20
1.339000
0
VERTEX
8
0
10
0.036000
20
1.289000
0
SEQEND
8
0
0
POLYLINE
8
0
66
1
40
0.008000
41
0.008000
0
VERTEX
8
0
10
0.036000
20
1.314000
0
VERTEX
8
0
10
-0.013000
20
1.314000
0
SEQEND
8
0
0
TEXT
8
12632256
10
0.161000
20
1.231000
40
0.048000
41
1.041667
1
R20
0
POLYLINE
8
0
66
1
40
0.008000
41
0.008000
0
VERTEX
8
0
10
-0.898000
20
1.388000
0
VERTEX
8
0
10
-0.198000
20
1.388000
0
VERTEX
8
0
10
-0.198000
20
1.588000
0
VERTEX
8
0
10
-0.898000
20
1.588000
0
VERTEX
8
0
10
-0.898000
20
1.388000
0
SEQEND
8
0
0
TEXT
8
12632256
10
-0.623000
20
1.598000
40
0.048000
41
1.041667
1
C15
0
POLYLINE
8
0
66
1
40
0.008000
41
0.008000
0
VERTEX
8
0
10
-0.348000
20
1.314000
0
VERTEX
8
0
10
-0.398000
20
1.314000
0
SEQEND
8
0
0
POLYLINE
8
0
66
1
40
0.008000
41
0.008000
0
VERTEX
8
0
10
-0.698000
20
1.289000
0
VERTEX
8
0
10
-0.398000
20
1.289000
0
VERTEX
8
0
10
-0.398000
20
1.339000
0
VERTEX
8
0
10
-0.698000
20
1.339000
0
VERTEX
8
0
10
-0.698000
20
1.289000
0
SEQEND
8
0
0
POLYLINE
8
0
66
1
40
0.008000
41
0.008000
0
VERTEX
8
0
10
-0.698000
20
1.314000
0
VERTEX
8
0
10
-0.748000
20
1.314000
0
SEQEND
8
0
0
TEXT
8
12632256
10
-0.573000
20
1.231000
40
0.048000
41
1.041667
1
R23
0
POLYLINE
8
0
66
1
40
0.008000
41
0.008000
0
VERTEX
8
0
10
1.331000
20
0.645000
0
VERTEX
8
0
10
1.331000
20
0.595000
0
SEQEND
8
0
0
POLYLINE
8
0
66
1
40
0.008000
41
0.008000
0
VERTEX
8
0
10
1.306000
20
0.395000
0
VERTEX
8
0
10
1.356000
20
0.395000
0
VERTEX
8
0
10
1.356000
20
0.595000
0
VERTEX
8
0
10
1.306000
20
0.595000
0
VERTEX
8
0
10
1.306000
20
0.395000
0
SEQEND
8
0
0
POLYLINE
8
0
66
1
40
0.008000
41
0.008000
0
VERTEX
8
0
10
1.331000
20
0.395000
0
VERTEX
8
0
10
1.331000
20
0.345000
0
SEQEND
8
0
0
TEXT
8
12632256
10
1.414000
20
0.420000
40
0.048000
41
1.041667
50
90.000000
1
R14
0
POLYLINE
8
0
66
1
40
0.008000
41
0.008000
0
VERTEX
8
0
10
0.726000
20
0.645000
0
VERTEX
8
0
10
0.726000
20
0.595000
0
SEQEND
8
0
0
POLYLINE
8
0
66
1
40
0.008000
41
0.008000
0
VERTEX
8
0
10
0.701000
20
0.395000
0
VERTEX
8
0
10
0.751000
20
0.395000
0
VERTEX
8
0
10
0.751000
20
0.595000
0
VERTEX
8
0
10
0.701000
20
0.595000
0
VERTEX
8
0
10
0.701000
20
0.395000
0
SEQEND
8
0
0
POLYLINE
8
0
66
1
40
0.008000
41
0.008000
0
VERTEX
8
0
10
0.726000
20
0.395000
0
VERTEX
8
0
10
0.726000
20
0.345000
0
SEQEND
8
0
0
TEXT
8
12632256
10
0.809000
20
0.420000
40
0.048000
41
1.041667
50
90.000000
1
R18
0
POLYLINE
8
0
66
1
40
0.008000
41
0.008000
0
VERTEX
8
0
10
0.115000
20
0.645000
0
VERTEX
8
0
10
0.115000
20
0.595000
0
SEQEND
8
0
0
POLYLINE
8
0
66
1
40
0.008000
41
0.008000
0
VERTEX
8
0
10
0.090000
20
0.395000
0
VERTEX
8
0
10
0.140000
20
0.395000
0
VERTEX
8
0
10
0.140000
20
0.595000
0
VERTEX
8
0
10
0.090000
20
0.595000
0
VERTEX
8
0
10
0.090000
20
0.395000
0
SEQEND
8
0
0
POLYLINE
8
0
66
1
40
0.008000
41
0.008000
0
VERTEX
8
0
10
0.115000
20
0.395000
0
VERTEX
8
0
10
0.115000
20
0.345000
0
SEQEND
8
0
0
TEXT
8
12632256
10
0.198000
20
0.420000
40
0.048000
41
1.041667
50
90.000000
1
R21
0
POLYLINE
8
0
66
1
40
0.008000
41
0.008000
0
VERTEX
8
0
10
0.770000
20
1.063000
0
VERTEX
8
0
10
1.070000
20
1.063000
0
VERTEX
8
0
10
1.070000
20
1.163000
0
VERTEX
8
0
10
0.770000
20
1.163000
0
VERTEX
8
0
10
0.770000
20
1.063000
0
SEQEND
8
0
0
POLYLINE
8
0
66
1
40
0.008000
41
0.008000
0
VERTEX
8
0
10
1.070000
20
1.063000
0
VERTEX
8
0
10
1.070000
20
1.013000
0
VERTEX
8
0
10
0.770000
20
1.013000
0
VERTEX
8
0
10
0.770000
20
1.063000
0
SEQEND
8
0
0
POLYLINE
8
0
66
1
40
0.008000
41
0.008000
0
VERTEX
8
0
10
1.070000
20
1.063000
0
VERTEX
8
0
10
1.020000
20
1.013000
0
SEQEND
8
0
0
POLYLINE
8
0
66
1
40
0.008000
41
0.008000
0
VERTEX
8
0
10
1.020000
20
1.063000
0
VERTEX
8
0
10
0.970000
20
1.013000
0
SEQEND
8
0
0
POLYLINE
8
0
66
1
40
0.008000
41
0.008000
0
VERTEX
8
0
10
0.970000
20
1.063000
0
VERTEX
8
0
10
0.920000
20
1.013000
0
SEQEND
8
0
0
POLYLINE
8
0
66
1
40
0.008000
41
0.008000
0
VERTEX
8
0
10
0.920000
20
1.063000
0
VERTEX
8
0
10
0.870000
20
1.013000
0
SEQEND
8
0
0
POLYLINE
8
0
66
1
40
0.008000
41
0.008000
0
VERTEX
8
0
10
0.870000
20
1.063000
0
VERTEX
8
0
10
0.820000
20
1.013000
0
SEQEND
8
0
0
POLYLINE
8
0
66
1
40
0.008000
41
0.008000
0
VERTEX
8
0
10
0.820000
20
1.063000
0
VERTEX
8
0
10
0.770000
20
1.013000
0
SEQEND
8
0
0
TEXT
8
12632256
10
0.870000
20
0.955000
40
0.048000
41
1.041667
1
U6
0
POLYLINE
8
0
66
1
40
0.008000
41
0.008000
0
VERTEX
8
0
10
0.036000
20
1.063000
0
VERTEX
8
0
10
0.336000
20
1.063000
0
VERTEX
8
0
10
0.336000
20
1.163000
0
VERTEX
8
0
10
0.036000
20
1.163000
0
VERTEX
8
0
10
0.036000
20
1.063000
0
SEQEND
8
0
0
POLYLINE
8
0
66
1
40
0.008000
41
0.008000
0
VERTEX
8
0
10
0.336000
20
1.063000
0
VERTEX
8
0
10
0.336000
20
1.013000
0
VERTEX
8
0
10
0.036000
20
1.013000
0
VERTEX
8
0
10
0.036000
20
1.063000
0
SEQEND
8
0
0
POLYLINE
8
0
66
1
40
0.008000
41
0.008000
0
VERTEX
8
0
10
0.336000
20
1.063000
0
VERTEX
8
0
10
0.286000
20
1.013000
0
SEQEND
8
0
0
POLYLINE
8
0
66
1
40
0.008000
41
0.008000
0
VERTEX
8
0
10
0.286000
20
1.063000
0
VERTEX
8
0
10
0.236000
20
1.013000
0
SEQEND
8
0
0
POLYLINE
8
0
66
1
40
0.008000
41
0.008000
0
VERTEX
8
0
10
0.236000
20
1.063000
0
VERTEX
8
0
10
0.186000
20
1.013000
0
SEQEND
8
0
0
POLYLINE
8
0
66
1
40
0.008000
41
0.008000
0
VERTEX
8
0
10
0.186000
20
1.063000
0
VERTEX
8
0
10
0.136000
20
1.013000
0
SEQEND
8
0
0
POLYLINE
8
0
66
1
40
0.008000
41
0.008000
0
VERTEX
8
0
10
0.136000
20
1.063000
0
VERTEX
8
0
10
0.086000
20
1.013000
0
SEQEND
8
0
0
POLYLINE
8
0
66
1
40
0.008000
41
0.008000
0
VERTEX
8
0
10
0.086000
20
1.063000
0
VERTEX
8
0
10
0.036000
20
1.013000
0
SEQEND
8
0
0
TEXT
8
12632256
10
0.136000
20
0.955000
40
0.048000
41
1.041667
1
U8
0
POLYLINE
8
0
66
1
40
0.008000
41
0.008000
0
VERTEX
8
0
10
-0.698000
20
1.063000
0
VERTEX
8
0
10
-0.398000
20
1.063000
0
VERTEX
8
0
10
-0.398000
20
1.163000
0
VERTEX
8
0
10
-0.698000
20
1.163000
0
VERTEX
8
0
10
-0.698000
20
1.063000
0
SEQEND
8
0
0
POLYLINE
8
0
66
1
40
0.008000
41
0.008000
0
VERTEX
8
0
10
-0.398000
20
1.063000
0
VERTEX
8
0
10
-0.398000
20
1.013000
0
VERTEX
8
0
10
-0.698000
20
1.013000
0
VERTEX
8
0
10
-0.698000
20
1.063000
0
SEQEND
8
0
0
POLYLINE
8
0
66
1
40
0.008000
41
0.008000
0
VERTEX
8
0
10
-0.398000
20
1.063000
0
VERTEX
8
0
10
-0.448000
20
1.013000
0
SEQEND
8
0
0
POLYLINE
8
0
66
1
40
0.008000
41
0.008000
0
VERTEX
8
0
10
-0.448000
20
1.063000
0
VERTEX
8
0
10
-0.498000
20
1.013000
0
SEQEND
8
0
0
POLYLINE
8
0
66
1
40
0.008000
41
0.008000
0
VERTEX
8
0
10
-0.498000
20
1.063000
0
VERTEX
8
0
10
-0.548000
20
1.013000
0
SEQEND
8
0
0
POLYLINE
8
0
66
1
40
0.008000
41
0.008000
0
VERTEX
8
0
10
-0.548000
20
1.063000
0
VERTEX
8
0
10
-0.598000
20
1.013000
0
SEQEND
8
0
0
POLYLINE
8
0
66
1
40
0.008000
41
0.008000
0
VERTEX
8
0
10
-0.598000
20
1.063000
0
VERTEX
8
0
10
-0.648000
20
1.013000
0
SEQEND
8
0
0
POLYLINE
8
0
66
1
40
0.008000
41
0.008000
0
VERTEX
8
0
10
-0.648000
20
1.063000
0
VERTEX
8
0
10
-0.698000
20
1.013000
0
SEQEND
8
0
0
TEXT
8
12632256
10
-0.623000
20
0.955000
40
0.048000
41
1.041667
1
U12
0
POLYLINE
8
0
66
1
40
0.008000
41
0.008000
0
VERTEX
8
0
10
0.620000
20
2.111000
0
VERTEX
8
0
10
0.620000
20
1.711000
0
SEQEND
8
0
0
POLYLINE
8
0
66
1
40
0.008000
41
0.008000
0
VERTEX
8
0
10
1.220000
20
2.111000
0
VERTEX
8
0
10
1.220000
20
1.711000
0
SEQEND
8
0
0
POLYLINE
8
0
66
1
40
0.008000
41
0.008000
0
VERTEX
8
0
10
0.620000
20
1.711000
0
VERTEX
8
0
10
1.220000
20
1.711000
0
SEQEND
8
0
0
POLYLINE
8
0
66
1
40
0.008000
41
0.008000
0
VERTEX
8
0
10
1.220000
20
2.111000
0
VERTEX
8
0
10
0.620000
20
2.111000
0
SEQEND
8
0
0
TEXT
8
12632256
10
0.845000
20
2.121000
40
0.048000
41
1.041667
1
J10
0
POLYLINE
8
0
66
1
40
0.008000
41
0.008000
0
VERTEX
8
0
10
-0.113000
20
2.111000
0
VERTEX
8
0
10
-0.113000
20
1.711000
0
SEQEND
8
0
0
POLYLINE
8
0
66
1
40
0.008000
41
0.008000
0
VERTEX
8
0
10
0.486000
20
2.111000
0
VERTEX
8
0
10
0.486000
20
1.711000
0
SEQEND
8
0
0
POLYLINE
8
0
66
1
40
0.008000
41
0.008000
0
VERTEX
8
0
10
-0.113000
20
1.711000
0
VERTEX
8
0
10
0.486000
20
1.711000
0
SEQEND
8
0
0
POLYLINE
8
0
66
1
40
0.008000
41
0.008000
0
VERTEX
8
0
10
0.486000
20
2.111000
0
VERTEX
8
0
10
-0.113000
20
2.111000
0
SEQEND
8
0
0
TEXT
8
12632256
10
0.111000
20
2.121000
40
0.048000
41
1.041667
1
J11
0
POLYLINE
8
0
66
1
40
0.008000
41
0.008000
0
VERTEX
8
0
10
-0.848000
20
2.111000
0
VERTEX
8
0
10
-0.848000
20
1.711000
0
SEQEND
8
0
0
POLYLINE
8
0
66
1
40
0.008000
41
0.008000
0
VERTEX
8
0
10
-0.248000
20
2.111000
0
VERTEX
8
0
10
-0.248000
20
1.711000
0
SEQEND
8
0
0
POLYLINE
8
0
66
1
40
0.008000
41
0.008000
0
VERTEX
8
0
10
-0.848000
20
1.711000
0
VERTEX
8
0
10
-0.248000
20
1.711000
0
SEQEND
8
0
0
POLYLINE
8
0
66
1
40
0.008000
41
0.008000
0
VERTEX
8
0
10
-0.248000
20
2.111000
0
VERTEX
8
0
10
-0.848000
20
2.111000
0
SEQEND
8
0
0
TEXT
8
12632256
10
-1.018000
20
1.629000
40
0.048000
41
1.041667
1
J12
0
POLYLINE
8
0
66
1
40
0.008000
41
0.008000
0
VERTEX
8
0
10
-1.803000
20
2.111000
0
VERTEX
8
0
10
-1.803000
20
1.711000
0
SEQEND
8
0
0
POLYLINE
8
0
66
1
40
0.008000
41
0.008000
0
VERTEX
8
0
10
-1.203000
20
2.111000
0
VERTEX
8
0
10
-1.203000
20
1.711000
0
SEQEND
8
0
0
POLYLINE
8
0
66
1
40
0.008000
41
0.008000
0
VERTEX
8
0
10
-1.803000
20
1.711000
0
VERTEX
8
0
10
-1.203000
20
1.711000
0
SEQEND
8
0
0
POLYLINE
8
0
66
1
40
0.008000
41
0.008000
0
VERTEX
8
0
10
-1.203000
20
2.111000
0
VERTEX
8
0
10
-1.803000
20
2.111000
0
SEQEND
8
0
0
TEXT
8
12632256
10
-1.578000
20
2.121000
40
0.048000
41
1.041667
1
J14
0
POLYLINE
8
0
66
1
40
0.008000
41
0.008000
0
VERTEX
8
0
10
0.792000
20
-0.464000
0
VERTEX
8
0
10
0.792000
20
-0.414000
0
SEQEND
8
0
0
POLYLINE
8
0
66
1
40
0.008000
41
0.008000
0
VERTEX
8
0
10
0.767000
20
-0.414000
0
VERTEX
8
0
10
0.817000
20
-0.414000
0
VERTEX
8
0
10
0.817000
20
-0.214000
0
VERTEX
8
0
10
0.767000
20
-0.214000
0
VERTEX
8
0
10
0.767000
20
-0.414000
0
SEQEND
8
0
0
POLYLINE
8
0
66
1
40
0.008000
41
0.008000
0
VERTEX
8
0
10
0.792000
20
-0.214000
0
VERTEX
8
0
10
0.792000
20
-0.164000
0
SEQEND
8
0
0
TEXT
8
12632256
10
0.887000
20
-0.372000
40
0.048000
41
1.041667
50
90.000000
1
R7
0
POLYLINE
8
0
66
1
40
0.008000
41
0.008000
0
VERTEX
8
0
10
0.682000
20
-0.464000
0
VERTEX
8
0
10
0.682000
20
-0.414000
0
SEQEND
8
0
0
POLYLINE
8
0
66
1
40
0.008000
41
0.008000
0
VERTEX
8
0
10
0.657000
20
-0.414000
0
VERTEX
8
0
10
0.707000
20
-0.414000
0
VERTEX
8
0
10
0.707000
20
-0.214000
0
VERTEX
8
0
10
0.657000
20
-0.214000
0
VERTEX
8
0
10
0.657000
20
-0.414000
0
SEQEND
8
0
0
POLYLINE
8
0
66
1
40
0.008000
41
0.008000
0
VERTEX
8
0
10
0.682000
20
-0.214000
0
VERTEX
8
0
10
0.682000
20
-0.164000
0
SEQEND
8
0
0
TEXT
8
12632256
10
0.761000
20
-0.361000
40
0.048000
41
1.041667
50
90.000000
1
R8
0
POLYLINE
8
0
66
1
40
0.008000
41
0.008000
0
VERTEX
8
0
10
1.498000
20
-1.107000
0
VERTEX
8
0
10
1.198000
20
-1.107000
0
VERTEX
8
0
10
1.148000
20
-1.057000
0
VERTEX
8
0
10
1.148000
20
-0.957000
0
VERTEX
8
0
10
1.198000
20
-0.907000
0
VERTEX
8
0
10
1.498000
20
-0.907000
0
VERTEX
8
0
10
1.548000
20
-0.957000
0
VERTEX
8
0
10
1.548000
20
-1.057000
0
VERTEX
8
0
10
1.498000
20
-1.107000
0
SEQEND
8
0
0
TEXT
8
12632256
10
1.298000
20
-1.165000
40
0.048000
41
1.041667
1
X2
0
POLYLINE
8
0
66
1
40
0.008000
41
0.008000
0
VERTEX
8
0
10
1.426000
20
-1.304000
0
VERTEX
8
0
10
1.436000
20
-1.306000
0
VERTEX
8
0
10
1.446000
20
-1.312000
0
VERTEX
8
0
10
1.454000
20
-1.321000
0
VERTEX
8
0
10
1.462000
20
-1.333000
0
VERTEX
8
0
10
1.468000
20
-1.348000
0
VERTEX
8
0
10
1.472000
20
-1.365000
0
VERTEX
8
0
10
1.475000
20
-1.384000
0
VERTEX
8
0
10
1.476000
20
-1.404000
0
SEQEND
8
0
0
POLYLINE
8
0
66
1
40
0.008000
41
0.008000
0
VERTEX
8
0
10
1.426000
20
-1.504000
0
VERTEX
8
0
10
1.436000
20
-1.502000
0
VERTEX
8
0
10
1.446000
20
-1.496000
0
VERTEX
8
0
10
1.454000
20
-1.487000
0
VERTEX
8
0
10
1.462000
20
-1.475000
0
VERTEX
8
0
10
1.468000
20
-1.460000
0
VERTEX
8
0
10
1.472000
20
-1.443000
0
VERTEX
8
0
10
1.475000
20
-1.424000
0
VERTEX
8
0
10
1.476000
20
-1.404000
0
SEQEND
8
0
0
POLYLINE
8
0
66
1
40
0.008000
41
0.008000
0
VERTEX
8
0
10
1.426000
20
-1.304000
0
VERTEX
8
0
10
1.416000
20
-1.306000
0
VERTEX
8
0
10
1.406000
20
-1.312000
0
VERTEX
8
0
10
1.398000
20
-1.321000
0
VERTEX
8
0
10
1.390000
20
-1.333000
0
VERTEX
8
0
10
1.384000
20
-1.348000
0
VERTEX
8
0
10
1.380000
20
-1.365000
0
VERTEX
8
0
10
1.377000
20
-1.384000
0
VERTEX
8
0
10
1.376000
20
-1.404000
0
SEQEND
8
0
0
POLYLINE
8
0
66
1
40
0.008000
41
0.008000
0
VERTEX
8
0
10
1.426000
20
-1.504000
0
VERTEX
8
0
10
1.416000
20
-1.502000
0
VERTEX
8
0
10
1.406000
20
-1.496000
0
VERTEX
8
0
10
1.398000
20
-1.487000
0
VERTEX
8
0
10
1.390000
20
-1.475000
0
VERTEX
8
0
10
1.384000
20
-1.460000
0
VERTEX
8
0
10
1.380000
20
-1.443000
0
VERTEX
8
0
10
1.377000
20
-1.424000
0
VERTEX
8
0
10
1.376000
20
-1.404000
0
SEQEND
8
0
0
TEXT
8
12632256
10
1.534000
20
-1.479000
40
0.048000
41
1.041667
50
90.000000
1
C10
0
POLYLINE
8
0
66
1
40
0.008000
41
0.008000
0
VERTEX
8
0
10
1.272000
20
-1.308000
0
VERTEX
8
0
10
1.282000
20
-1.310000
0
VERTEX
8
0
10
1.292000
20
-1.316000
0
VERTEX
8
0
10
1.300000
20
-1.325000
0
VERTEX
8
0
10
1.308000
20
-1.337000
0
VERTEX
8
0
10
1.314000
20
-1.352000
0
VERTEX
8
0
10
1.318000
20
-1.369000
0
VERTEX
8
0
10
1.321000
20
-1.388000
0
VERTEX
8
0
10
1.322000
20
-1.408000
0
SEQEND
8
0
0
POLYLINE
8
0
66
1
40
0.008000
41
0.008000
0
VERTEX
8
0
10
1.272000
20
-1.508000
0
VERTEX
8
0
10
1.282000
20
-1.506000
0
VERTEX
8
0
10
1.292000
20
-1.500000
0
VERTEX
8
0
10
1.300000
20
-1.491000
0
VERTEX
8
0
10
1.308000
20
-1.479000
0
VERTEX
8
0
10
1.314000
20
-1.464000
0
VERTEX
8
0
10
1.318000
20
-1.447000
0
VERTEX
8
0
10
1.321000
20
-1.428000
0
VERTEX
8
0
10
1.322000
20
-1.408000
0
SEQEND
8
0
0
POLYLINE
8
0
66
1
40
0.008000
41
0.008000
0
VERTEX
8
0
10
1.272000
20
-1.308000
0
VERTEX
8
0
10
1.262000
20
-1.310000
0
VERTEX
8
0
10
1.252000
20
-1.316000
0
VERTEX
8
0
10
1.244000
20
-1.325000
0
VERTEX
8
0
10
1.236000
20
-1.337000
0
VERTEX
8
0
10
1.230000
20
-1.352000
0
VERTEX
8
0
10
1.226000
20
-1.369000
0
VERTEX
8
0
10
1.223000
20
-1.388000
0
VERTEX
8
0
10
1.222000
20
-1.408000
0
SEQEND
8
0
0
POLYLINE
8
0
66
1
40
0.008000
41
0.008000
0
VERTEX
8
0
10
1.272000
20
-1.508000
0
VERTEX
8
0
10
1.262000
20
-1.506000
0
VERTEX
8
0
10
1.252000
20
-1.500000
0
VERTEX
8
0
10
1.244000
20
-1.491000
0
VERTEX
8
0
10
1.236000
20
-1.479000
0
VERTEX
8
0
10
1.230000
20
-1.464000
0
VERTEX
8
0
10
1.226000
20
-1.447000
0
VERTEX
8
0
10
1.223000
20
-1.428000
0
VERTEX
8
0
10
1.222000
20
-1.408000
0
SEQEND
8
0
0
TEXT
8
12632256
10
1.380000
20
-1.483000
40
0.048000
41
1.041667
50
90.000000
1
C11
0
POLYLINE
8
0
66
1
40
0.008000
41
0.008000
0
VERTEX
8
0
10
-0.493000
20
-1.350000
0
VERTEX
8
0
10
-0.490000
20
-1.340000
0
VERTEX
8
0
10
-0.482000
20
-1.330000
0
VERTEX
8
0
10
-0.468000
20
-1.322000
0
VERTEX
8
0
10
-0.450000
20
-1.314000
0
VERTEX
8
0
10
-0.428000
20
-1.308000
0
VERTEX
8
0
10
-0.402000
20
-1.304000
0
VERTEX
8
0
10
-0.374000
20
-1.301000
0
VERTEX
8
0
10
-0.343000
20
-1.300000
0
SEQEND
8
0
0
POLYLINE
8
0
66
1
40
0.008000
41
0.008000
0
VERTEX
8
0
10
-0.193000
20
-1.350000
0
VERTEX
8
0
10
-0.196000
20
-1.340000
0
VERTEX
8
0
10
-0.205000
20
-1.330000
0
VERTEX
8
0
10
-0.218000
20
-1.322000
0
VERTEX
8
0
10
-0.236000
20
-1.314000
0
VERTEX
8
0
10
-0.258000
20
-1.308000
0
VERTEX
8
0
10
-0.284000
20
-1.304000
0
VERTEX
8
0
10
-0.312000
20
-1.301000
0
VERTEX
8
0
10
-0.343000
20
-1.300000
0
SEQEND
8
0
0
POLYLINE
8
0
66
1
40
0.008000
41
0.008000
0
VERTEX
8
0
10
-0.193000
20
-1.350000
0
VERTEX
8
0
10
-0.196000
20
-1.360000
0
VERTEX
8
0
10
-0.205000
20
-1.370000
0
VERTEX
8
0
10
-0.218000
20
-1.378000
0
VERTEX
8
0
10
-0.236000
20
-1.386000
0
VERTEX
8
0
10
-0.258000
20
-1.392000
0
VERTEX
8
0
10
-0.284000
20
-1.396000
0
VERTEX
8
0
10
-0.312000
20
-1.399000
0
VERTEX
8
0
10
-0.343000
20
-1.400000
0
SEQEND
8
0
0
POLYLINE
8
0
66
1
40
0.008000
41
0.008000
0
VERTEX
8
0
10
-0.493000
20
-1.350000
0
VERTEX
8
0
10
-0.490000
20
-1.360000
0
VERTEX
8
0
10
-0.482000
20
-1.370000
0
VERTEX
8
0
10
-0.468000
20
-1.378000
0
VERTEX
8
0
10
-0.450000
20
-1.386000
0
VERTEX
8
0
10
-0.428000
20
-1.392000
0
VERTEX
8
0
10
-0.402000
20
-1.396000
0
VERTEX
8
0
10
-0.374000
20
-1.399000
0
VERTEX
8
0
10
-0.343000
20
-1.400000
0
SEQEND
8
0
0
TEXT
8
12632256
10
-0.443000
20
-1.290000
40
0.048000
41
1.041667
1
C3
0
POLYLINE
8
0
66
1
40
0.008000
41
0.008000
0
VERTEX
8
0
10
-1.869000
20
1.011000
0
VERTEX
8
0
10
-1.569000
20
1.011000
0
VERTEX
8
0
10
-1.569000
20
1.161000
0
VERTEX
8
0
10
-1.869000
20
1.161000
0
VERTEX
8
0
10
-1.869000
20
1.011000
0
SEQEND
8
0
0
POLYLINE
8
0
66
1
40
0.008000
41
0.008000
0
VERTEX
8
0
10
-1.669000
20
0.861000
0
VERTEX
8
0
10
-1.769000
20
0.861000
0
SEQEND
8
0
0
POLYLINE
8
0
66
1
40
0.008000
41
0.008000
0
VERTEX
8
0
10
-1.814000
20
0.791000
0
VERTEX
8
0
10
-1.621000
20
0.791000
0
VERTEX
8
0
10
-1.621000
20
1.011000
0
VERTEX
8
0
10
-1.814000
20
1.011000
0
VERTEX
8
0
10
-1.814000
20
0.791000
0
SEQEND
8
0
0
TEXT
8
12632256
10
-1.794000
20
1.247000
40
0.048000
41
1.041667
1
RV1
0
POLYLINE
8
0
66
1
40
0.008000
41
0.008000
0
VERTEX
8
0
10
1.225000
20
0.768000
0
VERTEX
8
0
10
1.225000
20
1.201000
0
SEQEND
8
0
0
POLYLINE
8
0
66
1
40
0.008000
41
0.008000
0
VERTEX
8
0
10
1.225000
20
0.768000
0
VERTEX
8
0
10
0.635000
20
0.768000
0
VERTEX
8
0
10
0.635000
20
1.201000
0
SEQEND
8
0
0
POLYLINE
8
0
66
1
40
0.008000
41
0.008000
0
VERTEX
8
0
10
1.186000
20
1.201000
0
VERTEX
8
0
10
1.186000
20
1.005000
0
SEQEND
8
0
0
POLYLINE
8
0
66
1
40
0.008000
41
0.008000
0
VERTEX
8
0
10
0.674000
20
1.201000
0
VERTEX
8
0
10
0.674000
20
1.005000
0
SEQEND
8
0
0
POLYLINE
8
0
66
1
40
0.008000
41
0.008000
0
VERTEX
8
0
10
1.225000
20
1.005000
0
VERTEX
8
0
10
0.639000
20
1.005000
0
SEQEND
8
0
0
POLYLINE
8
0
66
1
40
0.008000
41
0.008000
0
VERTEX
8
0
10
1.225000
20
1.205000
0
VERTEX
8
0
10
1.186000
20
1.205000
0
SEQEND
8
0
0
POLYLINE
8
0
66
1
40
0.008000
41
0.008000
0
VERTEX
8
0
10
0.674000
20
1.205000
0
VERTEX
8
0
10
0.635000
20
1.205000
0
SEQEND
8
0
0
POLYLINE
8
0
66
1
40
0.008000
41
0.008000
0
VERTEX
8
0
10
1.158000
20
0.772000
0
VERTEX
8
0
10
1.158000
20
1.001000
0
SEQEND
8
0
0
POLYLINE
8
0
66
1
40
0.008000
41
0.008000
0
VERTEX
8
0
10
1.084000
20
0.776000
0
VERTEX
8
0
10
1.084000
20
1.005000
0
SEQEND
8
0
0
POLYLINE
8
0
66
1
40
0.008000
41
0.008000
0
VERTEX
8
0
10
0.804000
20
0.772000
0
VERTEX
8
0
10
0.804000
20
1.005000
0
SEQEND
8
0
0
POLYLINE
8
0
66
1
40
0.008000
41
0.008000
0
VERTEX
8
0
10
0.725000
20
0.776000
0
VERTEX
8
0
10
0.725000
20
1.005000
0
SEQEND
8
0
0
POLYLINE
8
0
66
1
40
0.008000
41
0.008000
0
VERTEX
8
0
10
1.013000
20
0.776000
0
VERTEX
8
0
10
1.013000
20
0.804000
0
SEQEND
8
0
0
POLYLINE
8
0
66
1
40
0.008000
41
0.008000
0
VERTEX
8
0
10
1.009000
20
0.808000
0
VERTEX
8
0
10
0.973000
20
0.808000
0
VERTEX
8
0
10
0.973000
20
0.851000
0
VERTEX
8
0
10
0.910000
20
0.851000
0
VERTEX
8
0
10
0.910000
20
0.812000
0
VERTEX
8
0
10
0.910000
20
0.808000
0
VERTEX
8
0
10
0.867000
20
0.808000
0
SEQEND
8
0
0
POLYLINE
8
0
66
1
40
0.008000
41
0.008000
0
VERTEX
8
0
10
0.867000
20
0.812000
0
VERTEX
8
0
10
0.867000
20
0.772000
0
SEQEND
8
0
0
POLYLINE
8
0
66
1
40
0.008000
41
0.008000
0
VERTEX
8
0
10
0.481000
20
0.772000
0
VERTEX
8
0
10
0.481000
20
1.205000
0
SEQEND
8
0
0
POLYLINE
8
0
66
1
40
0.008000
41
0.008000
0
VERTEX
8
0
10
0.481000
20
0.772000
0
VERTEX
8
0
10
-0.108000
20
0.772000
0
VERTEX
8
0
10
-0.108000
20
1.205000
0
SEQEND
8
0
0
POLYLINE
8
0
66
1
40
0.008000
41
0.008000
0
VERTEX
8
0
10
0.442000
20
1.205000
0
VERTEX
8
0
10
0.442000
20
1.009000
0
SEQEND
8
0
0
POLYLINE
8
0
66
1
40
0.008000
41
0.008000
0
VERTEX
8
0
10
-0.069000
20
1.205000
0
VERTEX
8
0
10
-0.069000
20
1.009000
0
SEQEND
8
0
0
POLYLINE
8
0
66
1
40
0.008000
41
0.008000
0
VERTEX
8
0
10
0.481000
20
1.009000
0
VERTEX
8
0
10
-0.104000
20
1.009000
0
SEQEND
8
0
0
POLYLINE
8
0
66
1
40
0.008000
41
0.008000
0
VERTEX
8
0
10
0.481000
20
1.209000
0
VERTEX
8
0
10
0.442000
20
1.209000
0
SEQEND
8
0
0
POLYLINE
8
0
66
1
40
0.008000
41
0.008000
0
VERTEX
8
0
10
-0.069000
20
1.209000
0
VERTEX
8
0
10
-0.108000
20
1.209000
0
SEQEND
8
0
0
POLYLINE
8
0
66
1
40
0.008000
41
0.008000
0
VERTEX
8
0
10
0.414000
20
0.776000
0
VERTEX
8
0
10
0.414000
20
1.005000
0
SEQEND
8
0
0
POLYLINE
8
0
66
1
40
0.008000
41
0.008000
0
VERTEX
8
0
10
0.340000
20
0.780000
0
VERTEX
8
0
10
0.340000
20
1.009000
0
SEQEND
8
0
0
POLYLINE
8
0
66
1
40
0.008000
41
0.008000
0
VERTEX
8
0
10
0.060000
20
0.776000
0
VERTEX
8
0
10
0.060000
20
1.009000
0
SEQEND
8
0
0
POLYLINE
8
0
66
1
40
0.008000
41
0.008000
0
VERTEX
8
0
10
-0.018000
20
0.780000
0
VERTEX
8
0
10
-0.018000
20
1.009000
0
SEQEND
8
0
0
POLYLINE
8
0
66
1
40
0.008000
41
0.008000
0
VERTEX
8
0
10
0.269000
20
0.780000
0
VERTEX
8
0
10
0.269000
20
0.808000
0
SEQEND
8
0
0
POLYLINE
8
0
66
1
40
0.008000
41
0.008000
0
VERTEX
8
0
10
0.265000
20
0.812000
0
VERTEX
8
0
10
0.229000
20
0.812000
0
VERTEX
8
0
10
0.229000
20
0.855000
0
VERTEX
8
0
10
0.166000
20
0.855000
0
VERTEX
8
0
10
0.166000
20
0.816000
0
VERTEX
8
0
10
0.166000
20
0.812000
0
VERTEX
8
0
10
0.123000
20
0.812000
0
SEQEND
8
0
0
POLYLINE
8
0
66
1
40
0.008000
41
0.008000
0
VERTEX
8
0
10
0.123000
20
0.816000
0
VERTEX
8
0
10
0.123000
20
0.776000
0
SEQEND
8
0
0
POLYLINE
8
0
66
1
40
0.000000
41
0.000000
0
VERTEX
8
0
10
-0.043000
20
-0.045000
0
VERTEX
8
0
10
2.052000
20
-0.045000
0
VERTEX
8
0
10
2.052000
20
0.269000
0
VERTEX
8
0
10
-0.043000
20
0.269000
0
VERTEX
8
0
10
-0.043000
20
-0.045000
0
SEQEND
8
0
0
POLYLINE
8
0
66
1
40
0.027000
41
0.027000
0
VERTEX
8
0
10
-3.003000
20
1.259000
0
VERTEX
8
0
10
-1.834000
20
1.259000
0
VERTEX
8
0
10
-1.834000
20
1.982000
0
VERTEX
8
0
10
-3.003000
20
1.982000
0
VERTEX
8
0
10
-3.003000
20
1.259000
0
SEQEND
8
0
0
TEXT
8
12632256
10
-2.735000
20
1.851000
40
0.096000
41
1.145833
1
Cabina
0
TEXT
8
12632256
10
-2.980000
20
1.687000
40
0.096000
41
0.937500
1
Flujo Laminar
0
TEXT
8
12632256
10
-2.654000
20
1.343000
40
0.096000
41
1.145833
1
2016
0
TEXT
8
12632256
10
-0.179000
20
-2.303000
40
0.048000
41
1.041667
1
INFLOW
0
TEXT
8
12632256
10
0.625000
20
-2.311000
40
0.048000
41
1.041667
1
SASH DOWN
0
TEXT
8
12632256
10
1.324000
20
-2.319000
40
0.048000
41
1.041667
1
SASH OK
0
TEXT
8
12632256
10
-0.450000
20
-1.815000
40
0.064000
41
1.093750
1
T
0
TEXT
8
12632256
10
-0.318000
20
-1.812000
40
0.064000
41
1.093750
1
V12
0
TEXT
8
12632256
10
0.006000
20
-1.791000
40
0.064000
41
1.093750
50
90.000000
1
GND
0
TEXT
8
12632256
10
0.232000
20
-1.794000
40
0.064000
41
1.093750
50
90.000000
1
5V
0
TEXT
8
12632256
10
0.412000
20
-1.791000
40
0.064000
41
1.093750
50
90.000000
1
VF
0
TEXT
8
12632256
10
0.659000
20
-1.804000
40
0.064000
41
1.093750
50
90.000000
1
OUT
0
TEXT
8
12632256
10
0.788000
20
-1.825000
40
0.064000
41
1.093750
50
90.000000
1
VCC
0
TEXT
8
12632256
10
1.031000
20
-1.823000
40
0.064000
41
1.093750
50
90.000000
1
GND
0
TEXT
8
12632256
10
1.307000
20
-1.794000
40
0.064000
41
1.093750
50
90.000000
1
OUT
0
TEXT
8
12632256
10
1.517000
20
-1.811000
40
0.064000
41
1.093750
50
90.000000
1
VCC
0
TEXT
8
12632256
10
1.723000
20
-1.803000
40
0.064000
41
1.093750
50
90.000000
1
GND
0
TEXT
8
12632256
10
-1.763000
20
1.555000
40
0.064000
41
1.093750
1
L1
0
TEXT
8
12632256
10
-1.558000
20
1.555000
40
0.064000
41
1.093750
1
L2
0
TEXT
8
12632256
10
-1.352000
20
1.547000
40
0.064000
41
1.093750
1
N
0
TEXT
8
12632256
10
-1.123000
20
2.200000
40
0.064000
41
1.093750
1
ALARMA
0
TEXT
8
12632256
10
-0.582000
20
2.204000
40
0.064000
41
1.093750
1
N
0
TEXT
8
12632256
10
-0.395000
20
2.204000
40
0.064000
41
1.093750
1
L2
0
TEXT
8
12632256
10
-0.187000
20
2.199000
40
0.064000
41
1.093750
1
TOMA
0
TEXT
8
12632256
10
0.149000
20
2.203000
40
0.064000
41
1.093750
1
N
0
TEXT
8
12632256
10
0.336000
20
2.203000
40
0.064000
41
1.093750
1
L2
0
TEXT
8
12632256
10
0.490000
20
2.205000
40
0.064000
41
1.093750
1
MOTOR
0
TEXT
8
12632256
10
0.872000
20
2.207000
40
0.064000
41
1.093750
1
N
0
TEXT
8
12632256
10
1.059000
20
2.207000
40
0.064000
41
1.093750
1
L2
0
TEXT
8
12632256
10
1.378000
20
2.216000
40
0.064000
41
1.093750
1
UV
0
TEXT
8
12632256
10
1.651000
20
2.211000
40
0.064000
41
1.093750
1
N
0
TEXT
8
12632256
10
1.838000
20
2.211000
40
0.064000
41
1.093750
1
L2
0
TEXT
8
12632256
10
2.061000
20
2.226000
40
0.064000
41
1.093750
1
LUZ
0
TEXT
8
12632256
10
2.339000
20
2.222000
40
0.064000
41
1.093750
1
N
0
TEXT
8
12632256
10
2.526000
20
2.222000
40
0.064000
41
1.093750
1
L2
0
TEXT
8
12632256
10
-1.445000
20
-0.449000
40
0.096000
41
0.937500
1
MASTER
0
TEXT
8
12632256
10
1.337000
20
-0.803000
40
0.096000
41
0.937500
1
SLAVE
0
TEXT
8
12632256
10
-2.472000
20
-1.161000
40
0.064000
41
1.093750
50
-90.000000
1
10 VAC
0
TEXT
8
12632256
10
-2.397000
20
-0.669000
40
0.064000
41
1.093750
1
U
0
TEXT
8
12632256
10
-2.275000
20
-0.672000
40
0.064000
41
1.093750
1
D
0
TEXT
8
12632256
10
-2.174000
20
-0.672000
40
0.064000
41
1.093750
1
R
0
TEXT
8
12632256
10
-2.078000
20
-0.675000
40
0.064000
41
1.093750
1
L
0
TEXT
8
12632256
10
-1.968000
20
-0.678000
40
0.064000
41
1.093750
1
+
0
TEXT
8
12632256
10
-1.869000
20
-0.678000
40
0.064000
41
1.093750
1
+
0
TEXT
8
12632256
10
-1.769000
20
-0.675000
40
0.064000
41
1.093750
1
+
0
TEXT
8
12632256
10
-1.669000
20
-0.678000
40
0.064000
41
1.093750
1
+
0
TEXT
8
12632256
10
2.346000
20
-1.253000
40
0.064000
41
1.093750
1
FLITRO
0
TEXT
8
12632256
10
2.295000
20
-1.449000
40
0.064000
41
1.093750
1
DOWNFLOW
0
CIRCLE
8
12632256
10
-0.505000
20
-1.099000
40
0.000000
0
CIRCLE
8
12632256
10
-0.505000
20
-1.099000
40
0.100000
0
POLYLINE
8
0
66
1
40
0.008000
41
0.008000
0
VERTEX
8
0
10
-0.630000
20
-0.999000
0
VERTEX
8
0
10
-0.580000
20
-0.999000
0
SEQEND
8
0
0
POLYLINE
8
0
66
1
40
0.008000
41
0.008000
0
VERTEX
8
0
10
-0.605000
20
-0.974000
0
VERTEX
8
0
10
-0.605000
20
-1.024000
0
SEQEND
8
0
0
TEXT
8
12632256
10
-0.568000
20
-0.964000
40
0.048000
41
1.041667
1
D2
0
POLYLINE
8
0
66
1
40
0.008000
41
0.008000
0
VERTEX
8
0
10
-1.009000
20
-1.099000
0
VERTEX
8
0
10
-0.959000
20
-1.099000
0
SEQEND
8
0
0
POLYLINE
8
0
66
1
40
0.008000
41
0.008000
0
VERTEX
8
0
10
-0.959000
20
-1.124000
0
VERTEX
8
0
10
-0.759000
20
-1.124000
0
VERTEX
8
0
10
-0.759000
20
-1.074000
0
VERTEX
8
0
10
-0.959000
20
-1.074000
0
VERTEX
8
0
10
-0.959000
20
-1.124000
0
SEQEND
8
0
0
POLYLINE
8
0
66
1
40
0.008000
41
0.008000
0
VERTEX
8
0
10
-0.759000
20
-1.099000
0
VERTEX
8
0
10
-0.709000
20
-1.099000
0
SEQEND
8
0
0
TEXT
8
12632256
10
-0.934000
20
-1.064000
40
0.048000
41
1.041667
1
R24
0
POLYLINE
8
0
66
1
40
0.008000
41
0.008000
0
VERTEX
8
0
10
-1.765000
20
-0.072000
0
VERTEX
8
0
10
-1.803000
20
-0.072000
0
SEQEND
8
0
0
POLYLINE
8
0
66
1
40
0.008000
41
0.008000
0
VERTEX
8
0
10
-1.765000
20
-0.183000
0
VERTEX
8
0
10
-1.804000
20
-0.183000
0
SEQEND
8
0
0
POLYLINE
8
0
66
1
40
0.008000
41
0.008000
0
VERTEX
8
0
10
-1.845000
20
-0.057000
0
VERTEX
8
0
10
-1.845000
20
-0.037000
0
SEQEND
8
0
0
POLYLINE
8
0
66
1
40
0.008000
41
0.008000
0
VERTEX
8
0
10
-1.835000
20
-0.047000
0
VERTEX
8
0
10
-1.855000
20
-0.047000
0
SEQEND
8
0
0
TEXT
8
12632256
10
-1.523000
20
-0.113000
40
0.048000
41
1.041667
71
2
1
C16
0
POLYLINE
8
0
66
1
40
0.008000
41
0.008000
0
VERTEX
8
0
10
-1.632000
20
-0.379000
0
VERTEX
8
0
10
-1.670000
20
-0.379000
0
SEQEND
8
0
0
POLYLINE
8
0
66
1
40
0.008000
41
0.008000
0
VERTEX
8
0
10
-1.632000
20
-0.490000
0
VERTEX
8
0
10
-1.671000
20
-0.490000
0
SEQEND
8
0
0
POLYLINE
8
0
66
1
40
0.008000
41
0.008000
0
VERTEX
8
0
10
-1.712000
20
-0.364000
0
VERTEX
8
0
10
-1.712000
20
-0.344000
0
SEQEND
8
0
0
POLYLINE
8
0
66
1
40
0.008000
41
0.008000
0
VERTEX
8
0
10
-1.702000
20
-0.354000
0
VERTEX
8
0
10
-1.722000
20
-0.354000
0
SEQEND
8
0
0
TEXT
8
12632256
10
-1.775000
20
-0.415000
40
0.048000
41
1.041667
71
2
1
C18
0
POLYLINE
8
0
66
1
40
0.008000
41
0.008000
0
VERTEX
8
0
10
-1.265000
20
-1.953000
0
VERTEX
8
0
10
-1.227000
20
-1.953000
0
SEQEND
8
0
0
POLYLINE
8
0
66
1
40
0.008000
41
0.008000
0
VERTEX
8
0
10
-1.265000
20
-1.842000
0
VERTEX
8
0
10
-1.226000
20
-1.842000
0
SEQEND
8
0
0
POLYLINE
8
0
66
1
40
0.008000
41
0.008000
0
VERTEX
8
0
10
-1.185000
20
-1.968000
0
VERTEX
8
0
10
-1.185000
20
-1.988000
0
SEQEND
8
0
0
POLYLINE
8
0
66
1
40
0.008000
41
0.008000
0
VERTEX
8
0
10
-1.195000
20
-1.978000
0
VERTEX
8
0
10
-1.175000
20
-1.978000
0
SEQEND
8
0
0
TEXT
8
12632256
10
-1.359000
20
-1.929000
40
0.048000
41
1.041667
71
2
1
C19
0
POLYLINE
8
0
66
1
40
0.008000
41
0.008000
0
VERTEX
8
0
10
0.969000
20
-0.723000
0
VERTEX
8
0
10
0.931000
20
-0.723000
0
SEQEND
8
0
0
POLYLINE
8
0
66
1
40
0.008000
41
0.008000
0
VERTEX
8
0
10
0.969000
20
-0.834000
0
VERTEX
8
0
10
0.930000
20
-0.834000
0
SEQEND
8
0
0
POLYLINE
8
0
66
1
40
0.008000
41
0.008000
0
VERTEX
8
0
10
0.889000
20
-0.708000
0
VERTEX
8
0
10
0.889000
20
-0.688000
0
SEQEND
8
0
0
POLYLINE
8
0
66
1
40
0.008000
41
0.008000
0
VERTEX
8
0
10
0.899000
20
-0.698000
0
VERTEX
8
0
10
0.879000
20
-0.698000
0
SEQEND
8
0
0
TEXT
8
12632256
10
1.204000
20
-0.777000
40
0.048000
41
1.041667
71
2
1
C20
0
POLYLINE
8
0
66
1
40
0.008000
41
0.008000
0
VERTEX
8
0
10
1.069000
20
-1.050000
0
VERTEX
8
0
10
1.031000
20
-1.050000
0
SEQEND
8
0
0
POLYLINE
8
0
66
1
40
0.008000
41
0.008000
0
VERTEX
8
0
10
1.069000
20
-1.161000
0
VERTEX
8
0
10
1.030000
20
-1.161000
0
SEQEND
8
0
0
POLYLINE
8
0
66
1
40
0.008000
41
0.008000
0
VERTEX
8
0
10
0.989000
20
-1.035000
0
VERTEX
8
0
10
0.989000
20
-1.015000
0
SEQEND
8
0
0
POLYLINE
8
0
66
1
40
0.008000
41
0.008000
0
VERTEX
8
0
10
0.999000
20
-1.025000
0
VERTEX
8
0
10
0.979000
20
-1.025000
0
SEQEND
8
0
0
TEXT
8
12632256
10
1.125000
20
-1.005000
40
0.048000
41
1.041667
71
2
1
C21
0
POLYLINE
8
0
66
1
40
0.008000
41
0.008000
0
VERTEX
8
0
10
2.536000
20
-0.078000
0
VERTEX
8
0
10
2.586000
20
-0.078000
0
SEQEND
8
0
0
POLYLINE
8
0
66
1
40
0.008000
41
0.008000
0
VERTEX
8
0
10
2.386000
20
-0.078000
0
VERTEX
8
0
10
2.436000
20
-0.078000
0
SEQEND
8
0
0
POLYLINE
8
0
66
1
40
0.008000
41
0.008000
0
VERTEX
8
0
10
2.486000
20
-0.128000
0
VERTEX
8
0
10
2.496000
20
-0.127000
0
VERTEX
8
0
10
2.506000
20
-0.124000
0
VERTEX
8
0
10
2.514000
20
-0.120000
0
VERTEX
8
0
10
2.522000
20
-0.114000
0
VERTEX
8
0
10
2.528000
20
-0.107000
0
VERTEX
8
0
10
2.532000
20
-0.098000
0
VERTEX
8
0
10
2.535000
20
-0.088000
0
VERTEX
8
0
10
2.536000
20
-0.078000
0
SEQEND
8
0
0
POLYLINE
8
0
66
1
40
0.008000
41
0.008000
0
VERTEX
8
0
10
2.486000
20
-0.128000
0
VERTEX
8
0
10
2.476000
20
-0.127000
0
VERTEX
8
0
10
2.466000
20
-0.124000
0
VERTEX
8
0
10
2.457000
20
-0.120000
0
VERTEX
8
0
10
2.450000
20
-0.114000
0
VERTEX
8
0
10
2.444000
20
-0.107000
0
VERTEX
8
0
10
2.440000
20
-0.098000
0
VERTEX
8
0
10
2.437000
20
-0.088000
0
VERTEX
8
0
10
2.436000
20
-0.078000
0
SEQEND
8
0
0
POLYLINE
8
0
66
1
40
0.008000
41
0.008000
0
VERTEX
8
0
10
2.386000
20
-0.078000
0
VERTEX
8
0
10
2.386000
20
-0.778000
0
VERTEX
8
0
10
2.586000
20
-0.778000
0
VERTEX
8
0
10
2.586000
20
-0.078000
0
SEQEND
8
0
0
TEXT
8
12632256
10
2.411000
20
-0.068000
40
0.048000
41
1.041667
1
U20
0
CIRCLE
8
12632256
10
2.832000
20
-0.787000
40
0.100000
0
POLYLINE
8
0
66
1
40
0.008000
41
0.008000
0
VERTEX
8
0
10
2.757000
20
-0.737000
0
VERTEX
8
0
10
2.807000
20
-0.737000
0
SEQEND
8
0
0
POLYLINE
8
0
66
1
40
0.008000
41
0.008000
0
VERTEX
8
0
10
2.782000
20
-0.712000
0
VERTEX
8
0
10
2.782000
20
-0.762000
0
SEQEND
8
0
0
TEXT
8
12632256
10
2.757000
20
-0.677000
40
0.048000
41
1.041667
1
C32
0
POLYLINE
8
0
66
1
40
0.008000
41
0.008000
0
VERTEX
8
0
10
2.320000
20
-0.881000
0
VERTEX
8
0
10
2.370000
20
-0.881000
0
SEQEND
8
0
0
POLYLINE
8
0
66
1
40
0.008000
41
0.008000
0
VERTEX
8
0
10
2.370000
20
-0.906000
0
VERTEX
8
0
10
2.570000
20
-0.906000
0
VERTEX
8
0
10
2.570000
20
-0.856000
0
VERTEX
8
0
10
2.370000
20
-0.856000
0
VERTEX
8
0
10
2.370000
20
-0.906000
0
SEQEND
8
0
0
POLYLINE
8
0
66
1
40
0.008000
41
0.008000
0
VERTEX
8
0
10
2.570000
20
-0.881000
0
VERTEX
8
0
10
2.620000
20
-0.881000
0
SEQEND
8
0
0
TEXT
8
12632256
10
2.467000
20
-0.853000
40
0.048000
41
1.041667
1
R41
0
POLYLINE
8
0
66
1
40
0.008000
41
0.008000
0
VERTEX
8
0
10
1.806000
20
-0.319000
0
VERTEX
8
0
10
1.856000
20
-0.319000
0
SEQEND
8
0
0
POLYLINE
8
0
66
1
40
0.008000
41
0.008000
0
VERTEX
8
0
10
1.856000
20
-0.344000
0
VERTEX
8
0
10
2.056000
20
-0.344000
0
VERTEX
8
0
10
2.056000
20
-0.294000
0
VERTEX
8
0
10
1.856000
20
-0.294000
0
VERTEX
8
0
10
1.856000
20
-0.344000
0
SEQEND
8
0
0
POLYLINE
8
0
66
1
40
0.008000
41
0.008000
0
VERTEX
8
0
10
2.056000
20
-0.319000
0
VERTEX
8
0
10
2.106000
20
-0.319000
0
SEQEND
8
0
0
TEXT
8
12632256
10
1.881000
20
-0.284000
40
0.048000
41
1.041667
1
R50
0
POLYLINE
8
0
66
1
40
0.008000
41
0.008000
0
VERTEX
8
0
10
2.106000
20
-0.207000
0
VERTEX
8
0
10
2.056000
20
-0.207000
0
SEQEND
8
0
0
POLYLINE
8
0
66
1
40
0.008000
41
0.008000
0
VERTEX
8
0
10
1.856000
20
-0.232000
0
VERTEX
8
0
10
2.056000
20
-0.232000
0
VERTEX
8
0
10
2.056000
20
-0.182000
0
VERTEX
8
0
10
1.856000
20
-0.182000
0
VERTEX
8
0
10
1.856000
20
-0.232000
0
SEQEND
8
0
0
POLYLINE
8
0
66
1
40
0.008000
41
0.008000
0
VERTEX
8
0
10
1.856000
20
-0.207000
0
VERTEX
8
0
10
1.806000
20
-0.207000
0
SEQEND
8
0
0
TEXT
8
12632256
10
1.883000
20
-0.168000
40
0.048000
41
1.041667
1
R30
0
POLYLINE
8
0
66
1
40
0.008000
41
0.008000
0
VERTEX
8
0
10
2.425000
20
0.067000
0
VERTEX
8
0
10
2.475000
20
0.067000
0
SEQEND
8
0
0
POLYLINE
8
0
66
1
40
0.008000
41
0.008000
0
VERTEX
8
0
10
2.475000
20
0.042000
0
VERTEX
8
0
10
2.675000
20
0.042000
0
VERTEX
8
0
10
2.675000
20
0.092000
0
VERTEX
8
0
10
2.475000
20
0.092000
0
VERTEX
8
0
10
2.475000
20
0.042000
0
SEQEND
8
0
0
POLYLINE
8
0
66
1
40
0.008000
41
0.008000
0
VERTEX
8
0
10
2.675000
20
0.067000
0
VERTEX
8
0
10
2.725000
20
0.067000
0
SEQEND
8
0
0
TEXT
8
12632256
10
2.500000
20
0.102000
40
0.048000
41
1.041667
1
R40
0
POLYLINE
8
0
66
1
40
0.008000
41
0.008000
0
VERTEX
8
0
10
2.766000
20
-0.429000
0
VERTEX
8
0
10
2.766000
20
-0.379000
0
SEQEND
8
0
0
POLYLINE
8
0
66
1
40
0.008000
41
0.008000
0
VERTEX
8
0
10
2.741000
20
-0.379000
0
VERTEX
8
0
10
2.791000
20
-0.379000
0
VERTEX
8
0
10
2.791000
20
-0.179000
0
VERTEX
8
0
10
2.741000
20
-0.179000
0
VERTEX
8
0
10
2.741000
20
-0.379000
0
SEQEND
8
0
0
POLYLINE
8
0
66
1
40
0.008000
41
0.008000
0
VERTEX
8
0
10
2.766000
20
-0.179000
0
VERTEX
8
0
10
2.766000
20
-0.129000
0
SEQEND
8
0
0
TEXT
8
12632256
10
2.731000
20
-0.354000
40
0.048000
41
1.041667
50
90.000000
1
R70
0
POLYLINE
8
0
66
1
40
0.008000
41
0.008000
0
VERTEX
8
0
10
2.868000
20
-0.129000
0
VERTEX
8
0
10
2.868000
20
-0.179000
0
SEQEND
8
0
0
POLYLINE
8
0
66
1
40
0.008000
41
0.008000
0
VERTEX
8
0
10
2.843000
20
-0.379000
0
VERTEX
8
0
10
2.893000
20
-0.379000
0
VERTEX
8
0
10
2.893000
20
-0.179000
0
VERTEX
8
0
10
2.843000
20
-0.179000
0
VERTEX
8
0
10
2.843000
20
-0.379000
0
SEQEND
8
0
0
POLYLINE
8
0
66
1
40
0.008000
41
0.008000
0
VERTEX
8
0
10
2.868000
20
-0.379000
0
VERTEX
8
0
10
2.868000
20
-0.429000
0
SEQEND
8
0
0
TEXT
8
12632256
10
2.951000
20
-0.354000
40
0.048000
41
1.041667
50
90.000000
1
R71
0
POLYLINE
8
0
66
1
40
0.008000
41
0.008000
0
VERTEX
8
0
10
1.860000
20
-1.848000
0
VERTEX
8
0
10
1.860000
20
-2.248000
0
SEQEND
8
0
0
POLYLINE
8
0
66
1
40
0.008000
41
0.008000
0
VERTEX
8
0
10
2.860000
20
-1.848000
0
VERTEX
8
0
10
2.860000
20
-2.248000
0
SEQEND
8
0
0
POLYLINE
8
0
66
1
40
0.008000
41
0.008000
0
VERTEX
8
0
10
2.860000
20
-1.848000
0
VERTEX
8
0
10
1.860000
20
-1.848000
0
SEQEND
8
0
0
POLYLINE
8
0
66
1
40
0.008000
41
0.008000
0
VERTEX
8
0
10
1.860000
20
-2.248000
0
VERTEX
8
0
10
2.860000
20
-2.248000
0
SEQEND
8
0
0
TEXT
8
12632256
10
1.794000
20
-2.308000
40
0.048000
41
1.041667
1
J5
0
TEXT
8
12632256
10
1.990000
20
-1.809000
40
0.064000
41
1.093750
50
90.000000
1
DAM
0
TEXT
8
12632256
10
2.126000
20
-1.812000
40
0.064000
41
1.093750
50
90.000000
1
FEED
0
TEXT
8
12632256
10
2.404000
20
-1.810000
40
0.064000
41
1.093750
50
90.000000
1
GND
0
TEXT
8
12632256
10
2.578000
20
-1.816000
40
0.064000
41
1.093750
50
90.000000
1
O1
0
TEXT
8
12632256
10
2.767000
20
-1.825000
40
0.064000
41
1.093750
50
90.000000
1
O2
0
TEXT
8
12632256
10
2.066000
20
-2.316000
40
0.048000
41
1.041667
1
DAMPER & SASH
0
TEXT
8
12632256
10
-2.774000
20
1.539000
40
0.096000
41
0.937500
1
Especial
0
ENDSEC
0
EOF

