  0
SECTION
  2
HEADER
  9
$ACADVER
  1
AC2.10
  0
ENDSEC
  0
SECTION
  2
TABLES
  0
TABLE
  2
LAYER
 70
     8
  0
LAYER
  2
0
 62
     7
 70
0
  6
CONTINUOUS
  0
LAYER
  2
1
 62
     1
 70
0
  6
CONTINUOUS
  0
LAYER
  2
2
 62
     2
 70
0
  6
CONTINUOUS
  0
LAYER
  2
3
 62
     3
 70
0
  6
CONTINUOUS
  0
LAYER
  2
4
 62
     4
 70
0
  6
CONTINUOUS
  0
LAYER
  2
5
 62
     5
 70
0
  6
CONTINUOUS
  0
LAYER
  2
6
 62
     6
 70
0
  6
CONTINUOUS
  0
LAYER
  2
7
 62
     7
 70
0
  6
CONTINUOUS
  0
ENDTAB
  0
TABLE
  2
STYLE
 70
     1
  0
STYLE
 70
     0
  2
STANDARD
  3
TXT
 40
0.00
 41
1.00
 42
1.00
 50
0.00
 71
     0
  0
ENDTAB
  0
ENDSEC
  0
SECTION
  2
BLOCKS
  0
BLOCK
  8
0
  2
EPAD
 70
0
 10
0.0
 20
0.0
  0
POLYLINE
  8
0
 66
1
 70
1
 40
0.5
 41
0.5
  0
VERTEX
  8
0
 10
-0.25
 20
0.0
 42
1.0
  0
VERTEX
  8
0
 10
0.25
 20
0.0
 42
1.0
  0
SEQEND
  8
0
  0
ENDBLK
  8
0
  0
BLOCK
  8
0
  2
RPAD
 70
0
 10
0.0
 20
0.0
  0
TRACE
  8
0
 10
-0.5
 20
-0.5
 11
-0.5
 21
0.5
 12
0.5
 22
-0.5
 13
0.5
 23
0.5
  0
ENDBLK
  8
0
  0
ENDSEC
0
SECTION
2
ENTITIES
0
INSERT
8
0
2
EPAD
10
1.720000
20
-1.992000
41
0.080000
42
0.080000
0
CIRCLE
8
0
10
1.720000
20
-1.992000
40
0.025000
0
INSERT
8
0
2
EPAD
10
1.369000
20
-1.407000
41
0.080000
42
0.080000
0
CIRCLE
8
0
10
1.369000
20
-1.407000
40
0.025000
0
INSERT
8
0
2
EPAD
10
1.792000
20
-1.419000
41
0.080000
42
0.080000
0
CIRCLE
8
0
10
1.792000
20
-1.419000
40
0.025000
0
INSERT
8
0
2
EPAD
10
1.319000
20
-0.807000
41
0.080000
42
0.080000
0
CIRCLE
8
0
10
1.319000
20
-0.807000
40
0.025000
0
INSERT
8
0
2
EPAD
10
1.769000
20
-0.807000
41
0.080000
42
0.080000
0
CIRCLE
8
0
10
1.769000
20
-0.807000
40
0.025000
0
INSERT
8
0
2
EPAD
10
1.319000
20
-0.108000
41
0.080000
42
0.080000
0
CIRCLE
8
0
10
1.319000
20
-0.108000
40
0.025000
0
INSERT
8
0
2
EPAD
10
1.790000
20
-0.120000
41
0.080000
42
0.080000
0
CIRCLE
8
0
10
1.790000
20
-0.120000
40
0.025000
0
INSERT
8
0
2
EPAD
10
1.319000
20
0.501000
41
0.080000
42
0.080000
0
CIRCLE
8
0
10
1.319000
20
0.501000
40
0.025000
0
INSERT
8
0
2
EPAD
10
1.795000
20
0.491000
41
0.080000
42
0.080000
0
CIRCLE
8
0
10
1.795000
20
0.491000
40
0.025000
0
INSERT
8
0
2
EPAD
10
1.319000
20
1.072000
41
0.080000
42
0.080000
0
CIRCLE
8
0
10
1.319000
20
1.072000
40
0.025000
0
INSERT
8
0
2
EPAD
10
1.810000
20
1.072000
41
0.080000
42
0.080000
0
CIRCLE
8
0
10
1.810000
20
1.072000
40
0.025000
0
INSERT
8
0
2
EPAD
10
1.319000
20
-1.998000
41
0.080000
42
0.080000
0
CIRCLE
8
0
10
1.319000
20
-1.998000
40
0.025000
0
INSERT
8
0
2
EPAD
10
-1.368000
20
-1.663000
41
0.100000
42
0.100000
0
CIRCLE
8
0
10
-1.368000
20
-1.663000
40
0.025000
0
INSERT
8
0
2
EPAD
10
-1.168000
20
-1.863000
41
0.100000
42
0.100000
0
CIRCLE
8
0
10
-1.168000
20
-1.863000
40
0.025000
0
INSERT
8
0
2
EPAD
10
-1.368000
20
-1.863000
41
0.100000
42
0.100000
0
CIRCLE
8
0
10
-1.368000
20
-1.863000
40
0.025000
0
INSERT
8
0
2
EPAD
10
-1.168000
20
-1.663000
41
0.100000
42
0.100000
0
CIRCLE
8
0
10
-1.168000
20
-1.663000
40
0.025000
0
INSERT
8
0
2
RPAD
10
-1.880000
20
-0.226000
41
0.050000
42
0.050000
50
0.000000
0
CIRCLE
8
0
10
-1.880000
20
-0.226000
40
0.030000
0
INSERT
8
0
2
EPAD
10
-1.780000
20
-0.226000
41
0.050000
42
0.050000
0
CIRCLE
8
0
10
-1.780000
20
-0.226000
40
0.030000
0
INSERT
8
0
2
EPAD
10
-1.680000
20
-0.226000
41
0.050000
42
0.050000
0
CIRCLE
8
0
10
-1.680000
20
-0.226000
40
0.030000
0
INSERT
8
0
2
EPAD
10
-1.580000
20
-0.226000
41
0.050000
42
0.050000
0
CIRCLE
8
0
10
-1.580000
20
-0.226000
40
0.030000
0
INSERT
8
0
2
EPAD
10
-1.480000
20
-0.226000
41
0.050000
42
0.050000
0
CIRCLE
8
0
10
-1.480000
20
-0.226000
40
0.030000
0
INSERT
8
0
2
EPAD
10
-1.380000
20
-0.226000
41
0.050000
42
0.050000
0
CIRCLE
8
0
10
-1.380000
20
-0.226000
40
0.030000
0
INSERT
8
0
2
EPAD
10
-1.280000
20
-0.226000
41
0.050000
42
0.050000
0
CIRCLE
8
0
10
-1.280000
20
-0.226000
40
0.030000
0
INSERT
8
0
2
EPAD
10
-1.180000
20
-0.226000
41
0.050000
42
0.050000
0
CIRCLE
8
0
10
-1.180000
20
-0.226000
40
0.030000
0
INSERT
8
0
2
EPAD
10
-1.080000
20
-0.226000
41
0.050000
42
0.050000
0
CIRCLE
8
0
10
-1.080000
20
-0.226000
40
0.030000
0
INSERT
8
0
2
EPAD
10
-0.980000
20
-0.226000
41
0.050000
42
0.050000
0
CIRCLE
8
0
10
-0.980000
20
-0.226000
40
0.030000
0
INSERT
8
0
2
EPAD
10
-0.880000
20
-0.226000
41
0.050000
42
0.050000
0
CIRCLE
8
0
10
-0.880000
20
-0.226000
40
0.030000
0
INSERT
8
0
2
EPAD
10
-0.780000
20
-0.226000
41
0.050000
42
0.050000
0
CIRCLE
8
0
10
-0.780000
20
-0.226000
40
0.030000
0
INSERT
8
0
2
EPAD
10
-0.680000
20
-0.226000
41
0.050000
42
0.050000
0
CIRCLE
8
0
10
-0.680000
20
-0.226000
40
0.030000
0
INSERT
8
0
2
EPAD
10
-0.580000
20
-0.226000
41
0.050000
42
0.050000
0
CIRCLE
8
0
10
-0.580000
20
-0.226000
40
0.030000
0
INSERT
8
0
2
EPAD
10
-0.480000
20
-0.226000
41
0.050000
42
0.050000
0
CIRCLE
8
0
10
-0.480000
20
-0.226000
40
0.030000
0
INSERT
8
0
2
EPAD
10
-0.380000
20
-0.226000
41
0.050000
42
0.050000
0
CIRCLE
8
0
10
-0.380000
20
-0.226000
40
0.030000
0
INSERT
8
0
2
EPAD
10
-0.280000
20
-0.226000
41
0.050000
42
0.050000
0
CIRCLE
8
0
10
-0.280000
20
-0.226000
40
0.030000
0
INSERT
8
0
2
EPAD
10
-0.180000
20
-0.226000
41
0.050000
42
0.050000
0
CIRCLE
8
0
10
-0.180000
20
-0.226000
40
0.030000
0
INSERT
8
0
2
EPAD
10
-0.080000
20
-0.226000
41
0.050000
42
0.050000
0
CIRCLE
8
0
10
-0.080000
20
-0.226000
40
0.030000
0
INSERT
8
0
2
EPAD
10
0.019000
20
-0.226000
41
0.050000
42
0.050000
0
CIRCLE
8
0
10
0.019000
20
-0.226000
40
0.030000
0
INSERT
8
0
2
EPAD
10
0.019000
20
0.373000
41
0.050000
42
0.050000
0
CIRCLE
8
0
10
0.019000
20
0.373000
40
0.030000
0
INSERT
8
0
2
EPAD
10
-0.080000
20
0.373000
41
0.050000
42
0.050000
0
CIRCLE
8
0
10
-0.080000
20
0.373000
40
0.030000
0
INSERT
8
0
2
EPAD
10
-0.180000
20
0.373000
41
0.050000
42
0.050000
0
CIRCLE
8
0
10
-0.180000
20
0.373000
40
0.030000
0
INSERT
8
0
2
EPAD
10
-0.280000
20
0.373000
41
0.050000
42
0.050000
0
CIRCLE
8
0
10
-0.280000
20
0.373000
40
0.030000
0
INSERT
8
0
2
EPAD
10
-0.380000
20
0.373000
41
0.050000
42
0.050000
0
CIRCLE
8
0
10
-0.380000
20
0.373000
40
0.030000
0
INSERT
8
0
2
EPAD
10
-0.480000
20
0.373000
41
0.050000
42
0.050000
0
CIRCLE
8
0
10
-0.480000
20
0.373000
40
0.030000
0
INSERT
8
0
2
EPAD
10
-0.580000
20
0.373000
41
0.050000
42
0.050000
0
CIRCLE
8
0
10
-0.580000
20
0.373000
40
0.030000
0
INSERT
8
0
2
EPAD
10
-0.680000
20
0.373000
41
0.050000
42
0.050000
0
CIRCLE
8
0
10
-0.680000
20
0.373000
40
0.030000
0
INSERT
8
0
2
EPAD
10
-0.780000
20
0.373000
41
0.050000
42
0.050000
0
CIRCLE
8
0
10
-0.780000
20
0.373000
40
0.030000
0
INSERT
8
0
2
EPAD
10
-0.880000
20
0.373000
41
0.050000
42
0.050000
0
CIRCLE
8
0
10
-0.880000
20
0.373000
40
0.030000
0
INSERT
8
0
2
EPAD
10
-0.980000
20
0.373000
41
0.050000
42
0.050000
0
CIRCLE
8
0
10
-0.980000
20
0.373000
40
0.030000
0
INSERT
8
0
2
EPAD
10
-1.080000
20
0.373000
41
0.050000
42
0.050000
0
CIRCLE
8
0
10
-1.080000
20
0.373000
40
0.030000
0
INSERT
8
0
2
EPAD
10
-1.180000
20
0.373000
41
0.050000
42
0.050000
0
CIRCLE
8
0
10
-1.180000
20
0.373000
40
0.030000
0
INSERT
8
0
2
EPAD
10
-1.280000
20
0.373000
41
0.050000
42
0.050000
0
CIRCLE
8
0
10
-1.280000
20
0.373000
40
0.030000
0
INSERT
8
0
2
EPAD
10
-1.380000
20
0.373000
41
0.050000
42
0.050000
0
CIRCLE
8
0
10
-1.380000
20
0.373000
40
0.030000
0
INSERT
8
0
2
EPAD
10
-1.480000
20
0.373000
41
0.050000
42
0.050000
0
CIRCLE
8
0
10
-1.480000
20
0.373000
40
0.030000
0
INSERT
8
0
2
EPAD
10
-1.580000
20
0.373000
41
0.050000
42
0.050000
0
CIRCLE
8
0
10
-1.580000
20
0.373000
40
0.030000
0
INSERT
8
0
2
EPAD
10
-1.680000
20
0.373000
41
0.050000
42
0.050000
0
CIRCLE
8
0
10
-1.680000
20
0.373000
40
0.030000
0
INSERT
8
0
2
EPAD
10
-1.780000
20
0.373000
41
0.050000
42
0.050000
0
CIRCLE
8
0
10
-1.780000
20
0.373000
40
0.030000
0
INSERT
8
0
2
EPAD
10
-1.880000
20
0.373000
41
0.050000
42
0.050000
0
CIRCLE
8
0
10
-1.880000
20
0.373000
40
0.030000
0
INSERT
8
0
2
RPAD
10
0.343000
20
-0.679000
41
0.050000
42
0.050000
50
-90.000000
0
CIRCLE
8
0
10
0.343000
20
-0.679000
40
0.030000
0
INSERT
8
0
2
EPAD
10
0.343000
20
-0.779000
41
0.050000
42
0.050000
0
CIRCLE
8
0
10
0.343000
20
-0.779000
40
0.030000
0
INSERT
8
0
2
EPAD
10
0.343000
20
-0.879000
41
0.050000
42
0.050000
0
CIRCLE
8
0
10
0.343000
20
-0.879000
40
0.030000
0
INSERT
8
0
2
EPAD
10
0.343000
20
-0.979000
41
0.050000
42
0.050000
0
CIRCLE
8
0
10
0.343000
20
-0.979000
40
0.030000
0
INSERT
8
0
2
EPAD
10
0.343000
20
-1.079000
41
0.050000
42
0.050000
0
CIRCLE
8
0
10
0.343000
20
-1.079000
40
0.030000
0
INSERT
8
0
2
EPAD
10
0.343000
20
-1.179000
41
0.050000
42
0.050000
0
CIRCLE
8
0
10
0.343000
20
-1.179000
40
0.030000
0
INSERT
8
0
2
EPAD
10
0.343000
20
-1.279000
41
0.050000
42
0.050000
0
CIRCLE
8
0
10
0.343000
20
-1.279000
40
0.030000
0
INSERT
8
0
2
EPAD
10
0.643000
20
-1.279000
41
0.050000
42
0.050000
0
CIRCLE
8
0
10
0.643000
20
-1.279000
40
0.030000
0
INSERT
8
0
2
EPAD
10
0.643000
20
-1.179000
41
0.050000
42
0.050000
0
CIRCLE
8
0
10
0.643000
20
-1.179000
40
0.030000
0
INSERT
8
0
2
EPAD
10
0.643000
20
-1.079000
41
0.050000
42
0.050000
0
CIRCLE
8
0
10
0.643000
20
-1.079000
40
0.030000
0
INSERT
8
0
2
EPAD
10
0.643000
20
-0.979000
41
0.050000
42
0.050000
0
CIRCLE
8
0
10
0.643000
20
-0.979000
40
0.030000
0
INSERT
8
0
2
EPAD
10
0.643000
20
-0.879000
41
0.050000
42
0.050000
0
CIRCLE
8
0
10
0.643000
20
-0.879000
40
0.030000
0
INSERT
8
0
2
EPAD
10
0.643000
20
-0.779000
41
0.050000
42
0.050000
0
CIRCLE
8
0
10
0.643000
20
-0.779000
40
0.030000
0
INSERT
8
0
2
EPAD
10
0.643000
20
-0.679000
41
0.050000
42
0.050000
0
CIRCLE
8
0
10
0.643000
20
-0.679000
40
0.030000
0
INSERT
8
0
2
RPAD
10
-0.427000
20
-1.309000
41
0.080000
42
0.080000
50
0.000000
0
CIRCLE
8
0
10
-0.427000
20
-1.309000
40
0.025000
0
INSERT
8
0
2
RPAD
10
-0.327000
20
-1.309000
41
0.080000
42
0.080000
50
0.000000
0
CIRCLE
8
0
10
-0.327000
20
-1.309000
40
0.025000
0
INSERT
8
0
2
RPAD
10
-0.227000
20
-1.309000
41
0.080000
42
0.080000
50
0.000000
0
CIRCLE
8
0
10
-0.227000
20
-1.309000
40
0.025000
0
INSERT
8
0
2
RPAD
10
-0.421000
20
-1.826000
41
0.080000
42
0.080000
50
0.000000
0
CIRCLE
8
0
10
-0.421000
20
-1.826000
40
0.025000
0
INSERT
8
0
2
RPAD
10
-0.321000
20
-1.826000
41
0.080000
42
0.080000
50
0.000000
0
CIRCLE
8
0
10
-0.321000
20
-1.826000
40
0.025000
0
INSERT
8
0
2
RPAD
10
-0.221000
20
-1.826000
41
0.080000
42
0.080000
50
0.000000
0
CIRCLE
8
0
10
-0.221000
20
-1.826000
40
0.025000
0
INSERT
8
0
2
RPAD
10
-0.577000
20
0.816000
41
0.080000
42
0.080000
50
180.000000
0
CIRCLE
8
0
10
-0.577000
20
0.816000
40
0.025000
0
INSERT
8
0
2
RPAD
10
-0.677000
20
0.816000
41
0.080000
42
0.080000
50
180.000000
0
CIRCLE
8
0
10
-0.677000
20
0.816000
40
0.025000
0
INSERT
8
0
2
RPAD
10
-0.777000
20
0.816000
41
0.080000
42
0.080000
50
180.000000
0
CIRCLE
8
0
10
-0.777000
20
0.816000
40
0.025000
0
INSERT
8
0
2
RPAD
10
-0.877000
20
0.816000
41
0.080000
42
0.080000
50
180.000000
0
CIRCLE
8
0
10
-0.877000
20
0.816000
40
0.025000
0
INSERT
8
0
2
RPAD
10
-0.977000
20
0.816000
41
0.080000
42
0.080000
50
180.000000
0
CIRCLE
8
0
10
-0.977000
20
0.816000
40
0.025000
0
INSERT
8
0
2
RPAD
10
-1.077000
20
0.816000
41
0.080000
42
0.080000
50
180.000000
0
CIRCLE
8
0
10
-1.077000
20
0.816000
40
0.025000
0
INSERT
8
0
2
RPAD
10
-1.177000
20
0.816000
41
0.080000
42
0.080000
50
180.000000
0
CIRCLE
8
0
10
-1.177000
20
0.816000
40
0.025000
0
INSERT
8
0
2
RPAD
10
-1.277000
20
0.816000
41
0.080000
42
0.080000
50
180.000000
0
CIRCLE
8
0
10
-1.277000
20
0.816000
40
0.025000
0
INSERT
8
0
2
RPAD
10
-1.377000
20
0.816000
41
0.080000
42
0.080000
50
180.000000
0
CIRCLE
8
0
10
-1.377000
20
0.816000
40
0.025000
0
INSERT
8
0
2
RPAD
10
-1.477000
20
0.816000
41
0.080000
42
0.080000
50
180.000000
0
CIRCLE
8
0
10
-1.477000
20
0.816000
40
0.025000
0
INSERT
8
0
2
RPAD
10
-1.577000
20
0.816000
41
0.080000
42
0.080000
50
180.000000
0
CIRCLE
8
0
10
-1.577000
20
0.816000
40
0.025000
0
INSERT
8
0
2
RPAD
10
-1.677000
20
0.816000
41
0.080000
42
0.080000
50
180.000000
0
CIRCLE
8
0
10
-1.677000
20
0.816000
40
0.025000
0
INSERT
8
0
2
RPAD
10
-1.777000
20
0.816000
41
0.080000
42
0.080000
50
180.000000
0
CIRCLE
8
0
10
-1.777000
20
0.816000
40
0.025000
0
INSERT
8
0
2
RPAD
10
-1.877000
20
0.816000
41
0.080000
42
0.080000
50
180.000000
0
CIRCLE
8
0
10
-1.877000
20
0.816000
40
0.025000
0
INSERT
8
0
2
RPAD
10
-1.977000
20
0.816000
41
0.080000
42
0.080000
50
180.000000
0
CIRCLE
8
0
10
-1.977000
20
0.816000
40
0.025000
0
INSERT
8
0
2
RPAD
10
-2.077000
20
0.816000
41
0.080000
42
0.080000
50
180.000000
0
CIRCLE
8
0
10
-2.077000
20
0.816000
40
0.025000
0
INSERT
8
0
2
EPAD
10
-2.057000
20
-0.153000
41
0.070000
42
0.070000
0
CIRCLE
8
0
10
-2.057000
20
-0.153000
40
0.025000
0
INSERT
8
0
2
EPAD
10
-2.057000
20
0.246000
41
0.070000
42
0.070000
0
CIRCLE
8
0
10
-2.057000
20
0.246000
40
0.025000
0
INSERT
8
0
2
EPAD
10
0.724000
20
-0.167000
41
0.070000
42
0.070000
0
CIRCLE
8
0
10
0.724000
20
-0.167000
40
0.025000
0
INSERT
8
0
2
EPAD
10
0.324000
20
-0.167000
41
0.070000
42
0.070000
0
CIRCLE
8
0
10
0.324000
20
-0.167000
40
0.025000
0
INSERT
8
0
2
EPAD
10
0.724000
20
-0.285000
41
0.070000
42
0.070000
0
CIRCLE
8
0
10
0.724000
20
-0.285000
40
0.025000
0
INSERT
8
0
2
EPAD
10
0.324000
20
-0.285000
41
0.070000
42
0.070000
0
CIRCLE
8
0
10
0.324000
20
-0.285000
40
0.025000
0
INSERT
8
0
2
EPAD
10
0.724000
20
0.068000
41
0.070000
42
0.070000
0
CIRCLE
8
0
10
0.724000
20
0.068000
40
0.025000
0
INSERT
8
0
2
EPAD
10
0.324000
20
0.068000
41
0.070000
42
0.070000
0
CIRCLE
8
0
10
0.324000
20
0.068000
40
0.025000
0
INSERT
8
0
2
EPAD
10
0.724000
20
-0.049000
41
0.070000
42
0.070000
0
CIRCLE
8
0
10
0.724000
20
-0.049000
40
0.025000
0
INSERT
8
0
2
EPAD
10
0.324000
20
-0.049000
41
0.070000
42
0.070000
0
CIRCLE
8
0
10
0.324000
20
-0.049000
40
0.025000
0
INSERT
8
0
2
EPAD
10
0.724000
20
0.187000
41
0.070000
42
0.070000
0
CIRCLE
8
0
10
0.724000
20
0.187000
40
0.025000
0
INSERT
8
0
2
EPAD
10
0.324000
20
0.187000
41
0.070000
42
0.070000
0
CIRCLE
8
0
10
0.324000
20
0.187000
40
0.025000
0
INSERT
8
0
2
EPAD
10
0.724000
20
0.305000
41
0.070000
42
0.070000
0
CIRCLE
8
0
10
0.724000
20
0.305000
40
0.025000
0
INSERT
8
0
2
EPAD
10
0.324000
20
0.305000
41
0.070000
42
0.070000
0
CIRCLE
8
0
10
0.324000
20
0.305000
40
0.025000
0
INSERT
8
0
2
RPAD
10
1.032000
20
-1.545000
41
0.050000
42
0.050000
50
-90.000000
0
CIRCLE
8
0
10
1.032000
20
-1.545000
40
0.030000
0
INSERT
8
0
2
EPAD
10
1.032000
20
-1.645000
41
0.050000
42
0.050000
0
CIRCLE
8
0
10
1.032000
20
-1.645000
40
0.030000
0
INSERT
8
0
2
EPAD
10
1.032000
20
-1.745000
41
0.050000
42
0.050000
0
CIRCLE
8
0
10
1.032000
20
-1.745000
40
0.030000
0
INSERT
8
0
2
EPAD
10
1.332000
20
-1.745000
41
0.050000
42
0.050000
0
CIRCLE
8
0
10
1.332000
20
-1.745000
40
0.030000
0
INSERT
8
0
2
EPAD
10
1.332000
20
-1.645000
41
0.050000
42
0.050000
0
CIRCLE
8
0
10
1.332000
20
-1.645000
40
0.030000
0
INSERT
8
0
2
EPAD
10
1.332000
20
-1.545000
41
0.050000
42
0.050000
0
CIRCLE
8
0
10
1.332000
20
-1.545000
40
0.030000
0
INSERT
8
0
2
RPAD
10
1.032000
20
-0.974000
41
0.050000
42
0.050000
50
-90.000000
0
CIRCLE
8
0
10
1.032000
20
-0.974000
40
0.030000
0
INSERT
8
0
2
EPAD
10
1.032000
20
-1.074000
41
0.050000
42
0.050000
0
CIRCLE
8
0
10
1.032000
20
-1.074000
40
0.030000
0
INSERT
8
0
2
EPAD
10
1.032000
20
-1.174000
41
0.050000
42
0.050000
0
CIRCLE
8
0
10
1.032000
20
-1.174000
40
0.030000
0
INSERT
8
0
2
EPAD
10
1.332000
20
-1.174000
41
0.050000
42
0.050000
0
CIRCLE
8
0
10
1.332000
20
-1.174000
40
0.030000
0
INSERT
8
0
2
EPAD
10
1.332000
20
-1.074000
41
0.050000
42
0.050000
0
CIRCLE
8
0
10
1.332000
20
-1.074000
40
0.030000
0
INSERT
8
0
2
EPAD
10
1.332000
20
-0.974000
41
0.050000
42
0.050000
0
CIRCLE
8
0
10
1.332000
20
-0.974000
40
0.030000
0
INSERT
8
0
2
RPAD
10
1.032000
20
0.364000
41
0.050000
42
0.050000
50
-90.000000
0
CIRCLE
8
0
10
1.032000
20
0.364000
40
0.030000
0
INSERT
8
0
2
EPAD
10
1.032000
20
0.264000
41
0.050000
42
0.050000
0
CIRCLE
8
0
10
1.032000
20
0.264000
40
0.030000
0
INSERT
8
0
2
EPAD
10
1.032000
20
0.164000
41
0.050000
42
0.050000
0
CIRCLE
8
0
10
1.032000
20
0.164000
40
0.030000
0
INSERT
8
0
2
EPAD
10
1.332000
20
0.164000
41
0.050000
42
0.050000
0
CIRCLE
8
0
10
1.332000
20
0.164000
40
0.030000
0
INSERT
8
0
2
EPAD
10
1.332000
20
0.264000
41
0.050000
42
0.050000
0
CIRCLE
8
0
10
1.332000
20
0.264000
40
0.030000
0
INSERT
8
0
2
EPAD
10
1.332000
20
0.364000
41
0.050000
42
0.050000
0
CIRCLE
8
0
10
1.332000
20
0.364000
40
0.030000
0
INSERT
8
0
2
RPAD
10
1.032000
20
-0.305000
41
0.050000
42
0.050000
50
-90.000000
0
CIRCLE
8
0
10
1.032000
20
-0.305000
40
0.030000
0
INSERT
8
0
2
EPAD
10
1.032000
20
-0.405000
41
0.050000
42
0.050000
0
CIRCLE
8
0
10
1.032000
20
-0.405000
40
0.030000
0
INSERT
8
0
2
EPAD
10
1.032000
20
-0.505000
41
0.050000
42
0.050000
0
CIRCLE
8
0
10
1.032000
20
-0.505000
40
0.030000
0
INSERT
8
0
2
EPAD
10
1.332000
20
-0.505000
41
0.050000
42
0.050000
0
CIRCLE
8
0
10
1.332000
20
-0.505000
40
0.030000
0
INSERT
8
0
2
EPAD
10
1.332000
20
-0.405000
41
0.050000
42
0.050000
0
CIRCLE
8
0
10
1.332000
20
-0.405000
40
0.030000
0
INSERT
8
0
2
EPAD
10
1.332000
20
-0.305000
41
0.050000
42
0.050000
0
CIRCLE
8
0
10
1.332000
20
-0.305000
40
0.030000
0
INSERT
8
0
2
RPAD
10
1.032000
20
1.569000
41
0.050000
42
0.050000
50
-90.000000
0
CIRCLE
8
0
10
1.032000
20
1.569000
40
0.030000
0
INSERT
8
0
2
EPAD
10
1.032000
20
1.469000
41
0.050000
42
0.050000
0
CIRCLE
8
0
10
1.032000
20
1.469000
40
0.030000
0
INSERT
8
0
2
EPAD
10
1.032000
20
1.369000
41
0.050000
42
0.050000
0
CIRCLE
8
0
10
1.032000
20
1.369000
40
0.030000
0
INSERT
8
0
2
EPAD
10
1.332000
20
1.369000
41
0.050000
42
0.050000
0
CIRCLE
8
0
10
1.332000
20
1.369000
40
0.030000
0
INSERT
8
0
2
EPAD
10
1.332000
20
1.469000
41
0.050000
42
0.050000
0
CIRCLE
8
0
10
1.332000
20
1.469000
40
0.030000
0
INSERT
8
0
2
EPAD
10
1.332000
20
1.569000
41
0.050000
42
0.050000
0
CIRCLE
8
0
10
1.332000
20
1.569000
40
0.030000
0
INSERT
8
0
2
RPAD
10
1.032000
20
0.954000
41
0.050000
42
0.050000
50
-90.000000
0
CIRCLE
8
0
10
1.032000
20
0.954000
40
0.030000
0
INSERT
8
0
2
EPAD
10
1.032000
20
0.854000
41
0.050000
42
0.050000
0
CIRCLE
8
0
10
1.032000
20
0.854000
40
0.030000
0
INSERT
8
0
2
EPAD
10
1.032000
20
0.754000
41
0.050000
42
0.050000
0
CIRCLE
8
0
10
1.032000
20
0.754000
40
0.030000
0
INSERT
8
0
2
EPAD
10
1.332000
20
0.754000
41
0.050000
42
0.050000
0
CIRCLE
8
0
10
1.332000
20
0.754000
40
0.030000
0
INSERT
8
0
2
EPAD
10
1.332000
20
0.854000
41
0.050000
42
0.050000
0
CIRCLE
8
0
10
1.332000
20
0.854000
40
0.030000
0
INSERT
8
0
2
EPAD
10
1.332000
20
0.954000
41
0.050000
42
0.050000
0
CIRCLE
8
0
10
1.332000
20
0.954000
40
0.030000
0
INSERT
8
0
2
RPAD
10
1.701000
20
-1.724000
41
0.080000
42
0.080000
50
90.000000
0
CIRCLE
8
0
10
1.701000
20
-1.724000
40
0.025000
0
INSERT
8
0
2
RPAD
10
1.701000
20
-1.624000
41
0.080000
42
0.080000
50
90.000000
0
CIRCLE
8
0
10
1.701000
20
-1.624000
40
0.025000
0
INSERT
8
0
2
RPAD
10
1.701000
20
-1.524000
41
0.080000
42
0.080000
50
90.000000
0
CIRCLE
8
0
10
1.701000
20
-1.524000
40
0.025000
0
INSERT
8
0
2
RPAD
10
1.761000
20
-1.172000
41
0.080000
42
0.080000
50
90.000000
0
CIRCLE
8
0
10
1.761000
20
-1.172000
40
0.025000
0
INSERT
8
0
2
RPAD
10
1.761000
20
-1.072000
41
0.080000
42
0.080000
50
90.000000
0
CIRCLE
8
0
10
1.761000
20
-1.072000
40
0.025000
0
INSERT
8
0
2
RPAD
10
1.761000
20
-0.972000
41
0.080000
42
0.080000
50
90.000000
0
CIRCLE
8
0
10
1.761000
20
-0.972000
40
0.025000
0
INSERT
8
0
2
RPAD
10
1.761000
20
0.165000
41
0.080000
42
0.080000
50
90.000000
0
CIRCLE
8
0
10
1.761000
20
0.165000
40
0.025000
0
INSERT
8
0
2
RPAD
10
1.761000
20
0.265000
41
0.080000
42
0.080000
50
90.000000
0
CIRCLE
8
0
10
1.761000
20
0.265000
40
0.025000
0
INSERT
8
0
2
RPAD
10
1.761000
20
0.365000
41
0.080000
42
0.080000
50
90.000000
0
CIRCLE
8
0
10
1.761000
20
0.365000
40
0.025000
0
INSERT
8
0
2
RPAD
10
1.761000
20
-0.503000
41
0.080000
42
0.080000
50
90.000000
0
CIRCLE
8
0
10
1.761000
20
-0.503000
40
0.025000
0
INSERT
8
0
2
RPAD
10
1.761000
20
-0.403000
41
0.080000
42
0.080000
50
90.000000
0
CIRCLE
8
0
10
1.761000
20
-0.403000
40
0.025000
0
INSERT
8
0
2
RPAD
10
1.761000
20
-0.303000
41
0.080000
42
0.080000
50
90.000000
0
CIRCLE
8
0
10
1.761000
20
-0.303000
40
0.025000
0
INSERT
8
0
2
RPAD
10
1.761000
20
0.756000
41
0.080000
42
0.080000
50
90.000000
0
CIRCLE
8
0
10
1.761000
20
0.756000
40
0.025000
0
INSERT
8
0
2
RPAD
10
1.761000
20
0.856000
41
0.080000
42
0.080000
50
90.000000
0
CIRCLE
8
0
10
1.761000
20
0.856000
40
0.025000
0
INSERT
8
0
2
RPAD
10
1.761000
20
0.956000
41
0.080000
42
0.080000
50
90.000000
0
CIRCLE
8
0
10
1.761000
20
0.956000
40
0.025000
0
INSERT
8
0
2
RPAD
10
1.761000
20
1.369000
41
0.080000
42
0.080000
50
90.000000
0
CIRCLE
8
0
10
1.761000
20
1.369000
40
0.025000
0
INSERT
8
0
2
RPAD
10
1.761000
20
1.469000
41
0.080000
42
0.080000
50
90.000000
0
CIRCLE
8
0
10
1.761000
20
1.469000
40
0.025000
0
INSERT
8
0
2
RPAD
10
1.761000
20
1.569000
41
0.080000
42
0.080000
50
90.000000
0
CIRCLE
8
0
10
1.761000
20
1.569000
40
0.025000
0
INSERT
8
0
2
EPAD
10
-0.384000
20
-0.480000
41
0.070000
42
0.070000
0
CIRCLE
8
0
10
-0.384000
20
-0.480000
40
0.025000
0
INSERT
8
0
2
EPAD
10
-0.384000
20
-0.680000
41
0.070000
42
0.070000
0
CIRCLE
8
0
10
-0.384000
20
-0.680000
40
0.025000
0
INSERT
8
0
2
EPAD
10
-0.207000
20
-0.480000
41
0.070000
42
0.070000
0
CIRCLE
8
0
10
-0.207000
20
-0.480000
40
0.025000
0
INSERT
8
0
2
EPAD
10
-0.207000
20
-0.680000
41
0.070000
42
0.070000
0
CIRCLE
8
0
10
-0.207000
20
-0.680000
40
0.025000
0
INSERT
8
0
2
EPAD
10
-0.699000
20
-0.049000
41
0.080000
42
0.080000
0
CIRCLE
8
0
10
-0.699000
20
-0.049000
40
0.025000
0
INSERT
8
0
2
EPAD
10
-0.499000
20
-0.049000
41
0.080000
42
0.080000
0
CIRCLE
8
0
10
-0.499000
20
-0.049000
40
0.025000
0
INSERT
8
0
2
EPAD
10
-1.270000
20
-0.580000
41
0.080000
42
0.080000
0
CIRCLE
8
0
10
-1.270000
20
-0.580000
40
0.010000
0
INSERT
8
0
2
EPAD
10
-1.170000
20
-0.580000
41
0.080000
42
0.080000
0
CIRCLE
8
0
10
-1.170000
20
-0.580000
40
0.010000
0
INSERT
8
0
2
EPAD
10
-1.070000
20
-0.580000
41
0.080000
42
0.080000
0
CIRCLE
8
0
10
-1.070000
20
-0.580000
40
0.010000
0
INSERT
8
0
2
EPAD
10
-0.970000
20
-0.580000
41
0.080000
42
0.080000
0
CIRCLE
8
0
10
-0.970000
20
-0.580000
40
0.010000
0
INSERT
8
0
2
EPAD
10
-0.870000
20
-0.580000
41
0.080000
42
0.080000
0
CIRCLE
8
0
10
-0.870000
20
-0.580000
40
0.010000
0
INSERT
8
0
2
EPAD
10
-0.770000
20
-0.580000
41
0.080000
42
0.080000
0
CIRCLE
8
0
10
-0.770000
20
-0.580000
40
0.010000
0
INSERT
8
0
2
EPAD
10
-0.670000
20
-0.580000
41
0.080000
42
0.080000
0
CIRCLE
8
0
10
-0.670000
20
-0.580000
40
0.010000
0
INSERT
8
0
2
EPAD
10
-0.570000
20
-0.580000
41
0.080000
42
0.080000
0
CIRCLE
8
0
10
-0.570000
20
-0.580000
40
0.010000
0
INSERT
8
0
2
EPAD
10
-1.290000
20
-0.777000
41
0.070000
42
0.070000
0
CIRCLE
8
0
10
-1.290000
20
-0.777000
40
0.025000
0
INSERT
8
0
2
EPAD
10
-1.290000
20
-1.177000
41
0.070000
42
0.070000
0
CIRCLE
8
0
10
-1.290000
20
-1.177000
40
0.025000
0
INSERT
8
0
2
EPAD
10
-1.172000
20
-0.777000
41
0.070000
42
0.070000
0
CIRCLE
8
0
10
-1.172000
20
-0.777000
40
0.025000
0
INSERT
8
0
2
EPAD
10
-1.172000
20
-1.177000
41
0.070000
42
0.070000
0
CIRCLE
8
0
10
-1.172000
20
-1.177000
40
0.025000
0
INSERT
8
0
2
EPAD
10
-1.053000
20
-0.777000
41
0.070000
42
0.070000
0
CIRCLE
8
0
10
-1.053000
20
-0.777000
40
0.025000
0
INSERT
8
0
2
EPAD
10
-1.053000
20
-1.177000
41
0.070000
42
0.070000
0
CIRCLE
8
0
10
-1.053000
20
-1.177000
40
0.025000
0
INSERT
8
0
2
EPAD
10
-0.935000
20
-0.777000
41
0.070000
42
0.070000
0
CIRCLE
8
0
10
-0.935000
20
-0.777000
40
0.025000
0
INSERT
8
0
2
EPAD
10
-0.935000
20
-1.177000
41
0.070000
42
0.070000
0
CIRCLE
8
0
10
-0.935000
20
-1.177000
40
0.025000
0
INSERT
8
0
2
EPAD
10
1.768000
20
-1.309000
41
0.070000
42
0.070000
0
CIRCLE
8
0
10
1.768000
20
-1.309000
40
0.025000
0
INSERT
8
0
2
EPAD
10
1.368000
20
-1.309000
41
0.070000
42
0.070000
0
CIRCLE
8
0
10
1.368000
20
-1.309000
40
0.025000
0
INSERT
8
0
2
EPAD
10
1.718000
20
0.029000
41
0.070000
42
0.070000
0
CIRCLE
8
0
10
1.718000
20
0.029000
40
0.025000
0
INSERT
8
0
2
EPAD
10
1.318000
20
0.029000
41
0.070000
42
0.070000
0
CIRCLE
8
0
10
1.318000
20
0.029000
40
0.025000
0
INSERT
8
0
2
EPAD
10
1.718000
20
-1.899000
41
0.070000
42
0.070000
0
CIRCLE
8
0
10
1.718000
20
-1.899000
40
0.025000
0
INSERT
8
0
2
EPAD
10
1.318000
20
-1.899000
41
0.070000
42
0.070000
0
CIRCLE
8
0
10
1.318000
20
-1.899000
40
0.025000
0
INSERT
8
0
2
EPAD
10
1.718000
20
-0.659000
41
0.070000
42
0.070000
0
CIRCLE
8
0
10
1.718000
20
-0.659000
40
0.025000
0
INSERT
8
0
2
EPAD
10
1.318000
20
-0.659000
41
0.070000
42
0.070000
0
CIRCLE
8
0
10
1.318000
20
-0.659000
40
0.025000
0
INSERT
8
0
2
EPAD
10
1.718000
20
0.620000
41
0.070000
42
0.070000
0
CIRCLE
8
0
10
1.718000
20
0.620000
40
0.025000
0
INSERT
8
0
2
EPAD
10
1.318000
20
0.620000
41
0.070000
42
0.070000
0
CIRCLE
8
0
10
1.318000
20
0.620000
40
0.025000
0
INSERT
8
0
2
EPAD
10
1.718000
20
1.213000
41
0.070000
42
0.070000
0
CIRCLE
8
0
10
1.718000
20
1.213000
40
0.025000
0
INSERT
8
0
2
EPAD
10
1.318000
20
1.213000
41
0.070000
42
0.070000
0
CIRCLE
8
0
10
1.318000
20
1.213000
40
0.025000
0
INSERT
8
0
2
EPAD
10
-1.526000
20
-1.466000
41
0.070000
42
0.070000
0
CIRCLE
8
0
10
-1.526000
20
-1.466000
40
0.025000
0
INSERT
8
0
2
EPAD
10
-1.126000
20
-1.466000
41
0.070000
42
0.070000
0
CIRCLE
8
0
10
-1.126000
20
-1.466000
40
0.025000
0
INSERT
8
0
2
EPAD
10
-0.022000
20
0.638000
41
0.080000
42
0.080000
0
CIRCLE
8
0
10
-0.022000
20
0.638000
40
0.025000
0
INSERT
8
0
2
EPAD
10
-0.022000
20
0.838000
41
0.080000
42
0.080000
0
CIRCLE
8
0
10
-0.022000
20
0.838000
40
0.025000
0
INSERT
8
0
2
EPAD
10
-0.242000
20
0.738000
41
0.080000
42
0.080000
0
CIRCLE
8
0
10
-0.242000
20
0.738000
40
0.025000
0
INSERT
8
0
2
EPAD
10
2.272000
20
-1.879000
41
0.120000
42
0.120000
0
CIRCLE
8
0
10
2.272000
20
-1.879000
40
0.030000
0
INSERT
8
0
2
EPAD
10
2.272000
20
-1.679000
41
0.120000
42
0.120000
0
CIRCLE
8
0
10
2.272000
20
-1.679000
40
0.030000
0
INSERT
8
0
2
EPAD
10
2.272000
20
-1.479000
41
0.120000
42
0.120000
0
CIRCLE
8
0
10
2.272000
20
-1.479000
40
0.030000
0
INSERT
8
0
2
EPAD
10
2.272000
20
-1.250000
41
0.120000
42
0.120000
0
CIRCLE
8
0
10
2.272000
20
-1.250000
40
0.030000
0
INSERT
8
0
2
EPAD
10
2.272000
20
-1.050000
41
0.120000
42
0.120000
0
CIRCLE
8
0
10
2.272000
20
-1.050000
40
0.030000
0
INSERT
8
0
2
EPAD
10
2.272000
20
-0.850000
41
0.120000
42
0.120000
0
CIRCLE
8
0
10
2.272000
20
-0.850000
40
0.030000
0
INSERT
8
0
2
EPAD
10
2.272000
20
1.269000
41
0.120000
42
0.120000
0
CIRCLE
8
0
10
2.272000
20
1.269000
40
0.030000
0
INSERT
8
0
2
EPAD
10
2.272000
20
1.469000
41
0.120000
42
0.120000
0
CIRCLE
8
0
10
2.272000
20
1.469000
40
0.030000
0
INSERT
8
0
2
EPAD
10
2.272000
20
1.669000
41
0.120000
42
0.120000
0
CIRCLE
8
0
10
2.272000
20
1.669000
40
0.030000
0
INSERT
8
0
2
EPAD
10
2.272000
20
0.639000
41
0.120000
42
0.120000
0
CIRCLE
8
0
10
2.272000
20
0.639000
40
0.030000
0
INSERT
8
0
2
EPAD
10
2.272000
20
0.839000
41
0.120000
42
0.120000
0
CIRCLE
8
0
10
2.272000
20
0.839000
40
0.030000
0
INSERT
8
0
2
EPAD
10
2.272000
20
1.039000
41
0.120000
42
0.120000
0
CIRCLE
8
0
10
2.272000
20
1.039000
40
0.030000
0
INSERT
8
0
2
EPAD
10
0.422000
20
1.624000
41
0.120000
42
0.120000
0
CIRCLE
8
0
10
0.422000
20
1.624000
40
0.030000
0
INSERT
8
0
2
EPAD
10
0.222000
20
1.624000
41
0.120000
42
0.120000
0
CIRCLE
8
0
10
0.222000
20
1.624000
40
0.030000
0
INSERT
8
0
2
EPAD
10
0.022000
20
1.624000
41
0.120000
42
0.120000
0
CIRCLE
8
0
10
0.022000
20
1.624000
40
0.030000
0
INSERT
8
0
2
EPAD
10
2.272000
20
-0.620000
41
0.120000
42
0.120000
0
CIRCLE
8
0
10
2.272000
20
-0.620000
40
0.030000
0
INSERT
8
0
2
EPAD
10
2.272000
20
-0.420000
41
0.120000
42
0.120000
0
CIRCLE
8
0
10
2.272000
20
-0.420000
40
0.030000
0
INSERT
8
0
2
EPAD
10
2.272000
20
-0.220000
41
0.120000
42
0.120000
0
CIRCLE
8
0
10
2.272000
20
-0.220000
40
0.030000
0
INSERT
8
0
2
EPAD
10
-1.861000
20
-1.762000
41
0.120000
42
0.120000
0
CIRCLE
8
0
10
-1.861000
20
-1.762000
40
0.030000
0
INSERT
8
0
2
EPAD
10
-1.661000
20
-1.762000
41
0.120000
42
0.120000
0
CIRCLE
8
0
10
-1.661000
20
-1.762000
40
0.030000
0
INSERT
8
0
2
EPAD
10
2.272000
20
0.009000
41
0.120000
42
0.120000
0
CIRCLE
8
0
10
2.272000
20
0.009000
40
0.030000
0
INSERT
8
0
2
EPAD
10
2.272000
20
0.209000
41
0.120000
42
0.120000
0
CIRCLE
8
0
10
2.272000
20
0.209000
40
0.030000
0
INSERT
8
0
2
EPAD
10
2.272000
20
0.409000
41
0.120000
42
0.120000
0
CIRCLE
8
0
10
2.272000
20
0.409000
40
0.030000
0
INSERT
8
0
2
EPAD
10
-2.235000
20
-0.580000
41
0.080000
42
0.080000
0
CIRCLE
8
0
10
-2.235000
20
-0.580000
40
0.010000
0
INSERT
8
0
2
EPAD
10
-2.135000
20
-0.580000
41
0.080000
42
0.080000
0
CIRCLE
8
0
10
-2.135000
20
-0.580000
40
0.010000
0
INSERT
8
0
2
EPAD
10
-2.035000
20
-0.580000
41
0.080000
42
0.080000
0
CIRCLE
8
0
10
-2.035000
20
-0.580000
40
0.010000
0
INSERT
8
0
2
EPAD
10
-1.801000
20
-0.580000
41
0.080000
42
0.080000
0
CIRCLE
8
0
10
-1.801000
20
-0.580000
40
0.010000
0
INSERT
8
0
2
EPAD
10
-1.701000
20
-0.580000
41
0.080000
42
0.080000
0
CIRCLE
8
0
10
-1.701000
20
-0.580000
40
0.010000
0
INSERT
8
0
2
EPAD
10
-1.601000
20
-0.580000
41
0.080000
42
0.080000
0
CIRCLE
8
0
10
-1.601000
20
-0.580000
40
0.010000
0
INSERT
8
0
2
EPAD
10
-1.501000
20
-0.580000
41
0.080000
42
0.080000
0
CIRCLE
8
0
10
-1.501000
20
-0.580000
40
0.010000
0
INSERT
8
0
2
EPAD
10
-0.817000
20
-1.722000
41
0.150000
42
0.150000
0
CIRCLE
8
0
10
-0.817000
20
-1.722000
40
0.030000
0
INSERT
8
0
2
EPAD
10
0.166000
20
-1.722000
41
0.150000
42
0.150000
0
CIRCLE
8
0
10
0.166000
20
-1.722000
40
0.030000
0
INSERT
8
0
2
EPAD
10
-0.051000
20
-1.218000
41
0.080000
42
0.080000
0
CIRCLE
8
0
10
-0.051000
20
-1.218000
40
0.025000
0
INSERT
8
0
2
EPAD
10
0.148000
20
-1.218000
41
0.080000
42
0.080000
0
CIRCLE
8
0
10
0.148000
20
-1.218000
40
0.025000
0
INSERT
8
0
2
EPAD
10
0.048000
20
-0.998000
41
0.080000
42
0.080000
0
CIRCLE
8
0
10
0.048000
20
-0.998000
40
0.025000
0
INSERT
8
0
2
EPAD
10
0.757000
20
-1.486000
41
0.070000
42
0.070000
0
CIRCLE
8
0
10
0.757000
20
-1.486000
40
0.025000
0
INSERT
8
0
2
EPAD
10
0.757000
20
-1.886000
41
0.070000
42
0.070000
0
CIRCLE
8
0
10
0.757000
20
-1.886000
40
0.025000
0
INSERT
8
0
2
EPAD
10
-1.683000
20
-1.131000
41
0.100000
42
0.100000
0
CIRCLE
8
0
10
-1.683000
20
-1.131000
40
0.025000
0
INSERT
8
0
2
EPAD
10
-1.483000
20
-1.131000
41
0.100000
42
0.100000
0
CIRCLE
8
0
10
-1.483000
20
-1.131000
40
0.025000
0
INSERT
8
0
2
EPAD
10
-0.778000
20
-1.328000
41
0.080000
42
0.080000
0
CIRCLE
8
0
10
-0.778000
20
-1.328000
40
0.025000
0
INSERT
8
0
2
EPAD
10
-0.678000
20
-1.328000
41
0.080000
42
0.080000
0
CIRCLE
8
0
10
-0.678000
20
-1.328000
40
0.025000
0
INSERT
8
0
2
EPAD
10
-1.112000
20
-1.328000
41
0.070000
42
0.070000
0
CIRCLE
8
0
10
-1.112000
20
-1.328000
40
0.025000
0
INSERT
8
0
2
EPAD
10
-0.912000
20
-1.328000
41
0.070000
42
0.070000
0
CIRCLE
8
0
10
-0.912000
20
-1.328000
40
0.025000
0
INSERT
8
0
2
EPAD
10
-0.266000
20
-0.049000
41
0.070000
42
0.070000
0
CIRCLE
8
0
10
-0.266000
20
-0.049000
40
0.025000
0
INSERT
8
0
2
EPAD
10
-0.066000
20
-0.049000
41
0.070000
42
0.070000
0
CIRCLE
8
0
10
-0.066000
20
-0.049000
40
0.025000
0
INSERT
8
0
2
EPAD
10
-2.272000
20
1.742000
41
0.250000
42
0.250000
0
CIRCLE
8
0
10
-2.272000
20
1.742000
40
0.030000
0
INSERT
8
0
2
EPAD
10
-2.272000
20
-1.899000
41
0.250000
42
0.250000
0
CIRCLE
8
0
10
-2.272000
20
-1.899000
40
0.030000
0
INSERT
8
0
2
EPAD
10
1.959000
20
-1.407000
41
0.100000
42
0.100000
0
CIRCLE
8
0
10
1.959000
20
-1.407000
40
0.025000
0
INSERT
8
0
2
EPAD
10
1.959000
20
-1.007000
41
0.100000
42
0.100000
0
CIRCLE
8
0
10
1.959000
20
-1.007000
40
0.025000
0
INSERT
8
0
2
EPAD
10
1.959000
20
-0.757000
41
0.100000
42
0.100000
0
CIRCLE
8
0
10
1.959000
20
-0.757000
40
0.025000
0
INSERT
8
0
2
EPAD
10
1.959000
20
-0.357000
41
0.100000
42
0.100000
0
CIRCLE
8
0
10
1.959000
20
-0.357000
40
0.025000
0
INSERT
8
0
2
EPAD
10
1.959000
20
-0.088000
41
0.100000
42
0.100000
0
CIRCLE
8
0
10
1.959000
20
-0.088000
40
0.025000
0
INSERT
8
0
2
EPAD
10
1.959000
20
0.311000
41
0.100000
42
0.100000
0
CIRCLE
8
0
10
1.959000
20
0.311000
40
0.025000
0
INSERT
8
0
2
EPAD
10
1.959000
20
0.541000
41
0.100000
42
0.100000
0
CIRCLE
8
0
10
1.959000
20
0.541000
40
0.025000
0
INSERT
8
0
2
EPAD
10
1.959000
20
0.941000
41
0.100000
42
0.100000
0
CIRCLE
8
0
10
1.959000
20
0.941000
40
0.025000
0
INSERT
8
0
2
EPAD
10
1.959000
20
1.131000
41
0.100000
42
0.100000
0
CIRCLE
8
0
10
1.959000
20
1.131000
40
0.025000
0
INSERT
8
0
2
EPAD
10
1.959000
20
1.531000
41
0.100000
42
0.100000
0
CIRCLE
8
0
10
1.959000
20
1.531000
40
0.025000
0
INSERT
8
0
2
EPAD
10
-0.737000
20
-0.777000
41
0.100000
42
0.100000
0
CIRCLE
8
0
10
-0.737000
20
-0.777000
40
0.025000
0
INSERT
8
0
2
EPAD
10
-0.737000
20
-1.177000
41
0.100000
42
0.100000
0
CIRCLE
8
0
10
-0.737000
20
-1.177000
40
0.025000
0
INSERT
8
0
2
EPAD
10
1.920000
20
-1.899000
41
0.250000
42
0.250000
0
CIRCLE
8
0
10
1.920000
20
-1.899000
40
0.030000
0
INSERT
8
0
2
EPAD
10
1.920000
20
1.742000
41
0.250000
42
0.250000
0
CIRCLE
8
0
10
1.920000
20
1.742000
40
0.030000
0
POLYLINE
8
0
66
1
40
0.008000
41
0.008000
0
VERTEX
8
0
10
-2.430000
20
-2.057000
0
VERTEX
8
0
10
2.530000
20
-2.057000
0
VERTEX
8
0
10
2.530000
20
2.057000
0
VERTEX
8
0
10
-2.430000
20
2.057000
0
VERTEX
8
0
10
-2.430000
20
-2.057000
0
SEQEND
8
0
0
CIRCLE
8
12632256
10
-1.268000
20
-1.763000
40
0.213000
0
POLYLINE
8
0
66
1
40
0.008000
41
0.008000
0
VERTEX
8
0
10
-1.348000
20
-1.573000
0
VERTEX
8
0
10
-1.348000
20
-1.613000
0
SEQEND
8
0
0
POLYLINE
8
0
66
1
40
0.008000
41
0.008000
0
VERTEX
8
0
10
-1.368000
20
-1.593000
0
VERTEX
8
0
10
-1.328000
20
-1.593000
0
SEQEND
8
0
0
TEXT
8
12632256
10
-1.343000
20
-1.540000
40
0.048000
41
1.041667
1
BR1
0
POLYLINE
8
0
66
1
40
0.008000
41
0.008000
0
VERTEX
8
0
10
-1.830000
20
0.073000
0
VERTEX
8
0
10
-1.832000
20
0.093000
0
VERTEX
8
0
10
-1.838000
20
0.112000
0
VERTEX
8
0
10
-1.847000
20
0.129000
0
VERTEX
8
0
10
-1.859000
20
0.144000
0
VERTEX
8
0
10
-1.874000
20
0.156000
0
VERTEX
8
0
10
-1.891000
20
0.165000
0
VERTEX
8
0
10
-1.910000
20
0.171000
0
VERTEX
8
0
10
-1.930000
20
0.173000
0
SEQEND
8
0
0
POLYLINE
8
0
66
1
40
0.008000
41
0.008000
0
VERTEX
8
0
10
-1.830000
20
0.073000
0
VERTEX
8
0
10
-1.832000
20
0.052000
0
VERTEX
8
0
10
-1.838000
20
0.033000
0
VERTEX
8
0
10
-1.847000
20
0.017000
0
VERTEX
8
0
10
-1.859000
20
0.002000
0
VERTEX
8
0
10
-1.874000
20
-0.010000
0
VERTEX
8
0
10
-1.891000
20
-0.019000
0
VERTEX
8
0
10
-1.910000
20
-0.024000
0
VERTEX
8
0
10
-1.930000
20
-0.026000
0
SEQEND
8
0
0
POLYLINE
8
0
66
1
40
0.008000
41
0.008000
0
VERTEX
8
0
10
-1.930000
20
0.173000
0
VERTEX
8
0
10
-1.930000
20
0.323000
0
SEQEND
8
0
0
POLYLINE
8
0
66
1
40
0.008000
41
0.008000
0
VERTEX
8
0
10
0.069000
20
0.323000
0
VERTEX
8
0
10
0.069000
20
-0.176000
0
SEQEND
8
0
0
POLYLINE
8
0
66
1
40
0.008000
41
0.008000
0
VERTEX
8
0
10
-1.930000
20
-0.176000
0
VERTEX
8
0
10
-1.930000
20
-0.026000
0
SEQEND
8
0
0
POLYLINE
8
0
66
1
40
0.008000
41
0.008000
0
VERTEX
8
0
10
-1.930000
20
0.323000
0
VERTEX
8
0
10
0.069000
20
0.323000
0
SEQEND
8
0
0
POLYLINE
8
0
66
1
40
0.008000
41
0.008000
0
VERTEX
8
0
10
-1.930000
20
-0.176000
0
VERTEX
8
0
10
0.069000
20
-0.176000
0
SEQEND
8
0
0
TEXT
8
12632256
10
-1.940000
20
0.023000
40
0.048000
41
1.041667
50
90.000000
1
U1
0
POLYLINE
8
0
66
1
40
0.008000
41
0.008000
0
VERTEX
8
0
10
-2.372000
20
-1.348000
0
VERTEX
8
0
10
-1.900000
20
-1.348000
0
VERTEX
8
0
10
-1.900000
20
-0.875000
0
VERTEX
8
0
10
-2.372000
20
-0.875000
0
VERTEX
8
0
10
-2.372000
20
-1.348000
0
SEQEND
8
0
0
POLYLINE
8
0
66
1
40
0.008000
41
0.008000
0
VERTEX
8
0
10
-2.530000
20
-1.210000
0
VERTEX
8
0
10
-2.372000
20
-1.210000
0
VERTEX
8
0
10
-2.372000
20
-1.171000
0
VERTEX
8
0
10
-2.530000
20
-1.171000
0
VERTEX
8
0
10
-2.530000
20
-1.210000
0
SEQEND
8
0
0
POLYLINE
8
0
66
1
40
0.008000
41
0.008000
0
VERTEX
8
0
10
-2.530000
20
-1.053000
0
VERTEX
8
0
10
-2.372000
20
-1.053000
0
VERTEX
8
0
10
-2.372000
20
-1.013000
0
VERTEX
8
0
10
-2.530000
20
-1.013000
0
VERTEX
8
0
10
-2.530000
20
-1.053000
0
SEQEND
8
0
0
TEXT
8
12632256
10
-1.831000
20
-1.017000
40
0.048000
41
1.041667
50
90.000000
71
2
1
SP1
0
POLYLINE
8
0
66
1
40
0.008000
41
0.008000
0
VERTEX
8
0
10
0.543000
20
-0.629000
0
VERTEX
8
0
10
0.593000
20
-0.629000
0
SEQEND
8
0
0
POLYLINE
8
0
66
1
40
0.008000
41
0.008000
0
VERTEX
8
0
10
0.393000
20
-0.629000
0
VERTEX
8
0
10
0.443000
20
-0.629000
0
SEQEND
8
0
0
POLYLINE
8
0
66
1
40
0.008000
41
0.008000
0
VERTEX
8
0
10
0.493000
20
-0.679000
0
VERTEX
8
0
10
0.503000
20
-0.678000
0
VERTEX
8
0
10
0.513000
20
-0.675000
0
VERTEX
8
0
10
0.521000
20
-0.671000
0
VERTEX
8
0
10
0.528000
20
-0.665000
0
VERTEX
8
0
10
0.534000
20
-0.658000
0
VERTEX
8
0
10
0.539000
20
-0.649000
0
VERTEX
8
0
10
0.542000
20
-0.639000
0
VERTEX
8
0
10
0.543000
20
-0.629000
0
SEQEND
8
0
0
POLYLINE
8
0
66
1
40
0.008000
41
0.008000
0
VERTEX
8
0
10
0.493000
20
-0.679000
0
VERTEX
8
0
10
0.483000
20
-0.678000
0
VERTEX
8
0
10
0.473000
20
-0.675000
0
VERTEX
8
0
10
0.464000
20
-0.671000
0
VERTEX
8
0
10
0.457000
20
-0.665000
0
VERTEX
8
0
10
0.451000
20
-0.658000
0
VERTEX
8
0
10
0.447000
20
-0.649000
0
VERTEX
8
0
10
0.444000
20
-0.639000
0
VERTEX
8
0
10
0.443000
20
-0.629000
0
SEQEND
8
0
0
POLYLINE
8
0
66
1
40
0.008000
41
0.008000
0
VERTEX
8
0
10
0.393000
20
-0.629000
0
VERTEX
8
0
10
0.393000
20
-1.329000
0
VERTEX
8
0
10
0.593000
20
-1.329000
0
VERTEX
8
0
10
0.593000
20
-0.629000
0
SEQEND
8
0
0
TEXT
8
12632256
10
0.418000
20
-0.619000
40
0.048000
41
1.041667
1
U15
0
POLYLINE
8
0
66
1
40
0.008000
41
0.008000
0
VERTEX
8
0
10
-0.477000
20
-1.359000
0
VERTEX
8
0
10
-0.177000
20
-1.359000
0
VERTEX
8
0
10
-0.177000
20
-1.259000
0
VERTEX
8
0
10
-0.477000
20
-1.259000
0
VERTEX
8
0
10
-0.477000
20
-1.359000
0
SEQEND
8
0
0
POLYLINE
8
0
66
1
40
0.008000
41
0.008000
0
VERTEX
8
0
10
-0.477000
20
-1.259000
0
VERTEX
8
0
10
-0.477000
20
-1.209000
0
VERTEX
8
0
10
-0.177000
20
-1.209000
0
VERTEX
8
0
10
-0.177000
20
-1.259000
0
SEQEND
8
0
0
POLYLINE
8
0
66
1
40
0.008000
41
0.008000
0
VERTEX
8
0
10
-0.477000
20
-1.259000
0
VERTEX
8
0
10
-0.427000
20
-1.209000
0
SEQEND
8
0
0
POLYLINE
8
0
66
1
40
0.008000
41
0.008000
0
VERTEX
8
0
10
-0.427000
20
-1.259000
0
VERTEX
8
0
10
-0.377000
20
-1.209000
0
SEQEND
8
0
0
POLYLINE
8
0
66
1
40
0.008000
41
0.008000
0
VERTEX
8
0
10
-0.377000
20
-1.259000
0
VERTEX
8
0
10
-0.327000
20
-1.209000
0
SEQEND
8
0
0
POLYLINE
8
0
66
1
40
0.008000
41
0.008000
0
VERTEX
8
0
10
-0.327000
20
-1.259000
0
VERTEX
8
0
10
-0.277000
20
-1.209000
0
SEQEND
8
0
0
POLYLINE
8
0
66
1
40
0.008000
41
0.008000
0
VERTEX
8
0
10
-0.277000
20
-1.259000
0
VERTEX
8
0
10
-0.227000
20
-1.209000
0
SEQEND
8
0
0
POLYLINE
8
0
66
1
40
0.008000
41
0.008000
0
VERTEX
8
0
10
-0.227000
20
-1.259000
0
VERTEX
8
0
10
-0.177000
20
-1.209000
0
SEQEND
8
0
0
TEXT
8
12632256
10
-0.402000
20
-1.199000
40
0.048000
41
1.041667
1
U16
0
POLYLINE
8
0
66
1
40
0.008000
41
0.008000
0
VERTEX
8
0
10
-0.471000
20
-1.876000
0
VERTEX
8
0
10
-0.171000
20
-1.876000
0
VERTEX
8
0
10
-0.171000
20
-1.776000
0
VERTEX
8
0
10
-0.471000
20
-1.776000
0
VERTEX
8
0
10
-0.471000
20
-1.876000
0
SEQEND
8
0
0
POLYLINE
8
0
66
1
40
0.008000
41
0.008000
0
VERTEX
8
0
10
-0.471000
20
-1.776000
0
VERTEX
8
0
10
-0.471000
20
-1.726000
0
VERTEX
8
0
10
-0.171000
20
-1.726000
0
VERTEX
8
0
10
-0.171000
20
-1.776000
0
SEQEND
8
0
0
POLYLINE
8
0
66
1
40
0.008000
41
0.008000
0
VERTEX
8
0
10
-0.471000
20
-1.776000
0
VERTEX
8
0
10
-0.421000
20
-1.726000
0
SEQEND
8
0
0
POLYLINE
8
0
66
1
40
0.008000
41
0.008000
0
VERTEX
8
0
10
-0.421000
20
-1.776000
0
VERTEX
8
0
10
-0.371000
20
-1.726000
0
SEQEND
8
0
0
POLYLINE
8
0
66
1
40
0.008000
41
0.008000
0
VERTEX
8
0
10
-0.371000
20
-1.776000
0
VERTEX
8
0
10
-0.321000
20
-1.726000
0
SEQEND
8
0
0
POLYLINE
8
0
66
1
40
0.008000
41
0.008000
0
VERTEX
8
0
10
-0.321000
20
-1.776000
0
VERTEX
8
0
10
-0.271000
20
-1.726000
0
SEQEND
8
0
0
POLYLINE
8
0
66
1
40
0.008000
41
0.008000
0
VERTEX
8
0
10
-0.271000
20
-1.776000
0
VERTEX
8
0
10
-0.221000
20
-1.726000
0
SEQEND
8
0
0
POLYLINE
8
0
66
1
40
0.008000
41
0.008000
0
VERTEX
8
0
10
-0.221000
20
-1.776000
0
VERTEX
8
0
10
-0.171000
20
-1.726000
0
SEQEND
8
0
0
TEXT
8
12632256
10
-0.396000
20
-1.716000
40
0.048000
41
1.041667
1
U12
0
POLYLINE
8
0
66
1
40
0.008000
41
0.008000
0
VERTEX
8
0
10
-2.131000
20
0.696000
0
VERTEX
8
0
10
-0.527000
20
0.696000
0
VERTEX
8
0
10
-0.527000
20
0.906000
0
VERTEX
8
0
10
-2.131000
20
0.906000
0
VERTEX
8
0
10
-2.131000
20
0.696000
0
SEQEND
8
0
0
POLYLINE
8
0
66
1
40
0.008000
41
0.008000
0
VERTEX
8
0
10
-0.627000
20
0.700000
0
VERTEX
8
0
10
-0.627000
20
0.902000
0
SEQEND
8
0
0
POLYLINE
8
0
66
1
40
0.008000
41
0.008000
0
VERTEX
8
0
10
-0.530000
20
0.862000
0
VERTEX
8
0
10
-2.128000
20
0.862000
0
SEQEND
8
0
0
TEXT
8
12632256
10
-1.313000
20
0.895000
40
0.024000
41
1.250000
50
180.000000
1
BACK
0
TEXT
8
12632256
10
-1.429000
20
0.638000
40
0.048000
41
1.041667
1
LCD1
0
POLYLINE
8
0
66
1
40
0.008000
41
0.008000
0
VERTEX
8
0
10
-2.057000
20
-0.103000
0
VERTEX
8
0
10
-2.057000
20
-0.053000
0
SEQEND
8
0
0
POLYLINE
8
0
66
1
40
0.008000
41
0.008000
0
VERTEX
8
0
10
-2.082000
20
-0.053000
0
VERTEX
8
0
10
-2.032000
20
-0.053000
0
VERTEX
8
0
10
-2.032000
20
0.146000
0
VERTEX
8
0
10
-2.082000
20
0.146000
0
VERTEX
8
0
10
-2.082000
20
-0.053000
0
SEQEND
8
0
0
POLYLINE
8
0
66
1
40
0.008000
41
0.008000
0
VERTEX
8
0
10
-2.057000
20
0.146000
0
VERTEX
8
0
10
-2.057000
20
0.196000
0
SEQEND
8
0
0
TEXT
8
12632256
10
-2.092000
20
-0.003000
40
0.048000
41
1.041667
50
90.000000
1
R1
0
POLYLINE
8
0
66
1
40
0.008000
41
0.008000
0
VERTEX
8
0
10
0.674000
20
-0.167000
0
VERTEX
8
0
10
0.624000
20
-0.167000
0
SEQEND
8
0
0
POLYLINE
8
0
66
1
40
0.008000
41
0.008000
0
VERTEX
8
0
10
0.424000
20
-0.192000
0
VERTEX
8
0
10
0.624000
20
-0.192000
0
VERTEX
8
0
10
0.624000
20
-0.142000
0
VERTEX
8
0
10
0.424000
20
-0.142000
0
VERTEX
8
0
10
0.424000
20
-0.192000
0
SEQEND
8
0
0
POLYLINE
8
0
66
1
40
0.008000
41
0.008000
0
VERTEX
8
0
10
0.424000
20
-0.167000
0
VERTEX
8
0
10
0.374000
20
-0.167000
0
SEQEND
8
0
0
TEXT
8
12632256
10
0.474000
20
-0.250000
40
0.048000
41
1.041667
1
R2
0
POLYLINE
8
0
66
1
40
0.008000
41
0.008000
0
VERTEX
8
0
10
0.674000
20
-0.285000
0
VERTEX
8
0
10
0.624000
20
-0.285000
0
SEQEND
8
0
0
POLYLINE
8
0
66
1
40
0.008000
41
0.008000
0
VERTEX
8
0
10
0.424000
20
-0.310000
0
VERTEX
8
0
10
0.624000
20
-0.310000
0
VERTEX
8
0
10
0.624000
20
-0.260000
0
VERTEX
8
0
10
0.424000
20
-0.260000
0
VERTEX
8
0
10
0.424000
20
-0.310000
0
SEQEND
8
0
0
POLYLINE
8
0
66
1
40
0.008000
41
0.008000
0
VERTEX
8
0
10
0.424000
20
-0.285000
0
VERTEX
8
0
10
0.374000
20
-0.285000
0
SEQEND
8
0
0
TEXT
8
12632256
10
0.474000
20
-0.368000
40
0.048000
41
1.041667
1
R7
0
POLYLINE
8
0
66
1
40
0.008000
41
0.008000
0
VERTEX
8
0
10
0.674000
20
0.068000
0
VERTEX
8
0
10
0.624000
20
0.068000
0
SEQEND
8
0
0
POLYLINE
8
0
66
1
40
0.008000
41
0.008000
0
VERTEX
8
0
10
0.424000
20
0.043000
0
VERTEX
8
0
10
0.624000
20
0.043000
0
VERTEX
8
0
10
0.624000
20
0.093000
0
VERTEX
8
0
10
0.424000
20
0.093000
0
VERTEX
8
0
10
0.424000
20
0.043000
0
SEQEND
8
0
0
POLYLINE
8
0
66
1
40
0.008000
41
0.008000
0
VERTEX
8
0
10
0.424000
20
0.068000
0
VERTEX
8
0
10
0.374000
20
0.068000
0
SEQEND
8
0
0
TEXT
8
12632256
10
0.474000
20
-0.014000
40
0.048000
41
1.041667
1
R4
0
POLYLINE
8
0
66
1
40
0.008000
41
0.008000
0
VERTEX
8
0
10
0.674000
20
-0.049000
0
VERTEX
8
0
10
0.624000
20
-0.049000
0
SEQEND
8
0
0
POLYLINE
8
0
66
1
40
0.008000
41
0.008000
0
VERTEX
8
0
10
0.424000
20
-0.074000
0
VERTEX
8
0
10
0.624000
20
-0.074000
0
VERTEX
8
0
10
0.624000
20
-0.024000
0
VERTEX
8
0
10
0.424000
20
-0.024000
0
VERTEX
8
0
10
0.424000
20
-0.074000
0
SEQEND
8
0
0
POLYLINE
8
0
66
1
40
0.008000
41
0.008000
0
VERTEX
8
0
10
0.424000
20
-0.049000
0
VERTEX
8
0
10
0.374000
20
-0.049000
0
SEQEND
8
0
0
TEXT
8
12632256
10
0.474000
20
-0.132000
40
0.048000
41
1.041667
1
R6
0
POLYLINE
8
0
66
1
40
0.008000
41
0.008000
0
VERTEX
8
0
10
0.674000
20
0.187000
0
VERTEX
8
0
10
0.624000
20
0.187000
0
SEQEND
8
0
0
POLYLINE
8
0
66
1
40
0.008000
41
0.008000
0
VERTEX
8
0
10
0.424000
20
0.162000
0
VERTEX
8
0
10
0.624000
20
0.162000
0
VERTEX
8
0
10
0.624000
20
0.212000
0
VERTEX
8
0
10
0.424000
20
0.212000
0
VERTEX
8
0
10
0.424000
20
0.162000
0
SEQEND
8
0
0
POLYLINE
8
0
66
1
40
0.008000
41
0.008000
0
VERTEX
8
0
10
0.424000
20
0.187000
0
VERTEX
8
0
10
0.374000
20
0.187000
0
SEQEND
8
0
0
TEXT
8
12632256
10
0.449000
20
0.104000
40
0.048000
41
1.041667
1
R10
0
POLYLINE
8
0
66
1
40
0.008000
41
0.008000
0
VERTEX
8
0
10
0.674000
20
0.305000
0
VERTEX
8
0
10
0.624000
20
0.305000
0
SEQEND
8
0
0
POLYLINE
8
0
66
1
40
0.008000
41
0.008000
0
VERTEX
8
0
10
0.424000
20
0.280000
0
VERTEX
8
0
10
0.624000
20
0.280000
0
VERTEX
8
0
10
0.624000
20
0.330000
0
VERTEX
8
0
10
0.424000
20
0.330000
0
VERTEX
8
0
10
0.424000
20
0.280000
0
SEQEND
8
0
0
POLYLINE
8
0
66
1
40
0.008000
41
0.008000
0
VERTEX
8
0
10
0.424000
20
0.305000
0
VERTEX
8
0
10
0.374000
20
0.305000
0
SEQEND
8
0
0
TEXT
8
12632256
10
0.449000
20
0.222000
40
0.048000
41
1.041667
1
R16
0
POLYLINE
8
0
66
1
40
0.008000
41
0.008000
0
VERTEX
8
0
10
1.082000
20
-1.495000
0
VERTEX
8
0
10
1.132000
20
-1.495000
0
SEQEND
8
0
0
POLYLINE
8
0
66
1
40
0.008000
41
0.008000
0
VERTEX
8
0
10
1.182000
20
-1.545000
0
VERTEX
8
0
10
1.192000
20
-1.544000
0
VERTEX
8
0
10
1.202000
20
-1.541000
0
VERTEX
8
0
10
1.210000
20
-1.537000
0
VERTEX
8
0
10
1.218000
20
-1.531000
0
VERTEX
8
0
10
1.224000
20
-1.524000
0
VERTEX
8
0
10
1.228000
20
-1.515000
0
VERTEX
8
0
10
1.231000
20
-1.505000
0
VERTEX
8
0
10
1.232000
20
-1.495000
0
SEQEND
8
0
0
POLYLINE
8
0
66
1
40
0.008000
41
0.008000
0
VERTEX
8
0
10
1.182000
20
-1.545000
0
VERTEX
8
0
10
1.172000
20
-1.544000
0
VERTEX
8
0
10
1.162000
20
-1.541000
0
VERTEX
8
0
10
1.153000
20
-1.537000
0
VERTEX
8
0
10
1.146000
20
-1.531000
0
VERTEX
8
0
10
1.140000
20
-1.524000
0
VERTEX
8
0
10
1.136000
20
-1.515000
0
VERTEX
8
0
10
1.133000
20
-1.505000
0
VERTEX
8
0
10
1.132000
20
-1.495000
0
SEQEND
8
0
0
POLYLINE
8
0
66
1
40
0.008000
41
0.008000
0
VERTEX
8
0
10
1.232000
20
-1.495000
0
VERTEX
8
0
10
1.282000
20
-1.495000
0
SEQEND
8
0
0
POLYLINE
8
0
66
1
40
0.008000
41
0.008000
0
VERTEX
8
0
10
1.082000
20
-1.795000
0
VERTEX
8
0
10
1.282000
20
-1.795000
0
SEQEND
8
0
0
POLYLINE
8
0
66
1
40
0.008000
41
0.008000
0
VERTEX
8
0
10
1.082000
20
-1.495000
0
VERTEX
8
0
10
1.082000
20
-1.795000
0
SEQEND
8
0
0
POLYLINE
8
0
66
1
40
0.008000
41
0.008000
0
VERTEX
8
0
10
1.282000
20
-1.495000
0
VERTEX
8
0
10
1.282000
20
-1.795000
0
SEQEND
8
0
0
TEXT
8
12632256
10
1.132000
20
-1.485000
40
0.048000
41
1.041667
1
U2
0
POLYLINE
8
0
66
1
40
0.008000
41
0.008000
0
VERTEX
8
0
10
1.082000
20
-0.924000
0
VERTEX
8
0
10
1.132000
20
-0.924000
0
SEQEND
8
0
0
POLYLINE
8
0
66
1
40
0.008000
41
0.008000
0
VERTEX
8
0
10
1.182000
20
-0.974000
0
VERTEX
8
0
10
1.192000
20
-0.973000
0
VERTEX
8
0
10
1.202000
20
-0.970000
0
VERTEX
8
0
10
1.210000
20
-0.966000
0
VERTEX
8
0
10
1.218000
20
-0.960000
0
VERTEX
8
0
10
1.224000
20
-0.953000
0
VERTEX
8
0
10
1.228000
20
-0.944000
0
VERTEX
8
0
10
1.231000
20
-0.934000
0
VERTEX
8
0
10
1.232000
20
-0.924000
0
SEQEND
8
0
0
POLYLINE
8
0
66
1
40
0.008000
41
0.008000
0
VERTEX
8
0
10
1.182000
20
-0.974000
0
VERTEX
8
0
10
1.172000
20
-0.973000
0
VERTEX
8
0
10
1.162000
20
-0.970000
0
VERTEX
8
0
10
1.153000
20
-0.966000
0
VERTEX
8
0
10
1.146000
20
-0.960000
0
VERTEX
8
0
10
1.140000
20
-0.953000
0
VERTEX
8
0
10
1.136000
20
-0.944000
0
VERTEX
8
0
10
1.133000
20
-0.934000
0
VERTEX
8
0
10
1.132000
20
-0.924000
0
SEQEND
8
0
0
POLYLINE
8
0
66
1
40
0.008000
41
0.008000
0
VERTEX
8
0
10
1.232000
20
-0.924000
0
VERTEX
8
0
10
1.282000
20
-0.924000
0
SEQEND
8
0
0
POLYLINE
8
0
66
1
40
0.008000
41
0.008000
0
VERTEX
8
0
10
1.082000
20
-1.224000
0
VERTEX
8
0
10
1.282000
20
-1.224000
0
SEQEND
8
0
0
POLYLINE
8
0
66
1
40
0.008000
41
0.008000
0
VERTEX
8
0
10
1.082000
20
-0.924000
0
VERTEX
8
0
10
1.082000
20
-1.224000
0
SEQEND
8
0
0
POLYLINE
8
0
66
1
40
0.008000
41
0.008000
0
VERTEX
8
0
10
1.282000
20
-0.924000
0
VERTEX
8
0
10
1.282000
20
-1.224000
0
SEQEND
8
0
0
TEXT
8
12632256
10
1.132000
20
-0.914000
40
0.048000
41
1.041667
1
U3
0
POLYLINE
8
0
66
1
40
0.008000
41
0.008000
0
VERTEX
8
0
10
1.082000
20
0.414000
0
VERTEX
8
0
10
1.132000
20
0.414000
0
SEQEND
8
0
0
POLYLINE
8
0
66
1
40
0.008000
41
0.008000
0
VERTEX
8
0
10
1.182000
20
0.364000
0
VERTEX
8
0
10
1.192000
20
0.365000
0
VERTEX
8
0
10
1.202000
20
0.368000
0
VERTEX
8
0
10
1.210000
20
0.372000
0
VERTEX
8
0
10
1.218000
20
0.378000
0
VERTEX
8
0
10
1.224000
20
0.385000
0
VERTEX
8
0
10
1.228000
20
0.394000
0
VERTEX
8
0
10
1.231000
20
0.404000
0
VERTEX
8
0
10
1.232000
20
0.414000
0
SEQEND
8
0
0
POLYLINE
8
0
66
1
40
0.008000
41
0.008000
0
VERTEX
8
0
10
1.182000
20
0.364000
0
VERTEX
8
0
10
1.172000
20
0.365000
0
VERTEX
8
0
10
1.162000
20
0.368000
0
VERTEX
8
0
10
1.153000
20
0.372000
0
VERTEX
8
0
10
1.146000
20
0.378000
0
VERTEX
8
0
10
1.140000
20
0.385000
0
VERTEX
8
0
10
1.136000
20
0.394000
0
VERTEX
8
0
10
1.133000
20
0.404000
0
VERTEX
8
0
10
1.132000
20
0.414000
0
SEQEND
8
0
0
POLYLINE
8
0
66
1
40
0.008000
41
0.008000
0
VERTEX
8
0
10
1.232000
20
0.414000
0
VERTEX
8
0
10
1.282000
20
0.414000
0
SEQEND
8
0
0
POLYLINE
8
0
66
1
40
0.008000
41
0.008000
0
VERTEX
8
0
10
1.082000
20
0.114000
0
VERTEX
8
0
10
1.282000
20
0.114000
0
SEQEND
8
0
0
POLYLINE
8
0
66
1
40
0.008000
41
0.008000
0
VERTEX
8
0
10
1.082000
20
0.414000
0
VERTEX
8
0
10
1.082000
20
0.114000
0
SEQEND
8
0
0
POLYLINE
8
0
66
1
40
0.008000
41
0.008000
0
VERTEX
8
0
10
1.282000
20
0.414000
0
VERTEX
8
0
10
1.282000
20
0.114000
0
SEQEND
8
0
0
TEXT
8
12632256
10
1.132000
20
0.424000
40
0.048000
41
1.041667
1
U6
0
POLYLINE
8
0
66
1
40
0.008000
41
0.008000
0
VERTEX
8
0
10
1.082000
20
-0.255000
0
VERTEX
8
0
10
1.132000
20
-0.255000
0
SEQEND
8
0
0
POLYLINE
8
0
66
1
40
0.008000
41
0.008000
0
VERTEX
8
0
10
1.182000
20
-0.305000
0
VERTEX
8
0
10
1.192000
20
-0.304000
0
VERTEX
8
0
10
1.202000
20
-0.301000
0
VERTEX
8
0
10
1.210000
20
-0.297000
0
VERTEX
8
0
10
1.218000
20
-0.291000
0
VERTEX
8
0
10
1.224000
20
-0.284000
0
VERTEX
8
0
10
1.228000
20
-0.275000
0
VERTEX
8
0
10
1.231000
20
-0.265000
0
VERTEX
8
0
10
1.232000
20
-0.255000
0
SEQEND
8
0
0
POLYLINE
8
0
66
1
40
0.008000
41
0.008000
0
VERTEX
8
0
10
1.182000
20
-0.305000
0
VERTEX
8
0
10
1.172000
20
-0.304000
0
VERTEX
8
0
10
1.162000
20
-0.301000
0
VERTEX
8
0
10
1.153000
20
-0.297000
0
VERTEX
8
0
10
1.146000
20
-0.291000
0
VERTEX
8
0
10
1.140000
20
-0.284000
0
VERTEX
8
0
10
1.136000
20
-0.275000
0
VERTEX
8
0
10
1.133000
20
-0.265000
0
VERTEX
8
0
10
1.132000
20
-0.255000
0
SEQEND
8
0
0
POLYLINE
8
0
66
1
40
0.008000
41
0.008000
0
VERTEX
8
0
10
1.232000
20
-0.255000
0
VERTEX
8
0
10
1.282000
20
-0.255000
0
SEQEND
8
0
0
POLYLINE
8
0
66
1
40
0.008000
41
0.008000
0
VERTEX
8
0
10
1.082000
20
-0.555000
0
VERTEX
8
0
10
1.282000
20
-0.555000
0
SEQEND
8
0
0
POLYLINE
8
0
66
1
40
0.008000
41
0.008000
0
VERTEX
8
0
10
1.082000
20
-0.255000
0
VERTEX
8
0
10
1.082000
20
-0.555000
0
SEQEND
8
0
0
POLYLINE
8
0
66
1
40
0.008000
41
0.008000
0
VERTEX
8
0
10
1.282000
20
-0.255000
0
VERTEX
8
0
10
1.282000
20
-0.555000
0
SEQEND
8
0
0
TEXT
8
12632256
10
1.132000
20
-0.245000
40
0.048000
41
1.041667
1
U8
0
POLYLINE
8
0
66
1
40
0.008000
41
0.008000
0
VERTEX
8
0
10
1.082000
20
1.619000
0
VERTEX
8
0
10
1.132000
20
1.619000
0
SEQEND
8
0
0
POLYLINE
8
0
66
1
40
0.008000
41
0.008000
0
VERTEX
8
0
10
1.182000
20
1.569000
0
VERTEX
8
0
10
1.192000
20
1.570000
0
VERTEX
8
0
10
1.202000
20
1.573000
0
VERTEX
8
0
10
1.210000
20
1.577000
0
VERTEX
8
0
10
1.218000
20
1.583000
0
VERTEX
8
0
10
1.224000
20
1.590000
0
VERTEX
8
0
10
1.228000
20
1.599000
0
VERTEX
8
0
10
1.231000
20
1.609000
0
VERTEX
8
0
10
1.232000
20
1.619000
0
SEQEND
8
0
0
POLYLINE
8
0
66
1
40
0.008000
41
0.008000
0
VERTEX
8
0
10
1.182000
20
1.569000
0
VERTEX
8
0
10
1.172000
20
1.570000
0
VERTEX
8
0
10
1.162000
20
1.573000
0
VERTEX
8
0
10
1.153000
20
1.577000
0
VERTEX
8
0
10
1.146000
20
1.583000
0
VERTEX
8
0
10
1.140000
20
1.590000
0
VERTEX
8
0
10
1.136000
20
1.599000
0
VERTEX
8
0
10
1.133000
20
1.609000
0
VERTEX
8
0
10
1.132000
20
1.619000
0
SEQEND
8
0
0
POLYLINE
8
0
66
1
40
0.008000
41
0.008000
0
VERTEX
8
0
10
1.232000
20
1.619000
0
VERTEX
8
0
10
1.282000
20
1.619000
0
SEQEND
8
0
0
POLYLINE
8
0
66
1
40
0.008000
41
0.008000
0
VERTEX
8
0
10
1.082000
20
1.319000
0
VERTEX
8
0
10
1.282000
20
1.319000
0
SEQEND
8
0
0
POLYLINE
8
0
66
1
40
0.008000
41
0.008000
0
VERTEX
8
0
10
1.082000
20
1.619000
0
VERTEX
8
0
10
1.082000
20
1.319000
0
SEQEND
8
0
0
POLYLINE
8
0
66
1
40
0.008000
41
0.008000
0
VERTEX
8
0
10
1.282000
20
1.619000
0
VERTEX
8
0
10
1.282000
20
1.319000
0
SEQEND
8
0
0
TEXT
8
12632256
10
1.107000
20
1.629000
40
0.048000
41
1.041667
1
U13
0
POLYLINE
8
0
66
1
40
0.008000
41
0.008000
0
VERTEX
8
0
10
1.082000
20
1.004000
0
VERTEX
8
0
10
1.132000
20
1.004000
0
SEQEND
8
0
0
POLYLINE
8
0
66
1
40
0.008000
41
0.008000
0
VERTEX
8
0
10
1.182000
20
0.954000
0
VERTEX
8
0
10
1.192000
20
0.955000
0
VERTEX
8
0
10
1.202000
20
0.958000
0
VERTEX
8
0
10
1.210000
20
0.962000
0
VERTEX
8
0
10
1.218000
20
0.968000
0
VERTEX
8
0
10
1.224000
20
0.975000
0
VERTEX
8
0
10
1.228000
20
0.984000
0
VERTEX
8
0
10
1.231000
20
0.994000
0
VERTEX
8
0
10
1.232000
20
1.004000
0
SEQEND
8
0
0
POLYLINE
8
0
66
1
40
0.008000
41
0.008000
0
VERTEX
8
0
10
1.182000
20
0.954000
0
VERTEX
8
0
10
1.172000
20
0.955000
0
VERTEX
8
0
10
1.162000
20
0.958000
0
VERTEX
8
0
10
1.153000
20
0.962000
0
VERTEX
8
0
10
1.146000
20
0.968000
0
VERTEX
8
0
10
1.140000
20
0.975000
0
VERTEX
8
0
10
1.136000
20
0.984000
0
VERTEX
8
0
10
1.133000
20
0.994000
0
VERTEX
8
0
10
1.132000
20
1.004000
0
SEQEND
8
0
0
POLYLINE
8
0
66
1
40
0.008000
41
0.008000
0
VERTEX
8
0
10
1.232000
20
1.004000
0
VERTEX
8
0
10
1.282000
20
1.004000
0
SEQEND
8
0
0
POLYLINE
8
0
66
1
40
0.008000
41
0.008000
0
VERTEX
8
0
10
1.082000
20
0.704000
0
VERTEX
8
0
10
1.282000
20
0.704000
0
SEQEND
8
0
0
POLYLINE
8
0
66
1
40
0.008000
41
0.008000
0
VERTEX
8
0
10
1.082000
20
1.004000
0
VERTEX
8
0
10
1.082000
20
0.704000
0
SEQEND
8
0
0
POLYLINE
8
0
66
1
40
0.008000
41
0.008000
0
VERTEX
8
0
10
1.282000
20
1.004000
0
VERTEX
8
0
10
1.282000
20
0.704000
0
SEQEND
8
0
0
TEXT
8
12632256
10
1.107000
20
1.014000
40
0.048000
41
1.041667
1
U10
0
POLYLINE
8
0
66
1
40
0.008000
41
0.008000
0
VERTEX
8
0
10
1.651000
20
-1.774000
0
VERTEX
8
0
10
1.751000
20
-1.774000
0
VERTEX
8
0
10
1.751000
20
-1.474000
0
VERTEX
8
0
10
1.651000
20
-1.474000
0
VERTEX
8
0
10
1.651000
20
-1.774000
0
VERTEX
8
0
10
1.601000
20
-1.774000
0
VERTEX
8
0
10
1.601000
20
-1.474000
0
VERTEX
8
0
10
1.651000
20
-1.474000
0
SEQEND
8
0
0
POLYLINE
8
0
66
1
40
0.008000
41
0.008000
0
VERTEX
8
0
10
1.651000
20
-1.774000
0
VERTEX
8
0
10
1.601000
20
-1.724000
0
SEQEND
8
0
0
POLYLINE
8
0
66
1
40
0.008000
41
0.008000
0
VERTEX
8
0
10
1.651000
20
-1.724000
0
VERTEX
8
0
10
1.601000
20
-1.674000
0
SEQEND
8
0
0
POLYLINE
8
0
66
1
40
0.008000
41
0.008000
0
VERTEX
8
0
10
1.651000
20
-1.674000
0
VERTEX
8
0
10
1.601000
20
-1.624000
0
SEQEND
8
0
0
POLYLINE
8
0
66
1
40
0.008000
41
0.008000
0
VERTEX
8
0
10
1.651000
20
-1.624000
0
VERTEX
8
0
10
1.601000
20
-1.574000
0
SEQEND
8
0
0
POLYLINE
8
0
66
1
40
0.008000
41
0.008000
0
VERTEX
8
0
10
1.651000
20
-1.574000
0
VERTEX
8
0
10
1.601000
20
-1.524000
0
SEQEND
8
0
0
POLYLINE
8
0
66
1
40
0.008000
41
0.008000
0
VERTEX
8
0
10
1.651000
20
-1.524000
0
VERTEX
8
0
10
1.601000
20
-1.474000
0
SEQEND
8
0
0
TEXT
8
12632256
10
1.591000
20
-1.674000
40
0.048000
41
1.041667
50
90.000000
1
U4
0
POLYLINE
8
0
66
1
40
0.008000
41
0.008000
0
VERTEX
8
0
10
1.711000
20
-1.222000
0
VERTEX
8
0
10
1.811000
20
-1.222000
0
VERTEX
8
0
10
1.811000
20
-0.922000
0
VERTEX
8
0
10
1.711000
20
-0.922000
0
VERTEX
8
0
10
1.711000
20
-1.222000
0
VERTEX
8
0
10
1.661000
20
-1.222000
0
VERTEX
8
0
10
1.661000
20
-0.922000
0
VERTEX
8
0
10
1.711000
20
-0.922000
0
SEQEND
8
0
0
POLYLINE
8
0
66
1
40
0.008000
41
0.008000
0
VERTEX
8
0
10
1.711000
20
-1.222000
0
VERTEX
8
0
10
1.661000
20
-1.172000
0
SEQEND
8
0
0
POLYLINE
8
0
66
1
40
0.008000
41
0.008000
0
VERTEX
8
0
10
1.711000
20
-1.172000
0
VERTEX
8
0
10
1.661000
20
-1.122000
0
SEQEND
8
0
0
POLYLINE
8
0
66
1
40
0.008000
41
0.008000
0
VERTEX
8
0
10
1.711000
20
-1.122000
0
VERTEX
8
0
10
1.661000
20
-1.072000
0
SEQEND
8
0
0
POLYLINE
8
0
66
1
40
0.008000
41
0.008000
0
VERTEX
8
0
10
1.711000
20
-1.072000
0
VERTEX
8
0
10
1.661000
20
-1.022000
0
SEQEND
8
0
0
POLYLINE
8
0
66
1
40
0.008000
41
0.008000
0
VERTEX
8
0
10
1.711000
20
-1.022000
0
VERTEX
8
0
10
1.661000
20
-0.972000
0
SEQEND
8
0
0
POLYLINE
8
0
66
1
40
0.008000
41
0.008000
0
VERTEX
8
0
10
1.711000
20
-0.972000
0
VERTEX
8
0
10
1.661000
20
-0.922000
0
SEQEND
8
0
0
TEXT
8
12632256
10
1.651000
20
-1.122000
40
0.048000
41
1.041667
50
90.000000
1
U5
0
POLYLINE
8
0
66
1
40
0.008000
41
0.008000
0
VERTEX
8
0
10
1.711000
20
0.115000
0
VERTEX
8
0
10
1.811000
20
0.115000
0
VERTEX
8
0
10
1.811000
20
0.415000
0
VERTEX
8
0
10
1.711000
20
0.415000
0
VERTEX
8
0
10
1.711000
20
0.115000
0
VERTEX
8
0
10
1.661000
20
0.115000
0
VERTEX
8
0
10
1.661000
20
0.415000
0
VERTEX
8
0
10
1.711000
20
0.415000
0
SEQEND
8
0
0
POLYLINE
8
0
66
1
40
0.008000
41
0.008000
0
VERTEX
8
0
10
1.711000
20
0.115000
0
VERTEX
8
0
10
1.661000
20
0.165000
0
SEQEND
8
0
0
POLYLINE
8
0
66
1
40
0.008000
41
0.008000
0
VERTEX
8
0
10
1.711000
20
0.165000
0
VERTEX
8
0
10
1.661000
20
0.215000
0
SEQEND
8
0
0
POLYLINE
8
0
66
1
40
0.008000
41
0.008000
0
VERTEX
8
0
10
1.711000
20
0.215000
0
VERTEX
8
0
10
1.661000
20
0.265000
0
SEQEND
8
0
0
POLYLINE
8
0
66
1
40
0.008000
41
0.008000
0
VERTEX
8
0
10
1.711000
20
0.265000
0
VERTEX
8
0
10
1.661000
20
0.315000
0
SEQEND
8
0
0
POLYLINE
8
0
66
1
40
0.008000
41
0.008000
0
VERTEX
8
0
10
1.711000
20
0.315000
0
VERTEX
8
0
10
1.661000
20
0.365000
0
SEQEND
8
0
0
POLYLINE
8
0
66
1
40
0.008000
41
0.008000
0
VERTEX
8
0
10
1.711000
20
0.365000
0
VERTEX
8
0
10
1.661000
20
0.415000
0
SEQEND
8
0
0
TEXT
8
12632256
10
1.651000
20
0.215000
40
0.048000
41
1.041667
50
90.000000
1
U7
0
POLYLINE
8
0
66
1
40
0.008000
41
0.008000
0
VERTEX
8
0
10
1.711000
20
-0.553000
0
VERTEX
8
0
10
1.811000
20
-0.553000
0
VERTEX
8
0
10
1.811000
20
-0.253000
0
VERTEX
8
0
10
1.711000
20
-0.253000
0
VERTEX
8
0
10
1.711000
20
-0.553000
0
VERTEX
8
0
10
1.661000
20
-0.553000
0
VERTEX
8
0
10
1.661000
20
-0.253000
0
VERTEX
8
0
10
1.711000
20
-0.253000
0
SEQEND
8
0
0
POLYLINE
8
0
66
1
40
0.008000
41
0.008000
0
VERTEX
8
0
10
1.711000
20
-0.553000
0
VERTEX
8
0
10
1.661000
20
-0.503000
0
SEQEND
8
0
0
POLYLINE
8
0
66
1
40
0.008000
41
0.008000
0
VERTEX
8
0
10
1.711000
20
-0.503000
0
VERTEX
8
0
10
1.661000
20
-0.453000
0
SEQEND
8
0
0
POLYLINE
8
0
66
1
40
0.008000
41
0.008000
0
VERTEX
8
0
10
1.711000
20
-0.453000
0
VERTEX
8
0
10
1.661000
20
-0.403000
0
SEQEND
8
0
0
POLYLINE
8
0
66
1
40
0.008000
41
0.008000
0
VERTEX
8
0
10
1.711000
20
-0.403000
0
VERTEX
8
0
10
1.661000
20
-0.353000
0
SEQEND
8
0
0
POLYLINE
8
0
66
1
40
0.008000
41
0.008000
0
VERTEX
8
0
10
1.711000
20
-0.353000
0
VERTEX
8
0
10
1.661000
20
-0.303000
0
SEQEND
8
0
0
POLYLINE
8
0
66
1
40
0.008000
41
0.008000
0
VERTEX
8
0
10
1.711000
20
-0.303000
0
VERTEX
8
0
10
1.661000
20
-0.253000
0
SEQEND
8
0
0
TEXT
8
12632256
10
1.651000
20
-0.453000
40
0.048000
41
1.041667
50
90.000000
1
U9
0
POLYLINE
8
0
66
1
40
0.008000
41
0.008000
0
VERTEX
8
0
10
1.711000
20
0.706000
0
VERTEX
8
0
10
1.811000
20
0.706000
0
VERTEX
8
0
10
1.811000
20
1.006000
0
VERTEX
8
0
10
1.711000
20
1.006000
0
VERTEX
8
0
10
1.711000
20
0.706000
0
VERTEX
8
0
10
1.661000
20
0.706000
0
VERTEX
8
0
10
1.661000
20
1.006000
0
VERTEX
8
0
10
1.711000
20
1.006000
0
SEQEND
8
0
0
POLYLINE
8
0
66
1
40
0.008000
41
0.008000
0
VERTEX
8
0
10
1.711000
20
0.706000
0
VERTEX
8
0
10
1.661000
20
0.756000
0
SEQEND
8
0
0
POLYLINE
8
0
66
1
40
0.008000
41
0.008000
0
VERTEX
8
0
10
1.711000
20
0.756000
0
VERTEX
8
0
10
1.661000
20
0.806000
0
SEQEND
8
0
0
POLYLINE
8
0
66
1
40
0.008000
41
0.008000
0
VERTEX
8
0
10
1.711000
20
0.806000
0
VERTEX
8
0
10
1.661000
20
0.856000
0
SEQEND
8
0
0
POLYLINE
8
0
66
1
40
0.008000
41
0.008000
0
VERTEX
8
0
10
1.711000
20
0.856000
0
VERTEX
8
0
10
1.661000
20
0.906000
0
SEQEND
8
0
0
POLYLINE
8
0
66
1
40
0.008000
41
0.008000
0
VERTEX
8
0
10
1.711000
20
0.906000
0
VERTEX
8
0
10
1.661000
20
0.956000
0
SEQEND
8
0
0
POLYLINE
8
0
66
1
40
0.008000
41
0.008000
0
VERTEX
8
0
10
1.711000
20
0.956000
0
VERTEX
8
0
10
1.661000
20
1.006000
0
SEQEND
8
0
0
TEXT
8
12632256
10
1.651000
20
0.781000
40
0.048000
41
1.041667
50
90.000000
1
U11
0
POLYLINE
8
0
66
1
40
0.008000
41
0.008000
0
VERTEX
8
0
10
1.711000
20
1.319000
0
VERTEX
8
0
10
1.811000
20
1.319000
0
VERTEX
8
0
10
1.811000
20
1.619000
0
VERTEX
8
0
10
1.711000
20
1.619000
0
VERTEX
8
0
10
1.711000
20
1.319000
0
VERTEX
8
0
10
1.661000
20
1.319000
0
VERTEX
8
0
10
1.661000
20
1.619000
0
VERTEX
8
0
10
1.711000
20
1.619000
0
SEQEND
8
0
0
POLYLINE
8
0
66
1
40
0.008000
41
0.008000
0
VERTEX
8
0
10
1.711000
20
1.319000
0
VERTEX
8
0
10
1.661000
20
1.369000
0
SEQEND
8
0
0
POLYLINE
8
0
66
1
40
0.008000
41
0.008000
0
VERTEX
8
0
10
1.711000
20
1.369000
0
VERTEX
8
0
10
1.661000
20
1.419000
0
SEQEND
8
0
0
POLYLINE
8
0
66
1
40
0.008000
41
0.008000
0
VERTEX
8
0
10
1.711000
20
1.419000
0
VERTEX
8
0
10
1.661000
20
1.469000
0
SEQEND
8
0
0
POLYLINE
8
0
66
1
40
0.008000
41
0.008000
0
VERTEX
8
0
10
1.711000
20
1.469000
0
VERTEX
8
0
10
1.661000
20
1.519000
0
SEQEND
8
0
0
POLYLINE
8
0
66
1
40
0.008000
41
0.008000
0
VERTEX
8
0
10
1.711000
20
1.519000
0
VERTEX
8
0
10
1.661000
20
1.569000
0
SEQEND
8
0
0
POLYLINE
8
0
66
1
40
0.008000
41
0.008000
0
VERTEX
8
0
10
1.711000
20
1.569000
0
VERTEX
8
0
10
1.661000
20
1.619000
0
SEQEND
8
0
0
TEXT
8
12632256
10
1.651000
20
1.394000
40
0.048000
41
1.041667
50
90.000000
1
U14
0
POLYLINE
8
0
66
1
40
0.008000
41
0.008000
0
VERTEX
8
0
10
-0.384000
20
-0.430000
0
VERTEX
8
0
10
-0.374000
20
-0.433000
0
VERTEX
8
0
10
-0.364000
20
-0.441000
0
VERTEX
8
0
10
-0.356000
20
-0.455000
0
VERTEX
8
0
10
-0.348000
20
-0.473000
0
VERTEX
8
0
10
-0.342000
20
-0.495000
0
VERTEX
8
0
10
-0.338000
20
-0.521000
0
VERTEX
8
0
10
-0.335000
20
-0.549000
0
VERTEX
8
0
10
-0.334000
20
-0.580000
0
SEQEND
8
0
0
POLYLINE
8
0
66
1
40
0.008000
41
0.008000
0
VERTEX
8
0
10
-0.384000
20
-0.730000
0
VERTEX
8
0
10
-0.379000
20
-0.729000
0
VERTEX
8
0
10
-0.374000
20
-0.727000
0
VERTEX
8
0
10
-0.364000
20
-0.718000
0
VERTEX
8
0
10
-0.356000
20
-0.705000
0
VERTEX
8
0
10
-0.348000
20
-0.686000
0
VERTEX
8
0
10
-0.342000
20
-0.664000
0
VERTEX
8
0
10
-0.338000
20
-0.639000
0
VERTEX
8
0
10
-0.335000
20
-0.611000
0
VERTEX
8
0
10
-0.334000
20
-0.580000
0
SEQEND
8
0
0
POLYLINE
8
0
66
1
40
0.008000
41
0.008000
0
VERTEX
8
0
10
-0.384000
20
-0.730000
0
VERTEX
8
0
10
-0.389000
20
-0.729000
0
VERTEX
8
0
10
-0.394000
20
-0.727000
0
VERTEX
8
0
10
-0.404000
20
-0.718000
0
VERTEX
8
0
10
-0.412000
20
-0.705000
0
VERTEX
8
0
10
-0.420000
20
-0.686000
0
VERTEX
8
0
10
-0.426000
20
-0.664000
0
VERTEX
8
0
10
-0.430000
20
-0.639000
0
VERTEX
8
0
10
-0.433000
20
-0.611000
0
VERTEX
8
0
10
-0.434000
20
-0.580000
0
SEQEND
8
0
0
POLYLINE
8
0
66
1
40
0.008000
41
0.008000
0
VERTEX
8
0
10
-0.384000
20
-0.430000
0
VERTEX
8
0
10
-0.394000
20
-0.433000
0
VERTEX
8
0
10
-0.404000
20
-0.441000
0
VERTEX
8
0
10
-0.412000
20
-0.455000
0
VERTEX
8
0
10
-0.420000
20
-0.473000
0
VERTEX
8
0
10
-0.426000
20
-0.495000
0
VERTEX
8
0
10
-0.430000
20
-0.521000
0
VERTEX
8
0
10
-0.433000
20
-0.549000
0
VERTEX
8
0
10
-0.434000
20
-0.580000
0
SEQEND
8
0
0
TEXT
8
12632256
10
-0.276000
20
-0.630000
40
0.048000
41
1.041667
50
90.000000
1
C2
0
POLYLINE
8
0
66
1
40
0.008000
41
0.008000
0
VERTEX
8
0
10
-0.207000
20
-0.430000
0
VERTEX
8
0
10
-0.197000
20
-0.433000
0
VERTEX
8
0
10
-0.187000
20
-0.441000
0
VERTEX
8
0
10
-0.179000
20
-0.455000
0
VERTEX
8
0
10
-0.172000
20
-0.473000
0
VERTEX
8
0
10
-0.166000
20
-0.495000
0
VERTEX
8
0
10
-0.161000
20
-0.521000
0
VERTEX
8
0
10
-0.158000
20
-0.549000
0
VERTEX
8
0
10
-0.157000
20
-0.580000
0
SEQEND
8
0
0
POLYLINE
8
0
66
1
40
0.008000
41
0.008000
0
VERTEX
8
0
10
-0.207000
20
-0.730000
0
VERTEX
8
0
10
-0.202000
20
-0.729000
0
VERTEX
8
0
10
-0.197000
20
-0.727000
0
VERTEX
8
0
10
-0.187000
20
-0.718000
0
VERTEX
8
0
10
-0.179000
20
-0.705000
0
VERTEX
8
0
10
-0.172000
20
-0.686000
0
VERTEX
8
0
10
-0.166000
20
-0.664000
0
VERTEX
8
0
10
-0.161000
20
-0.639000
0
VERTEX
8
0
10
-0.158000
20
-0.611000
0
VERTEX
8
0
10
-0.157000
20
-0.580000
0
SEQEND
8
0
0
POLYLINE
8
0
66
1
40
0.008000
41
0.008000
0
VERTEX
8
0
10
-0.207000
20
-0.730000
0
VERTEX
8
0
10
-0.212000
20
-0.729000
0
VERTEX
8
0
10
-0.217000
20
-0.727000
0
VERTEX
8
0
10
-0.227000
20
-0.718000
0
VERTEX
8
0
10
-0.235000
20
-0.705000
0
VERTEX
8
0
10
-0.242000
20
-0.686000
0
VERTEX
8
0
10
-0.248000
20
-0.664000
0
VERTEX
8
0
10
-0.253000
20
-0.639000
0
VERTEX
8
0
10
-0.256000
20
-0.611000
0
VERTEX
8
0
10
-0.257000
20
-0.580000
0
SEQEND
8
0
0
POLYLINE
8
0
66
1
40
0.008000
41
0.008000
0
VERTEX
8
0
10
-0.207000
20
-0.430000
0
VERTEX
8
0
10
-0.217000
20
-0.433000
0
VERTEX
8
0
10
-0.227000
20
-0.441000
0
VERTEX
8
0
10
-0.235000
20
-0.455000
0
VERTEX
8
0
10
-0.242000
20
-0.473000
0
VERTEX
8
0
10
-0.248000
20
-0.495000
0
VERTEX
8
0
10
-0.253000
20
-0.521000
0
VERTEX
8
0
10
-0.256000
20
-0.549000
0
VERTEX
8
0
10
-0.257000
20
-0.580000
0
SEQEND
8
0
0
TEXT
8
12632256
10
-0.099000
20
-0.630000
40
0.048000
41
1.041667
50
90.000000
1
C3
0
POLYLINE
8
0
66
1
40
0.008000
41
0.008000
0
VERTEX
8
0
10
-0.749000
20
0.050000
0
VERTEX
8
0
10
-0.449000
20
0.050000
0
VERTEX
8
0
10
-0.399000
20
0.000000
0
VERTEX
8
0
10
-0.399000
20
-0.099000
0
VERTEX
8
0
10
-0.449000
20
-0.149000
0
VERTEX
8
0
10
-0.749000
20
-0.149000
0
VERTEX
8
0
10
-0.799000
20
-0.099000
0
VERTEX
8
0
10
-0.799000
20
0.000000
0
VERTEX
8
0
10
-0.749000
20
0.050000
0
SEQEND
8
0
0
TEXT
8
12632256
10
-0.649000
20
0.060000
40
0.048000
41
1.041667
1
X1
0
POLYLINE
8
0
66
1
40
0.008000
41
0.008000
0
VERTEX
8
0
10
-1.370000
20
-0.680000
0
VERTEX
8
0
10
-0.470000
20
-0.680000
0
VERTEX
8
0
10
-0.470000
20
-0.430000
0
VERTEX
8
0
10
-1.370000
20
-0.430000
0
VERTEX
8
0
10
-1.370000
20
-0.680000
0
SEQEND
8
0
0
POLYLINE
8
0
66
1
40
0.008000
41
0.008000
0
VERTEX
8
0
10
-1.370000
20
-0.480000
0
VERTEX
8
0
10
-0.470000
20
-0.480000
0
SEQEND
8
0
0
TEXT
8
12632256
10
-0.634000
20
-0.755000
40
0.048000
41
1.041667
1
J7
0
POLYLINE
8
0
66
1
40
0.008000
41
0.008000
0
VERTEX
8
0
10
-1.290000
20
-0.827000
0
VERTEX
8
0
10
-1.290000
20
-0.877000
0
SEQEND
8
0
0
POLYLINE
8
0
66
1
40
0.008000
41
0.008000
0
VERTEX
8
0
10
-1.315000
20
-1.077000
0
VERTEX
8
0
10
-1.265000
20
-1.077000
0
VERTEX
8
0
10
-1.265000
20
-0.877000
0
VERTEX
8
0
10
-1.315000
20
-0.877000
0
VERTEX
8
0
10
-1.315000
20
-1.077000
0
SEQEND
8
0
0
POLYLINE
8
0
66
1
40
0.008000
41
0.008000
0
VERTEX
8
0
10
-1.290000
20
-1.077000
0
VERTEX
8
0
10
-1.290000
20
-1.127000
0
SEQEND
8
0
0
TEXT
8
12632256
10
-1.207000
20
-1.052000
40
0.048000
41
1.041667
50
90.000000
1
R12
0
POLYLINE
8
0
66
1
40
0.008000
41
0.008000
0
VERTEX
8
0
10
-1.172000
20
-0.827000
0
VERTEX
8
0
10
-1.172000
20
-0.877000
0
SEQEND
8
0
0
POLYLINE
8
0
66
1
40
0.008000
41
0.008000
0
VERTEX
8
0
10
-1.197000
20
-1.077000
0
VERTEX
8
0
10
-1.147000
20
-1.077000
0
VERTEX
8
0
10
-1.147000
20
-0.877000
0
VERTEX
8
0
10
-1.197000
20
-0.877000
0
VERTEX
8
0
10
-1.197000
20
-1.077000
0
SEQEND
8
0
0
POLYLINE
8
0
66
1
40
0.008000
41
0.008000
0
VERTEX
8
0
10
-1.172000
20
-1.077000
0
VERTEX
8
0
10
-1.172000
20
-1.127000
0
SEQEND
8
0
0
TEXT
8
12632256
10
-1.089000
20
-1.052000
40
0.048000
41
1.041667
50
90.000000
1
R13
0
POLYLINE
8
0
66
1
40
0.008000
41
0.008000
0
VERTEX
8
0
10
-1.053000
20
-0.827000
0
VERTEX
8
0
10
-1.053000
20
-0.877000
0
SEQEND
8
0
0
POLYLINE
8
0
66
1
40
0.008000
41
0.008000
0
VERTEX
8
0
10
-1.078000
20
-1.077000
0
VERTEX
8
0
10
-1.028000
20
-1.077000
0
VERTEX
8
0
10
-1.028000
20
-0.877000
0
VERTEX
8
0
10
-1.078000
20
-0.877000
0
VERTEX
8
0
10
-1.078000
20
-1.077000
0
SEQEND
8
0
0
POLYLINE
8
0
66
1
40
0.008000
41
0.008000
0
VERTEX
8
0
10
-1.053000
20
-1.077000
0
VERTEX
8
0
10
-1.053000
20
-1.127000
0
SEQEND
8
0
0
TEXT
8
12632256
10
-0.970000
20
-1.052000
40
0.048000
41
1.041667
50
90.000000
1
R14
0
POLYLINE
8
0
66
1
40
0.008000
41
0.008000
0
VERTEX
8
0
10
-0.935000
20
-0.827000
0
VERTEX
8
0
10
-0.935000
20
-0.877000
0
SEQEND
8
0
0
POLYLINE
8
0
66
1
40
0.008000
41
0.008000
0
VERTEX
8
0
10
-0.960000
20
-1.077000
0
VERTEX
8
0
10
-0.910000
20
-1.077000
0
VERTEX
8
0
10
-0.910000
20
-0.877000
0
VERTEX
8
0
10
-0.960000
20
-0.877000
0
VERTEX
8
0
10
-0.960000
20
-1.077000
0
SEQEND
8
0
0
POLYLINE
8
0
66
1
40
0.008000
41
0.008000
0
VERTEX
8
0
10
-0.935000
20
-1.077000
0
VERTEX
8
0
10
-0.935000
20
-1.127000
0
SEQEND
8
0
0
TEXT
8
12632256
10
-0.852000
20
-1.052000
40
0.048000
41
1.041667
50
90.000000
1
R15
0
POLYLINE
8
0
66
1
40
0.008000
41
0.008000
0
VERTEX
8
0
10
1.718000
20
-1.309000
0
VERTEX
8
0
10
1.668000
20
-1.309000
0
SEQEND
8
0
0
POLYLINE
8
0
66
1
40
0.008000
41
0.008000
0
VERTEX
8
0
10
1.468000
20
-1.334000
0
VERTEX
8
0
10
1.668000
20
-1.334000
0
VERTEX
8
0
10
1.668000
20
-1.284000
0
VERTEX
8
0
10
1.468000
20
-1.284000
0
VERTEX
8
0
10
1.468000
20
-1.334000
0
SEQEND
8
0
0
POLYLINE
8
0
66
1
40
0.008000
41
0.008000
0
VERTEX
8
0
10
1.468000
20
-1.309000
0
VERTEX
8
0
10
1.418000
20
-1.309000
0
SEQEND
8
0
0
TEXT
8
12632256
10
1.518000
20
-1.392000
40
0.048000
41
1.041667
1
R3
0
POLYLINE
8
0
66
1
40
0.008000
41
0.008000
0
VERTEX
8
0
10
1.668000
20
0.029000
0
VERTEX
8
0
10
1.618000
20
0.029000
0
SEQEND
8
0
0
POLYLINE
8
0
66
1
40
0.008000
41
0.008000
0
VERTEX
8
0
10
1.418000
20
0.004000
0
VERTEX
8
0
10
1.618000
20
0.004000
0
VERTEX
8
0
10
1.618000
20
0.054000
0
VERTEX
8
0
10
1.418000
20
0.054000
0
VERTEX
8
0
10
1.418000
20
0.004000
0
SEQEND
8
0
0
POLYLINE
8
0
66
1
40
0.008000
41
0.008000
0
VERTEX
8
0
10
1.418000
20
0.029000
0
VERTEX
8
0
10
1.368000
20
0.029000
0
SEQEND
8
0
0
TEXT
8
12632256
10
1.468000
20
-0.053000
40
0.048000
41
1.041667
1
R5
0
POLYLINE
8
0
66
1
40
0.008000
41
0.008000
0
VERTEX
8
0
10
1.668000
20
-1.899000
0
VERTEX
8
0
10
1.618000
20
-1.899000
0
SEQEND
8
0
0
POLYLINE
8
0
66
1
40
0.008000
41
0.008000
0
VERTEX
8
0
10
1.418000
20
-1.924000
0
VERTEX
8
0
10
1.618000
20
-1.924000
0
VERTEX
8
0
10
1.618000
20
-1.874000
0
VERTEX
8
0
10
1.418000
20
-1.874000
0
VERTEX
8
0
10
1.418000
20
-1.924000
0
SEQEND
8
0
0
POLYLINE
8
0
66
1
40
0.008000
41
0.008000
0
VERTEX
8
0
10
1.418000
20
-1.899000
0
VERTEX
8
0
10
1.368000
20
-1.899000
0
SEQEND
8
0
0
TEXT
8
12632256
10
1.468000
20
-1.982000
40
0.048000
41
1.041667
1
R8
0
POLYLINE
8
0
66
1
40
0.008000
41
0.008000
0
VERTEX
8
0
10
1.668000
20
-0.659000
0
VERTEX
8
0
10
1.618000
20
-0.659000
0
SEQEND
8
0
0
POLYLINE
8
0
66
1
40
0.008000
41
0.008000
0
VERTEX
8
0
10
1.418000
20
-0.684000
0
VERTEX
8
0
10
1.618000
20
-0.684000
0
VERTEX
8
0
10
1.618000
20
-0.634000
0
VERTEX
8
0
10
1.418000
20
-0.634000
0
VERTEX
8
0
10
1.418000
20
-0.684000
0
SEQEND
8
0
0
POLYLINE
8
0
66
1
40
0.008000
41
0.008000
0
VERTEX
8
0
10
1.418000
20
-0.659000
0
VERTEX
8
0
10
1.368000
20
-0.659000
0
SEQEND
8
0
0
TEXT
8
12632256
10
1.468000
20
-0.742000
40
0.048000
41
1.041667
1
R9
0
POLYLINE
8
0
66
1
40
0.008000
41
0.008000
0
VERTEX
8
0
10
1.668000
20
0.620000
0
VERTEX
8
0
10
1.618000
20
0.620000
0
SEQEND
8
0
0
POLYLINE
8
0
66
1
40
0.008000
41
0.008000
0
VERTEX
8
0
10
1.418000
20
0.595000
0
VERTEX
8
0
10
1.618000
20
0.595000
0
VERTEX
8
0
10
1.618000
20
0.645000
0
VERTEX
8
0
10
1.418000
20
0.645000
0
VERTEX
8
0
10
1.418000
20
0.595000
0
SEQEND
8
0
0
POLYLINE
8
0
66
1
40
0.008000
41
0.008000
0
VERTEX
8
0
10
1.418000
20
0.620000
0
VERTEX
8
0
10
1.368000
20
0.620000
0
SEQEND
8
0
0
TEXT
8
12632256
10
1.443000
20
0.537000
40
0.048000
41
1.041667
1
R11
0
POLYLINE
8
0
66
1
40
0.008000
41
0.008000
0
VERTEX
8
0
10
1.668000
20
1.213000
0
VERTEX
8
0
10
1.618000
20
1.213000
0
SEQEND
8
0
0
POLYLINE
8
0
66
1
40
0.008000
41
0.008000
0
VERTEX
8
0
10
1.418000
20
1.188000
0
VERTEX
8
0
10
1.618000
20
1.188000
0
VERTEX
8
0
10
1.618000
20
1.238000
0
VERTEX
8
0
10
1.418000
20
1.238000
0
VERTEX
8
0
10
1.418000
20
1.188000
0
SEQEND
8
0
0
POLYLINE
8
0
66
1
40
0.008000
41
0.008000
0
VERTEX
8
0
10
1.418000
20
1.213000
0
VERTEX
8
0
10
1.368000
20
1.213000
0
SEQEND
8
0
0
TEXT
8
12632256
10
1.443000
20
1.130000
40
0.048000
41
1.041667
1
R17
0
POLYLINE
8
0
66
1
40
0.008000
41
0.008000
0
VERTEX
8
0
10
-1.476000
20
-1.466000
0
VERTEX
8
0
10
-1.426000
20
-1.466000
0
SEQEND
8
0
0
POLYLINE
8
0
66
1
40
0.008000
41
0.008000
0
VERTEX
8
0
10
-1.426000
20
-1.491000
0
VERTEX
8
0
10
-1.226000
20
-1.491000
0
VERTEX
8
0
10
-1.226000
20
-1.441000
0
VERTEX
8
0
10
-1.426000
20
-1.441000
0
VERTEX
8
0
10
-1.426000
20
-1.491000
0
SEQEND
8
0
0
POLYLINE
8
0
66
1
40
0.008000
41
0.008000
0
VERTEX
8
0
10
-1.226000
20
-1.466000
0
VERTEX
8
0
10
-1.176000
20
-1.466000
0
SEQEND
8
0
0
TEXT
8
12632256
10
-1.401000
20
-1.431000
40
0.048000
41
1.041667
1
R20
0
POLYLINE
8
0
66
1
40
0.008000
41
0.008000
0
VERTEX
8
0
10
-0.097000
20
0.588000
0
VERTEX
8
0
10
0.052000
20
0.588000
0
VERTEX
8
0
10
0.052000
20
0.888000
0
VERTEX
8
0
10
-0.097000
20
0.888000
0
VERTEX
8
0
10
-0.097000
20
0.588000
0
SEQEND
8
0
0
POLYLINE
8
0
66
1
40
0.008000
41
0.008000
0
VERTEX
8
0
10
-0.247000
20
0.688000
0
VERTEX
8
0
10
-0.247000
20
0.788000
0
SEQEND
8
0
0
POLYLINE
8
0
66
1
40
0.008000
41
0.008000
0
VERTEX
8
0
10
-0.317000
20
0.639000
0
VERTEX
8
0
10
-0.097000
20
0.639000
0
VERTEX
8
0
10
-0.097000
20
0.832000
0
VERTEX
8
0
10
-0.317000
20
0.832000
0
VERTEX
8
0
10
-0.317000
20
0.639000
0
SEQEND
8
0
0
TEXT
8
12632256
10
-0.327000
20
0.663000
40
0.048000
41
1.041667
50
90.000000
1
RV1
0
POLYLINE
8
0
66
1
40
0.008000
41
0.008000
0
VERTEX
8
0
10
2.072000
20
-1.979000
0
VERTEX
8
0
10
2.472000
20
-1.979000
0
SEQEND
8
0
0
POLYLINE
8
0
66
1
40
0.008000
41
0.008000
0
VERTEX
8
0
10
2.072000
20
-1.379000
0
VERTEX
8
0
10
2.472000
20
-1.379000
0
SEQEND
8
0
0
POLYLINE
8
0
66
1
40
0.008000
41
0.008000
0
VERTEX
8
0
10
2.472000
20
-1.979000
0
VERTEX
8
0
10
2.472000
20
-1.379000
0
SEQEND
8
0
0
POLYLINE
8
0
66
1
40
0.008000
41
0.008000
0
VERTEX
8
0
10
2.072000
20
-1.379000
0
VERTEX
8
0
10
2.072000
20
-1.979000
0
SEQEND
8
0
0
TEXT
8
12632256
10
1.925000
20
-1.710000
40
0.048000
41
1.041667
50
90.000000
1
J1
0
POLYLINE
8
0
66
1
40
0.008000
41
0.008000
0
VERTEX
8
0
10
2.072000
20
-1.350000
0
VERTEX
8
0
10
2.472000
20
-1.350000
0
SEQEND
8
0
0
POLYLINE
8
0
66
1
40
0.008000
41
0.008000
0
VERTEX
8
0
10
2.072000
20
-0.750000
0
VERTEX
8
0
10
2.472000
20
-0.750000
0
SEQEND
8
0
0
POLYLINE
8
0
66
1
40
0.008000
41
0.008000
0
VERTEX
8
0
10
2.472000
20
-1.350000
0
VERTEX
8
0
10
2.472000
20
-0.750000
0
SEQEND
8
0
0
POLYLINE
8
0
66
1
40
0.008000
41
0.008000
0
VERTEX
8
0
10
2.072000
20
-0.750000
0
VERTEX
8
0
10
2.072000
20
-1.350000
0
SEQEND
8
0
0
TEXT
8
12632256
10
1.925000
20
-1.198000
40
0.048000
41
1.041667
50
90.000000
1
J2
0
POLYLINE
8
0
66
1
40
0.008000
41
0.008000
0
VERTEX
8
0
10
2.072000
20
1.169000
0
VERTEX
8
0
10
2.472000
20
1.169000
0
SEQEND
8
0
0
POLYLINE
8
0
66
1
40
0.008000
41
0.008000
0
VERTEX
8
0
10
2.072000
20
1.769000
0
VERTEX
8
0
10
2.472000
20
1.769000
0
SEQEND
8
0
0
POLYLINE
8
0
66
1
40
0.008000
41
0.008000
0
VERTEX
8
0
10
2.472000
20
1.169000
0
VERTEX
8
0
10
2.472000
20
1.769000
0
SEQEND
8
0
0
POLYLINE
8
0
66
1
40
0.008000
41
0.008000
0
VERTEX
8
0
10
2.072000
20
1.769000
0
VERTEX
8
0
10
2.072000
20
1.169000
0
SEQEND
8
0
0
TEXT
8
12632256
10
1.905000
20
1.321000
40
0.048000
41
1.041667
50
90.000000
1
J3
0
POLYLINE
8
0
66
1
40
0.008000
41
0.008000
0
VERTEX
8
0
10
2.072000
20
0.539000
0
VERTEX
8
0
10
2.472000
20
0.539000
0
SEQEND
8
0
0
POLYLINE
8
0
66
1
40
0.008000
41
0.008000
0
VERTEX
8
0
10
2.072000
20
1.139000
0
VERTEX
8
0
10
2.472000
20
1.139000
0
SEQEND
8
0
0
POLYLINE
8
0
66
1
40
0.008000
41
0.008000
0
VERTEX
8
0
10
2.472000
20
0.539000
0
VERTEX
8
0
10
2.472000
20
1.139000
0
SEQEND
8
0
0
POLYLINE
8
0
66
1
40
0.008000
41
0.008000
0
VERTEX
8
0
10
2.072000
20
1.139000
0
VERTEX
8
0
10
2.072000
20
0.539000
0
SEQEND
8
0
0
TEXT
8
12632256
10
1.925000
20
0.750000
40
0.048000
41
1.041667
50
90.000000
1
J4
0
POLYLINE
8
0
66
1
40
0.008000
41
0.008000
0
VERTEX
8
0
10
0.522000
20
1.424000
0
VERTEX
8
0
10
0.522000
20
1.824000
0
SEQEND
8
0
0
POLYLINE
8
0
66
1
40
0.008000
41
0.008000
0
VERTEX
8
0
10
-0.077000
20
1.424000
0
VERTEX
8
0
10
-0.077000
20
1.824000
0
SEQEND
8
0
0
POLYLINE
8
0
66
1
40
0.008000
41
0.008000
0
VERTEX
8
0
10
0.522000
20
1.824000
0
VERTEX
8
0
10
-0.077000
20
1.824000
0
SEQEND
8
0
0
POLYLINE
8
0
66
1
40
0.008000
41
0.008000
0
VERTEX
8
0
10
-0.077000
20
1.424000
0
VERTEX
8
0
10
0.522000
20
1.424000
0
SEQEND
8
0
0
TEXT
8
12632256
10
0.172000
20
1.188000
40
0.048000
41
1.041667
1
J5
0
POLYLINE
8
0
66
1
40
0.008000
41
0.008000
0
VERTEX
8
0
10
2.072000
20
-0.720000
0
VERTEX
8
0
10
2.472000
20
-0.720000
0
SEQEND
8
0
0
POLYLINE
8
0
66
1
40
0.008000
41
0.008000
0
VERTEX
8
0
10
2.072000
20
-0.120000
0
VERTEX
8
0
10
2.472000
20
-0.120000
0
SEQEND
8
0
0
POLYLINE
8
0
66
1
40
0.008000
41
0.008000
0
VERTEX
8
0
10
2.472000
20
-0.720000
0
VERTEX
8
0
10
2.472000
20
-0.120000
0
SEQEND
8
0
0
POLYLINE
8
0
66
1
40
0.008000
41
0.008000
0
VERTEX
8
0
10
2.072000
20
-0.120000
0
VERTEX
8
0
10
2.072000
20
-0.720000
0
SEQEND
8
0
0
TEXT
8
12632256
10
1.925000
20
-0.548000
40
0.048000
41
1.041667
50
90.000000
1
J6
0
POLYLINE
8
0
66
1
40
0.008000
41
0.008000
0
VERTEX
8
0
10
-1.961000
20
-1.562000
0
VERTEX
8
0
10
-1.961000
20
-1.962000
0
SEQEND
8
0
0
POLYLINE
8
0
66
1
40
0.008000
41
0.008000
0
VERTEX
8
0
10
-1.561000
20
-1.562000
0
VERTEX
8
0
10
-1.561000
20
-1.962000
0
SEQEND
8
0
0
POLYLINE
8
0
66
1
40
0.008000
41
0.008000
0
VERTEX
8
0
10
-1.961000
20
-1.962000
0
VERTEX
8
0
10
-1.561000
20
-1.962000
0
SEQEND
8
0
0
POLYLINE
8
0
66
1
40
0.008000
41
0.008000
0
VERTEX
8
0
10
-1.961000
20
-1.562000
0
VERTEX
8
0
10
-1.561000
20
-1.562000
0
SEQEND
8
0
0
TEXT
8
12632256
10
-2.126000
20
-1.710000
40
0.048000
41
1.041667
1
J8
0
POLYLINE
8
0
66
1
40
0.008000
41
0.008000
0
VERTEX
8
0
10
2.072000
20
-0.090000
0
VERTEX
8
0
10
2.472000
20
-0.090000
0
SEQEND
8
0
0
POLYLINE
8
0
66
1
40
0.008000
41
0.008000
0
VERTEX
8
0
10
2.072000
20
0.509000
0
VERTEX
8
0
10
2.472000
20
0.509000
0
SEQEND
8
0
0
POLYLINE
8
0
66
1
40
0.008000
41
0.008000
0
VERTEX
8
0
10
2.472000
20
-0.090000
0
VERTEX
8
0
10
2.472000
20
0.509000
0
SEQEND
8
0
0
POLYLINE
8
0
66
1
40
0.008000
41
0.008000
0
VERTEX
8
0
10
2.072000
20
0.509000
0
VERTEX
8
0
10
2.072000
20
-0.090000
0
SEQEND
8
0
0
TEXT
8
12632256
10
1.925000
20
0.100000
40
0.048000
41
1.041667
50
90.000000
1
J9
0
POLYLINE
8
0
66
1
40
0.008000
41
0.008000
0
VERTEX
8
0
10
-2.335000
20
-0.680000
0
VERTEX
8
0
10
-1.935000
20
-0.680000
0
VERTEX
8
0
10
-1.935000
20
-0.430000
0
VERTEX
8
0
10
-2.335000
20
-0.430000
0
VERTEX
8
0
10
-2.335000
20
-0.680000
0
SEQEND
8
0
0
POLYLINE
8
0
66
1
40
0.008000
41
0.008000
0
VERTEX
8
0
10
-2.335000
20
-0.480000
0
VERTEX
8
0
10
-1.935000
20
-0.480000
0
SEQEND
8
0
0
TEXT
8
12632256
10
-2.210000
20
-0.755000
40
0.048000
41
1.041667
1
J10
0
POLYLINE
8
0
66
1
40
0.008000
41
0.008000
0
VERTEX
8
0
10
-1.901000
20
-0.680000
0
VERTEX
8
0
10
-1.401000
20
-0.680000
0
VERTEX
8
0
10
-1.401000
20
-0.430000
0
VERTEX
8
0
10
-1.901000
20
-0.430000
0
VERTEX
8
0
10
-1.901000
20
-0.680000
0
SEQEND
8
0
0
POLYLINE
8
0
66
1
40
0.008000
41
0.008000
0
VERTEX
8
0
10
-1.901000
20
-0.480000
0
VERTEX
8
0
10
-1.401000
20
-0.480000
0
SEQEND
8
0
0
TEXT
8
12632256
10
-1.726000
20
-0.755000
40
0.048000
41
1.041667
1
J11
0
POLYLINE
8
0
66
1
40
0.008000
41
0.008000
0
VERTEX
8
0
10
-1.010000
20
-1.966000
0
VERTEX
8
0
10
0.367000
20
-1.966000
0
VERTEX
8
0
10
0.367000
20
-1.478000
0
VERTEX
8
0
10
-1.010000
20
-1.478000
0
VERTEX
8
0
10
-1.010000
20
-1.966000
0
SEQEND
8
0
0
POLYLINE
8
0
66
1
40
0.008000
41
0.008000
0
VERTEX
8
0
10
-0.101000
20
-1.293000
0
VERTEX
8
0
10
0.198000
20
-1.293000
0
VERTEX
8
0
10
0.198000
20
-1.143000
0
VERTEX
8
0
10
-0.101000
20
-1.143000
0
VERTEX
8
0
10
-0.101000
20
-1.293000
0
SEQEND
8
0
0
POLYLINE
8
0
66
1
40
0.008000
41
0.008000
0
VERTEX
8
0
10
-0.001000
20
-0.993000
0
VERTEX
8
0
10
0.098000
20
-0.993000
0
SEQEND
8
0
0
POLYLINE
8
0
66
1
40
0.008000
41
0.008000
0
VERTEX
8
0
10
-0.050000
20
-1.143000
0
VERTEX
8
0
10
0.142000
20
-1.143000
0
VERTEX
8
0
10
0.142000
20
-0.923000
0
VERTEX
8
0
10
-0.050000
20
-0.923000
0
VERTEX
8
0
10
-0.050000
20
-1.143000
0
SEQEND
8
0
0
TEXT
8
12632256
10
-0.026000
20
-0.913000
40
0.048000
41
1.041667
1
RV2
0
POLYLINE
8
0
66
1
40
0.008000
41
0.008000
0
VERTEX
8
0
10
0.757000
20
-1.536000
0
VERTEX
8
0
10
0.757000
20
-1.586000
0
SEQEND
8
0
0
POLYLINE
8
0
66
1
40
0.008000
41
0.008000
0
VERTEX
8
0
10
0.732000
20
-1.786000
0
VERTEX
8
0
10
0.782000
20
-1.786000
0
VERTEX
8
0
10
0.782000
20
-1.586000
0
VERTEX
8
0
10
0.732000
20
-1.586000
0
VERTEX
8
0
10
0.732000
20
-1.786000
0
SEQEND
8
0
0
POLYLINE
8
0
66
1
40
0.008000
41
0.008000
0
VERTEX
8
0
10
0.757000
20
-1.786000
0
VERTEX
8
0
10
0.757000
20
-1.836000
0
SEQEND
8
0
0
TEXT
8
12632256
10
0.840000
20
-1.761000
40
0.048000
41
1.041667
50
90.000000
1
R18
0
CIRCLE
8
12632256
10
-1.583000
20
-1.131000
40
0.200000
0
POLYLINE
8
0
66
1
40
0.008000
41
0.008000
0
VERTEX
8
0
10
-1.708000
20
-1.031000
0
VERTEX
8
0
10
-1.658000
20
-1.031000
0
SEQEND
8
0
0
POLYLINE
8
0
66
1
40
0.008000
41
0.008000
0
VERTEX
8
0
10
-1.683000
20
-1.006000
0
VERTEX
8
0
10
-1.683000
20
-1.056000
0
SEQEND
8
0
0
TEXT
8
12632256
10
-1.658000
20
-0.921000
40
0.048000
41
1.041667
1
C11
0
CIRCLE
8
12632256
10
-0.728000
20
-1.328000
40
0.100000
0
POLYLINE
8
0
66
1
40
0.008000
41
0.008000
0
VERTEX
8
0
10
-0.803000
20
-1.278000
0
VERTEX
8
0
10
-0.753000
20
-1.278000
0
SEQEND
8
0
0
POLYLINE
8
0
66
1
40
0.008000
41
0.008000
0
VERTEX
8
0
10
-0.778000
20
-1.253000
0
VERTEX
8
0
10
-0.778000
20
-1.303000
0
SEQEND
8
0
0
TEXT
8
12632256
10
-0.645000
20
-1.448000
40
0.048000
41
1.041667
1
C12
0
POLYLINE
8
0
66
1
40
0.008000
41
0.008000
0
VERTEX
8
0
10
-1.162000
20
-1.328000
0
VERTEX
8
0
10
-1.159000
20
-1.318000
0
VERTEX
8
0
10
-1.151000
20
-1.308000
0
VERTEX
8
0
10
-1.137000
20
-1.300000
0
VERTEX
8
0
10
-1.119000
20
-1.292000
0
VERTEX
8
0
10
-1.097000
20
-1.286000
0
VERTEX
8
0
10
-1.071000
20
-1.282000
0
VERTEX
8
0
10
-1.043000
20
-1.279000
0
VERTEX
8
0
10
-1.012000
20
-1.278000
0
SEQEND
8
0
0
POLYLINE
8
0
66
1
40
0.008000
41
0.008000
0
VERTEX
8
0
10
-0.862000
20
-1.328000
0
VERTEX
8
0
10
-0.865000
20
-1.318000
0
VERTEX
8
0
10
-0.874000
20
-1.308000
0
VERTEX
8
0
10
-0.888000
20
-1.300000
0
VERTEX
8
0
10
-0.906000
20
-1.292000
0
VERTEX
8
0
10
-0.928000
20
-1.286000
0
VERTEX
8
0
10
-0.953000
20
-1.282000
0
VERTEX
8
0
10
-0.981000
20
-1.279000
0
VERTEX
8
0
10
-1.012000
20
-1.278000
0
SEQEND
8
0
0
POLYLINE
8
0
66
1
40
0.008000
41
0.008000
0
VERTEX
8
0
10
-0.862000
20
-1.328000
0
VERTEX
8
0
10
-0.865000
20
-1.338000
0
VERTEX
8
0
10
-0.874000
20
-1.348000
0
VERTEX
8
0
10
-0.888000
20
-1.356000
0
VERTEX
8
0
10
-0.906000
20
-1.364000
0
VERTEX
8
0
10
-0.928000
20
-1.370000
0
VERTEX
8
0
10
-0.953000
20
-1.374000
0
VERTEX
8
0
10
-0.981000
20
-1.377000
0
VERTEX
8
0
10
-1.012000
20
-1.378000
0
SEQEND
8
0
0
POLYLINE
8
0
66
1
40
0.008000
41
0.008000
0
VERTEX
8
0
10
-1.162000
20
-1.328000
0
VERTEX
8
0
10
-1.159000
20
-1.338000
0
VERTEX
8
0
10
-1.151000
20
-1.348000
0
VERTEX
8
0
10
-1.137000
20
-1.356000
0
VERTEX
8
0
10
-1.119000
20
-1.364000
0
VERTEX
8
0
10
-1.097000
20
-1.370000
0
VERTEX
8
0
10
-1.071000
20
-1.374000
0
VERTEX
8
0
10
-1.043000
20
-1.377000
0
VERTEX
8
0
10
-1.012000
20
-1.378000
0
SEQEND
8
0
0
TEXT
8
12632256
10
-1.087000
20
-1.268000
40
0.048000
41
1.041667
1
C13
0
POLYLINE
8
0
66
1
40
0.008000
41
0.008000
0
VERTEX
8
0
10
-0.316000
20
-0.049000
0
VERTEX
8
0
10
-0.313000
20
-0.039000
0
VERTEX
8
0
10
-0.305000
20
-0.030000
0
VERTEX
8
0
10
-0.291000
20
-0.021000
0
VERTEX
8
0
10
-0.273000
20
-0.014000
0
VERTEX
8
0
10
-0.251000
20
-0.008000
0
VERTEX
8
0
10
-0.225000
20
-0.004000
0
VERTEX
8
0
10
-0.197000
20
-0.001000
0
VERTEX
8
0
10
-0.166000
20
0.000000
0
SEQEND
8
0
0
POLYLINE
8
0
66
1
40
0.008000
41
0.008000
0
VERTEX
8
0
10
-0.016000
20
-0.049000
0
VERTEX
8
0
10
-0.019000
20
-0.039000
0
VERTEX
8
0
10
-0.028000
20
-0.030000
0
VERTEX
8
0
10
-0.042000
20
-0.021000
0
VERTEX
8
0
10
-0.060000
20
-0.014000
0
VERTEX
8
0
10
-0.082000
20
-0.008000
0
VERTEX
8
0
10
-0.107000
20
-0.004000
0
VERTEX
8
0
10
-0.135000
20
-0.001000
0
VERTEX
8
0
10
-0.166000
20
0.000000
0
SEQEND
8
0
0
POLYLINE
8
0
66
1
40
0.008000
41
0.008000
0
VERTEX
8
0
10
-0.016000
20
-0.049000
0
VERTEX
8
0
10
-0.019000
20
-0.059000
0
VERTEX
8
0
10
-0.028000
20
-0.069000
0
VERTEX
8
0
10
-0.042000
20
-0.077000
0
VERTEX
8
0
10
-0.060000
20
-0.084000
0
VERTEX
8
0
10
-0.082000
20
-0.091000
0
VERTEX
8
0
10
-0.107000
20
-0.095000
0
VERTEX
8
0
10
-0.135000
20
-0.098000
0
VERTEX
8
0
10
-0.166000
20
-0.099000
0
SEQEND
8
0
0
POLYLINE
8
0
66
1
40
0.008000
41
0.008000
0
VERTEX
8
0
10
-0.316000
20
-0.049000
0
VERTEX
8
0
10
-0.313000
20
-0.059000
0
VERTEX
8
0
10
-0.305000
20
-0.069000
0
VERTEX
8
0
10
-0.291000
20
-0.077000
0
VERTEX
8
0
10
-0.273000
20
-0.084000
0
VERTEX
8
0
10
-0.251000
20
-0.091000
0
VERTEX
8
0
10
-0.225000
20
-0.095000
0
VERTEX
8
0
10
-0.197000
20
-0.098000
0
VERTEX
8
0
10
-0.166000
20
-0.099000
0
SEQEND
8
0
0
TEXT
8
12632256
10
-0.216000
20
0.010000
40
0.048000
41
1.041667
1
C1
0
POLYLINE
8
0
66
1
40
0.000000
41
0.000000
0
VERTEX
8
0
10
-2.378000
20
1.155000
0
VERTEX
8
0
10
-0.118000
20
1.155000
0
VERTEX
8
0
10
-0.118000
20
1.639000
0
VERTEX
8
0
10
-2.378000
20
1.639000
0
VERTEX
8
0
10
-2.378000
20
1.155000
0
SEQEND
8
0
0
TEXT
8
12632256
10
-1.170000
20
-0.336000
40
0.064000
41
1.250000
1
TECLAS
0
TEXT
8
12632256
10
-1.288000
20
-0.398000
40
0.040000
41
1.250000
1
U
0
TEXT
8
12632256
10
-1.190000
20
-0.398000
40
0.040000
41
1.250000
1
D
0
TEXT
8
12632256
10
-1.072000
20
-0.398000
40
0.040000
41
1.250000
1
R
0
TEXT
8
12632256
10
-0.973000
20
-0.398000
40
0.040000
41
1.250000
1
L
0
TEXT
8
12632256
10
-0.860000
20
-0.403000
40
0.040000
41
1.250000
50
90.000000
1
+
0
TEXT
8
12632256
10
-0.762000
20
-0.403000
40
0.040000
41
1.250000
50
90.000000
1
+
0
TEXT
8
12632256
10
-0.663000
20
-0.403000
40
0.040000
41
1.250000
50
90.000000
1
+
0
TEXT
8
12632256
10
-0.565000
20
-0.403000
40
0.040000
41
1.250000
50
90.000000
1
+
0
TEXT
8
12632256
10
-1.879000
20
-0.336000
40
0.064000
41
1.250000
1
AUX AN
0
TEXT
8
12632256
10
-1.859000
20
-0.398000
40
0.040000
41
1.250000
1
A2
0
TEXT
8
12632256
10
-1.721000
20
-0.398000
40
0.040000
41
1.250000
1
A3
0
TEXT
8
12632256
10
-1.603000
20
-0.398000
40
0.040000
41
1.250000
1
+
0
TEXT
8
12632256
10
-1.505000
20
-0.398000
40
0.040000
41
1.250000
1
-
0
TEXT
8
12632256
10
-2.390000
20
-0.336000
40
0.064000
41
1.250000
1
OPTICO
0
TEXT
8
12632256
10
-2.272000
20
-0.398000
40
0.040000
41
1.250000
1
-
0
TEXT
8
12632256
10
-2.154000
20
-0.398000
40
0.040000
41
1.250000
1
+
0
TEXT
8
12632256
10
-2.056000
20
-0.398000
40
0.040000
41
1.250000
1
OUT
0
TEXT
8
12632256
10
-0.028000
20
-1.343000
40
0.040000
41
1.250000
1
GAIN
0
TEXT
8
12632256
10
-1.977000
20
-1.518000
40
0.056000
41
1.250000
1
VAC
0
TEXT
8
12632256
10
0.384000
20
1.335000
40
0.056000
41
1.250000
1
L1
0
TEXT
8
12632256
10
0.168000
20
1.335000
40
0.056000
41
1.250000
1
L2
0
TEXT
8
12632256
10
0.010000
20
1.335000
40
0.056000
41
1.250000
1
N
0
POLYLINE
8
0
66
1
40
0.008000
41
0.008000
0
VERTEX
8
0
10
1.944000
20
-1.342000
0
VERTEX
8
0
10
1.964000
20
-1.342000
0
VERTEX
8
0
10
1.964000
20
-1.067000
0
VERTEX
8
0
10
1.944000
20
-1.067000
0
VERTEX
8
0
10
1.944000
20
-1.342000
0
SEQEND
8
0
0
POLYLINE
8
0
66
1
40
0.008000
41
0.008000
0
VERTEX
8
0
10
1.944000
20
-0.692000
0
VERTEX
8
0
10
1.964000
20
-0.692000
0
VERTEX
8
0
10
1.964000
20
-0.417000
0
VERTEX
8
0
10
1.944000
20
-0.417000
0
VERTEX
8
0
10
1.944000
20
-0.692000
0
SEQEND
8
0
0
POLYLINE
8
0
66
1
40
0.008000
41
0.008000
0
VERTEX
8
0
10
1.944000
20
-0.023000
0
VERTEX
8
0
10
1.964000
20
-0.023000
0
VERTEX
8
0
10
1.964000
20
0.251000
0
VERTEX
8
0
10
1.944000
20
0.251000
0
VERTEX
8
0
10
1.944000
20
-0.023000
0
SEQEND
8
0
0
POLYLINE
8
0
66
1
40
0.008000
41
0.008000
0
VERTEX
8
0
10
1.944000
20
0.606000
0
VERTEX
8
0
10
1.964000
20
0.606000
0
VERTEX
8
0
10
1.964000
20
0.881000
0
VERTEX
8
0
10
1.944000
20
0.881000
0
VERTEX
8
0
10
1.944000
20
0.606000
0
SEQEND
8
0
0
POLYLINE
8
0
66
1
40
0.008000
41
0.008000
0
VERTEX
8
0
10
1.944000
20
1.196000
0
VERTEX
8
0
10
1.964000
20
1.196000
0
VERTEX
8
0
10
1.964000
20
1.471000
0
VERTEX
8
0
10
1.944000
20
1.471000
0
VERTEX
8
0
10
1.944000
20
1.196000
0
SEQEND
8
0
0
POLYLINE
8
0
66
1
40
0.008000
41
0.008000
0
VERTEX
8
0
10
0.107000
20
0.561000
0
VERTEX
8
0
10
0.916000
20
0.561000
0
VERTEX
8
0
10
0.916000
20
1.053000
0
VERTEX
8
0
10
0.107000
20
1.053000
0
VERTEX
8
0
10
0.107000
20
0.561000
0
SEQEND
8
0
0
TEXT
8
12632256
10
0.266000
20
0.944000
40
0.072000
41
1.250000
1
Cabina
0
TEXT
8
12632256
10
0.286000
20
0.865000
40
0.072000
41
1.250000
1
Flujo
0
TEXT
8
12632256
10
0.207000
20
0.766000
40
0.072000
41
1.250000
1
Laminar
0
TEXT
8
12632256
10
-2.262000
20
0.187000
40
0.072000
41
1.250000
50
90.000000
1
JDPE
0
POLYLINE
8
0
66
1
40
0.008000
41
0.008000
0
VERTEX
8
0
10
-0.742000
20
-1.117000
0
VERTEX
8
0
10
-0.722000
20
-1.117000
0
VERTEX
8
0
10
-0.722000
20
-0.842000
0
VERTEX
8
0
10
-0.742000
20
-0.842000
0
VERTEX
8
0
10
-0.742000
20
-1.117000
0
SEQEND
8
0
0
TEXT
8
12632256
10
2.057000
20
1.538000
40
0.056000
41
1.250000
50
90.000000
1
L2
0
TEXT
8
12632256
10
2.057000
20
0.948000
40
0.056000
41
1.250000
50
90.000000
1
L2
0
TEXT
8
12632256
10
2.057000
20
0.337000
40
0.056000
41
1.250000
50
90.000000
1
L2
0
TEXT
8
12632256
10
2.057000
20
-0.311000
40
0.056000
41
1.250000
50
90.000000
1
L2
0
TEXT
8
12632256
10
2.057000
20
-0.941000
40
0.056000
41
1.250000
50
90.000000
1
L2
0
TEXT
8
12632256
10
2.057000
20
-1.532000
40
0.056000
41
1.250000
50
90.000000
1
L2
0
TEXT
8
12632256
10
2.057000
20
1.420000
40
0.056000
41
1.250000
50
90.000000
1
N
0
TEXT
8
12632256
10
2.057000
20
0.810000
40
0.056000
41
1.250000
50
90.000000
1
N
0
TEXT
8
12632256
10
2.057000
20
0.180000
40
0.056000
41
1.250000
50
90.000000
1
N
0
TEXT
8
12632256
10
2.057000
20
-0.449000
40
0.056000
41
1.250000
50
90.000000
1
N
0
TEXT
8
12632256
10
2.057000
20
-1.079000
40
0.056000
41
1.250000
50
90.000000
1
N
0
TEXT
8
12632256
10
2.057000
20
-1.689000
40
0.056000
41
1.250000
50
90.000000
1
N
0
TEXT
8
12632256
10
1.467000
20
-1.709000
40
0.056000
41
1.250000
50
90.000000
1
UV
0
TEXT
8
12632256
10
1.467000
20
-1.158000
40
0.056000
41
1.250000
50
90.000000
1
LUZ
0
TEXT
8
12632256
10
1.486000
20
-0.508000
40
0.056000
41
1.250000
50
90.000000
1
MV1
0
TEXT
8
12632256
10
1.486000
20
0.160000
40
0.056000
41
1.250000
50
90.000000
1
MV2
0
TEXT
8
12632256
10
1.526000
20
0.770000
40
0.056000
41
1.250000
50
90.000000
1
MV3
0
TEXT
8
12632256
10
1.506000
20
1.400000
40
0.056000
41
1.250000
50
90.000000
1
MV4
0
TEXT
8
12632256
10
2.050000
20
1.210000
40
0.056000
41
1.250000
50
90.000000
1
O6
0
TEXT
8
12632256
10
2.050000
20
0.620000
40
0.056000
41
1.250000
50
90.000000
1
O5
0
TEXT
8
12632256
10
2.070000
20
-0.009000
40
0.056000
41
1.250000
50
90.000000
1
O4
0
TEXT
8
12632256
10
2.070000
20
-0.661000
40
0.056000
41
1.250000
50
90.000000
1
O3
0
TEXT
8
12632256
10
2.050000
20
-1.309000
40
0.056000
41
1.250000
50
90.000000
1
O2
0
TEXT
8
12632256
10
2.195000
20
-2.050000
40
0.056000
41
1.250000
1
O1
0
POLYLINE
8
0
66
1
40
0.008000
41
0.008000
0
VERTEX
8
0
10
-0.993000
20
0.301000
0
VERTEX
8
0
10
-1.031000
20
0.301000
0
SEQEND
8
0
0
POLYLINE
8
0
66
1
40
0.008000
41
0.008000
0
VERTEX
8
0
10
-0.993000
20
0.190000
0
VERTEX
8
0
10
-1.032000
20
0.190000
0
SEQEND
8
0
0
POLYLINE
8
0
66
1
40
0.008000
41
0.008000
0
VERTEX
8
0
10
-1.073000
20
0.316000
0
VERTEX
8
0
10
-1.073000
20
0.336000
0
SEQEND
8
0
0
POLYLINE
8
0
66
1
40
0.008000
41
0.008000
0
VERTEX
8
0
10
-1.063000
20
0.326000
0
VERTEX
8
0
10
-1.083000
20
0.326000
0
SEQEND
8
0
0
POLYLINE
8
0
66
1
40
0.008000
41
0.008000
0
VERTEX
8
0
10
-0.619000
20
0.753000
0
VERTEX
8
0
10
-0.657000
20
0.753000
0
SEQEND
8
0
0
POLYLINE
8
0
66
1
40
0.008000
41
0.008000
0
VERTEX
8
0
10
-0.619000
20
0.642000
0
VERTEX
8
0
10
-0.658000
20
0.642000
0
SEQEND
8
0
0
POLYLINE
8
0
66
1
40
0.008000
41
0.008000
0
VERTEX
8
0
10
-0.699000
20
0.768000
0
VERTEX
8
0
10
-0.699000
20
0.788000
0
SEQEND
8
0
0
POLYLINE
8
0
66
1
40
0.008000
41
0.008000
0
VERTEX
8
0
10
-0.689000
20
0.778000
0
VERTEX
8
0
10
-0.709000
20
0.778000
0
SEQEND
8
0
0
POLYLINE
8
0
66
1
40
0.008000
41
0.008000
0
VERTEX
8
0
10
-0.856000
20
-0.072000
0
VERTEX
8
0
10
-0.894000
20
-0.072000
0
SEQEND
8
0
0
POLYLINE
8
0
66
1
40
0.008000
41
0.008000
0
VERTEX
8
0
10
-0.856000
20
-0.183000
0
VERTEX
8
0
10
-0.895000
20
-0.183000
0
SEQEND
8
0
0
POLYLINE
8
0
66
1
40
0.008000
41
0.008000
0
VERTEX
8
0
10
-0.936000
20
-0.057000
0
VERTEX
8
0
10
-0.936000
20
-0.037000
0
SEQEND
8
0
0
POLYLINE
8
0
66
1
40
0.008000
41
0.008000
0
VERTEX
8
0
10
-0.926000
20
-0.047000
0
VERTEX
8
0
10
-0.946000
20
-0.047000
0
SEQEND
8
0
0
POLYLINE
8
0
66
1
40
0.008000
41
0.008000
0
VERTEX
8
0
10
-0.284000
20
-1.698000
0
VERTEX
8
0
10
-0.246000
20
-1.698000
0
SEQEND
8
0
0
POLYLINE
8
0
66
1
40
0.008000
41
0.008000
0
VERTEX
8
0
10
-0.284000
20
-1.587000
0
VERTEX
8
0
10
-0.245000
20
-1.587000
0
SEQEND
8
0
0
POLYLINE
8
0
66
1
40
0.008000
41
0.008000
0
VERTEX
8
0
10
-0.204000
20
-1.713000
0
VERTEX
8
0
10
-0.204000
20
-1.733000
0
SEQEND
8
0
0
POLYLINE
8
0
66
1
40
0.008000
41
0.008000
0
VERTEX
8
0
10
-0.214000
20
-1.723000
0
VERTEX
8
0
10
-0.194000
20
-1.723000
0
SEQEND
8
0
0
POLYLINE
8
0
66
1
40
0.008000
41
0.008000
0
VERTEX
8
0
10
-0.303000
20
-1.226000
0
VERTEX
8
0
10
-0.265000
20
-1.226000
0
SEQEND
8
0
0
POLYLINE
8
0
66
1
40
0.008000
41
0.008000
0
VERTEX
8
0
10
-0.303000
20
-1.115000
0
VERTEX
8
0
10
-0.264000
20
-1.115000
0
SEQEND
8
0
0
POLYLINE
8
0
66
1
40
0.008000
41
0.008000
0
VERTEX
8
0
10
-0.223000
20
-1.241000
0
VERTEX
8
0
10
-0.223000
20
-1.261000
0
SEQEND
8
0
0
POLYLINE
8
0
66
1
40
0.008000
41
0.008000
0
VERTEX
8
0
10
-0.233000
20
-1.251000
0
VERTEX
8
0
10
-0.213000
20
-1.251000
0
SEQEND
8
0
0
TEXT
8
12632256
10
0.305000
20
0.629000
40
0.072000
41
1.250000
1
2015
0
ENDSEC
0
EOF

